M48
; DRILL file {KiCad 5.1.6+dfsg1-1} date Sat Jun 20 09:26:58 2020
; FORMAT={-:-/ absolute / inch / decimal}
; #@! TF.CreationDate,2020-06-20T09:26:58-04:00
; #@! TF.GenerationSoftware,Kicad,Pcbnew,5.1.6+dfsg1-1
; #@! TF.FileFunction,Plated,1,2,PTH
FMAT,2
INCH
T1C0.0120
T2C0.0236
T3C0.0240
T4C0.0335
T5C0.0394
T6C0.0630
%
G90
G05
T1
X4.63Y-4.2975
X4.64Y-4.05
X4.64Y-4.45
X4.81Y-4.05
X4.83Y-4.45
X5.555Y-4.48
X5.93Y-4.0516
X6.4962Y-4.3012
T3
X6.395Y-4.365
T4
X6.5864Y-4.1516
X6.5864Y-4.3484
T5
X4.45Y-4.55
X4.55Y-4.55
X6.45Y-4.55
X6.55Y-4.55
X6.45Y-3.95
X6.55Y-3.95
X4.45Y-3.95
X4.55Y-3.95
T6
X4.752Y-4.25
X6.248Y-4.25
T2
G00X6.6789Y-4.1122
M15
G01X6.7065Y-4.1122
M16
G05
G00X6.7065Y-4.3878
M15
G01X6.6789Y-4.3878
M16
G05
T0
M30
