G04 #@! TF.GenerationSoftware,KiCad,Pcbnew,5.0.1+dfsg1-3*
G04 #@! TF.CreationDate,2018-11-05T21:22:00-05:00*
G04 #@! TF.ProjectId,BreadBatt,4272656164426174742E6B696361645F,rev?*
G04 #@! TF.SameCoordinates,Original*
G04 #@! TF.FileFunction,Paste,Bot*
G04 #@! TF.FilePolarity,Positive*
%FSLAX46Y46*%
G04 Gerber Fmt 4.6, Leading zero omitted, Abs format (unit mm)*
G04 Created by KiCad (PCBNEW 5.0.1+dfsg1-3) date Mon 05 Nov 2018 09:22:00 PM EST*
%MOMM*%
%LPD*%
G01*
G04 APERTURE LIST*
%ADD10C,0.100000*%
%ADD11C,0.875000*%
%ADD12C,0.590000*%
%ADD13R,2.000000X3.800000*%
%ADD14R,2.000000X1.500000*%
%ADD15R,0.650000X1.220000*%
%ADD16R,0.750000X0.350000*%
%ADD17R,1.000000X1.000000*%
G04 APERTURE END LIST*
D10*
G04 #@! TO.C,C1*
G36*
X139635191Y-111610053D02*
X139656426Y-111613203D01*
X139677250Y-111618419D01*
X139697462Y-111625651D01*
X139716868Y-111634830D01*
X139735281Y-111645866D01*
X139752524Y-111658654D01*
X139768430Y-111673070D01*
X139782846Y-111688976D01*
X139795634Y-111706219D01*
X139806670Y-111724632D01*
X139815849Y-111744038D01*
X139823081Y-111764250D01*
X139828297Y-111785074D01*
X139831447Y-111806309D01*
X139832500Y-111827750D01*
X139832500Y-112340250D01*
X139831447Y-112361691D01*
X139828297Y-112382926D01*
X139823081Y-112403750D01*
X139815849Y-112423962D01*
X139806670Y-112443368D01*
X139795634Y-112461781D01*
X139782846Y-112479024D01*
X139768430Y-112494930D01*
X139752524Y-112509346D01*
X139735281Y-112522134D01*
X139716868Y-112533170D01*
X139697462Y-112542349D01*
X139677250Y-112549581D01*
X139656426Y-112554797D01*
X139635191Y-112557947D01*
X139613750Y-112559000D01*
X139176250Y-112559000D01*
X139154809Y-112557947D01*
X139133574Y-112554797D01*
X139112750Y-112549581D01*
X139092538Y-112542349D01*
X139073132Y-112533170D01*
X139054719Y-112522134D01*
X139037476Y-112509346D01*
X139021570Y-112494930D01*
X139007154Y-112479024D01*
X138994366Y-112461781D01*
X138983330Y-112443368D01*
X138974151Y-112423962D01*
X138966919Y-112403750D01*
X138961703Y-112382926D01*
X138958553Y-112361691D01*
X138957500Y-112340250D01*
X138957500Y-111827750D01*
X138958553Y-111806309D01*
X138961703Y-111785074D01*
X138966919Y-111764250D01*
X138974151Y-111744038D01*
X138983330Y-111724632D01*
X138994366Y-111706219D01*
X139007154Y-111688976D01*
X139021570Y-111673070D01*
X139037476Y-111658654D01*
X139054719Y-111645866D01*
X139073132Y-111634830D01*
X139092538Y-111625651D01*
X139112750Y-111618419D01*
X139133574Y-111613203D01*
X139154809Y-111610053D01*
X139176250Y-111609000D01*
X139613750Y-111609000D01*
X139635191Y-111610053D01*
X139635191Y-111610053D01*
G37*
D11*
X139395000Y-112084000D03*
D10*
G36*
X141210191Y-111610053D02*
X141231426Y-111613203D01*
X141252250Y-111618419D01*
X141272462Y-111625651D01*
X141291868Y-111634830D01*
X141310281Y-111645866D01*
X141327524Y-111658654D01*
X141343430Y-111673070D01*
X141357846Y-111688976D01*
X141370634Y-111706219D01*
X141381670Y-111724632D01*
X141390849Y-111744038D01*
X141398081Y-111764250D01*
X141403297Y-111785074D01*
X141406447Y-111806309D01*
X141407500Y-111827750D01*
X141407500Y-112340250D01*
X141406447Y-112361691D01*
X141403297Y-112382926D01*
X141398081Y-112403750D01*
X141390849Y-112423962D01*
X141381670Y-112443368D01*
X141370634Y-112461781D01*
X141357846Y-112479024D01*
X141343430Y-112494930D01*
X141327524Y-112509346D01*
X141310281Y-112522134D01*
X141291868Y-112533170D01*
X141272462Y-112542349D01*
X141252250Y-112549581D01*
X141231426Y-112554797D01*
X141210191Y-112557947D01*
X141188750Y-112559000D01*
X140751250Y-112559000D01*
X140729809Y-112557947D01*
X140708574Y-112554797D01*
X140687750Y-112549581D01*
X140667538Y-112542349D01*
X140648132Y-112533170D01*
X140629719Y-112522134D01*
X140612476Y-112509346D01*
X140596570Y-112494930D01*
X140582154Y-112479024D01*
X140569366Y-112461781D01*
X140558330Y-112443368D01*
X140549151Y-112423962D01*
X140541919Y-112403750D01*
X140536703Y-112382926D01*
X140533553Y-112361691D01*
X140532500Y-112340250D01*
X140532500Y-111827750D01*
X140533553Y-111806309D01*
X140536703Y-111785074D01*
X140541919Y-111764250D01*
X140549151Y-111744038D01*
X140558330Y-111724632D01*
X140569366Y-111706219D01*
X140582154Y-111688976D01*
X140596570Y-111673070D01*
X140612476Y-111658654D01*
X140629719Y-111645866D01*
X140648132Y-111634830D01*
X140667538Y-111625651D01*
X140687750Y-111618419D01*
X140708574Y-111613203D01*
X140729809Y-111610053D01*
X140751250Y-111609000D01*
X141188750Y-111609000D01*
X141210191Y-111610053D01*
X141210191Y-111610053D01*
G37*
D11*
X140970000Y-112084000D03*
G04 #@! TD*
D10*
G04 #@! TO.C,C2*
G36*
X146109958Y-100965710D02*
X146124276Y-100967834D01*
X146138317Y-100971351D01*
X146151946Y-100976228D01*
X146165031Y-100982417D01*
X146177447Y-100989858D01*
X146189073Y-100998481D01*
X146199798Y-101008202D01*
X146209519Y-101018927D01*
X146218142Y-101030553D01*
X146225583Y-101042969D01*
X146231772Y-101056054D01*
X146236649Y-101069683D01*
X146240166Y-101083724D01*
X146242290Y-101098042D01*
X146243000Y-101112500D01*
X146243000Y-101407500D01*
X146242290Y-101421958D01*
X146240166Y-101436276D01*
X146236649Y-101450317D01*
X146231772Y-101463946D01*
X146225583Y-101477031D01*
X146218142Y-101489447D01*
X146209519Y-101501073D01*
X146199798Y-101511798D01*
X146189073Y-101521519D01*
X146177447Y-101530142D01*
X146165031Y-101537583D01*
X146151946Y-101543772D01*
X146138317Y-101548649D01*
X146124276Y-101552166D01*
X146109958Y-101554290D01*
X146095500Y-101555000D01*
X145750500Y-101555000D01*
X145736042Y-101554290D01*
X145721724Y-101552166D01*
X145707683Y-101548649D01*
X145694054Y-101543772D01*
X145680969Y-101537583D01*
X145668553Y-101530142D01*
X145656927Y-101521519D01*
X145646202Y-101511798D01*
X145636481Y-101501073D01*
X145627858Y-101489447D01*
X145620417Y-101477031D01*
X145614228Y-101463946D01*
X145609351Y-101450317D01*
X145605834Y-101436276D01*
X145603710Y-101421958D01*
X145603000Y-101407500D01*
X145603000Y-101112500D01*
X145603710Y-101098042D01*
X145605834Y-101083724D01*
X145609351Y-101069683D01*
X145614228Y-101056054D01*
X145620417Y-101042969D01*
X145627858Y-101030553D01*
X145636481Y-101018927D01*
X145646202Y-101008202D01*
X145656927Y-100998481D01*
X145668553Y-100989858D01*
X145680969Y-100982417D01*
X145694054Y-100976228D01*
X145707683Y-100971351D01*
X145721724Y-100967834D01*
X145736042Y-100965710D01*
X145750500Y-100965000D01*
X146095500Y-100965000D01*
X146109958Y-100965710D01*
X146109958Y-100965710D01*
G37*
D12*
X145923000Y-101260000D03*
D10*
G36*
X146109958Y-99995710D02*
X146124276Y-99997834D01*
X146138317Y-100001351D01*
X146151946Y-100006228D01*
X146165031Y-100012417D01*
X146177447Y-100019858D01*
X146189073Y-100028481D01*
X146199798Y-100038202D01*
X146209519Y-100048927D01*
X146218142Y-100060553D01*
X146225583Y-100072969D01*
X146231772Y-100086054D01*
X146236649Y-100099683D01*
X146240166Y-100113724D01*
X146242290Y-100128042D01*
X146243000Y-100142500D01*
X146243000Y-100437500D01*
X146242290Y-100451958D01*
X146240166Y-100466276D01*
X146236649Y-100480317D01*
X146231772Y-100493946D01*
X146225583Y-100507031D01*
X146218142Y-100519447D01*
X146209519Y-100531073D01*
X146199798Y-100541798D01*
X146189073Y-100551519D01*
X146177447Y-100560142D01*
X146165031Y-100567583D01*
X146151946Y-100573772D01*
X146138317Y-100578649D01*
X146124276Y-100582166D01*
X146109958Y-100584290D01*
X146095500Y-100585000D01*
X145750500Y-100585000D01*
X145736042Y-100584290D01*
X145721724Y-100582166D01*
X145707683Y-100578649D01*
X145694054Y-100573772D01*
X145680969Y-100567583D01*
X145668553Y-100560142D01*
X145656927Y-100551519D01*
X145646202Y-100541798D01*
X145636481Y-100531073D01*
X145627858Y-100519447D01*
X145620417Y-100507031D01*
X145614228Y-100493946D01*
X145609351Y-100480317D01*
X145605834Y-100466276D01*
X145603710Y-100451958D01*
X145603000Y-100437500D01*
X145603000Y-100142500D01*
X145603710Y-100128042D01*
X145605834Y-100113724D01*
X145609351Y-100099683D01*
X145614228Y-100086054D01*
X145620417Y-100072969D01*
X145627858Y-100060553D01*
X145636481Y-100048927D01*
X145646202Y-100038202D01*
X145656927Y-100028481D01*
X145668553Y-100019858D01*
X145680969Y-100012417D01*
X145694054Y-100006228D01*
X145707683Y-100001351D01*
X145721724Y-99997834D01*
X145736042Y-99995710D01*
X145750500Y-99995000D01*
X146095500Y-99995000D01*
X146109958Y-99995710D01*
X146109958Y-99995710D01*
G37*
D12*
X145923000Y-100290000D03*
G04 #@! TD*
D10*
G04 #@! TO.C,C3*
G36*
X149721958Y-113364710D02*
X149736276Y-113366834D01*
X149750317Y-113370351D01*
X149763946Y-113375228D01*
X149777031Y-113381417D01*
X149789447Y-113388858D01*
X149801073Y-113397481D01*
X149811798Y-113407202D01*
X149821519Y-113417927D01*
X149830142Y-113429553D01*
X149837583Y-113441969D01*
X149843772Y-113455054D01*
X149848649Y-113468683D01*
X149852166Y-113482724D01*
X149854290Y-113497042D01*
X149855000Y-113511500D01*
X149855000Y-113856500D01*
X149854290Y-113870958D01*
X149852166Y-113885276D01*
X149848649Y-113899317D01*
X149843772Y-113912946D01*
X149837583Y-113926031D01*
X149830142Y-113938447D01*
X149821519Y-113950073D01*
X149811798Y-113960798D01*
X149801073Y-113970519D01*
X149789447Y-113979142D01*
X149777031Y-113986583D01*
X149763946Y-113992772D01*
X149750317Y-113997649D01*
X149736276Y-114001166D01*
X149721958Y-114003290D01*
X149707500Y-114004000D01*
X149412500Y-114004000D01*
X149398042Y-114003290D01*
X149383724Y-114001166D01*
X149369683Y-113997649D01*
X149356054Y-113992772D01*
X149342969Y-113986583D01*
X149330553Y-113979142D01*
X149318927Y-113970519D01*
X149308202Y-113960798D01*
X149298481Y-113950073D01*
X149289858Y-113938447D01*
X149282417Y-113926031D01*
X149276228Y-113912946D01*
X149271351Y-113899317D01*
X149267834Y-113885276D01*
X149265710Y-113870958D01*
X149265000Y-113856500D01*
X149265000Y-113511500D01*
X149265710Y-113497042D01*
X149267834Y-113482724D01*
X149271351Y-113468683D01*
X149276228Y-113455054D01*
X149282417Y-113441969D01*
X149289858Y-113429553D01*
X149298481Y-113417927D01*
X149308202Y-113407202D01*
X149318927Y-113397481D01*
X149330553Y-113388858D01*
X149342969Y-113381417D01*
X149356054Y-113375228D01*
X149369683Y-113370351D01*
X149383724Y-113366834D01*
X149398042Y-113364710D01*
X149412500Y-113364000D01*
X149707500Y-113364000D01*
X149721958Y-113364710D01*
X149721958Y-113364710D01*
G37*
D12*
X149560000Y-113684000D03*
D10*
G36*
X148751958Y-113364710D02*
X148766276Y-113366834D01*
X148780317Y-113370351D01*
X148793946Y-113375228D01*
X148807031Y-113381417D01*
X148819447Y-113388858D01*
X148831073Y-113397481D01*
X148841798Y-113407202D01*
X148851519Y-113417927D01*
X148860142Y-113429553D01*
X148867583Y-113441969D01*
X148873772Y-113455054D01*
X148878649Y-113468683D01*
X148882166Y-113482724D01*
X148884290Y-113497042D01*
X148885000Y-113511500D01*
X148885000Y-113856500D01*
X148884290Y-113870958D01*
X148882166Y-113885276D01*
X148878649Y-113899317D01*
X148873772Y-113912946D01*
X148867583Y-113926031D01*
X148860142Y-113938447D01*
X148851519Y-113950073D01*
X148841798Y-113960798D01*
X148831073Y-113970519D01*
X148819447Y-113979142D01*
X148807031Y-113986583D01*
X148793946Y-113992772D01*
X148780317Y-113997649D01*
X148766276Y-114001166D01*
X148751958Y-114003290D01*
X148737500Y-114004000D01*
X148442500Y-114004000D01*
X148428042Y-114003290D01*
X148413724Y-114001166D01*
X148399683Y-113997649D01*
X148386054Y-113992772D01*
X148372969Y-113986583D01*
X148360553Y-113979142D01*
X148348927Y-113970519D01*
X148338202Y-113960798D01*
X148328481Y-113950073D01*
X148319858Y-113938447D01*
X148312417Y-113926031D01*
X148306228Y-113912946D01*
X148301351Y-113899317D01*
X148297834Y-113885276D01*
X148295710Y-113870958D01*
X148295000Y-113856500D01*
X148295000Y-113511500D01*
X148295710Y-113497042D01*
X148297834Y-113482724D01*
X148301351Y-113468683D01*
X148306228Y-113455054D01*
X148312417Y-113441969D01*
X148319858Y-113429553D01*
X148328481Y-113417927D01*
X148338202Y-113407202D01*
X148348927Y-113397481D01*
X148360553Y-113388858D01*
X148372969Y-113381417D01*
X148386054Y-113375228D01*
X148399683Y-113370351D01*
X148413724Y-113366834D01*
X148428042Y-113364710D01*
X148442500Y-113364000D01*
X148737500Y-113364000D01*
X148751958Y-113364710D01*
X148751958Y-113364710D01*
G37*
D12*
X148590000Y-113684000D03*
G04 #@! TD*
D10*
G04 #@! TO.C,C4*
G36*
X150405191Y-111610053D02*
X150426426Y-111613203D01*
X150447250Y-111618419D01*
X150467462Y-111625651D01*
X150486868Y-111634830D01*
X150505281Y-111645866D01*
X150522524Y-111658654D01*
X150538430Y-111673070D01*
X150552846Y-111688976D01*
X150565634Y-111706219D01*
X150576670Y-111724632D01*
X150585849Y-111744038D01*
X150593081Y-111764250D01*
X150598297Y-111785074D01*
X150601447Y-111806309D01*
X150602500Y-111827750D01*
X150602500Y-112340250D01*
X150601447Y-112361691D01*
X150598297Y-112382926D01*
X150593081Y-112403750D01*
X150585849Y-112423962D01*
X150576670Y-112443368D01*
X150565634Y-112461781D01*
X150552846Y-112479024D01*
X150538430Y-112494930D01*
X150522524Y-112509346D01*
X150505281Y-112522134D01*
X150486868Y-112533170D01*
X150467462Y-112542349D01*
X150447250Y-112549581D01*
X150426426Y-112554797D01*
X150405191Y-112557947D01*
X150383750Y-112559000D01*
X149946250Y-112559000D01*
X149924809Y-112557947D01*
X149903574Y-112554797D01*
X149882750Y-112549581D01*
X149862538Y-112542349D01*
X149843132Y-112533170D01*
X149824719Y-112522134D01*
X149807476Y-112509346D01*
X149791570Y-112494930D01*
X149777154Y-112479024D01*
X149764366Y-112461781D01*
X149753330Y-112443368D01*
X149744151Y-112423962D01*
X149736919Y-112403750D01*
X149731703Y-112382926D01*
X149728553Y-112361691D01*
X149727500Y-112340250D01*
X149727500Y-111827750D01*
X149728553Y-111806309D01*
X149731703Y-111785074D01*
X149736919Y-111764250D01*
X149744151Y-111744038D01*
X149753330Y-111724632D01*
X149764366Y-111706219D01*
X149777154Y-111688976D01*
X149791570Y-111673070D01*
X149807476Y-111658654D01*
X149824719Y-111645866D01*
X149843132Y-111634830D01*
X149862538Y-111625651D01*
X149882750Y-111618419D01*
X149903574Y-111613203D01*
X149924809Y-111610053D01*
X149946250Y-111609000D01*
X150383750Y-111609000D01*
X150405191Y-111610053D01*
X150405191Y-111610053D01*
G37*
D11*
X150165000Y-112084000D03*
D10*
G36*
X148830191Y-111610053D02*
X148851426Y-111613203D01*
X148872250Y-111618419D01*
X148892462Y-111625651D01*
X148911868Y-111634830D01*
X148930281Y-111645866D01*
X148947524Y-111658654D01*
X148963430Y-111673070D01*
X148977846Y-111688976D01*
X148990634Y-111706219D01*
X149001670Y-111724632D01*
X149010849Y-111744038D01*
X149018081Y-111764250D01*
X149023297Y-111785074D01*
X149026447Y-111806309D01*
X149027500Y-111827750D01*
X149027500Y-112340250D01*
X149026447Y-112361691D01*
X149023297Y-112382926D01*
X149018081Y-112403750D01*
X149010849Y-112423962D01*
X149001670Y-112443368D01*
X148990634Y-112461781D01*
X148977846Y-112479024D01*
X148963430Y-112494930D01*
X148947524Y-112509346D01*
X148930281Y-112522134D01*
X148911868Y-112533170D01*
X148892462Y-112542349D01*
X148872250Y-112549581D01*
X148851426Y-112554797D01*
X148830191Y-112557947D01*
X148808750Y-112559000D01*
X148371250Y-112559000D01*
X148349809Y-112557947D01*
X148328574Y-112554797D01*
X148307750Y-112549581D01*
X148287538Y-112542349D01*
X148268132Y-112533170D01*
X148249719Y-112522134D01*
X148232476Y-112509346D01*
X148216570Y-112494930D01*
X148202154Y-112479024D01*
X148189366Y-112461781D01*
X148178330Y-112443368D01*
X148169151Y-112423962D01*
X148161919Y-112403750D01*
X148156703Y-112382926D01*
X148153553Y-112361691D01*
X148152500Y-112340250D01*
X148152500Y-111827750D01*
X148153553Y-111806309D01*
X148156703Y-111785074D01*
X148161919Y-111764250D01*
X148169151Y-111744038D01*
X148178330Y-111724632D01*
X148189366Y-111706219D01*
X148202154Y-111688976D01*
X148216570Y-111673070D01*
X148232476Y-111658654D01*
X148249719Y-111645866D01*
X148268132Y-111634830D01*
X148287538Y-111625651D01*
X148307750Y-111618419D01*
X148328574Y-111613203D01*
X148349809Y-111610053D01*
X148371250Y-111609000D01*
X148808750Y-111609000D01*
X148830191Y-111610053D01*
X148830191Y-111610053D01*
G37*
D11*
X148590000Y-112084000D03*
G04 #@! TD*
D13*
G04 #@! TO.C,D2*
X154330000Y-101600000D03*
D14*
X160630000Y-101600000D03*
X160630000Y-103900000D03*
X160630000Y-99300000D03*
G04 #@! TD*
D10*
G04 #@! TO.C,R1*
G36*
X141131958Y-113364710D02*
X141146276Y-113366834D01*
X141160317Y-113370351D01*
X141173946Y-113375228D01*
X141187031Y-113381417D01*
X141199447Y-113388858D01*
X141211073Y-113397481D01*
X141221798Y-113407202D01*
X141231519Y-113417927D01*
X141240142Y-113429553D01*
X141247583Y-113441969D01*
X141253772Y-113455054D01*
X141258649Y-113468683D01*
X141262166Y-113482724D01*
X141264290Y-113497042D01*
X141265000Y-113511500D01*
X141265000Y-113856500D01*
X141264290Y-113870958D01*
X141262166Y-113885276D01*
X141258649Y-113899317D01*
X141253772Y-113912946D01*
X141247583Y-113926031D01*
X141240142Y-113938447D01*
X141231519Y-113950073D01*
X141221798Y-113960798D01*
X141211073Y-113970519D01*
X141199447Y-113979142D01*
X141187031Y-113986583D01*
X141173946Y-113992772D01*
X141160317Y-113997649D01*
X141146276Y-114001166D01*
X141131958Y-114003290D01*
X141117500Y-114004000D01*
X140822500Y-114004000D01*
X140808042Y-114003290D01*
X140793724Y-114001166D01*
X140779683Y-113997649D01*
X140766054Y-113992772D01*
X140752969Y-113986583D01*
X140740553Y-113979142D01*
X140728927Y-113970519D01*
X140718202Y-113960798D01*
X140708481Y-113950073D01*
X140699858Y-113938447D01*
X140692417Y-113926031D01*
X140686228Y-113912946D01*
X140681351Y-113899317D01*
X140677834Y-113885276D01*
X140675710Y-113870958D01*
X140675000Y-113856500D01*
X140675000Y-113511500D01*
X140675710Y-113497042D01*
X140677834Y-113482724D01*
X140681351Y-113468683D01*
X140686228Y-113455054D01*
X140692417Y-113441969D01*
X140699858Y-113429553D01*
X140708481Y-113417927D01*
X140718202Y-113407202D01*
X140728927Y-113397481D01*
X140740553Y-113388858D01*
X140752969Y-113381417D01*
X140766054Y-113375228D01*
X140779683Y-113370351D01*
X140793724Y-113366834D01*
X140808042Y-113364710D01*
X140822500Y-113364000D01*
X141117500Y-113364000D01*
X141131958Y-113364710D01*
X141131958Y-113364710D01*
G37*
D12*
X140970000Y-113684000D03*
D10*
G36*
X140161958Y-113364710D02*
X140176276Y-113366834D01*
X140190317Y-113370351D01*
X140203946Y-113375228D01*
X140217031Y-113381417D01*
X140229447Y-113388858D01*
X140241073Y-113397481D01*
X140251798Y-113407202D01*
X140261519Y-113417927D01*
X140270142Y-113429553D01*
X140277583Y-113441969D01*
X140283772Y-113455054D01*
X140288649Y-113468683D01*
X140292166Y-113482724D01*
X140294290Y-113497042D01*
X140295000Y-113511500D01*
X140295000Y-113856500D01*
X140294290Y-113870958D01*
X140292166Y-113885276D01*
X140288649Y-113899317D01*
X140283772Y-113912946D01*
X140277583Y-113926031D01*
X140270142Y-113938447D01*
X140261519Y-113950073D01*
X140251798Y-113960798D01*
X140241073Y-113970519D01*
X140229447Y-113979142D01*
X140217031Y-113986583D01*
X140203946Y-113992772D01*
X140190317Y-113997649D01*
X140176276Y-114001166D01*
X140161958Y-114003290D01*
X140147500Y-114004000D01*
X139852500Y-114004000D01*
X139838042Y-114003290D01*
X139823724Y-114001166D01*
X139809683Y-113997649D01*
X139796054Y-113992772D01*
X139782969Y-113986583D01*
X139770553Y-113979142D01*
X139758927Y-113970519D01*
X139748202Y-113960798D01*
X139738481Y-113950073D01*
X139729858Y-113938447D01*
X139722417Y-113926031D01*
X139716228Y-113912946D01*
X139711351Y-113899317D01*
X139707834Y-113885276D01*
X139705710Y-113870958D01*
X139705000Y-113856500D01*
X139705000Y-113511500D01*
X139705710Y-113497042D01*
X139707834Y-113482724D01*
X139711351Y-113468683D01*
X139716228Y-113455054D01*
X139722417Y-113441969D01*
X139729858Y-113429553D01*
X139738481Y-113417927D01*
X139748202Y-113407202D01*
X139758927Y-113397481D01*
X139770553Y-113388858D01*
X139782969Y-113381417D01*
X139796054Y-113375228D01*
X139809683Y-113370351D01*
X139823724Y-113366834D01*
X139838042Y-113364710D01*
X139852500Y-113364000D01*
X140147500Y-113364000D01*
X140161958Y-113364710D01*
X140161958Y-113364710D01*
G37*
D12*
X140000000Y-113684000D03*
G04 #@! TD*
D10*
G04 #@! TO.C,R2*
G36*
X121296958Y-112710710D02*
X121311276Y-112712834D01*
X121325317Y-112716351D01*
X121338946Y-112721228D01*
X121352031Y-112727417D01*
X121364447Y-112734858D01*
X121376073Y-112743481D01*
X121386798Y-112753202D01*
X121396519Y-112763927D01*
X121405142Y-112775553D01*
X121412583Y-112787969D01*
X121418772Y-112801054D01*
X121423649Y-112814683D01*
X121427166Y-112828724D01*
X121429290Y-112843042D01*
X121430000Y-112857500D01*
X121430000Y-113202500D01*
X121429290Y-113216958D01*
X121427166Y-113231276D01*
X121423649Y-113245317D01*
X121418772Y-113258946D01*
X121412583Y-113272031D01*
X121405142Y-113284447D01*
X121396519Y-113296073D01*
X121386798Y-113306798D01*
X121376073Y-113316519D01*
X121364447Y-113325142D01*
X121352031Y-113332583D01*
X121338946Y-113338772D01*
X121325317Y-113343649D01*
X121311276Y-113347166D01*
X121296958Y-113349290D01*
X121282500Y-113350000D01*
X120987500Y-113350000D01*
X120973042Y-113349290D01*
X120958724Y-113347166D01*
X120944683Y-113343649D01*
X120931054Y-113338772D01*
X120917969Y-113332583D01*
X120905553Y-113325142D01*
X120893927Y-113316519D01*
X120883202Y-113306798D01*
X120873481Y-113296073D01*
X120864858Y-113284447D01*
X120857417Y-113272031D01*
X120851228Y-113258946D01*
X120846351Y-113245317D01*
X120842834Y-113231276D01*
X120840710Y-113216958D01*
X120840000Y-113202500D01*
X120840000Y-112857500D01*
X120840710Y-112843042D01*
X120842834Y-112828724D01*
X120846351Y-112814683D01*
X120851228Y-112801054D01*
X120857417Y-112787969D01*
X120864858Y-112775553D01*
X120873481Y-112763927D01*
X120883202Y-112753202D01*
X120893927Y-112743481D01*
X120905553Y-112734858D01*
X120917969Y-112727417D01*
X120931054Y-112721228D01*
X120944683Y-112716351D01*
X120958724Y-112712834D01*
X120973042Y-112710710D01*
X120987500Y-112710000D01*
X121282500Y-112710000D01*
X121296958Y-112710710D01*
X121296958Y-112710710D01*
G37*
D12*
X121135000Y-113030000D03*
D10*
G36*
X120326958Y-112710710D02*
X120341276Y-112712834D01*
X120355317Y-112716351D01*
X120368946Y-112721228D01*
X120382031Y-112727417D01*
X120394447Y-112734858D01*
X120406073Y-112743481D01*
X120416798Y-112753202D01*
X120426519Y-112763927D01*
X120435142Y-112775553D01*
X120442583Y-112787969D01*
X120448772Y-112801054D01*
X120453649Y-112814683D01*
X120457166Y-112828724D01*
X120459290Y-112843042D01*
X120460000Y-112857500D01*
X120460000Y-113202500D01*
X120459290Y-113216958D01*
X120457166Y-113231276D01*
X120453649Y-113245317D01*
X120448772Y-113258946D01*
X120442583Y-113272031D01*
X120435142Y-113284447D01*
X120426519Y-113296073D01*
X120416798Y-113306798D01*
X120406073Y-113316519D01*
X120394447Y-113325142D01*
X120382031Y-113332583D01*
X120368946Y-113338772D01*
X120355317Y-113343649D01*
X120341276Y-113347166D01*
X120326958Y-113349290D01*
X120312500Y-113350000D01*
X120017500Y-113350000D01*
X120003042Y-113349290D01*
X119988724Y-113347166D01*
X119974683Y-113343649D01*
X119961054Y-113338772D01*
X119947969Y-113332583D01*
X119935553Y-113325142D01*
X119923927Y-113316519D01*
X119913202Y-113306798D01*
X119903481Y-113296073D01*
X119894858Y-113284447D01*
X119887417Y-113272031D01*
X119881228Y-113258946D01*
X119876351Y-113245317D01*
X119872834Y-113231276D01*
X119870710Y-113216958D01*
X119870000Y-113202500D01*
X119870000Y-112857500D01*
X119870710Y-112843042D01*
X119872834Y-112828724D01*
X119876351Y-112814683D01*
X119881228Y-112801054D01*
X119887417Y-112787969D01*
X119894858Y-112775553D01*
X119903481Y-112763927D01*
X119913202Y-112753202D01*
X119923927Y-112743481D01*
X119935553Y-112734858D01*
X119947969Y-112727417D01*
X119961054Y-112721228D01*
X119974683Y-112716351D01*
X119988724Y-112712834D01*
X120003042Y-112710710D01*
X120017500Y-112710000D01*
X120312500Y-112710000D01*
X120326958Y-112710710D01*
X120326958Y-112710710D01*
G37*
D12*
X120165000Y-113030000D03*
G04 #@! TD*
D10*
G04 #@! TO.C,R3*
G36*
X151316958Y-100965710D02*
X151331276Y-100967834D01*
X151345317Y-100971351D01*
X151358946Y-100976228D01*
X151372031Y-100982417D01*
X151384447Y-100989858D01*
X151396073Y-100998481D01*
X151406798Y-101008202D01*
X151416519Y-101018927D01*
X151425142Y-101030553D01*
X151432583Y-101042969D01*
X151438772Y-101056054D01*
X151443649Y-101069683D01*
X151447166Y-101083724D01*
X151449290Y-101098042D01*
X151450000Y-101112500D01*
X151450000Y-101407500D01*
X151449290Y-101421958D01*
X151447166Y-101436276D01*
X151443649Y-101450317D01*
X151438772Y-101463946D01*
X151432583Y-101477031D01*
X151425142Y-101489447D01*
X151416519Y-101501073D01*
X151406798Y-101511798D01*
X151396073Y-101521519D01*
X151384447Y-101530142D01*
X151372031Y-101537583D01*
X151358946Y-101543772D01*
X151345317Y-101548649D01*
X151331276Y-101552166D01*
X151316958Y-101554290D01*
X151302500Y-101555000D01*
X150957500Y-101555000D01*
X150943042Y-101554290D01*
X150928724Y-101552166D01*
X150914683Y-101548649D01*
X150901054Y-101543772D01*
X150887969Y-101537583D01*
X150875553Y-101530142D01*
X150863927Y-101521519D01*
X150853202Y-101511798D01*
X150843481Y-101501073D01*
X150834858Y-101489447D01*
X150827417Y-101477031D01*
X150821228Y-101463946D01*
X150816351Y-101450317D01*
X150812834Y-101436276D01*
X150810710Y-101421958D01*
X150810000Y-101407500D01*
X150810000Y-101112500D01*
X150810710Y-101098042D01*
X150812834Y-101083724D01*
X150816351Y-101069683D01*
X150821228Y-101056054D01*
X150827417Y-101042969D01*
X150834858Y-101030553D01*
X150843481Y-101018927D01*
X150853202Y-101008202D01*
X150863927Y-100998481D01*
X150875553Y-100989858D01*
X150887969Y-100982417D01*
X150901054Y-100976228D01*
X150914683Y-100971351D01*
X150928724Y-100967834D01*
X150943042Y-100965710D01*
X150957500Y-100965000D01*
X151302500Y-100965000D01*
X151316958Y-100965710D01*
X151316958Y-100965710D01*
G37*
D12*
X151130000Y-101260000D03*
D10*
G36*
X151316958Y-99995710D02*
X151331276Y-99997834D01*
X151345317Y-100001351D01*
X151358946Y-100006228D01*
X151372031Y-100012417D01*
X151384447Y-100019858D01*
X151396073Y-100028481D01*
X151406798Y-100038202D01*
X151416519Y-100048927D01*
X151425142Y-100060553D01*
X151432583Y-100072969D01*
X151438772Y-100086054D01*
X151443649Y-100099683D01*
X151447166Y-100113724D01*
X151449290Y-100128042D01*
X151450000Y-100142500D01*
X151450000Y-100437500D01*
X151449290Y-100451958D01*
X151447166Y-100466276D01*
X151443649Y-100480317D01*
X151438772Y-100493946D01*
X151432583Y-100507031D01*
X151425142Y-100519447D01*
X151416519Y-100531073D01*
X151406798Y-100541798D01*
X151396073Y-100551519D01*
X151384447Y-100560142D01*
X151372031Y-100567583D01*
X151358946Y-100573772D01*
X151345317Y-100578649D01*
X151331276Y-100582166D01*
X151316958Y-100584290D01*
X151302500Y-100585000D01*
X150957500Y-100585000D01*
X150943042Y-100584290D01*
X150928724Y-100582166D01*
X150914683Y-100578649D01*
X150901054Y-100573772D01*
X150887969Y-100567583D01*
X150875553Y-100560142D01*
X150863927Y-100551519D01*
X150853202Y-100541798D01*
X150843481Y-100531073D01*
X150834858Y-100519447D01*
X150827417Y-100507031D01*
X150821228Y-100493946D01*
X150816351Y-100480317D01*
X150812834Y-100466276D01*
X150810710Y-100451958D01*
X150810000Y-100437500D01*
X150810000Y-100142500D01*
X150810710Y-100128042D01*
X150812834Y-100113724D01*
X150816351Y-100099683D01*
X150821228Y-100086054D01*
X150827417Y-100072969D01*
X150834858Y-100060553D01*
X150843481Y-100048927D01*
X150853202Y-100038202D01*
X150863927Y-100028481D01*
X150875553Y-100019858D01*
X150887969Y-100012417D01*
X150901054Y-100006228D01*
X150914683Y-100001351D01*
X150928724Y-99997834D01*
X150943042Y-99995710D01*
X150957500Y-99995000D01*
X151302500Y-99995000D01*
X151316958Y-99995710D01*
X151316958Y-99995710D01*
G37*
D12*
X151130000Y-100290000D03*
G04 #@! TD*
D10*
G04 #@! TO.C,R4*
G36*
X149721958Y-114996710D02*
X149736276Y-114998834D01*
X149750317Y-115002351D01*
X149763946Y-115007228D01*
X149777031Y-115013417D01*
X149789447Y-115020858D01*
X149801073Y-115029481D01*
X149811798Y-115039202D01*
X149821519Y-115049927D01*
X149830142Y-115061553D01*
X149837583Y-115073969D01*
X149843772Y-115087054D01*
X149848649Y-115100683D01*
X149852166Y-115114724D01*
X149854290Y-115129042D01*
X149855000Y-115143500D01*
X149855000Y-115488500D01*
X149854290Y-115502958D01*
X149852166Y-115517276D01*
X149848649Y-115531317D01*
X149843772Y-115544946D01*
X149837583Y-115558031D01*
X149830142Y-115570447D01*
X149821519Y-115582073D01*
X149811798Y-115592798D01*
X149801073Y-115602519D01*
X149789447Y-115611142D01*
X149777031Y-115618583D01*
X149763946Y-115624772D01*
X149750317Y-115629649D01*
X149736276Y-115633166D01*
X149721958Y-115635290D01*
X149707500Y-115636000D01*
X149412500Y-115636000D01*
X149398042Y-115635290D01*
X149383724Y-115633166D01*
X149369683Y-115629649D01*
X149356054Y-115624772D01*
X149342969Y-115618583D01*
X149330553Y-115611142D01*
X149318927Y-115602519D01*
X149308202Y-115592798D01*
X149298481Y-115582073D01*
X149289858Y-115570447D01*
X149282417Y-115558031D01*
X149276228Y-115544946D01*
X149271351Y-115531317D01*
X149267834Y-115517276D01*
X149265710Y-115502958D01*
X149265000Y-115488500D01*
X149265000Y-115143500D01*
X149265710Y-115129042D01*
X149267834Y-115114724D01*
X149271351Y-115100683D01*
X149276228Y-115087054D01*
X149282417Y-115073969D01*
X149289858Y-115061553D01*
X149298481Y-115049927D01*
X149308202Y-115039202D01*
X149318927Y-115029481D01*
X149330553Y-115020858D01*
X149342969Y-115013417D01*
X149356054Y-115007228D01*
X149369683Y-115002351D01*
X149383724Y-114998834D01*
X149398042Y-114996710D01*
X149412500Y-114996000D01*
X149707500Y-114996000D01*
X149721958Y-114996710D01*
X149721958Y-114996710D01*
G37*
D12*
X149560000Y-115316000D03*
D10*
G36*
X148751958Y-114996710D02*
X148766276Y-114998834D01*
X148780317Y-115002351D01*
X148793946Y-115007228D01*
X148807031Y-115013417D01*
X148819447Y-115020858D01*
X148831073Y-115029481D01*
X148841798Y-115039202D01*
X148851519Y-115049927D01*
X148860142Y-115061553D01*
X148867583Y-115073969D01*
X148873772Y-115087054D01*
X148878649Y-115100683D01*
X148882166Y-115114724D01*
X148884290Y-115129042D01*
X148885000Y-115143500D01*
X148885000Y-115488500D01*
X148884290Y-115502958D01*
X148882166Y-115517276D01*
X148878649Y-115531317D01*
X148873772Y-115544946D01*
X148867583Y-115558031D01*
X148860142Y-115570447D01*
X148851519Y-115582073D01*
X148841798Y-115592798D01*
X148831073Y-115602519D01*
X148819447Y-115611142D01*
X148807031Y-115618583D01*
X148793946Y-115624772D01*
X148780317Y-115629649D01*
X148766276Y-115633166D01*
X148751958Y-115635290D01*
X148737500Y-115636000D01*
X148442500Y-115636000D01*
X148428042Y-115635290D01*
X148413724Y-115633166D01*
X148399683Y-115629649D01*
X148386054Y-115624772D01*
X148372969Y-115618583D01*
X148360553Y-115611142D01*
X148348927Y-115602519D01*
X148338202Y-115592798D01*
X148328481Y-115582073D01*
X148319858Y-115570447D01*
X148312417Y-115558031D01*
X148306228Y-115544946D01*
X148301351Y-115531317D01*
X148297834Y-115517276D01*
X148295710Y-115502958D01*
X148295000Y-115488500D01*
X148295000Y-115143500D01*
X148295710Y-115129042D01*
X148297834Y-115114724D01*
X148301351Y-115100683D01*
X148306228Y-115087054D01*
X148312417Y-115073969D01*
X148319858Y-115061553D01*
X148328481Y-115049927D01*
X148338202Y-115039202D01*
X148348927Y-115029481D01*
X148360553Y-115020858D01*
X148372969Y-115013417D01*
X148386054Y-115007228D01*
X148399683Y-115002351D01*
X148413724Y-114998834D01*
X148428042Y-114996710D01*
X148442500Y-114996000D01*
X148737500Y-114996000D01*
X148751958Y-114996710D01*
X148751958Y-114996710D01*
G37*
D12*
X148590000Y-115316000D03*
G04 #@! TD*
D10*
G04 #@! TO.C,R5*
G36*
X148751958Y-116520710D02*
X148766276Y-116522834D01*
X148780317Y-116526351D01*
X148793946Y-116531228D01*
X148807031Y-116537417D01*
X148819447Y-116544858D01*
X148831073Y-116553481D01*
X148841798Y-116563202D01*
X148851519Y-116573927D01*
X148860142Y-116585553D01*
X148867583Y-116597969D01*
X148873772Y-116611054D01*
X148878649Y-116624683D01*
X148882166Y-116638724D01*
X148884290Y-116653042D01*
X148885000Y-116667500D01*
X148885000Y-117012500D01*
X148884290Y-117026958D01*
X148882166Y-117041276D01*
X148878649Y-117055317D01*
X148873772Y-117068946D01*
X148867583Y-117082031D01*
X148860142Y-117094447D01*
X148851519Y-117106073D01*
X148841798Y-117116798D01*
X148831073Y-117126519D01*
X148819447Y-117135142D01*
X148807031Y-117142583D01*
X148793946Y-117148772D01*
X148780317Y-117153649D01*
X148766276Y-117157166D01*
X148751958Y-117159290D01*
X148737500Y-117160000D01*
X148442500Y-117160000D01*
X148428042Y-117159290D01*
X148413724Y-117157166D01*
X148399683Y-117153649D01*
X148386054Y-117148772D01*
X148372969Y-117142583D01*
X148360553Y-117135142D01*
X148348927Y-117126519D01*
X148338202Y-117116798D01*
X148328481Y-117106073D01*
X148319858Y-117094447D01*
X148312417Y-117082031D01*
X148306228Y-117068946D01*
X148301351Y-117055317D01*
X148297834Y-117041276D01*
X148295710Y-117026958D01*
X148295000Y-117012500D01*
X148295000Y-116667500D01*
X148295710Y-116653042D01*
X148297834Y-116638724D01*
X148301351Y-116624683D01*
X148306228Y-116611054D01*
X148312417Y-116597969D01*
X148319858Y-116585553D01*
X148328481Y-116573927D01*
X148338202Y-116563202D01*
X148348927Y-116553481D01*
X148360553Y-116544858D01*
X148372969Y-116537417D01*
X148386054Y-116531228D01*
X148399683Y-116526351D01*
X148413724Y-116522834D01*
X148428042Y-116520710D01*
X148442500Y-116520000D01*
X148737500Y-116520000D01*
X148751958Y-116520710D01*
X148751958Y-116520710D01*
G37*
D12*
X148590000Y-116840000D03*
D10*
G36*
X149721958Y-116520710D02*
X149736276Y-116522834D01*
X149750317Y-116526351D01*
X149763946Y-116531228D01*
X149777031Y-116537417D01*
X149789447Y-116544858D01*
X149801073Y-116553481D01*
X149811798Y-116563202D01*
X149821519Y-116573927D01*
X149830142Y-116585553D01*
X149837583Y-116597969D01*
X149843772Y-116611054D01*
X149848649Y-116624683D01*
X149852166Y-116638724D01*
X149854290Y-116653042D01*
X149855000Y-116667500D01*
X149855000Y-117012500D01*
X149854290Y-117026958D01*
X149852166Y-117041276D01*
X149848649Y-117055317D01*
X149843772Y-117068946D01*
X149837583Y-117082031D01*
X149830142Y-117094447D01*
X149821519Y-117106073D01*
X149811798Y-117116798D01*
X149801073Y-117126519D01*
X149789447Y-117135142D01*
X149777031Y-117142583D01*
X149763946Y-117148772D01*
X149750317Y-117153649D01*
X149736276Y-117157166D01*
X149721958Y-117159290D01*
X149707500Y-117160000D01*
X149412500Y-117160000D01*
X149398042Y-117159290D01*
X149383724Y-117157166D01*
X149369683Y-117153649D01*
X149356054Y-117148772D01*
X149342969Y-117142583D01*
X149330553Y-117135142D01*
X149318927Y-117126519D01*
X149308202Y-117116798D01*
X149298481Y-117106073D01*
X149289858Y-117094447D01*
X149282417Y-117082031D01*
X149276228Y-117068946D01*
X149271351Y-117055317D01*
X149267834Y-117041276D01*
X149265710Y-117026958D01*
X149265000Y-117012500D01*
X149265000Y-116667500D01*
X149265710Y-116653042D01*
X149267834Y-116638724D01*
X149271351Y-116624683D01*
X149276228Y-116611054D01*
X149282417Y-116597969D01*
X149289858Y-116585553D01*
X149298481Y-116573927D01*
X149308202Y-116563202D01*
X149318927Y-116553481D01*
X149330553Y-116544858D01*
X149342969Y-116537417D01*
X149356054Y-116531228D01*
X149369683Y-116526351D01*
X149383724Y-116522834D01*
X149398042Y-116520710D01*
X149412500Y-116520000D01*
X149707500Y-116520000D01*
X149721958Y-116520710D01*
X149721958Y-116520710D01*
G37*
D12*
X149560000Y-116840000D03*
G04 #@! TD*
D10*
G04 #@! TO.C,R6*
G36*
X120326958Y-102550710D02*
X120341276Y-102552834D01*
X120355317Y-102556351D01*
X120368946Y-102561228D01*
X120382031Y-102567417D01*
X120394447Y-102574858D01*
X120406073Y-102583481D01*
X120416798Y-102593202D01*
X120426519Y-102603927D01*
X120435142Y-102615553D01*
X120442583Y-102627969D01*
X120448772Y-102641054D01*
X120453649Y-102654683D01*
X120457166Y-102668724D01*
X120459290Y-102683042D01*
X120460000Y-102697500D01*
X120460000Y-103042500D01*
X120459290Y-103056958D01*
X120457166Y-103071276D01*
X120453649Y-103085317D01*
X120448772Y-103098946D01*
X120442583Y-103112031D01*
X120435142Y-103124447D01*
X120426519Y-103136073D01*
X120416798Y-103146798D01*
X120406073Y-103156519D01*
X120394447Y-103165142D01*
X120382031Y-103172583D01*
X120368946Y-103178772D01*
X120355317Y-103183649D01*
X120341276Y-103187166D01*
X120326958Y-103189290D01*
X120312500Y-103190000D01*
X120017500Y-103190000D01*
X120003042Y-103189290D01*
X119988724Y-103187166D01*
X119974683Y-103183649D01*
X119961054Y-103178772D01*
X119947969Y-103172583D01*
X119935553Y-103165142D01*
X119923927Y-103156519D01*
X119913202Y-103146798D01*
X119903481Y-103136073D01*
X119894858Y-103124447D01*
X119887417Y-103112031D01*
X119881228Y-103098946D01*
X119876351Y-103085317D01*
X119872834Y-103071276D01*
X119870710Y-103056958D01*
X119870000Y-103042500D01*
X119870000Y-102697500D01*
X119870710Y-102683042D01*
X119872834Y-102668724D01*
X119876351Y-102654683D01*
X119881228Y-102641054D01*
X119887417Y-102627969D01*
X119894858Y-102615553D01*
X119903481Y-102603927D01*
X119913202Y-102593202D01*
X119923927Y-102583481D01*
X119935553Y-102574858D01*
X119947969Y-102567417D01*
X119961054Y-102561228D01*
X119974683Y-102556351D01*
X119988724Y-102552834D01*
X120003042Y-102550710D01*
X120017500Y-102550000D01*
X120312500Y-102550000D01*
X120326958Y-102550710D01*
X120326958Y-102550710D01*
G37*
D12*
X120165000Y-102870000D03*
D10*
G36*
X121296958Y-102550710D02*
X121311276Y-102552834D01*
X121325317Y-102556351D01*
X121338946Y-102561228D01*
X121352031Y-102567417D01*
X121364447Y-102574858D01*
X121376073Y-102583481D01*
X121386798Y-102593202D01*
X121396519Y-102603927D01*
X121405142Y-102615553D01*
X121412583Y-102627969D01*
X121418772Y-102641054D01*
X121423649Y-102654683D01*
X121427166Y-102668724D01*
X121429290Y-102683042D01*
X121430000Y-102697500D01*
X121430000Y-103042500D01*
X121429290Y-103056958D01*
X121427166Y-103071276D01*
X121423649Y-103085317D01*
X121418772Y-103098946D01*
X121412583Y-103112031D01*
X121405142Y-103124447D01*
X121396519Y-103136073D01*
X121386798Y-103146798D01*
X121376073Y-103156519D01*
X121364447Y-103165142D01*
X121352031Y-103172583D01*
X121338946Y-103178772D01*
X121325317Y-103183649D01*
X121311276Y-103187166D01*
X121296958Y-103189290D01*
X121282500Y-103190000D01*
X120987500Y-103190000D01*
X120973042Y-103189290D01*
X120958724Y-103187166D01*
X120944683Y-103183649D01*
X120931054Y-103178772D01*
X120917969Y-103172583D01*
X120905553Y-103165142D01*
X120893927Y-103156519D01*
X120883202Y-103146798D01*
X120873481Y-103136073D01*
X120864858Y-103124447D01*
X120857417Y-103112031D01*
X120851228Y-103098946D01*
X120846351Y-103085317D01*
X120842834Y-103071276D01*
X120840710Y-103056958D01*
X120840000Y-103042500D01*
X120840000Y-102697500D01*
X120840710Y-102683042D01*
X120842834Y-102668724D01*
X120846351Y-102654683D01*
X120851228Y-102641054D01*
X120857417Y-102627969D01*
X120864858Y-102615553D01*
X120873481Y-102603927D01*
X120883202Y-102593202D01*
X120893927Y-102583481D01*
X120905553Y-102574858D01*
X120917969Y-102567417D01*
X120931054Y-102561228D01*
X120944683Y-102556351D01*
X120958724Y-102552834D01*
X120973042Y-102550710D01*
X120987500Y-102550000D01*
X121282500Y-102550000D01*
X121296958Y-102550710D01*
X121296958Y-102550710D01*
G37*
D12*
X121135000Y-102870000D03*
G04 #@! TD*
D15*
G04 #@! TO.C,U1*
X149540000Y-102910000D03*
X148590000Y-102910000D03*
X147640000Y-102910000D03*
X147640000Y-100290000D03*
X149540000Y-100290000D03*
G04 #@! TD*
D16*
G04 #@! TO.C,U2*
X146780000Y-112084000D03*
X146780000Y-112884000D03*
X146780000Y-113684000D03*
X146780000Y-114484000D03*
X142780000Y-114484000D03*
X142780000Y-113684000D03*
X142780000Y-112884000D03*
X142780000Y-112084000D03*
D17*
X145405000Y-112084000D03*
X144155000Y-112084000D03*
X144155000Y-113284000D03*
X145405000Y-113284000D03*
X144155000Y-114484000D03*
X145405000Y-114484000D03*
G04 #@! TD*
M02*
