M48
;DRILL file {KiCad 5.0.1+dfsg1-3} date Mon 05 Nov 2018 09:22:21 PM EST
;FORMAT={-:-/ absolute / metric / decimal}
FMAT,2
METRIC,TZ
T1C0.305
T2C0.600
T3C0.610
T4C0.850
T5C1.000
T6C1.600
T7C0.900
T8C1.800
T9C3.500
%
G90
G05
M71
T1
X117.602Y-109.156
X117.856Y-102.87
X117.856Y-113.03
X122.174Y-102.87
X122.682Y-113.03
X150.622Y-102.91
X163.225Y-109.25
T3
X161.671Y-110.871
T4
X164.755Y-105.45
X164.755Y-110.45
T5
X163.83Y-100.33
X166.37Y-115.57
X113.03Y-115.57
X163.83Y-115.57
X166.37Y-100.33
X113.03Y-100.33
T6
X120.7Y-107.95
X158.7Y-107.95
T7
X113.03Y-104.55
X113.03Y-111.35
T8
X158.7Y-116.15
T9
X127.6Y-107.95
X151.8Y-107.95
T2
X167.105Y-104.45G85X167.805Y-104.45
G05
X167.805Y-111.45G85X167.105Y-111.45
G05
T0
M30
