G04 #@! TF.GenerationSoftware,KiCad,Pcbnew,5.0.1+dfsg1-3*
G04 #@! TF.CreationDate,2018-11-05T21:22:01-05:00*
G04 #@! TF.ProjectId,BreadBatt,4272656164426174742E6B696361645F,rev?*
G04 #@! TF.SameCoordinates,Original*
G04 #@! TF.FileFunction,Soldermask,Top*
G04 #@! TF.FilePolarity,Negative*
%FSLAX46Y46*%
G04 Gerber Fmt 4.6, Leading zero omitted, Abs format (unit mm)*
G04 Created by KiCad (PCBNEW 5.0.1+dfsg1-3) date Mon 05 Nov 2018 09:22:01 PM EST*
%MOMM*%
%LPD*%
G01*
G04 APERTURE LIST*
%ADD10C,0.100000*%
G04 APERTURE END LIST*
D10*
G36*
X158977338Y-115235738D02*
X159150373Y-115307412D01*
X159306100Y-115411465D01*
X159438535Y-115543900D01*
X159542588Y-115699627D01*
X159614262Y-115872662D01*
X159650800Y-116056354D01*
X159650800Y-116243646D01*
X159614262Y-116427338D01*
X159542588Y-116600373D01*
X159438535Y-116756100D01*
X159306100Y-116888535D01*
X159150373Y-116992588D01*
X158977338Y-117064262D01*
X158793646Y-117100800D01*
X158606354Y-117100800D01*
X158422662Y-117064262D01*
X158249627Y-116992588D01*
X158093900Y-116888535D01*
X157961465Y-116756100D01*
X157857412Y-116600373D01*
X157785738Y-116427338D01*
X157749200Y-116243646D01*
X157749200Y-116056354D01*
X157785738Y-115872662D01*
X157857412Y-115699627D01*
X157961465Y-115543900D01*
X158093900Y-115411465D01*
X158249627Y-115307412D01*
X158422662Y-115235738D01*
X158606354Y-115199200D01*
X158793646Y-115199200D01*
X158977338Y-115235738D01*
X158977338Y-115235738D01*
G37*
G36*
X163967176Y-114525900D02*
X164136507Y-114559581D01*
X164271729Y-114615592D01*
X164327740Y-114638793D01*
X164499846Y-114753791D01*
X164646209Y-114900154D01*
X164761207Y-115072260D01*
X164761207Y-115072261D01*
X164840419Y-115263493D01*
X164880800Y-115466506D01*
X164880800Y-115673494D01*
X164840419Y-115876507D01*
X164784408Y-116011729D01*
X164761207Y-116067740D01*
X164646209Y-116239846D01*
X164499846Y-116386209D01*
X164327740Y-116501207D01*
X164271729Y-116524408D01*
X164136507Y-116580419D01*
X163967176Y-116614100D01*
X163933495Y-116620800D01*
X163726505Y-116620800D01*
X163692824Y-116614100D01*
X163523493Y-116580419D01*
X163388271Y-116524408D01*
X163332260Y-116501207D01*
X163160154Y-116386209D01*
X163013791Y-116239846D01*
X162898793Y-116067740D01*
X162875592Y-116011729D01*
X162819581Y-115876507D01*
X162779200Y-115673494D01*
X162779200Y-115466506D01*
X162819581Y-115263493D01*
X162898793Y-115072261D01*
X162898793Y-115072260D01*
X163013791Y-114900154D01*
X163160154Y-114753791D01*
X163332260Y-114638793D01*
X163388271Y-114615592D01*
X163523493Y-114559581D01*
X163692824Y-114525900D01*
X163726505Y-114519200D01*
X163933495Y-114519200D01*
X163967176Y-114525900D01*
X163967176Y-114525900D01*
G37*
G36*
X113167176Y-114525900D02*
X113336507Y-114559581D01*
X113471729Y-114615592D01*
X113527740Y-114638793D01*
X113699846Y-114753791D01*
X113846209Y-114900154D01*
X113961207Y-115072260D01*
X113961207Y-115072261D01*
X114040419Y-115263493D01*
X114080800Y-115466506D01*
X114080800Y-115673494D01*
X114040419Y-115876507D01*
X113984408Y-116011729D01*
X113961207Y-116067740D01*
X113846209Y-116239846D01*
X113699846Y-116386209D01*
X113527740Y-116501207D01*
X113471729Y-116524408D01*
X113336507Y-116580419D01*
X113167176Y-116614100D01*
X113133495Y-116620800D01*
X112926505Y-116620800D01*
X112892824Y-116614100D01*
X112723493Y-116580419D01*
X112588271Y-116524408D01*
X112532260Y-116501207D01*
X112360154Y-116386209D01*
X112213791Y-116239846D01*
X112098793Y-116067740D01*
X112075592Y-116011729D01*
X112019581Y-115876507D01*
X111979200Y-115673494D01*
X111979200Y-115466506D01*
X112019581Y-115263493D01*
X112098793Y-115072261D01*
X112098793Y-115072260D01*
X112213791Y-114900154D01*
X112360154Y-114753791D01*
X112532260Y-114638793D01*
X112588271Y-114615592D01*
X112723493Y-114559581D01*
X112892824Y-114525900D01*
X112926505Y-114519200D01*
X113133495Y-114519200D01*
X113167176Y-114525900D01*
X113167176Y-114525900D01*
G37*
G36*
X167420800Y-116620800D02*
X165319200Y-116620800D01*
X165319200Y-114519200D01*
X167420800Y-114519200D01*
X167420800Y-116620800D01*
X167420800Y-116620800D01*
G37*
G36*
X115042625Y-112661905D02*
X115063030Y-112668095D01*
X115081835Y-112678147D01*
X115098323Y-112691677D01*
X115111853Y-112708165D01*
X115121905Y-112726970D01*
X115128095Y-112747375D01*
X115130800Y-112774843D01*
X115130800Y-113285157D01*
X115128095Y-113312625D01*
X115121905Y-113333030D01*
X115111853Y-113351835D01*
X115098323Y-113368323D01*
X115081835Y-113381853D01*
X115063030Y-113391905D01*
X115042625Y-113398095D01*
X115015157Y-113400800D01*
X114554843Y-113400800D01*
X114527375Y-113398095D01*
X114506970Y-113391905D01*
X114488165Y-113381853D01*
X114471677Y-113368323D01*
X114458147Y-113351835D01*
X114448095Y-113333030D01*
X114441905Y-113312625D01*
X114439200Y-113285157D01*
X114439200Y-112774843D01*
X114441905Y-112747375D01*
X114448095Y-112726970D01*
X114458147Y-112708165D01*
X114471677Y-112691677D01*
X114488165Y-112678147D01*
X114506970Y-112668095D01*
X114527375Y-112661905D01*
X114554843Y-112659200D01*
X115015157Y-112659200D01*
X115042625Y-112661905D01*
X115042625Y-112661905D01*
G37*
G36*
X114072625Y-112661905D02*
X114093030Y-112668095D01*
X114111835Y-112678147D01*
X114128323Y-112691677D01*
X114141853Y-112708165D01*
X114151905Y-112726970D01*
X114158095Y-112747375D01*
X114160800Y-112774843D01*
X114160800Y-113285157D01*
X114158095Y-113312625D01*
X114151905Y-113333030D01*
X114141853Y-113351835D01*
X114128323Y-113368323D01*
X114111835Y-113381853D01*
X114093030Y-113391905D01*
X114072625Y-113398095D01*
X114045157Y-113400800D01*
X113584843Y-113400800D01*
X113557375Y-113398095D01*
X113536970Y-113391905D01*
X113518165Y-113381853D01*
X113501677Y-113368323D01*
X113488147Y-113351835D01*
X113478095Y-113333030D01*
X113471905Y-113312625D01*
X113469200Y-113285157D01*
X113469200Y-112774843D01*
X113471905Y-112747375D01*
X113478095Y-112726970D01*
X113488147Y-112708165D01*
X113501677Y-112691677D01*
X113518165Y-112678147D01*
X113536970Y-112668095D01*
X113557375Y-112661905D01*
X113584843Y-112659200D01*
X114045157Y-112659200D01*
X114072625Y-112661905D01*
X114072625Y-112661905D01*
G37*
G36*
X168455900Y-111411795D02*
X168456512Y-111424244D01*
X168459049Y-111450000D01*
X168456512Y-111475756D01*
X168455900Y-111488205D01*
X168455900Y-111561856D01*
X168446630Y-111579199D01*
X168442432Y-111590934D01*
X168409270Y-111700254D01*
X168348839Y-111813314D01*
X168267511Y-111912411D01*
X168168414Y-111993739D01*
X168055358Y-112054168D01*
X168055355Y-112054169D01*
X167932679Y-112091383D01*
X167892839Y-112095307D01*
X167837070Y-112100800D01*
X167073130Y-112100800D01*
X167017361Y-112095307D01*
X166977521Y-112091383D01*
X166854845Y-112054169D01*
X166854842Y-112054168D01*
X166741786Y-111993739D01*
X166642689Y-111912411D01*
X166561361Y-111813314D01*
X166500930Y-111700254D01*
X166467768Y-111590934D01*
X166458241Y-111567933D01*
X166454300Y-111562035D01*
X166454300Y-111488205D01*
X166453688Y-111475756D01*
X166451151Y-111450000D01*
X166453688Y-111424244D01*
X166454300Y-111411795D01*
X166454300Y-110199200D01*
X168455900Y-110199200D01*
X168455900Y-111411795D01*
X168455900Y-111411795D01*
G37*
G36*
X113176077Y-110868445D02*
X113213828Y-110884083D01*
X113267218Y-110906197D01*
X113349241Y-110961003D01*
X113418997Y-111030759D01*
X113473803Y-111112782D01*
X113479195Y-111125800D01*
X113511555Y-111203923D01*
X113530800Y-111300676D01*
X113530800Y-111399324D01*
X113511555Y-111496077D01*
X113495917Y-111533828D01*
X113473803Y-111587218D01*
X113418997Y-111669241D01*
X113349241Y-111738997D01*
X113267218Y-111793803D01*
X113220114Y-111813314D01*
X113176077Y-111831555D01*
X113079324Y-111850800D01*
X112980676Y-111850800D01*
X112883923Y-111831555D01*
X112839886Y-111813314D01*
X112792782Y-111793803D01*
X112710759Y-111738997D01*
X112641003Y-111669241D01*
X112586197Y-111587218D01*
X112564083Y-111533828D01*
X112548445Y-111496077D01*
X112529200Y-111399324D01*
X112529200Y-111300676D01*
X112548445Y-111203923D01*
X112580805Y-111125800D01*
X112586197Y-111112782D01*
X112641003Y-111030759D01*
X112710759Y-110961003D01*
X112792782Y-110906197D01*
X112846172Y-110884083D01*
X112883923Y-110868445D01*
X112980676Y-110849200D01*
X113079324Y-110849200D01*
X113176077Y-110868445D01*
X113176077Y-110868445D01*
G37*
G36*
X164981393Y-104704013D02*
X165122579Y-104762495D01*
X165122581Y-104762496D01*
X165140097Y-104774200D01*
X165249644Y-104847397D01*
X165357703Y-104955456D01*
X165442605Y-105082521D01*
X165501087Y-105223707D01*
X165530900Y-105373590D01*
X165530900Y-105526410D01*
X165501087Y-105676293D01*
X165442605Y-105817479D01*
X165357703Y-105944544D01*
X165249644Y-106052603D01*
X165164934Y-106109204D01*
X165122581Y-106137504D01*
X165122580Y-106137505D01*
X165122579Y-106137505D01*
X165080659Y-106154869D01*
X165058706Y-106166604D01*
X165039461Y-106182398D01*
X165023667Y-106201643D01*
X165011931Y-106223600D01*
X165004704Y-106247424D01*
X165002264Y-106272200D01*
X165004704Y-106296977D01*
X165011931Y-106320801D01*
X165023668Y-106342758D01*
X165039462Y-106362003D01*
X165058707Y-106377797D01*
X165080664Y-106389533D01*
X165104488Y-106396760D01*
X165129264Y-106399200D01*
X165480900Y-106399200D01*
X165480900Y-109500800D01*
X165129264Y-109500800D01*
X165104488Y-109503240D01*
X165080663Y-109510467D01*
X165058707Y-109522203D01*
X165039461Y-109537997D01*
X165023667Y-109557243D01*
X165011931Y-109579199D01*
X165004704Y-109603024D01*
X165002264Y-109627800D01*
X165004704Y-109652576D01*
X165011931Y-109676401D01*
X165023667Y-109698357D01*
X165039461Y-109717603D01*
X165058707Y-109733397D01*
X165080659Y-109745131D01*
X165122579Y-109762495D01*
X165122581Y-109762496D01*
X165140097Y-109774200D01*
X165249644Y-109847397D01*
X165357703Y-109955456D01*
X165442605Y-110082521D01*
X165501087Y-110223707D01*
X165530900Y-110373590D01*
X165530900Y-110526410D01*
X165501087Y-110676293D01*
X165442605Y-110817479D01*
X165357703Y-110944544D01*
X165249644Y-111052603D01*
X165198635Y-111086686D01*
X165122581Y-111137504D01*
X165122580Y-111137505D01*
X165122579Y-111137505D01*
X164981393Y-111195987D01*
X164831510Y-111225800D01*
X164678690Y-111225800D01*
X164528807Y-111195987D01*
X164387621Y-111137505D01*
X164387620Y-111137505D01*
X164387619Y-111137504D01*
X164311565Y-111086686D01*
X164260556Y-111052603D01*
X164152497Y-110944544D01*
X164067595Y-110817479D01*
X164009113Y-110676293D01*
X163979300Y-110526410D01*
X163979300Y-110373590D01*
X164009113Y-110223707D01*
X164067595Y-110082521D01*
X164152497Y-109955456D01*
X164260556Y-109847397D01*
X164370103Y-109774200D01*
X164387619Y-109762496D01*
X164387621Y-109762495D01*
X164429541Y-109745131D01*
X164451494Y-109733396D01*
X164470739Y-109717602D01*
X164486533Y-109698357D01*
X164498269Y-109676400D01*
X164505496Y-109652576D01*
X164507936Y-109627800D01*
X164505496Y-109603023D01*
X164498269Y-109579199D01*
X164486532Y-109557242D01*
X164470738Y-109537997D01*
X164451493Y-109522203D01*
X164429536Y-109510467D01*
X164405712Y-109503240D01*
X164380936Y-109500800D01*
X164029300Y-109500800D01*
X164029300Y-106399200D01*
X164380936Y-106399200D01*
X164405712Y-106396760D01*
X164429537Y-106389533D01*
X164451493Y-106377797D01*
X164470739Y-106362003D01*
X164486533Y-106342757D01*
X164498269Y-106320801D01*
X164505496Y-106296976D01*
X164507936Y-106272200D01*
X164505496Y-106247424D01*
X164498269Y-106223599D01*
X164486533Y-106201643D01*
X164470739Y-106182397D01*
X164451493Y-106166603D01*
X164429541Y-106154869D01*
X164387621Y-106137505D01*
X164387620Y-106137505D01*
X164387619Y-106137504D01*
X164345266Y-106109204D01*
X164260556Y-106052603D01*
X164152497Y-105944544D01*
X164067595Y-105817479D01*
X164009113Y-105676293D01*
X163979300Y-105526410D01*
X163979300Y-105373590D01*
X164009113Y-105223707D01*
X164067595Y-105082521D01*
X164152497Y-104955456D01*
X164260556Y-104847397D01*
X164370103Y-104774200D01*
X164387619Y-104762496D01*
X164387621Y-104762495D01*
X164528807Y-104704013D01*
X164678690Y-104674200D01*
X164831510Y-104674200D01*
X164981393Y-104704013D01*
X164981393Y-104704013D01*
G37*
G36*
X117080800Y-111125800D02*
X114479200Y-111125800D01*
X114479200Y-109774200D01*
X117080800Y-109774200D01*
X117080800Y-111125800D01*
X117080800Y-111125800D01*
G37*
G36*
X152325273Y-106218403D02*
X152395335Y-106247424D01*
X152652999Y-106354152D01*
X152665702Y-106362640D01*
X152947941Y-106551226D01*
X153198774Y-106802059D01*
X153330156Y-106998686D01*
X153395848Y-107097001D01*
X153463722Y-107260863D01*
X153531597Y-107424727D01*
X153600800Y-107772637D01*
X153600800Y-108127363D01*
X153531597Y-108475273D01*
X153469246Y-108625800D01*
X153395848Y-108802999D01*
X153395847Y-108803000D01*
X153198774Y-109097941D01*
X152947941Y-109348774D01*
X152751314Y-109480156D01*
X152652999Y-109545848D01*
X152572482Y-109579199D01*
X152325273Y-109681597D01*
X151977363Y-109750800D01*
X151622637Y-109750800D01*
X151274727Y-109681597D01*
X151027518Y-109579199D01*
X150947001Y-109545848D01*
X150848686Y-109480156D01*
X150652059Y-109348774D01*
X150401226Y-109097941D01*
X150204153Y-108803000D01*
X150204152Y-108802999D01*
X150130754Y-108625800D01*
X150068403Y-108475273D01*
X149999200Y-108127363D01*
X149999200Y-107772637D01*
X150068403Y-107424727D01*
X150136278Y-107260863D01*
X150204152Y-107097001D01*
X150269844Y-106998686D01*
X150401226Y-106802059D01*
X150652059Y-106551226D01*
X150934298Y-106362640D01*
X150947001Y-106354152D01*
X151204665Y-106247424D01*
X151274727Y-106218403D01*
X151622637Y-106149200D01*
X151977363Y-106149200D01*
X152325273Y-106218403D01*
X152325273Y-106218403D01*
G37*
G36*
X168455900Y-109750800D02*
X166454300Y-109750800D01*
X166454300Y-108149200D01*
X168455900Y-108149200D01*
X168455900Y-109750800D01*
X168455900Y-109750800D01*
G37*
G36*
X128125273Y-106218403D02*
X128195335Y-106247424D01*
X128452999Y-106354152D01*
X128465702Y-106362640D01*
X128747941Y-106551226D01*
X128998774Y-106802059D01*
X129130156Y-106998686D01*
X129195848Y-107097001D01*
X129263722Y-107260863D01*
X129331597Y-107424727D01*
X129400800Y-107772637D01*
X129400800Y-108127363D01*
X129331597Y-108475273D01*
X129269246Y-108625800D01*
X129195848Y-108802999D01*
X129195847Y-108803000D01*
X128998774Y-109097941D01*
X128747941Y-109348774D01*
X128551314Y-109480156D01*
X128452999Y-109545848D01*
X128372482Y-109579199D01*
X128125273Y-109681597D01*
X127777363Y-109750800D01*
X127422637Y-109750800D01*
X127074727Y-109681597D01*
X126827518Y-109579199D01*
X126747001Y-109545848D01*
X126648686Y-109480156D01*
X126452059Y-109348774D01*
X126201226Y-109097941D01*
X126004153Y-108803000D01*
X126004152Y-108802999D01*
X125930754Y-108625800D01*
X125868403Y-108475273D01*
X125799200Y-108127363D01*
X125799200Y-107772637D01*
X125868403Y-107424727D01*
X125936278Y-107260863D01*
X126004152Y-107097001D01*
X126069844Y-106998686D01*
X126201226Y-106802059D01*
X126452059Y-106551226D01*
X126734298Y-106362640D01*
X126747001Y-106354152D01*
X127004665Y-106247424D01*
X127074727Y-106218403D01*
X127422637Y-106149200D01*
X127777363Y-106149200D01*
X128125273Y-106218403D01*
X128125273Y-106218403D01*
G37*
G36*
X159181521Y-106362639D02*
X159481947Y-106487080D01*
X159752324Y-106667740D01*
X159982260Y-106897676D01*
X160162920Y-107168053D01*
X160287361Y-107468479D01*
X160350800Y-107787410D01*
X160350800Y-108112590D01*
X160287361Y-108431521D01*
X160162920Y-108731947D01*
X159982260Y-109002324D01*
X159752324Y-109232260D01*
X159481947Y-109412920D01*
X159181521Y-109537361D01*
X158862590Y-109600800D01*
X158537410Y-109600800D01*
X158218479Y-109537361D01*
X157918053Y-109412920D01*
X157647676Y-109232260D01*
X157417740Y-109002324D01*
X157237080Y-108731947D01*
X157112639Y-108431521D01*
X157049200Y-108112590D01*
X157049200Y-107787410D01*
X157112639Y-107468479D01*
X157237080Y-107168053D01*
X157417740Y-106897676D01*
X157647676Y-106667740D01*
X157918053Y-106487080D01*
X158218479Y-106362639D01*
X158537410Y-106299200D01*
X158862590Y-106299200D01*
X159181521Y-106362639D01*
X159181521Y-106362639D01*
G37*
G36*
X121181521Y-106362639D02*
X121481947Y-106487080D01*
X121752324Y-106667740D01*
X121982260Y-106897676D01*
X122162920Y-107168053D01*
X122287361Y-107468479D01*
X122350800Y-107787410D01*
X122350800Y-108112590D01*
X122287361Y-108431521D01*
X122162920Y-108731947D01*
X121982260Y-109002324D01*
X121752324Y-109232260D01*
X121481947Y-109412920D01*
X121181521Y-109537361D01*
X120862590Y-109600800D01*
X120537410Y-109600800D01*
X120218479Y-109537361D01*
X119918053Y-109412920D01*
X119647676Y-109232260D01*
X119417740Y-109002324D01*
X119237080Y-108731947D01*
X119112639Y-108431521D01*
X119049200Y-108112590D01*
X119049200Y-107787410D01*
X119112639Y-107468479D01*
X119237080Y-107168053D01*
X119417740Y-106897676D01*
X119647676Y-106667740D01*
X119918053Y-106487080D01*
X120218479Y-106362639D01*
X120537410Y-106299200D01*
X120862590Y-106299200D01*
X121181521Y-106362639D01*
X121181521Y-106362639D01*
G37*
G36*
X117080800Y-108625800D02*
X114479200Y-108625800D01*
X114479200Y-107274200D01*
X117080800Y-107274200D01*
X117080800Y-108625800D01*
X117080800Y-108625800D01*
G37*
G36*
X168455900Y-107750800D02*
X166454300Y-107750800D01*
X166454300Y-106149200D01*
X168455900Y-106149200D01*
X168455900Y-107750800D01*
X168455900Y-107750800D01*
G37*
G36*
X117080800Y-106125800D02*
X114479200Y-106125800D01*
X114479200Y-104774200D01*
X117080800Y-104774200D01*
X117080800Y-106125800D01*
X117080800Y-106125800D01*
G37*
G36*
X167892839Y-103804693D02*
X167932679Y-103808617D01*
X168055355Y-103845831D01*
X168055358Y-103845832D01*
X168168414Y-103906261D01*
X168267511Y-103987589D01*
X168348839Y-104086686D01*
X168409270Y-104199746D01*
X168442432Y-104309066D01*
X168451959Y-104332067D01*
X168455900Y-104337965D01*
X168455900Y-104411795D01*
X168456512Y-104424244D01*
X168459049Y-104450000D01*
X168456512Y-104475756D01*
X168455900Y-104488205D01*
X168455900Y-105700800D01*
X166454300Y-105700800D01*
X166454300Y-104488205D01*
X166453688Y-104475756D01*
X166451151Y-104450000D01*
X166453688Y-104424244D01*
X166454300Y-104411795D01*
X166454300Y-104338144D01*
X166463570Y-104320801D01*
X166467768Y-104309066D01*
X166500930Y-104199746D01*
X166561361Y-104086686D01*
X166642689Y-103987589D01*
X166741786Y-103906261D01*
X166854842Y-103845832D01*
X166854845Y-103845831D01*
X166977521Y-103808617D01*
X167017361Y-103804693D01*
X167073130Y-103799200D01*
X167837070Y-103799200D01*
X167892839Y-103804693D01*
X167892839Y-103804693D01*
G37*
G36*
X113176077Y-104068445D02*
X113213828Y-104084083D01*
X113267218Y-104106197D01*
X113349241Y-104161003D01*
X113418997Y-104230759D01*
X113473803Y-104312782D01*
X113484234Y-104337965D01*
X113511555Y-104403923D01*
X113530800Y-104500676D01*
X113530800Y-104599324D01*
X113511555Y-104696077D01*
X113495917Y-104733828D01*
X113473803Y-104787218D01*
X113418997Y-104869241D01*
X113349241Y-104938997D01*
X113267218Y-104993803D01*
X113213828Y-105015917D01*
X113176077Y-105031555D01*
X113079324Y-105050800D01*
X112980676Y-105050800D01*
X112883923Y-105031555D01*
X112846172Y-105015917D01*
X112792782Y-104993803D01*
X112710759Y-104938997D01*
X112641003Y-104869241D01*
X112586197Y-104787218D01*
X112564083Y-104733828D01*
X112548445Y-104696077D01*
X112529200Y-104599324D01*
X112529200Y-104500676D01*
X112548445Y-104403923D01*
X112575766Y-104337965D01*
X112586197Y-104312782D01*
X112641003Y-104230759D01*
X112710759Y-104161003D01*
X112792782Y-104106197D01*
X112846172Y-104084083D01*
X112883923Y-104068445D01*
X112980676Y-104049200D01*
X113079324Y-104049200D01*
X113176077Y-104068445D01*
X113176077Y-104068445D01*
G37*
G36*
X115042625Y-102501905D02*
X115063030Y-102508095D01*
X115081835Y-102518147D01*
X115098323Y-102531677D01*
X115111853Y-102548165D01*
X115121905Y-102566970D01*
X115128095Y-102587375D01*
X115130800Y-102614843D01*
X115130800Y-103125157D01*
X115128095Y-103152625D01*
X115121905Y-103173030D01*
X115111853Y-103191835D01*
X115098323Y-103208323D01*
X115081835Y-103221853D01*
X115063030Y-103231905D01*
X115042625Y-103238095D01*
X115015157Y-103240800D01*
X114554843Y-103240800D01*
X114527375Y-103238095D01*
X114506970Y-103231905D01*
X114488165Y-103221853D01*
X114471677Y-103208323D01*
X114458147Y-103191835D01*
X114448095Y-103173030D01*
X114441905Y-103152625D01*
X114439200Y-103125157D01*
X114439200Y-102614843D01*
X114441905Y-102587375D01*
X114448095Y-102566970D01*
X114458147Y-102548165D01*
X114471677Y-102531677D01*
X114488165Y-102518147D01*
X114506970Y-102508095D01*
X114527375Y-102501905D01*
X114554843Y-102499200D01*
X115015157Y-102499200D01*
X115042625Y-102501905D01*
X115042625Y-102501905D01*
G37*
G36*
X114072625Y-102501905D02*
X114093030Y-102508095D01*
X114111835Y-102518147D01*
X114128323Y-102531677D01*
X114141853Y-102548165D01*
X114151905Y-102566970D01*
X114158095Y-102587375D01*
X114160800Y-102614843D01*
X114160800Y-103125157D01*
X114158095Y-103152625D01*
X114151905Y-103173030D01*
X114141853Y-103191835D01*
X114128323Y-103208323D01*
X114111835Y-103221853D01*
X114093030Y-103231905D01*
X114072625Y-103238095D01*
X114045157Y-103240800D01*
X113584843Y-103240800D01*
X113557375Y-103238095D01*
X113536970Y-103231905D01*
X113518165Y-103221853D01*
X113501677Y-103208323D01*
X113488147Y-103191835D01*
X113478095Y-103173030D01*
X113471905Y-103152625D01*
X113469200Y-103125157D01*
X113469200Y-102614843D01*
X113471905Y-102587375D01*
X113478095Y-102566970D01*
X113488147Y-102548165D01*
X113501677Y-102531677D01*
X113518165Y-102518147D01*
X113536970Y-102508095D01*
X113557375Y-102501905D01*
X113584843Y-102499200D01*
X114045157Y-102499200D01*
X114072625Y-102501905D01*
X114072625Y-102501905D01*
G37*
G36*
X167420800Y-101380800D02*
X165319200Y-101380800D01*
X165319200Y-99279200D01*
X167420800Y-99279200D01*
X167420800Y-101380800D01*
X167420800Y-101380800D01*
G37*
G36*
X113167176Y-99285900D02*
X113336507Y-99319581D01*
X113471729Y-99375592D01*
X113527740Y-99398793D01*
X113699846Y-99513791D01*
X113846209Y-99660154D01*
X113961207Y-99832260D01*
X113961207Y-99832261D01*
X114040419Y-100023493D01*
X114080800Y-100226506D01*
X114080800Y-100433494D01*
X114040419Y-100636507D01*
X113984408Y-100771729D01*
X113961207Y-100827740D01*
X113846209Y-100999846D01*
X113699846Y-101146209D01*
X113527740Y-101261207D01*
X113471729Y-101284408D01*
X113336507Y-101340419D01*
X113167176Y-101374100D01*
X113133495Y-101380800D01*
X112926505Y-101380800D01*
X112892824Y-101374100D01*
X112723493Y-101340419D01*
X112588271Y-101284408D01*
X112532260Y-101261207D01*
X112360154Y-101146209D01*
X112213791Y-100999846D01*
X112098793Y-100827740D01*
X112075592Y-100771729D01*
X112019581Y-100636507D01*
X111979200Y-100433494D01*
X111979200Y-100226506D01*
X112019581Y-100023493D01*
X112098793Y-99832261D01*
X112098793Y-99832260D01*
X112213791Y-99660154D01*
X112360154Y-99513791D01*
X112532260Y-99398793D01*
X112588271Y-99375592D01*
X112723493Y-99319581D01*
X112892824Y-99285900D01*
X112926505Y-99279200D01*
X113133495Y-99279200D01*
X113167176Y-99285900D01*
X113167176Y-99285900D01*
G37*
G36*
X164880800Y-101380800D02*
X162779200Y-101380800D01*
X162779200Y-99279200D01*
X164880800Y-99279200D01*
X164880800Y-101380800D01*
X164880800Y-101380800D01*
G37*
M02*
