G04 #@! TF.GenerationSoftware,KiCad,Pcbnew,5.1.6+dfsg1-1*
G04 #@! TF.CreationDate,2020-06-20T09:26:13-04:00*
G04 #@! TF.ProjectId,BreadBatt,42726561-6442-4617-9474-2e6b69636164,1*
G04 #@! TF.SameCoordinates,Original*
G04 #@! TF.FileFunction,Soldermask,Top*
G04 #@! TF.FilePolarity,Negative*
%FSLAX46Y46*%
G04 Gerber Fmt 4.6, Leading zero omitted, Abs format (unit mm)*
G04 Created by KiCad (PCBNEW 5.1.6+dfsg1-1) date 2020-06-20 09:26:13*
%MOMM*%
%LPD*%
G01*
G04 APERTURE LIST*
%ADD10C,0.100000*%
G04 APERTURE END LIST*
D10*
G36*
X158977338Y-115235738D02*
G01*
X159150373Y-115307412D01*
X159306100Y-115411465D01*
X159438535Y-115543900D01*
X159542588Y-115699627D01*
X159614262Y-115872662D01*
X159650800Y-116056354D01*
X159650800Y-116243646D01*
X159614262Y-116427338D01*
X159542588Y-116600373D01*
X159438535Y-116756100D01*
X159306100Y-116888535D01*
X159150373Y-116992588D01*
X158977338Y-117064262D01*
X158793646Y-117100800D01*
X158606354Y-117100800D01*
X158422662Y-117064262D01*
X158249627Y-116992588D01*
X158093900Y-116888535D01*
X157961465Y-116756100D01*
X157857412Y-116600373D01*
X157785738Y-116427338D01*
X157749200Y-116243646D01*
X157749200Y-116056354D01*
X157785738Y-115872662D01*
X157857412Y-115699627D01*
X157961465Y-115543900D01*
X158093900Y-115411465D01*
X158249627Y-115307412D01*
X158422662Y-115235738D01*
X158606354Y-115199200D01*
X158793646Y-115199200D01*
X158977338Y-115235738D01*
G37*
G36*
X167270800Y-116470800D02*
G01*
X165469200Y-116470800D01*
X165469200Y-114669200D01*
X167270800Y-114669200D01*
X167270800Y-116470800D01*
G37*
G36*
X113930800Y-116470800D02*
G01*
X112129200Y-116470800D01*
X112129200Y-114669200D01*
X113930800Y-114669200D01*
X113930800Y-116470800D01*
G37*
G36*
X115832754Y-114703817D02*
G01*
X115996689Y-114771721D01*
X116144227Y-114870303D01*
X116269697Y-114995773D01*
X116368279Y-115143311D01*
X116436183Y-115307246D01*
X116470800Y-115481279D01*
X116470800Y-115658721D01*
X116436183Y-115832754D01*
X116368279Y-115996689D01*
X116269697Y-116144227D01*
X116144227Y-116269697D01*
X115996689Y-116368279D01*
X115832754Y-116436183D01*
X115658721Y-116470800D01*
X115481279Y-116470800D01*
X115307246Y-116436183D01*
X115143311Y-116368279D01*
X114995773Y-116269697D01*
X114870303Y-116144227D01*
X114771721Y-115996689D01*
X114703817Y-115832754D01*
X114669200Y-115658721D01*
X114669200Y-115481279D01*
X114703817Y-115307246D01*
X114771721Y-115143311D01*
X114870303Y-114995773D01*
X114995773Y-114870303D01*
X115143311Y-114771721D01*
X115307246Y-114703817D01*
X115481279Y-114669200D01*
X115658721Y-114669200D01*
X115832754Y-114703817D01*
G37*
G36*
X164092754Y-114703817D02*
G01*
X164256689Y-114771721D01*
X164404227Y-114870303D01*
X164529697Y-114995773D01*
X164628279Y-115143311D01*
X164696183Y-115307246D01*
X164730800Y-115481279D01*
X164730800Y-115658721D01*
X164696183Y-115832754D01*
X164628279Y-115996689D01*
X164529697Y-116144227D01*
X164404227Y-116269697D01*
X164256689Y-116368279D01*
X164092754Y-116436183D01*
X163918721Y-116470800D01*
X163741279Y-116470800D01*
X163567246Y-116436183D01*
X163403311Y-116368279D01*
X163255773Y-116269697D01*
X163130303Y-116144227D01*
X163031721Y-115996689D01*
X162963817Y-115832754D01*
X162929200Y-115658721D01*
X162929200Y-115481279D01*
X162963817Y-115307246D01*
X163031721Y-115143311D01*
X163130303Y-114995773D01*
X163255773Y-114870303D01*
X163403311Y-114771721D01*
X163567246Y-114703817D01*
X163741279Y-114669200D01*
X163918721Y-114669200D01*
X164092754Y-114703817D01*
G37*
G36*
X115042625Y-112661905D02*
G01*
X115063028Y-112668095D01*
X115081839Y-112678149D01*
X115098323Y-112691677D01*
X115111851Y-112708161D01*
X115121905Y-112726972D01*
X115128095Y-112747375D01*
X115130800Y-112774843D01*
X115130800Y-113285157D01*
X115128095Y-113312625D01*
X115121905Y-113333028D01*
X115111851Y-113351839D01*
X115098323Y-113368323D01*
X115081839Y-113381851D01*
X115063028Y-113391905D01*
X115042625Y-113398095D01*
X115015157Y-113400800D01*
X114554843Y-113400800D01*
X114527375Y-113398095D01*
X114506972Y-113391905D01*
X114488161Y-113381851D01*
X114471677Y-113368323D01*
X114458149Y-113351839D01*
X114448095Y-113333028D01*
X114441905Y-113312625D01*
X114439200Y-113285157D01*
X114439200Y-112774843D01*
X114441905Y-112747375D01*
X114448095Y-112726972D01*
X114458149Y-112708161D01*
X114471677Y-112691677D01*
X114488161Y-112678149D01*
X114506972Y-112668095D01*
X114527375Y-112661905D01*
X114554843Y-112659200D01*
X115015157Y-112659200D01*
X115042625Y-112661905D01*
G37*
G36*
X114072625Y-112661905D02*
G01*
X114093028Y-112668095D01*
X114111839Y-112678149D01*
X114128323Y-112691677D01*
X114141851Y-112708161D01*
X114151905Y-112726972D01*
X114158095Y-112747375D01*
X114160800Y-112774843D01*
X114160800Y-113285157D01*
X114158095Y-113312625D01*
X114151905Y-113333028D01*
X114141851Y-113351839D01*
X114128323Y-113368323D01*
X114111839Y-113381851D01*
X114093028Y-113391905D01*
X114072625Y-113398095D01*
X114045157Y-113400800D01*
X113584843Y-113400800D01*
X113557375Y-113398095D01*
X113536972Y-113391905D01*
X113518161Y-113381851D01*
X113501677Y-113368323D01*
X113488149Y-113351839D01*
X113478095Y-113333028D01*
X113471905Y-113312625D01*
X113469200Y-113285157D01*
X113469200Y-112774843D01*
X113471905Y-112747375D01*
X113478095Y-112726972D01*
X113488149Y-112708161D01*
X113501677Y-112691677D01*
X113518161Y-112678149D01*
X113536972Y-112668095D01*
X113557375Y-112661905D01*
X113584843Y-112659200D01*
X114045157Y-112659200D01*
X114072625Y-112661905D01*
G37*
G36*
X170995900Y-111411792D02*
G01*
X170996511Y-111424240D01*
X170999048Y-111450000D01*
X170996511Y-111475760D01*
X170995900Y-111488208D01*
X170995900Y-111562458D01*
X170982433Y-111590933D01*
X170949270Y-111700254D01*
X170888839Y-111813314D01*
X170807512Y-111912412D01*
X170708414Y-111993739D01*
X170595354Y-112054170D01*
X170472679Y-112091384D01*
X170377074Y-112100800D01*
X169613126Y-112100800D01*
X169517521Y-112091384D01*
X169394846Y-112054170D01*
X169281786Y-111993739D01*
X169182688Y-111912412D01*
X169101361Y-111813314D01*
X169040930Y-111700254D01*
X169007767Y-111590933D01*
X168998240Y-111567932D01*
X168994300Y-111562035D01*
X168994300Y-111488208D01*
X168993689Y-111475760D01*
X168991152Y-111450000D01*
X168993689Y-111424240D01*
X168994300Y-111411792D01*
X168994300Y-110199200D01*
X170995900Y-110199200D01*
X170995900Y-111411792D01*
G37*
G36*
X113176081Y-110868446D02*
G01*
X113267216Y-110906195D01*
X113349242Y-110961003D01*
X113418997Y-111030758D01*
X113473805Y-111112784D01*
X113511554Y-111203919D01*
X113530800Y-111300676D01*
X113530800Y-111399324D01*
X113511554Y-111496081D01*
X113473805Y-111587216D01*
X113418997Y-111669242D01*
X113349242Y-111738997D01*
X113267216Y-111793805D01*
X113176081Y-111831554D01*
X113079324Y-111850800D01*
X112980676Y-111850800D01*
X112883919Y-111831554D01*
X112792784Y-111793805D01*
X112710758Y-111738997D01*
X112641003Y-111669242D01*
X112586195Y-111587216D01*
X112548446Y-111496081D01*
X112529200Y-111399324D01*
X112529200Y-111300676D01*
X112548446Y-111203919D01*
X112586195Y-111112784D01*
X112641003Y-111030758D01*
X112710758Y-110961003D01*
X112792784Y-110906195D01*
X112883919Y-110868446D01*
X112980676Y-110849200D01*
X113079324Y-110849200D01*
X113176081Y-110868446D01*
G37*
G36*
X167521393Y-104704013D02*
G01*
X167662579Y-104762495D01*
X167789644Y-104847397D01*
X167897703Y-104955456D01*
X167982605Y-105082521D01*
X168041087Y-105223707D01*
X168070900Y-105373590D01*
X168070900Y-105526410D01*
X168041087Y-105676293D01*
X167982605Y-105817479D01*
X167897703Y-105944544D01*
X167789644Y-106052603D01*
X167662579Y-106137505D01*
X167620654Y-106154871D01*
X167598702Y-106166605D01*
X167579457Y-106182399D01*
X167563663Y-106201644D01*
X167551927Y-106223601D01*
X167544700Y-106247425D01*
X167542260Y-106272201D01*
X167544700Y-106296977D01*
X167551927Y-106320802D01*
X167563663Y-106342758D01*
X167579457Y-106362003D01*
X167598702Y-106377797D01*
X167620659Y-106389533D01*
X167644483Y-106396760D01*
X167669259Y-106399200D01*
X168020900Y-106399200D01*
X168020900Y-109500800D01*
X167669259Y-109500800D01*
X167644483Y-109503240D01*
X167620659Y-109510467D01*
X167598702Y-109522203D01*
X167579457Y-109537997D01*
X167563663Y-109557242D01*
X167551927Y-109579199D01*
X167544700Y-109603023D01*
X167542260Y-109627799D01*
X167544700Y-109652575D01*
X167551927Y-109676399D01*
X167563663Y-109698356D01*
X167579457Y-109717601D01*
X167598702Y-109733395D01*
X167620654Y-109745129D01*
X167662579Y-109762495D01*
X167789644Y-109847397D01*
X167897703Y-109955456D01*
X167982605Y-110082521D01*
X168041087Y-110223707D01*
X168070900Y-110373590D01*
X168070900Y-110526410D01*
X168041087Y-110676293D01*
X167982605Y-110817479D01*
X167897703Y-110944544D01*
X167789644Y-111052603D01*
X167662579Y-111137505D01*
X167521393Y-111195987D01*
X167371510Y-111225800D01*
X167218690Y-111225800D01*
X167068807Y-111195987D01*
X166927621Y-111137505D01*
X166800556Y-111052603D01*
X166692497Y-110944544D01*
X166607595Y-110817479D01*
X166549113Y-110676293D01*
X166519300Y-110526410D01*
X166519300Y-110373590D01*
X166549113Y-110223707D01*
X166607595Y-110082521D01*
X166692497Y-109955456D01*
X166800556Y-109847397D01*
X166927621Y-109762495D01*
X166969546Y-109745129D01*
X166991498Y-109733395D01*
X167010743Y-109717601D01*
X167026537Y-109698356D01*
X167038273Y-109676399D01*
X167045500Y-109652575D01*
X167047940Y-109627799D01*
X167045500Y-109603023D01*
X167038273Y-109579198D01*
X167026537Y-109557242D01*
X167010743Y-109537997D01*
X166991498Y-109522203D01*
X166969541Y-109510467D01*
X166945717Y-109503240D01*
X166920941Y-109500800D01*
X166569300Y-109500800D01*
X166569300Y-106399200D01*
X166920941Y-106399200D01*
X166945717Y-106396760D01*
X166969541Y-106389533D01*
X166991498Y-106377797D01*
X167010743Y-106362003D01*
X167026537Y-106342758D01*
X167038273Y-106320801D01*
X167045500Y-106296977D01*
X167047940Y-106272201D01*
X167045500Y-106247425D01*
X167038273Y-106223601D01*
X167026537Y-106201644D01*
X167010743Y-106182399D01*
X166991498Y-106166605D01*
X166969546Y-106154871D01*
X166927621Y-106137505D01*
X166800556Y-106052603D01*
X166692497Y-105944544D01*
X166607595Y-105817479D01*
X166549113Y-105676293D01*
X166519300Y-105526410D01*
X166519300Y-105373590D01*
X166549113Y-105223707D01*
X166607595Y-105082521D01*
X166692497Y-104955456D01*
X166800556Y-104847397D01*
X166927621Y-104762495D01*
X167068807Y-104704013D01*
X167218690Y-104674200D01*
X167371510Y-104674200D01*
X167521393Y-104704013D01*
G37*
G36*
X117080800Y-111125800D02*
G01*
X114479200Y-111125800D01*
X114479200Y-109774200D01*
X117080800Y-109774200D01*
X117080800Y-111125800D01*
G37*
G36*
X128125272Y-106218403D02*
G01*
X128125275Y-106218404D01*
X128125274Y-106218404D01*
X128452999Y-106354152D01*
X128747943Y-106551228D01*
X128998772Y-106802057D01*
X129195848Y-107097001D01*
X129269246Y-107274200D01*
X129331597Y-107424728D01*
X129400800Y-107772637D01*
X129400800Y-108127363D01*
X129331597Y-108475272D01*
X129331596Y-108475274D01*
X129195848Y-108802999D01*
X128998772Y-109097943D01*
X128747943Y-109348772D01*
X128452999Y-109545848D01*
X128195337Y-109652575D01*
X128125272Y-109681597D01*
X127777363Y-109750800D01*
X127422637Y-109750800D01*
X127074728Y-109681597D01*
X127004663Y-109652575D01*
X126747001Y-109545848D01*
X126452057Y-109348772D01*
X126201228Y-109097943D01*
X126004152Y-108802999D01*
X125868404Y-108475274D01*
X125868403Y-108475272D01*
X125799200Y-108127363D01*
X125799200Y-107772637D01*
X125868403Y-107424728D01*
X125930754Y-107274200D01*
X126004152Y-107097001D01*
X126201228Y-106802057D01*
X126452057Y-106551228D01*
X126747001Y-106354152D01*
X127074726Y-106218404D01*
X127074725Y-106218404D01*
X127074728Y-106218403D01*
X127422637Y-106149200D01*
X127777363Y-106149200D01*
X128125272Y-106218403D01*
G37*
G36*
X170995900Y-109750800D02*
G01*
X168994300Y-109750800D01*
X168994300Y-108149200D01*
X170995900Y-108149200D01*
X170995900Y-109750800D01*
G37*
G36*
X152325272Y-106218403D02*
G01*
X152325275Y-106218404D01*
X152325274Y-106218404D01*
X152652999Y-106354152D01*
X152947943Y-106551228D01*
X153198772Y-106802057D01*
X153395848Y-107097001D01*
X153469246Y-107274200D01*
X153531597Y-107424728D01*
X153600800Y-107772637D01*
X153600800Y-108127363D01*
X153531597Y-108475272D01*
X153531596Y-108475274D01*
X153395848Y-108802999D01*
X153198772Y-109097943D01*
X152947943Y-109348772D01*
X152652999Y-109545848D01*
X152395337Y-109652575D01*
X152325272Y-109681597D01*
X151977363Y-109750800D01*
X151622637Y-109750800D01*
X151274728Y-109681597D01*
X151204663Y-109652575D01*
X150947001Y-109545848D01*
X150652057Y-109348772D01*
X150401228Y-109097943D01*
X150204152Y-108802999D01*
X150068404Y-108475274D01*
X150068403Y-108475272D01*
X149999200Y-108127363D01*
X149999200Y-107772637D01*
X150068403Y-107424728D01*
X150130754Y-107274200D01*
X150204152Y-107097001D01*
X150401228Y-106802057D01*
X150652057Y-106551228D01*
X150947001Y-106354152D01*
X151274726Y-106218404D01*
X151274725Y-106218404D01*
X151274728Y-106218403D01*
X151622637Y-106149200D01*
X151977363Y-106149200D01*
X152325272Y-106218403D01*
G37*
G36*
X159181521Y-106362639D02*
G01*
X159481947Y-106487080D01*
X159752324Y-106667740D01*
X159982260Y-106897676D01*
X160162920Y-107168053D01*
X160287361Y-107468479D01*
X160350800Y-107787410D01*
X160350800Y-108112590D01*
X160287361Y-108431521D01*
X160162920Y-108731947D01*
X159982260Y-109002324D01*
X159752324Y-109232260D01*
X159481947Y-109412920D01*
X159181521Y-109537361D01*
X158862590Y-109600800D01*
X158537410Y-109600800D01*
X158218479Y-109537361D01*
X157918053Y-109412920D01*
X157647676Y-109232260D01*
X157417740Y-109002324D01*
X157237080Y-108731947D01*
X157112639Y-108431521D01*
X157049200Y-108112590D01*
X157049200Y-107787410D01*
X157112639Y-107468479D01*
X157237080Y-107168053D01*
X157417740Y-106897676D01*
X157647676Y-106667740D01*
X157918053Y-106487080D01*
X158218479Y-106362639D01*
X158537410Y-106299200D01*
X158862590Y-106299200D01*
X159181521Y-106362639D01*
G37*
G36*
X121181521Y-106362639D02*
G01*
X121481947Y-106487080D01*
X121752324Y-106667740D01*
X121982260Y-106897676D01*
X122162920Y-107168053D01*
X122287361Y-107468479D01*
X122350800Y-107787410D01*
X122350800Y-108112590D01*
X122287361Y-108431521D01*
X122162920Y-108731947D01*
X121982260Y-109002324D01*
X121752324Y-109232260D01*
X121481947Y-109412920D01*
X121181521Y-109537361D01*
X120862590Y-109600800D01*
X120537410Y-109600800D01*
X120218479Y-109537361D01*
X119918053Y-109412920D01*
X119647676Y-109232260D01*
X119417740Y-109002324D01*
X119237080Y-108731947D01*
X119112639Y-108431521D01*
X119049200Y-108112590D01*
X119049200Y-107787410D01*
X119112639Y-107468479D01*
X119237080Y-107168053D01*
X119417740Y-106897676D01*
X119647676Y-106667740D01*
X119918053Y-106487080D01*
X120218479Y-106362639D01*
X120537410Y-106299200D01*
X120862590Y-106299200D01*
X121181521Y-106362639D01*
G37*
G36*
X117080800Y-108625800D02*
G01*
X114479200Y-108625800D01*
X114479200Y-107274200D01*
X117080800Y-107274200D01*
X117080800Y-108625800D01*
G37*
G36*
X170995900Y-107750800D02*
G01*
X168994300Y-107750800D01*
X168994300Y-106149200D01*
X170995900Y-106149200D01*
X170995900Y-107750800D01*
G37*
G36*
X117080800Y-106125800D02*
G01*
X114479200Y-106125800D01*
X114479200Y-104774200D01*
X117080800Y-104774200D01*
X117080800Y-106125800D01*
G37*
G36*
X170472679Y-103808616D02*
G01*
X170595354Y-103845830D01*
X170708414Y-103906261D01*
X170807512Y-103987588D01*
X170888839Y-104086686D01*
X170949270Y-104199746D01*
X170982433Y-104309067D01*
X170991960Y-104332068D01*
X170995900Y-104337965D01*
X170995900Y-104411792D01*
X170996511Y-104424240D01*
X170999048Y-104450000D01*
X170996511Y-104475760D01*
X170995900Y-104488208D01*
X170995900Y-105700800D01*
X168994300Y-105700800D01*
X168994300Y-104488208D01*
X168993689Y-104475760D01*
X168991152Y-104450000D01*
X168993689Y-104424240D01*
X168994300Y-104411792D01*
X168994300Y-104337542D01*
X169007767Y-104309067D01*
X169040930Y-104199746D01*
X169101361Y-104086686D01*
X169182688Y-103987588D01*
X169281786Y-103906261D01*
X169394846Y-103845830D01*
X169517521Y-103808616D01*
X169613126Y-103799200D01*
X170377074Y-103799200D01*
X170472679Y-103808616D01*
G37*
G36*
X113176081Y-104068446D02*
G01*
X113267216Y-104106195D01*
X113349242Y-104161003D01*
X113418997Y-104230758D01*
X113473805Y-104312784D01*
X113511554Y-104403919D01*
X113530800Y-104500676D01*
X113530800Y-104599324D01*
X113511554Y-104696081D01*
X113473805Y-104787216D01*
X113418997Y-104869242D01*
X113349242Y-104938997D01*
X113267216Y-104993805D01*
X113176081Y-105031554D01*
X113079324Y-105050800D01*
X112980676Y-105050800D01*
X112883919Y-105031554D01*
X112792784Y-104993805D01*
X112710758Y-104938997D01*
X112641003Y-104869242D01*
X112586195Y-104787216D01*
X112548446Y-104696081D01*
X112529200Y-104599324D01*
X112529200Y-104500676D01*
X112548446Y-104403919D01*
X112586195Y-104312784D01*
X112641003Y-104230758D01*
X112710758Y-104161003D01*
X112792784Y-104106195D01*
X112883919Y-104068446D01*
X112980676Y-104049200D01*
X113079324Y-104049200D01*
X113176081Y-104068446D01*
G37*
G36*
X114072625Y-102501905D02*
G01*
X114093028Y-102508095D01*
X114111839Y-102518149D01*
X114128323Y-102531677D01*
X114141851Y-102548161D01*
X114151905Y-102566972D01*
X114158095Y-102587375D01*
X114160800Y-102614843D01*
X114160800Y-103125157D01*
X114158095Y-103152625D01*
X114151905Y-103173028D01*
X114141851Y-103191839D01*
X114128323Y-103208323D01*
X114111839Y-103221851D01*
X114093028Y-103231905D01*
X114072625Y-103238095D01*
X114045157Y-103240800D01*
X113584843Y-103240800D01*
X113557375Y-103238095D01*
X113536972Y-103231905D01*
X113518161Y-103221851D01*
X113501677Y-103208323D01*
X113488149Y-103191839D01*
X113478095Y-103173028D01*
X113471905Y-103152625D01*
X113469200Y-103125157D01*
X113469200Y-102614843D01*
X113471905Y-102587375D01*
X113478095Y-102566972D01*
X113488149Y-102548161D01*
X113501677Y-102531677D01*
X113518161Y-102518149D01*
X113536972Y-102508095D01*
X113557375Y-102501905D01*
X113584843Y-102499200D01*
X114045157Y-102499200D01*
X114072625Y-102501905D01*
G37*
G36*
X115042625Y-102501905D02*
G01*
X115063028Y-102508095D01*
X115081839Y-102518149D01*
X115098323Y-102531677D01*
X115111851Y-102548161D01*
X115121905Y-102566972D01*
X115128095Y-102587375D01*
X115130800Y-102614843D01*
X115130800Y-103125157D01*
X115128095Y-103152625D01*
X115121905Y-103173028D01*
X115111851Y-103191839D01*
X115098323Y-103208323D01*
X115081839Y-103221851D01*
X115063028Y-103231905D01*
X115042625Y-103238095D01*
X115015157Y-103240800D01*
X114554843Y-103240800D01*
X114527375Y-103238095D01*
X114506972Y-103231905D01*
X114488161Y-103221851D01*
X114471677Y-103208323D01*
X114458149Y-103191839D01*
X114448095Y-103173028D01*
X114441905Y-103152625D01*
X114439200Y-103125157D01*
X114439200Y-102614843D01*
X114441905Y-102587375D01*
X114448095Y-102566972D01*
X114458149Y-102548161D01*
X114471677Y-102531677D01*
X114488161Y-102518149D01*
X114506972Y-102508095D01*
X114527375Y-102501905D01*
X114554843Y-102499200D01*
X115015157Y-102499200D01*
X115042625Y-102501905D01*
G37*
G36*
X113930800Y-101230800D02*
G01*
X112129200Y-101230800D01*
X112129200Y-99429200D01*
X113930800Y-99429200D01*
X113930800Y-101230800D01*
G37*
G36*
X115832754Y-99463817D02*
G01*
X115996689Y-99531721D01*
X116144227Y-99630303D01*
X116269697Y-99755773D01*
X116368279Y-99903311D01*
X116436183Y-100067246D01*
X116470800Y-100241279D01*
X116470800Y-100418721D01*
X116436183Y-100592754D01*
X116368279Y-100756689D01*
X116269697Y-100904227D01*
X116144227Y-101029697D01*
X115996689Y-101128279D01*
X115832754Y-101196183D01*
X115658721Y-101230800D01*
X115481279Y-101230800D01*
X115307246Y-101196183D01*
X115143311Y-101128279D01*
X114995773Y-101029697D01*
X114870303Y-100904227D01*
X114771721Y-100756689D01*
X114703817Y-100592754D01*
X114669200Y-100418721D01*
X114669200Y-100241279D01*
X114703817Y-100067246D01*
X114771721Y-99903311D01*
X114870303Y-99755773D01*
X114995773Y-99630303D01*
X115143311Y-99531721D01*
X115307246Y-99463817D01*
X115481279Y-99429200D01*
X115658721Y-99429200D01*
X115832754Y-99463817D01*
G37*
G36*
X164092754Y-99463817D02*
G01*
X164256689Y-99531721D01*
X164404227Y-99630303D01*
X164529697Y-99755773D01*
X164628279Y-99903311D01*
X164696183Y-100067246D01*
X164730800Y-100241279D01*
X164730800Y-100418721D01*
X164696183Y-100592754D01*
X164628279Y-100756689D01*
X164529697Y-100904227D01*
X164404227Y-101029697D01*
X164256689Y-101128279D01*
X164092754Y-101196183D01*
X163918721Y-101230800D01*
X163741279Y-101230800D01*
X163567246Y-101196183D01*
X163403311Y-101128279D01*
X163255773Y-101029697D01*
X163130303Y-100904227D01*
X163031721Y-100756689D01*
X162963817Y-100592754D01*
X162929200Y-100418721D01*
X162929200Y-100241279D01*
X162963817Y-100067246D01*
X163031721Y-99903311D01*
X163130303Y-99755773D01*
X163255773Y-99630303D01*
X163403311Y-99531721D01*
X163567246Y-99463817D01*
X163741279Y-99429200D01*
X163918721Y-99429200D01*
X164092754Y-99463817D01*
G37*
G36*
X167270800Y-101230800D02*
G01*
X165469200Y-101230800D01*
X165469200Y-99429200D01*
X167270800Y-99429200D01*
X167270800Y-101230800D01*
G37*
M02*
