G04 #@! TF.GenerationSoftware,KiCad,Pcbnew,5.0.1+dfsg1-3*
G04 #@! TF.CreationDate,2018-11-05T21:22:00-05:00*
G04 #@! TF.ProjectId,BreadBatt,4272656164426174742E6B696361645F,rev?*
G04 #@! TF.SameCoordinates,Original*
G04 #@! TF.FileFunction,Copper,L1,Top,Signal*
G04 #@! TF.FilePolarity,Positive*
%FSLAX46Y46*%
G04 Gerber Fmt 4.6, Leading zero omitted, Abs format (unit mm)*
G04 Created by KiCad (PCBNEW 5.0.1+dfsg1-3) date Mon 05 Nov 2018 09:22:00 PM EST*
%MOMM*%
%LPD*%
G01*
G04 APERTURE LIST*
G04 #@! TA.AperFunction,ComponentPad*
%ADD10C,3.200000*%
G04 #@! TD*
G04 #@! TA.AperFunction,Conductor*
%ADD11C,0.100000*%
G04 #@! TD*
G04 #@! TA.AperFunction,SMDPad,CuDef*
%ADD12C,0.590000*%
G04 #@! TD*
G04 #@! TA.AperFunction,SMDPad,CuDef*
%ADD13R,1.900000X1.500000*%
G04 #@! TD*
G04 #@! TA.AperFunction,ComponentPad*
%ADD14C,1.450000*%
G04 #@! TD*
G04 #@! TA.AperFunction,SMDPad,CuDef*
%ADD15R,1.350000X0.400000*%
G04 #@! TD*
G04 #@! TA.AperFunction,ComponentPad*
%ADD16O,1.900000X1.200000*%
G04 #@! TD*
G04 #@! TA.AperFunction,SMDPad,CuDef*
%ADD17R,1.900000X1.200000*%
G04 #@! TD*
G04 #@! TA.AperFunction,ComponentPad*
%ADD18R,2.000000X2.000000*%
G04 #@! TD*
G04 #@! TA.AperFunction,ComponentPad*
%ADD19C,2.000000*%
G04 #@! TD*
G04 #@! TA.AperFunction,SMDPad,CuDef*
%ADD20R,2.500000X1.250000*%
G04 #@! TD*
G04 #@! TA.AperFunction,ViaPad*
%ADD21C,0.508000*%
G04 #@! TD*
G04 #@! TA.AperFunction,ViaPad*
%ADD22C,1.016000*%
G04 #@! TD*
G04 #@! TA.AperFunction,Conductor*
%ADD23C,0.254000*%
G04 #@! TD*
G04 #@! TA.AperFunction,Conductor*
%ADD24C,1.016000*%
G04 #@! TD*
G04 #@! TA.AperFunction,Conductor*
%ADD25C,0.508000*%
G04 #@! TD*
G04 #@! TA.AperFunction,Conductor*
%ADD26C,0.152400*%
G04 #@! TD*
G04 APERTURE END LIST*
D10*
G04 #@! TO.P,BT1,1*
G04 #@! TO.N,+BATT*
X158700000Y-107950000D03*
G04 #@! TO.P,BT1,2*
G04 #@! TO.N,-BATT*
X120700000Y-107950000D03*
G04 #@! TD*
D11*
G04 #@! TO.N,Net-(D1-Pad2)*
G04 #@! TO.C,D1*
G36*
X114946958Y-112710710D02*
X114961276Y-112712834D01*
X114975317Y-112716351D01*
X114988946Y-112721228D01*
X115002031Y-112727417D01*
X115014447Y-112734858D01*
X115026073Y-112743481D01*
X115036798Y-112753202D01*
X115046519Y-112763927D01*
X115055142Y-112775553D01*
X115062583Y-112787969D01*
X115068772Y-112801054D01*
X115073649Y-112814683D01*
X115077166Y-112828724D01*
X115079290Y-112843042D01*
X115080000Y-112857500D01*
X115080000Y-113202500D01*
X115079290Y-113216958D01*
X115077166Y-113231276D01*
X115073649Y-113245317D01*
X115068772Y-113258946D01*
X115062583Y-113272031D01*
X115055142Y-113284447D01*
X115046519Y-113296073D01*
X115036798Y-113306798D01*
X115026073Y-113316519D01*
X115014447Y-113325142D01*
X115002031Y-113332583D01*
X114988946Y-113338772D01*
X114975317Y-113343649D01*
X114961276Y-113347166D01*
X114946958Y-113349290D01*
X114932500Y-113350000D01*
X114637500Y-113350000D01*
X114623042Y-113349290D01*
X114608724Y-113347166D01*
X114594683Y-113343649D01*
X114581054Y-113338772D01*
X114567969Y-113332583D01*
X114555553Y-113325142D01*
X114543927Y-113316519D01*
X114533202Y-113306798D01*
X114523481Y-113296073D01*
X114514858Y-113284447D01*
X114507417Y-113272031D01*
X114501228Y-113258946D01*
X114496351Y-113245317D01*
X114492834Y-113231276D01*
X114490710Y-113216958D01*
X114490000Y-113202500D01*
X114490000Y-112857500D01*
X114490710Y-112843042D01*
X114492834Y-112828724D01*
X114496351Y-112814683D01*
X114501228Y-112801054D01*
X114507417Y-112787969D01*
X114514858Y-112775553D01*
X114523481Y-112763927D01*
X114533202Y-112753202D01*
X114543927Y-112743481D01*
X114555553Y-112734858D01*
X114567969Y-112727417D01*
X114581054Y-112721228D01*
X114594683Y-112716351D01*
X114608724Y-112712834D01*
X114623042Y-112710710D01*
X114637500Y-112710000D01*
X114932500Y-112710000D01*
X114946958Y-112710710D01*
X114946958Y-112710710D01*
G37*
D12*
G04 #@! TD*
G04 #@! TO.P,D1,2*
G04 #@! TO.N,Net-(D1-Pad2)*
X114785000Y-113030000D03*
D11*
G04 #@! TO.N,Net-(D1-Pad1)*
G04 #@! TO.C,D1*
G36*
X113976958Y-112710710D02*
X113991276Y-112712834D01*
X114005317Y-112716351D01*
X114018946Y-112721228D01*
X114032031Y-112727417D01*
X114044447Y-112734858D01*
X114056073Y-112743481D01*
X114066798Y-112753202D01*
X114076519Y-112763927D01*
X114085142Y-112775553D01*
X114092583Y-112787969D01*
X114098772Y-112801054D01*
X114103649Y-112814683D01*
X114107166Y-112828724D01*
X114109290Y-112843042D01*
X114110000Y-112857500D01*
X114110000Y-113202500D01*
X114109290Y-113216958D01*
X114107166Y-113231276D01*
X114103649Y-113245317D01*
X114098772Y-113258946D01*
X114092583Y-113272031D01*
X114085142Y-113284447D01*
X114076519Y-113296073D01*
X114066798Y-113306798D01*
X114056073Y-113316519D01*
X114044447Y-113325142D01*
X114032031Y-113332583D01*
X114018946Y-113338772D01*
X114005317Y-113343649D01*
X113991276Y-113347166D01*
X113976958Y-113349290D01*
X113962500Y-113350000D01*
X113667500Y-113350000D01*
X113653042Y-113349290D01*
X113638724Y-113347166D01*
X113624683Y-113343649D01*
X113611054Y-113338772D01*
X113597969Y-113332583D01*
X113585553Y-113325142D01*
X113573927Y-113316519D01*
X113563202Y-113306798D01*
X113553481Y-113296073D01*
X113544858Y-113284447D01*
X113537417Y-113272031D01*
X113531228Y-113258946D01*
X113526351Y-113245317D01*
X113522834Y-113231276D01*
X113520710Y-113216958D01*
X113520000Y-113202500D01*
X113520000Y-112857500D01*
X113520710Y-112843042D01*
X113522834Y-112828724D01*
X113526351Y-112814683D01*
X113531228Y-112801054D01*
X113537417Y-112787969D01*
X113544858Y-112775553D01*
X113553481Y-112763927D01*
X113563202Y-112753202D01*
X113573927Y-112743481D01*
X113585553Y-112734858D01*
X113597969Y-112727417D01*
X113611054Y-112721228D01*
X113624683Y-112716351D01*
X113638724Y-112712834D01*
X113653042Y-112710710D01*
X113667500Y-112710000D01*
X113962500Y-112710000D01*
X113976958Y-112710710D01*
X113976958Y-112710710D01*
G37*
D12*
G04 #@! TD*
G04 #@! TO.P,D1,1*
G04 #@! TO.N,Net-(D1-Pad1)*
X113815000Y-113030000D03*
D11*
G04 #@! TO.N,-BATT*
G04 #@! TO.C,D3*
G36*
X113976958Y-102550710D02*
X113991276Y-102552834D01*
X114005317Y-102556351D01*
X114018946Y-102561228D01*
X114032031Y-102567417D01*
X114044447Y-102574858D01*
X114056073Y-102583481D01*
X114066798Y-102593202D01*
X114076519Y-102603927D01*
X114085142Y-102615553D01*
X114092583Y-102627969D01*
X114098772Y-102641054D01*
X114103649Y-102654683D01*
X114107166Y-102668724D01*
X114109290Y-102683042D01*
X114110000Y-102697500D01*
X114110000Y-103042500D01*
X114109290Y-103056958D01*
X114107166Y-103071276D01*
X114103649Y-103085317D01*
X114098772Y-103098946D01*
X114092583Y-103112031D01*
X114085142Y-103124447D01*
X114076519Y-103136073D01*
X114066798Y-103146798D01*
X114056073Y-103156519D01*
X114044447Y-103165142D01*
X114032031Y-103172583D01*
X114018946Y-103178772D01*
X114005317Y-103183649D01*
X113991276Y-103187166D01*
X113976958Y-103189290D01*
X113962500Y-103190000D01*
X113667500Y-103190000D01*
X113653042Y-103189290D01*
X113638724Y-103187166D01*
X113624683Y-103183649D01*
X113611054Y-103178772D01*
X113597969Y-103172583D01*
X113585553Y-103165142D01*
X113573927Y-103156519D01*
X113563202Y-103146798D01*
X113553481Y-103136073D01*
X113544858Y-103124447D01*
X113537417Y-103112031D01*
X113531228Y-103098946D01*
X113526351Y-103085317D01*
X113522834Y-103071276D01*
X113520710Y-103056958D01*
X113520000Y-103042500D01*
X113520000Y-102697500D01*
X113520710Y-102683042D01*
X113522834Y-102668724D01*
X113526351Y-102654683D01*
X113531228Y-102641054D01*
X113537417Y-102627969D01*
X113544858Y-102615553D01*
X113553481Y-102603927D01*
X113563202Y-102593202D01*
X113573927Y-102583481D01*
X113585553Y-102574858D01*
X113597969Y-102567417D01*
X113611054Y-102561228D01*
X113624683Y-102556351D01*
X113638724Y-102552834D01*
X113653042Y-102550710D01*
X113667500Y-102550000D01*
X113962500Y-102550000D01*
X113976958Y-102550710D01*
X113976958Y-102550710D01*
G37*
D12*
G04 #@! TD*
G04 #@! TO.P,D3,1*
G04 #@! TO.N,-BATT*
X113815000Y-102870000D03*
D11*
G04 #@! TO.N,Net-(D3-Pad2)*
G04 #@! TO.C,D3*
G36*
X114946958Y-102550710D02*
X114961276Y-102552834D01*
X114975317Y-102556351D01*
X114988946Y-102561228D01*
X115002031Y-102567417D01*
X115014447Y-102574858D01*
X115026073Y-102583481D01*
X115036798Y-102593202D01*
X115046519Y-102603927D01*
X115055142Y-102615553D01*
X115062583Y-102627969D01*
X115068772Y-102641054D01*
X115073649Y-102654683D01*
X115077166Y-102668724D01*
X115079290Y-102683042D01*
X115080000Y-102697500D01*
X115080000Y-103042500D01*
X115079290Y-103056958D01*
X115077166Y-103071276D01*
X115073649Y-103085317D01*
X115068772Y-103098946D01*
X115062583Y-103112031D01*
X115055142Y-103124447D01*
X115046519Y-103136073D01*
X115036798Y-103146798D01*
X115026073Y-103156519D01*
X115014447Y-103165142D01*
X115002031Y-103172583D01*
X114988946Y-103178772D01*
X114975317Y-103183649D01*
X114961276Y-103187166D01*
X114946958Y-103189290D01*
X114932500Y-103190000D01*
X114637500Y-103190000D01*
X114623042Y-103189290D01*
X114608724Y-103187166D01*
X114594683Y-103183649D01*
X114581054Y-103178772D01*
X114567969Y-103172583D01*
X114555553Y-103165142D01*
X114543927Y-103156519D01*
X114533202Y-103146798D01*
X114523481Y-103136073D01*
X114514858Y-103124447D01*
X114507417Y-103112031D01*
X114501228Y-103098946D01*
X114496351Y-103085317D01*
X114492834Y-103071276D01*
X114490710Y-103056958D01*
X114490000Y-103042500D01*
X114490000Y-102697500D01*
X114490710Y-102683042D01*
X114492834Y-102668724D01*
X114496351Y-102654683D01*
X114501228Y-102641054D01*
X114507417Y-102627969D01*
X114514858Y-102615553D01*
X114523481Y-102603927D01*
X114533202Y-102593202D01*
X114543927Y-102583481D01*
X114555553Y-102574858D01*
X114567969Y-102567417D01*
X114581054Y-102561228D01*
X114594683Y-102556351D01*
X114608724Y-102552834D01*
X114623042Y-102550710D01*
X114637500Y-102550000D01*
X114932500Y-102550000D01*
X114946958Y-102550710D01*
X114946958Y-102550710D01*
G37*
D12*
G04 #@! TD*
G04 #@! TO.P,D3,2*
G04 #@! TO.N,Net-(D3-Pad2)*
X114785000Y-102870000D03*
D13*
G04 #@! TO.P,J7,SH*
G04 #@! TO.N,-BATT*
X167455100Y-106950000D03*
D14*
X164755100Y-110450000D03*
D15*
G04 #@! TO.P,J7,2*
G04 #@! TO.N,Net-(J7-Pad2)*
X164755100Y-108600000D03*
G04 #@! TO.P,J7,1*
G04 #@! TO.N,VBUS*
X164755100Y-109250000D03*
G04 #@! TO.P,J7,5*
G04 #@! TO.N,-BATT*
X164755100Y-106650000D03*
G04 #@! TO.P,J7,4*
G04 #@! TO.N,Net-(J7-Pad4)*
X164755100Y-107300000D03*
G04 #@! TO.P,J7,3*
G04 #@! TO.N,Net-(J7-Pad3)*
X164755100Y-107950000D03*
D14*
G04 #@! TO.P,J7,SH*
G04 #@! TO.N,-BATT*
X164755100Y-105450000D03*
D13*
X167455100Y-108950000D03*
D16*
X167455100Y-111450000D03*
X167455100Y-104450000D03*
D17*
X167455100Y-105050000D03*
X167455100Y-110850000D03*
G04 #@! TD*
D18*
G04 #@! TO.P,J3,1*
G04 #@! TO.N,+3V3*
X166370000Y-100330000D03*
G04 #@! TD*
D19*
G04 #@! TO.P,J4,1*
G04 #@! TO.N,-BATT*
X113030000Y-115570000D03*
G04 #@! TD*
D18*
G04 #@! TO.P,J5,1*
G04 #@! TO.N,+3V3*
X166370000Y-115570000D03*
G04 #@! TD*
D19*
G04 #@! TO.P,J6,1*
G04 #@! TO.N,-BATT*
X113030000Y-100330000D03*
G04 #@! TD*
D18*
G04 #@! TO.P,J1,1*
G04 #@! TO.N,+5V*
X163830000Y-100330000D03*
G04 #@! TD*
D19*
G04 #@! TO.P,J2,1*
G04 #@! TO.N,-BATT*
X163830000Y-115570000D03*
G04 #@! TD*
D20*
G04 #@! TO.P,SW1,3*
G04 #@! TO.N,Net-(SW1-Pad3)*
X115780000Y-110450000D03*
G04 #@! TO.P,SW1,2*
G04 #@! TO.N,Net-(R1-Pad2)*
X115780000Y-107950000D03*
G04 #@! TO.P,SW1,1*
G04 #@! TO.N,+BATT*
X115780000Y-105450000D03*
G04 #@! TD*
D21*
G04 #@! TO.N,+BATT*
X122682000Y-113030000D03*
D22*
G04 #@! TO.N,+3V3*
X161671008Y-110871008D03*
D21*
X122174000Y-102870000D03*
G04 #@! TO.N,Net-(D1-Pad2)*
X117856000Y-113030000D03*
G04 #@! TO.N,Net-(D1-Pad1)*
X150622000Y-102910000D03*
G04 #@! TO.N,VBUS*
X163225000Y-109250000D03*
G04 #@! TO.N,Net-(D3-Pad2)*
X117856000Y-102870000D03*
G04 #@! TO.N,Net-(R1-Pad2)*
X117602000Y-109156500D03*
G04 #@! TD*
D23*
G04 #@! TO.N,+BATT*
X116118000Y-105450000D02*
X115780000Y-105450000D01*
X117856000Y-107188000D02*
X116118000Y-105450000D01*
X117856000Y-108204000D02*
X117856000Y-107188000D01*
X122682000Y-113030000D02*
X117856000Y-108204000D01*
G04 #@! TO.N,+3V3*
X123698000Y-101346000D02*
X122174000Y-102870000D01*
X161671000Y-105029000D02*
X157988000Y-101346000D01*
X157988000Y-101346000D02*
X123698000Y-101346000D01*
D24*
X164084000Y-102616000D02*
X161671000Y-105029000D01*
X164732722Y-102616000D02*
X164084000Y-102616000D01*
X166370000Y-100330000D02*
X166370000Y-100978722D01*
X166370000Y-100978722D02*
X164732722Y-102616000D01*
X164846000Y-113284000D02*
X164084000Y-113284000D01*
X166370000Y-114808000D02*
X164846000Y-113284000D01*
X161671000Y-105664000D02*
X161671000Y-105029000D01*
X166370000Y-115570000D02*
X166370000Y-114808000D01*
X164084000Y-113284000D02*
X161671000Y-110871000D01*
X161671000Y-110871000D02*
X161671000Y-105664000D01*
D23*
G04 #@! TO.N,Net-(D1-Pad2)*
X114785000Y-113030000D02*
X117856000Y-113030000D01*
G04 #@! TO.N,Net-(D1-Pad1)*
X150582000Y-102910000D02*
X150622000Y-102910000D01*
X139192000Y-114300000D02*
X150582000Y-102910000D01*
X113815000Y-113030000D02*
X115085000Y-114300000D01*
X115085000Y-114300000D02*
X139192000Y-114300000D01*
D25*
G04 #@! TO.N,VBUS*
X164755100Y-109250000D02*
X163225000Y-109250000D01*
D23*
G04 #@! TO.N,Net-(D3-Pad2)*
X114785000Y-102870000D02*
X117856000Y-102870000D01*
G04 #@! TO.N,Net-(R1-Pad2)*
X116405000Y-107950000D02*
X117602000Y-109147000D01*
X115780000Y-107950000D02*
X116405000Y-107950000D01*
X117602000Y-109147000D02*
X117602000Y-109156500D01*
G04 #@! TD*
D26*
G04 #@! TO.N,-BATT*
G36*
X168516301Y-103736317D02*
X168510039Y-103724981D01*
X168178926Y-103510401D01*
X167790901Y-103438867D01*
X167632900Y-103548787D01*
X167632900Y-104272200D01*
X167652900Y-104272200D01*
X167652900Y-104627800D01*
X167632900Y-104627800D01*
X167632900Y-105351213D01*
X167790901Y-105461133D01*
X168178926Y-105389599D01*
X168510039Y-105175019D01*
X168516301Y-105163684D01*
X168516300Y-110736316D01*
X168510039Y-110724981D01*
X168178926Y-110510401D01*
X167790901Y-110438867D01*
X167632900Y-110548787D01*
X167632900Y-111272200D01*
X167652900Y-111272200D01*
X167652900Y-111627800D01*
X167632900Y-111627800D01*
X167632900Y-112351213D01*
X167790901Y-112461133D01*
X168178926Y-112389599D01*
X168510039Y-112175019D01*
X168516300Y-112163684D01*
X168516300Y-117716300D01*
X110883700Y-117716300D01*
X110883700Y-116615464D01*
X112235983Y-116615464D01*
X112352834Y-116804530D01*
X112876815Y-116969697D01*
X113424116Y-116921773D01*
X113707166Y-116804530D01*
X113824017Y-116615464D01*
X113030000Y-115821447D01*
X112235983Y-116615464D01*
X110883700Y-116615464D01*
X110883700Y-115416815D01*
X111630303Y-115416815D01*
X111678227Y-115964116D01*
X111795470Y-116247166D01*
X111984536Y-116364017D01*
X112778553Y-115570000D01*
X113281447Y-115570000D01*
X114075464Y-116364017D01*
X114264530Y-116247166D01*
X114375477Y-115895193D01*
X157419000Y-115895193D01*
X157419000Y-116404807D01*
X157614021Y-116875628D01*
X157974372Y-117235979D01*
X158445193Y-117431000D01*
X158954807Y-117431000D01*
X159425628Y-117235979D01*
X159785979Y-116875628D01*
X159893742Y-116615464D01*
X163035983Y-116615464D01*
X163152834Y-116804530D01*
X163676815Y-116969697D01*
X164224116Y-116921773D01*
X164507166Y-116804530D01*
X164624017Y-116615464D01*
X163830000Y-115821447D01*
X163035983Y-116615464D01*
X159893742Y-116615464D01*
X159981000Y-116404807D01*
X159981000Y-115895193D01*
X159785979Y-115424372D01*
X159778422Y-115416815D01*
X162430303Y-115416815D01*
X162478227Y-115964116D01*
X162595470Y-116247166D01*
X162784536Y-116364017D01*
X163578553Y-115570000D01*
X162784536Y-114775983D01*
X162595470Y-114892834D01*
X162430303Y-115416815D01*
X159778422Y-115416815D01*
X159425628Y-115064021D01*
X158954807Y-114869000D01*
X158445193Y-114869000D01*
X157974372Y-115064021D01*
X157614021Y-115424372D01*
X157419000Y-115895193D01*
X114375477Y-115895193D01*
X114429697Y-115723185D01*
X114381773Y-115175884D01*
X114264530Y-114892834D01*
X114075464Y-114775983D01*
X113281447Y-115570000D01*
X112778553Y-115570000D01*
X111984536Y-114775983D01*
X111795470Y-114892834D01*
X111630303Y-115416815D01*
X110883700Y-115416815D01*
X110883700Y-114524536D01*
X112235983Y-114524536D01*
X113030000Y-115318553D01*
X113824017Y-114524536D01*
X113707166Y-114335470D01*
X113183185Y-114170303D01*
X112635884Y-114218227D01*
X112352834Y-114335470D01*
X112235983Y-114524536D01*
X110883700Y-114524536D01*
X110883700Y-112857500D01*
X113131536Y-112857500D01*
X113131536Y-113202500D01*
X113172334Y-113407605D01*
X113288516Y-113581484D01*
X113462395Y-113697666D01*
X113667500Y-113738464D01*
X113805044Y-113738464D01*
X114690414Y-114623835D01*
X114718753Y-114666247D01*
X114761165Y-114694586D01*
X114761167Y-114694588D01*
X114882984Y-114775983D01*
X114886788Y-114778525D01*
X115034968Y-114808000D01*
X115034971Y-114808000D01*
X115084999Y-114817951D01*
X115135027Y-114808000D01*
X139141972Y-114808000D01*
X139192000Y-114817951D01*
X139242028Y-114808000D01*
X139242032Y-114808000D01*
X139390212Y-114778525D01*
X139558247Y-114666247D01*
X139586588Y-114623832D01*
X146684302Y-107526118D01*
X149669000Y-107526118D01*
X149669000Y-108373882D01*
X149993425Y-109157115D01*
X150592885Y-109756575D01*
X151376118Y-110081000D01*
X152223882Y-110081000D01*
X153007115Y-109756575D01*
X153606575Y-109157115D01*
X153931000Y-108373882D01*
X153931000Y-107555955D01*
X156719000Y-107555955D01*
X156719000Y-108344045D01*
X157020589Y-109072146D01*
X157577854Y-109629411D01*
X158305955Y-109931000D01*
X159094045Y-109931000D01*
X159822146Y-109629411D01*
X160379411Y-109072146D01*
X160681000Y-108344045D01*
X160681000Y-107555955D01*
X160379411Y-106827854D01*
X159822146Y-106270589D01*
X159094045Y-105969000D01*
X158305955Y-105969000D01*
X157577854Y-106270589D01*
X157020589Y-106827854D01*
X156719000Y-107555955D01*
X153931000Y-107555955D01*
X153931000Y-107526118D01*
X153606575Y-106742885D01*
X153007115Y-106143425D01*
X152223882Y-105819000D01*
X151376118Y-105819000D01*
X150592885Y-106143425D01*
X149993425Y-106742885D01*
X149669000Y-107526118D01*
X146684302Y-107526118D01*
X150665420Y-103545000D01*
X150748309Y-103545000D01*
X150981698Y-103448327D01*
X151160327Y-103269698D01*
X151257000Y-103036309D01*
X151257000Y-102783691D01*
X151160327Y-102550302D01*
X150981698Y-102371673D01*
X150748309Y-102275000D01*
X150495691Y-102275000D01*
X150262302Y-102371673D01*
X150083673Y-102550302D01*
X149987000Y-102783691D01*
X149987000Y-102786580D01*
X138981580Y-113792000D01*
X115295421Y-113792000D01*
X115175660Y-113672239D01*
X115311484Y-113581484D01*
X115340539Y-113538000D01*
X117465975Y-113538000D01*
X117496302Y-113568327D01*
X117729691Y-113665000D01*
X117982309Y-113665000D01*
X118215698Y-113568327D01*
X118394327Y-113389698D01*
X118491000Y-113156309D01*
X118491000Y-112903691D01*
X118394327Y-112670302D01*
X118215698Y-112491673D01*
X117982309Y-112395000D01*
X117729691Y-112395000D01*
X117496302Y-112491673D01*
X117465975Y-112522000D01*
X115340539Y-112522000D01*
X115311484Y-112478516D01*
X115137605Y-112362334D01*
X114932500Y-112321536D01*
X114637500Y-112321536D01*
X114432395Y-112362334D01*
X114300000Y-112450797D01*
X114167605Y-112362334D01*
X113962500Y-112321536D01*
X113667500Y-112321536D01*
X113462395Y-112362334D01*
X113288516Y-112478516D01*
X113172334Y-112652395D01*
X113131536Y-112857500D01*
X110883700Y-112857500D01*
X110883700Y-111184704D01*
X112199000Y-111184704D01*
X112199000Y-111515296D01*
X112325512Y-111820724D01*
X112559276Y-112054488D01*
X112864704Y-112181000D01*
X113195296Y-112181000D01*
X113500724Y-112054488D01*
X113734488Y-111820724D01*
X113861000Y-111515296D01*
X113861000Y-111184704D01*
X113734488Y-110879276D01*
X113500724Y-110645512D01*
X113195296Y-110519000D01*
X112864704Y-110519000D01*
X112559276Y-110645512D01*
X112325512Y-110879276D01*
X112199000Y-111184704D01*
X110883700Y-111184704D01*
X110883700Y-104384704D01*
X112199000Y-104384704D01*
X112199000Y-104715296D01*
X112325512Y-105020724D01*
X112559276Y-105254488D01*
X112864704Y-105381000D01*
X113195296Y-105381000D01*
X113500724Y-105254488D01*
X113734488Y-105020724D01*
X113815559Y-104825000D01*
X114141536Y-104825000D01*
X114141536Y-106075000D01*
X114171106Y-106223659D01*
X114255314Y-106349686D01*
X114381341Y-106433894D01*
X114530000Y-106463464D01*
X116413044Y-106463464D01*
X116886115Y-106936536D01*
X114530000Y-106936536D01*
X114381341Y-106966106D01*
X114255314Y-107050314D01*
X114171106Y-107176341D01*
X114141536Y-107325000D01*
X114141536Y-108575000D01*
X114171106Y-108723659D01*
X114255314Y-108849686D01*
X114381341Y-108933894D01*
X114530000Y-108963464D01*
X116700043Y-108963464D01*
X116967000Y-109230421D01*
X116967000Y-109282809D01*
X117030737Y-109436683D01*
X117030000Y-109436536D01*
X114530000Y-109436536D01*
X114381341Y-109466106D01*
X114255314Y-109550314D01*
X114171106Y-109676341D01*
X114141536Y-109825000D01*
X114141536Y-111075000D01*
X114171106Y-111223659D01*
X114255314Y-111349686D01*
X114381341Y-111433894D01*
X114530000Y-111463464D01*
X117030000Y-111463464D01*
X117178659Y-111433894D01*
X117304686Y-111349686D01*
X117388894Y-111223659D01*
X117418464Y-111075000D01*
X117418464Y-109825000D01*
X117406064Y-109762659D01*
X117475691Y-109791500D01*
X117728309Y-109791500D01*
X117961698Y-109694827D01*
X118140327Y-109516198D01*
X118230963Y-109297383D01*
X122047000Y-113113421D01*
X122047000Y-113156309D01*
X122143673Y-113389698D01*
X122322302Y-113568327D01*
X122555691Y-113665000D01*
X122808309Y-113665000D01*
X123041698Y-113568327D01*
X123220327Y-113389698D01*
X123317000Y-113156309D01*
X123317000Y-112903691D01*
X123220327Y-112670302D01*
X123041698Y-112491673D01*
X122808309Y-112395000D01*
X122765421Y-112395000D01*
X120270952Y-109900532D01*
X120403203Y-109947884D01*
X121190352Y-109909384D01*
X121738762Y-109682225D01*
X121929326Y-109430773D01*
X120700000Y-108201447D01*
X120685858Y-108215590D01*
X120434411Y-107964143D01*
X120448553Y-107950000D01*
X120951447Y-107950000D01*
X122180773Y-109179326D01*
X122432225Y-108988762D01*
X122697884Y-108246797D01*
X122662636Y-107526118D01*
X125469000Y-107526118D01*
X125469000Y-108373882D01*
X125793425Y-109157115D01*
X126392885Y-109756575D01*
X127176118Y-110081000D01*
X128023882Y-110081000D01*
X128807115Y-109756575D01*
X129406575Y-109157115D01*
X129731000Y-108373882D01*
X129731000Y-107526118D01*
X129406575Y-106742885D01*
X128807115Y-106143425D01*
X128023882Y-105819000D01*
X127176118Y-105819000D01*
X126392885Y-106143425D01*
X125793425Y-106742885D01*
X125469000Y-107526118D01*
X122662636Y-107526118D01*
X122659384Y-107459648D01*
X122432225Y-106911238D01*
X122180773Y-106720674D01*
X120951447Y-107950000D01*
X120448553Y-107950000D01*
X119219227Y-106720674D01*
X118967775Y-106911238D01*
X118702116Y-107653203D01*
X118737008Y-108366588D01*
X118364000Y-107993580D01*
X118364000Y-107238027D01*
X118373951Y-107187999D01*
X118364000Y-107137971D01*
X118364000Y-107137968D01*
X118334525Y-106989788D01*
X118318701Y-106966106D01*
X118250588Y-106864167D01*
X118250586Y-106864165D01*
X118222247Y-106821753D01*
X118179835Y-106793414D01*
X117855648Y-106469227D01*
X119470674Y-106469227D01*
X120700000Y-107698553D01*
X121929326Y-106469227D01*
X121738762Y-106217775D01*
X120996797Y-105952116D01*
X120209648Y-105990616D01*
X119661238Y-106217775D01*
X119470674Y-106469227D01*
X117855648Y-106469227D01*
X117418464Y-106032043D01*
X117418464Y-104825000D01*
X117388894Y-104676341D01*
X117304686Y-104550314D01*
X117178659Y-104466106D01*
X117030000Y-104436536D01*
X114530000Y-104436536D01*
X114381341Y-104466106D01*
X114255314Y-104550314D01*
X114171106Y-104676341D01*
X114141536Y-104825000D01*
X113815559Y-104825000D01*
X113861000Y-104715296D01*
X113861000Y-104384704D01*
X113734488Y-104079276D01*
X113500724Y-103845512D01*
X113195296Y-103719000D01*
X112864704Y-103719000D01*
X112559276Y-103845512D01*
X112325512Y-104079276D01*
X112199000Y-104384704D01*
X110883700Y-104384704D01*
X110883700Y-102697500D01*
X114101536Y-102697500D01*
X114101536Y-103042500D01*
X114142334Y-103247605D01*
X114258516Y-103421484D01*
X114432395Y-103537666D01*
X114637500Y-103578464D01*
X114932500Y-103578464D01*
X115137605Y-103537666D01*
X115311484Y-103421484D01*
X115340539Y-103378000D01*
X117465975Y-103378000D01*
X117496302Y-103408327D01*
X117729691Y-103505000D01*
X117982309Y-103505000D01*
X118215698Y-103408327D01*
X118394327Y-103229698D01*
X118491000Y-102996309D01*
X118491000Y-102743691D01*
X121539000Y-102743691D01*
X121539000Y-102996309D01*
X121635673Y-103229698D01*
X121814302Y-103408327D01*
X122047691Y-103505000D01*
X122300309Y-103505000D01*
X122533698Y-103408327D01*
X122712327Y-103229698D01*
X122809000Y-102996309D01*
X122809000Y-102953420D01*
X123908420Y-101854000D01*
X157777580Y-101854000D01*
X160795775Y-104872195D01*
X160764584Y-105029000D01*
X160782000Y-105116555D01*
X160782000Y-105751555D01*
X160782001Y-105751560D01*
X160782000Y-110783445D01*
X160764584Y-110871000D01*
X160782000Y-110958555D01*
X160782008Y-110958595D01*
X160782008Y-111047841D01*
X160816161Y-111130294D01*
X160833581Y-111217869D01*
X160883188Y-111292112D01*
X160917350Y-111374586D01*
X160980470Y-111437706D01*
X161030067Y-111511933D01*
X161104293Y-111561529D01*
X161167430Y-111624666D01*
X161167432Y-111624667D01*
X163393470Y-113850706D01*
X163443067Y-113924933D01*
X163737130Y-114121419D01*
X163982977Y-114170321D01*
X163435884Y-114218227D01*
X163152834Y-114335470D01*
X163035983Y-114524536D01*
X163830000Y-115318553D01*
X164624017Y-114524536D01*
X164507166Y-114335470D01*
X163983698Y-114170465D01*
X163996444Y-114173000D01*
X163996448Y-114173000D01*
X164083999Y-114190415D01*
X164171550Y-114173000D01*
X164477765Y-114173000D01*
X164981536Y-114676772D01*
X164981536Y-114841540D01*
X164875464Y-114775983D01*
X164081447Y-115570000D01*
X164875464Y-116364017D01*
X164981536Y-116298460D01*
X164981536Y-116570000D01*
X165011106Y-116718659D01*
X165095314Y-116844686D01*
X165221341Y-116928894D01*
X165370000Y-116958464D01*
X167370000Y-116958464D01*
X167518659Y-116928894D01*
X167644686Y-116844686D01*
X167728894Y-116718659D01*
X167758464Y-116570000D01*
X167758464Y-114570000D01*
X167728894Y-114421341D01*
X167644686Y-114295314D01*
X167518659Y-114211106D01*
X167370000Y-114181536D01*
X167020601Y-114181536D01*
X167010933Y-114167067D01*
X166936707Y-114117471D01*
X165536531Y-112717296D01*
X165486933Y-112643067D01*
X165192870Y-112446581D01*
X164933556Y-112395000D01*
X164933555Y-112395000D01*
X164846000Y-112377584D01*
X164758445Y-112395000D01*
X164452236Y-112395000D01*
X163833768Y-111776532D01*
X166180039Y-111776532D01*
X166400161Y-112175019D01*
X166731274Y-112389599D01*
X167119299Y-112461133D01*
X167277300Y-112351213D01*
X167277300Y-111627800D01*
X166237379Y-111627800D01*
X166180039Y-111776532D01*
X163833768Y-111776532D01*
X163352082Y-111294846D01*
X164161701Y-111294846D01*
X164244408Y-111455400D01*
X164668032Y-111574302D01*
X165104911Y-111522039D01*
X165265792Y-111455400D01*
X165348499Y-111294846D01*
X165177121Y-111123468D01*
X166180039Y-111123468D01*
X166237379Y-111272200D01*
X167277300Y-111272200D01*
X167277300Y-110548787D01*
X167119299Y-110438867D01*
X166731274Y-110510401D01*
X166400161Y-110724981D01*
X166180039Y-111123468D01*
X165177121Y-111123468D01*
X164755100Y-110701447D01*
X164161701Y-111294846D01*
X163352082Y-111294846D01*
X162560000Y-110502765D01*
X162560000Y-109250000D01*
X162577560Y-109250000D01*
X162590000Y-109312541D01*
X162590000Y-109376309D01*
X162614403Y-109435222D01*
X162626843Y-109497765D01*
X162662271Y-109550786D01*
X162686673Y-109609698D01*
X162731764Y-109654789D01*
X162767191Y-109707809D01*
X162820211Y-109743236D01*
X162865302Y-109788327D01*
X162924214Y-109812729D01*
X162977235Y-109848157D01*
X163039778Y-109860598D01*
X163098691Y-109885000D01*
X163855125Y-109885000D01*
X163749700Y-109939308D01*
X163630798Y-110362932D01*
X163683061Y-110799811D01*
X163749700Y-110960692D01*
X163910254Y-111043399D01*
X164503653Y-110450000D01*
X164489511Y-110435858D01*
X164740958Y-110184411D01*
X164755100Y-110198553D01*
X164769243Y-110184411D01*
X165020690Y-110435858D01*
X165006547Y-110450000D01*
X165599946Y-111043399D01*
X165760500Y-110960692D01*
X165879402Y-110537068D01*
X165827139Y-110100189D01*
X165760500Y-109939308D01*
X165599948Y-109856602D01*
X165677151Y-109779399D01*
X165655422Y-109757670D01*
X165704786Y-109724686D01*
X165788994Y-109598659D01*
X165818564Y-109450000D01*
X165818564Y-109050000D01*
X165793700Y-108925000D01*
X165818564Y-108800000D01*
X165818564Y-108400000D01*
X165793700Y-108275000D01*
X165818564Y-108150000D01*
X165818564Y-107750000D01*
X165793700Y-107625000D01*
X165818564Y-107500000D01*
X165818564Y-107100000D01*
X165788994Y-106951341D01*
X165704786Y-106825314D01*
X165578759Y-106741106D01*
X165430100Y-106711536D01*
X164080100Y-106711536D01*
X163931441Y-106741106D01*
X163805414Y-106825314D01*
X163721206Y-106951341D01*
X163691636Y-107100000D01*
X163691636Y-107500000D01*
X163716500Y-107625000D01*
X163691636Y-107750000D01*
X163691636Y-108150000D01*
X163716500Y-108275000D01*
X163691636Y-108400000D01*
X163691636Y-108615000D01*
X163098691Y-108615000D01*
X163039778Y-108639402D01*
X162977235Y-108651843D01*
X162924214Y-108687271D01*
X162865302Y-108711673D01*
X162820211Y-108756764D01*
X162767191Y-108792191D01*
X162731764Y-108845211D01*
X162686673Y-108890302D01*
X162662271Y-108949214D01*
X162626843Y-109002235D01*
X162614403Y-109064778D01*
X162590000Y-109123691D01*
X162590000Y-109187459D01*
X162577560Y-109250000D01*
X162560000Y-109250000D01*
X162560000Y-106294846D01*
X164161701Y-106294846D01*
X164244408Y-106455400D01*
X164668032Y-106574302D01*
X165104911Y-106522039D01*
X165265792Y-106455400D01*
X165348499Y-106294846D01*
X164755100Y-105701447D01*
X164161701Y-106294846D01*
X162560000Y-106294846D01*
X162560000Y-105397235D01*
X162594303Y-105362932D01*
X163630798Y-105362932D01*
X163683061Y-105799811D01*
X163749700Y-105960692D01*
X163910254Y-106043399D01*
X164503653Y-105450000D01*
X165006547Y-105450000D01*
X165599946Y-106043399D01*
X165760500Y-105960692D01*
X165879402Y-105537068D01*
X165827139Y-105100189D01*
X165760500Y-104939308D01*
X165599946Y-104856601D01*
X165006547Y-105450000D01*
X164503653Y-105450000D01*
X163910254Y-104856601D01*
X163749700Y-104939308D01*
X163630798Y-105362932D01*
X162594303Y-105362932D01*
X163352081Y-104605154D01*
X164161701Y-104605154D01*
X164755100Y-105198553D01*
X165177121Y-104776532D01*
X166180039Y-104776532D01*
X166400161Y-105175019D01*
X166731274Y-105389599D01*
X167119299Y-105461133D01*
X167277300Y-105351213D01*
X167277300Y-104627800D01*
X166237379Y-104627800D01*
X166180039Y-104776532D01*
X165177121Y-104776532D01*
X165348499Y-104605154D01*
X165265792Y-104444600D01*
X164842168Y-104325698D01*
X164405289Y-104377961D01*
X164244408Y-104444600D01*
X164161701Y-104605154D01*
X163352081Y-104605154D01*
X163833767Y-104123468D01*
X166180039Y-104123468D01*
X166237379Y-104272200D01*
X167277300Y-104272200D01*
X167277300Y-103548787D01*
X167119299Y-103438867D01*
X166731274Y-103510401D01*
X166400161Y-103724981D01*
X166180039Y-104123468D01*
X163833767Y-104123468D01*
X164452236Y-103505000D01*
X164645167Y-103505000D01*
X164732722Y-103522416D01*
X164820277Y-103505000D01*
X164820278Y-103505000D01*
X165079592Y-103453419D01*
X165373655Y-103256933D01*
X165423253Y-103182704D01*
X166887494Y-101718464D01*
X167370000Y-101718464D01*
X167518659Y-101688894D01*
X167644686Y-101604686D01*
X167728894Y-101478659D01*
X167758464Y-101330000D01*
X167758464Y-99330000D01*
X167728894Y-99181341D01*
X167644686Y-99055314D01*
X167518659Y-98971106D01*
X167370000Y-98941536D01*
X165370000Y-98941536D01*
X165221341Y-98971106D01*
X165100000Y-99052183D01*
X164978659Y-98971106D01*
X164830000Y-98941536D01*
X162830000Y-98941536D01*
X162681341Y-98971106D01*
X162555314Y-99055314D01*
X162471106Y-99181341D01*
X162441536Y-99330000D01*
X162441536Y-101330000D01*
X162471106Y-101478659D01*
X162555314Y-101604686D01*
X162681341Y-101688894D01*
X162830000Y-101718464D01*
X164039361Y-101718464D01*
X163996448Y-101727000D01*
X163996444Y-101727000D01*
X163737130Y-101778581D01*
X163443067Y-101975067D01*
X163393471Y-102049293D01*
X161401592Y-104041172D01*
X158382588Y-101022168D01*
X158354247Y-100979753D01*
X158186212Y-100867475D01*
X158038032Y-100838000D01*
X158038028Y-100838000D01*
X157988000Y-100828049D01*
X157937972Y-100838000D01*
X123748026Y-100838000D01*
X123697999Y-100828049D01*
X123647972Y-100838000D01*
X123647968Y-100838000D01*
X123499788Y-100867475D01*
X123331753Y-100979753D01*
X123303412Y-101022168D01*
X122090580Y-102235000D01*
X122047691Y-102235000D01*
X121814302Y-102331673D01*
X121635673Y-102510302D01*
X121539000Y-102743691D01*
X118491000Y-102743691D01*
X118394327Y-102510302D01*
X118215698Y-102331673D01*
X117982309Y-102235000D01*
X117729691Y-102235000D01*
X117496302Y-102331673D01*
X117465975Y-102362000D01*
X115340539Y-102362000D01*
X115311484Y-102318516D01*
X115137605Y-102202334D01*
X114932500Y-102161536D01*
X114637500Y-102161536D01*
X114432395Y-102202334D01*
X114258516Y-102318516D01*
X114142334Y-102492395D01*
X114101536Y-102697500D01*
X110883700Y-102697500D01*
X110883700Y-101375464D01*
X112235983Y-101375464D01*
X112352834Y-101564530D01*
X112876815Y-101729697D01*
X113424116Y-101681773D01*
X113707166Y-101564530D01*
X113824017Y-101375464D01*
X113030000Y-100581447D01*
X112235983Y-101375464D01*
X110883700Y-101375464D01*
X110883700Y-100176815D01*
X111630303Y-100176815D01*
X111678227Y-100724116D01*
X111795470Y-101007166D01*
X111984536Y-101124017D01*
X112778553Y-100330000D01*
X113281447Y-100330000D01*
X114075464Y-101124017D01*
X114264530Y-101007166D01*
X114429697Y-100483185D01*
X114381773Y-99935884D01*
X114264530Y-99652834D01*
X114075464Y-99535983D01*
X113281447Y-100330000D01*
X112778553Y-100330000D01*
X111984536Y-99535983D01*
X111795470Y-99652834D01*
X111630303Y-100176815D01*
X110883700Y-100176815D01*
X110883700Y-99284536D01*
X112235983Y-99284536D01*
X113030000Y-100078553D01*
X113824017Y-99284536D01*
X113707166Y-99095470D01*
X113183185Y-98930303D01*
X112635884Y-98978227D01*
X112352834Y-99095470D01*
X112235983Y-99284536D01*
X110883700Y-99284536D01*
X110883700Y-98183700D01*
X168516301Y-98183700D01*
X168516301Y-103736317D01*
X168516301Y-103736317D01*
G37*
X168516301Y-103736317D02*
X168510039Y-103724981D01*
X168178926Y-103510401D01*
X167790901Y-103438867D01*
X167632900Y-103548787D01*
X167632900Y-104272200D01*
X167652900Y-104272200D01*
X167652900Y-104627800D01*
X167632900Y-104627800D01*
X167632900Y-105351213D01*
X167790901Y-105461133D01*
X168178926Y-105389599D01*
X168510039Y-105175019D01*
X168516301Y-105163684D01*
X168516300Y-110736316D01*
X168510039Y-110724981D01*
X168178926Y-110510401D01*
X167790901Y-110438867D01*
X167632900Y-110548787D01*
X167632900Y-111272200D01*
X167652900Y-111272200D01*
X167652900Y-111627800D01*
X167632900Y-111627800D01*
X167632900Y-112351213D01*
X167790901Y-112461133D01*
X168178926Y-112389599D01*
X168510039Y-112175019D01*
X168516300Y-112163684D01*
X168516300Y-117716300D01*
X110883700Y-117716300D01*
X110883700Y-116615464D01*
X112235983Y-116615464D01*
X112352834Y-116804530D01*
X112876815Y-116969697D01*
X113424116Y-116921773D01*
X113707166Y-116804530D01*
X113824017Y-116615464D01*
X113030000Y-115821447D01*
X112235983Y-116615464D01*
X110883700Y-116615464D01*
X110883700Y-115416815D01*
X111630303Y-115416815D01*
X111678227Y-115964116D01*
X111795470Y-116247166D01*
X111984536Y-116364017D01*
X112778553Y-115570000D01*
X113281447Y-115570000D01*
X114075464Y-116364017D01*
X114264530Y-116247166D01*
X114375477Y-115895193D01*
X157419000Y-115895193D01*
X157419000Y-116404807D01*
X157614021Y-116875628D01*
X157974372Y-117235979D01*
X158445193Y-117431000D01*
X158954807Y-117431000D01*
X159425628Y-117235979D01*
X159785979Y-116875628D01*
X159893742Y-116615464D01*
X163035983Y-116615464D01*
X163152834Y-116804530D01*
X163676815Y-116969697D01*
X164224116Y-116921773D01*
X164507166Y-116804530D01*
X164624017Y-116615464D01*
X163830000Y-115821447D01*
X163035983Y-116615464D01*
X159893742Y-116615464D01*
X159981000Y-116404807D01*
X159981000Y-115895193D01*
X159785979Y-115424372D01*
X159778422Y-115416815D01*
X162430303Y-115416815D01*
X162478227Y-115964116D01*
X162595470Y-116247166D01*
X162784536Y-116364017D01*
X163578553Y-115570000D01*
X162784536Y-114775983D01*
X162595470Y-114892834D01*
X162430303Y-115416815D01*
X159778422Y-115416815D01*
X159425628Y-115064021D01*
X158954807Y-114869000D01*
X158445193Y-114869000D01*
X157974372Y-115064021D01*
X157614021Y-115424372D01*
X157419000Y-115895193D01*
X114375477Y-115895193D01*
X114429697Y-115723185D01*
X114381773Y-115175884D01*
X114264530Y-114892834D01*
X114075464Y-114775983D01*
X113281447Y-115570000D01*
X112778553Y-115570000D01*
X111984536Y-114775983D01*
X111795470Y-114892834D01*
X111630303Y-115416815D01*
X110883700Y-115416815D01*
X110883700Y-114524536D01*
X112235983Y-114524536D01*
X113030000Y-115318553D01*
X113824017Y-114524536D01*
X113707166Y-114335470D01*
X113183185Y-114170303D01*
X112635884Y-114218227D01*
X112352834Y-114335470D01*
X112235983Y-114524536D01*
X110883700Y-114524536D01*
X110883700Y-112857500D01*
X113131536Y-112857500D01*
X113131536Y-113202500D01*
X113172334Y-113407605D01*
X113288516Y-113581484D01*
X113462395Y-113697666D01*
X113667500Y-113738464D01*
X113805044Y-113738464D01*
X114690414Y-114623835D01*
X114718753Y-114666247D01*
X114761165Y-114694586D01*
X114761167Y-114694588D01*
X114882984Y-114775983D01*
X114886788Y-114778525D01*
X115034968Y-114808000D01*
X115034971Y-114808000D01*
X115084999Y-114817951D01*
X115135027Y-114808000D01*
X139141972Y-114808000D01*
X139192000Y-114817951D01*
X139242028Y-114808000D01*
X139242032Y-114808000D01*
X139390212Y-114778525D01*
X139558247Y-114666247D01*
X139586588Y-114623832D01*
X146684302Y-107526118D01*
X149669000Y-107526118D01*
X149669000Y-108373882D01*
X149993425Y-109157115D01*
X150592885Y-109756575D01*
X151376118Y-110081000D01*
X152223882Y-110081000D01*
X153007115Y-109756575D01*
X153606575Y-109157115D01*
X153931000Y-108373882D01*
X153931000Y-107555955D01*
X156719000Y-107555955D01*
X156719000Y-108344045D01*
X157020589Y-109072146D01*
X157577854Y-109629411D01*
X158305955Y-109931000D01*
X159094045Y-109931000D01*
X159822146Y-109629411D01*
X160379411Y-109072146D01*
X160681000Y-108344045D01*
X160681000Y-107555955D01*
X160379411Y-106827854D01*
X159822146Y-106270589D01*
X159094045Y-105969000D01*
X158305955Y-105969000D01*
X157577854Y-106270589D01*
X157020589Y-106827854D01*
X156719000Y-107555955D01*
X153931000Y-107555955D01*
X153931000Y-107526118D01*
X153606575Y-106742885D01*
X153007115Y-106143425D01*
X152223882Y-105819000D01*
X151376118Y-105819000D01*
X150592885Y-106143425D01*
X149993425Y-106742885D01*
X149669000Y-107526118D01*
X146684302Y-107526118D01*
X150665420Y-103545000D01*
X150748309Y-103545000D01*
X150981698Y-103448327D01*
X151160327Y-103269698D01*
X151257000Y-103036309D01*
X151257000Y-102783691D01*
X151160327Y-102550302D01*
X150981698Y-102371673D01*
X150748309Y-102275000D01*
X150495691Y-102275000D01*
X150262302Y-102371673D01*
X150083673Y-102550302D01*
X149987000Y-102783691D01*
X149987000Y-102786580D01*
X138981580Y-113792000D01*
X115295421Y-113792000D01*
X115175660Y-113672239D01*
X115311484Y-113581484D01*
X115340539Y-113538000D01*
X117465975Y-113538000D01*
X117496302Y-113568327D01*
X117729691Y-113665000D01*
X117982309Y-113665000D01*
X118215698Y-113568327D01*
X118394327Y-113389698D01*
X118491000Y-113156309D01*
X118491000Y-112903691D01*
X118394327Y-112670302D01*
X118215698Y-112491673D01*
X117982309Y-112395000D01*
X117729691Y-112395000D01*
X117496302Y-112491673D01*
X117465975Y-112522000D01*
X115340539Y-112522000D01*
X115311484Y-112478516D01*
X115137605Y-112362334D01*
X114932500Y-112321536D01*
X114637500Y-112321536D01*
X114432395Y-112362334D01*
X114300000Y-112450797D01*
X114167605Y-112362334D01*
X113962500Y-112321536D01*
X113667500Y-112321536D01*
X113462395Y-112362334D01*
X113288516Y-112478516D01*
X113172334Y-112652395D01*
X113131536Y-112857500D01*
X110883700Y-112857500D01*
X110883700Y-111184704D01*
X112199000Y-111184704D01*
X112199000Y-111515296D01*
X112325512Y-111820724D01*
X112559276Y-112054488D01*
X112864704Y-112181000D01*
X113195296Y-112181000D01*
X113500724Y-112054488D01*
X113734488Y-111820724D01*
X113861000Y-111515296D01*
X113861000Y-111184704D01*
X113734488Y-110879276D01*
X113500724Y-110645512D01*
X113195296Y-110519000D01*
X112864704Y-110519000D01*
X112559276Y-110645512D01*
X112325512Y-110879276D01*
X112199000Y-111184704D01*
X110883700Y-111184704D01*
X110883700Y-104384704D01*
X112199000Y-104384704D01*
X112199000Y-104715296D01*
X112325512Y-105020724D01*
X112559276Y-105254488D01*
X112864704Y-105381000D01*
X113195296Y-105381000D01*
X113500724Y-105254488D01*
X113734488Y-105020724D01*
X113815559Y-104825000D01*
X114141536Y-104825000D01*
X114141536Y-106075000D01*
X114171106Y-106223659D01*
X114255314Y-106349686D01*
X114381341Y-106433894D01*
X114530000Y-106463464D01*
X116413044Y-106463464D01*
X116886115Y-106936536D01*
X114530000Y-106936536D01*
X114381341Y-106966106D01*
X114255314Y-107050314D01*
X114171106Y-107176341D01*
X114141536Y-107325000D01*
X114141536Y-108575000D01*
X114171106Y-108723659D01*
X114255314Y-108849686D01*
X114381341Y-108933894D01*
X114530000Y-108963464D01*
X116700043Y-108963464D01*
X116967000Y-109230421D01*
X116967000Y-109282809D01*
X117030737Y-109436683D01*
X117030000Y-109436536D01*
X114530000Y-109436536D01*
X114381341Y-109466106D01*
X114255314Y-109550314D01*
X114171106Y-109676341D01*
X114141536Y-109825000D01*
X114141536Y-111075000D01*
X114171106Y-111223659D01*
X114255314Y-111349686D01*
X114381341Y-111433894D01*
X114530000Y-111463464D01*
X117030000Y-111463464D01*
X117178659Y-111433894D01*
X117304686Y-111349686D01*
X117388894Y-111223659D01*
X117418464Y-111075000D01*
X117418464Y-109825000D01*
X117406064Y-109762659D01*
X117475691Y-109791500D01*
X117728309Y-109791500D01*
X117961698Y-109694827D01*
X118140327Y-109516198D01*
X118230963Y-109297383D01*
X122047000Y-113113421D01*
X122047000Y-113156309D01*
X122143673Y-113389698D01*
X122322302Y-113568327D01*
X122555691Y-113665000D01*
X122808309Y-113665000D01*
X123041698Y-113568327D01*
X123220327Y-113389698D01*
X123317000Y-113156309D01*
X123317000Y-112903691D01*
X123220327Y-112670302D01*
X123041698Y-112491673D01*
X122808309Y-112395000D01*
X122765421Y-112395000D01*
X120270952Y-109900532D01*
X120403203Y-109947884D01*
X121190352Y-109909384D01*
X121738762Y-109682225D01*
X121929326Y-109430773D01*
X120700000Y-108201447D01*
X120685858Y-108215590D01*
X120434411Y-107964143D01*
X120448553Y-107950000D01*
X120951447Y-107950000D01*
X122180773Y-109179326D01*
X122432225Y-108988762D01*
X122697884Y-108246797D01*
X122662636Y-107526118D01*
X125469000Y-107526118D01*
X125469000Y-108373882D01*
X125793425Y-109157115D01*
X126392885Y-109756575D01*
X127176118Y-110081000D01*
X128023882Y-110081000D01*
X128807115Y-109756575D01*
X129406575Y-109157115D01*
X129731000Y-108373882D01*
X129731000Y-107526118D01*
X129406575Y-106742885D01*
X128807115Y-106143425D01*
X128023882Y-105819000D01*
X127176118Y-105819000D01*
X126392885Y-106143425D01*
X125793425Y-106742885D01*
X125469000Y-107526118D01*
X122662636Y-107526118D01*
X122659384Y-107459648D01*
X122432225Y-106911238D01*
X122180773Y-106720674D01*
X120951447Y-107950000D01*
X120448553Y-107950000D01*
X119219227Y-106720674D01*
X118967775Y-106911238D01*
X118702116Y-107653203D01*
X118737008Y-108366588D01*
X118364000Y-107993580D01*
X118364000Y-107238027D01*
X118373951Y-107187999D01*
X118364000Y-107137971D01*
X118364000Y-107137968D01*
X118334525Y-106989788D01*
X118318701Y-106966106D01*
X118250588Y-106864167D01*
X118250586Y-106864165D01*
X118222247Y-106821753D01*
X118179835Y-106793414D01*
X117855648Y-106469227D01*
X119470674Y-106469227D01*
X120700000Y-107698553D01*
X121929326Y-106469227D01*
X121738762Y-106217775D01*
X120996797Y-105952116D01*
X120209648Y-105990616D01*
X119661238Y-106217775D01*
X119470674Y-106469227D01*
X117855648Y-106469227D01*
X117418464Y-106032043D01*
X117418464Y-104825000D01*
X117388894Y-104676341D01*
X117304686Y-104550314D01*
X117178659Y-104466106D01*
X117030000Y-104436536D01*
X114530000Y-104436536D01*
X114381341Y-104466106D01*
X114255314Y-104550314D01*
X114171106Y-104676341D01*
X114141536Y-104825000D01*
X113815559Y-104825000D01*
X113861000Y-104715296D01*
X113861000Y-104384704D01*
X113734488Y-104079276D01*
X113500724Y-103845512D01*
X113195296Y-103719000D01*
X112864704Y-103719000D01*
X112559276Y-103845512D01*
X112325512Y-104079276D01*
X112199000Y-104384704D01*
X110883700Y-104384704D01*
X110883700Y-102697500D01*
X114101536Y-102697500D01*
X114101536Y-103042500D01*
X114142334Y-103247605D01*
X114258516Y-103421484D01*
X114432395Y-103537666D01*
X114637500Y-103578464D01*
X114932500Y-103578464D01*
X115137605Y-103537666D01*
X115311484Y-103421484D01*
X115340539Y-103378000D01*
X117465975Y-103378000D01*
X117496302Y-103408327D01*
X117729691Y-103505000D01*
X117982309Y-103505000D01*
X118215698Y-103408327D01*
X118394327Y-103229698D01*
X118491000Y-102996309D01*
X118491000Y-102743691D01*
X121539000Y-102743691D01*
X121539000Y-102996309D01*
X121635673Y-103229698D01*
X121814302Y-103408327D01*
X122047691Y-103505000D01*
X122300309Y-103505000D01*
X122533698Y-103408327D01*
X122712327Y-103229698D01*
X122809000Y-102996309D01*
X122809000Y-102953420D01*
X123908420Y-101854000D01*
X157777580Y-101854000D01*
X160795775Y-104872195D01*
X160764584Y-105029000D01*
X160782000Y-105116555D01*
X160782000Y-105751555D01*
X160782001Y-105751560D01*
X160782000Y-110783445D01*
X160764584Y-110871000D01*
X160782000Y-110958555D01*
X160782008Y-110958595D01*
X160782008Y-111047841D01*
X160816161Y-111130294D01*
X160833581Y-111217869D01*
X160883188Y-111292112D01*
X160917350Y-111374586D01*
X160980470Y-111437706D01*
X161030067Y-111511933D01*
X161104293Y-111561529D01*
X161167430Y-111624666D01*
X161167432Y-111624667D01*
X163393470Y-113850706D01*
X163443067Y-113924933D01*
X163737130Y-114121419D01*
X163982977Y-114170321D01*
X163435884Y-114218227D01*
X163152834Y-114335470D01*
X163035983Y-114524536D01*
X163830000Y-115318553D01*
X164624017Y-114524536D01*
X164507166Y-114335470D01*
X163983698Y-114170465D01*
X163996444Y-114173000D01*
X163996448Y-114173000D01*
X164083999Y-114190415D01*
X164171550Y-114173000D01*
X164477765Y-114173000D01*
X164981536Y-114676772D01*
X164981536Y-114841540D01*
X164875464Y-114775983D01*
X164081447Y-115570000D01*
X164875464Y-116364017D01*
X164981536Y-116298460D01*
X164981536Y-116570000D01*
X165011106Y-116718659D01*
X165095314Y-116844686D01*
X165221341Y-116928894D01*
X165370000Y-116958464D01*
X167370000Y-116958464D01*
X167518659Y-116928894D01*
X167644686Y-116844686D01*
X167728894Y-116718659D01*
X167758464Y-116570000D01*
X167758464Y-114570000D01*
X167728894Y-114421341D01*
X167644686Y-114295314D01*
X167518659Y-114211106D01*
X167370000Y-114181536D01*
X167020601Y-114181536D01*
X167010933Y-114167067D01*
X166936707Y-114117471D01*
X165536531Y-112717296D01*
X165486933Y-112643067D01*
X165192870Y-112446581D01*
X164933556Y-112395000D01*
X164933555Y-112395000D01*
X164846000Y-112377584D01*
X164758445Y-112395000D01*
X164452236Y-112395000D01*
X163833768Y-111776532D01*
X166180039Y-111776532D01*
X166400161Y-112175019D01*
X166731274Y-112389599D01*
X167119299Y-112461133D01*
X167277300Y-112351213D01*
X167277300Y-111627800D01*
X166237379Y-111627800D01*
X166180039Y-111776532D01*
X163833768Y-111776532D01*
X163352082Y-111294846D01*
X164161701Y-111294846D01*
X164244408Y-111455400D01*
X164668032Y-111574302D01*
X165104911Y-111522039D01*
X165265792Y-111455400D01*
X165348499Y-111294846D01*
X165177121Y-111123468D01*
X166180039Y-111123468D01*
X166237379Y-111272200D01*
X167277300Y-111272200D01*
X167277300Y-110548787D01*
X167119299Y-110438867D01*
X166731274Y-110510401D01*
X166400161Y-110724981D01*
X166180039Y-111123468D01*
X165177121Y-111123468D01*
X164755100Y-110701447D01*
X164161701Y-111294846D01*
X163352082Y-111294846D01*
X162560000Y-110502765D01*
X162560000Y-109250000D01*
X162577560Y-109250000D01*
X162590000Y-109312541D01*
X162590000Y-109376309D01*
X162614403Y-109435222D01*
X162626843Y-109497765D01*
X162662271Y-109550786D01*
X162686673Y-109609698D01*
X162731764Y-109654789D01*
X162767191Y-109707809D01*
X162820211Y-109743236D01*
X162865302Y-109788327D01*
X162924214Y-109812729D01*
X162977235Y-109848157D01*
X163039778Y-109860598D01*
X163098691Y-109885000D01*
X163855125Y-109885000D01*
X163749700Y-109939308D01*
X163630798Y-110362932D01*
X163683061Y-110799811D01*
X163749700Y-110960692D01*
X163910254Y-111043399D01*
X164503653Y-110450000D01*
X164489511Y-110435858D01*
X164740958Y-110184411D01*
X164755100Y-110198553D01*
X164769243Y-110184411D01*
X165020690Y-110435858D01*
X165006547Y-110450000D01*
X165599946Y-111043399D01*
X165760500Y-110960692D01*
X165879402Y-110537068D01*
X165827139Y-110100189D01*
X165760500Y-109939308D01*
X165599948Y-109856602D01*
X165677151Y-109779399D01*
X165655422Y-109757670D01*
X165704786Y-109724686D01*
X165788994Y-109598659D01*
X165818564Y-109450000D01*
X165818564Y-109050000D01*
X165793700Y-108925000D01*
X165818564Y-108800000D01*
X165818564Y-108400000D01*
X165793700Y-108275000D01*
X165818564Y-108150000D01*
X165818564Y-107750000D01*
X165793700Y-107625000D01*
X165818564Y-107500000D01*
X165818564Y-107100000D01*
X165788994Y-106951341D01*
X165704786Y-106825314D01*
X165578759Y-106741106D01*
X165430100Y-106711536D01*
X164080100Y-106711536D01*
X163931441Y-106741106D01*
X163805414Y-106825314D01*
X163721206Y-106951341D01*
X163691636Y-107100000D01*
X163691636Y-107500000D01*
X163716500Y-107625000D01*
X163691636Y-107750000D01*
X163691636Y-108150000D01*
X163716500Y-108275000D01*
X163691636Y-108400000D01*
X163691636Y-108615000D01*
X163098691Y-108615000D01*
X163039778Y-108639402D01*
X162977235Y-108651843D01*
X162924214Y-108687271D01*
X162865302Y-108711673D01*
X162820211Y-108756764D01*
X162767191Y-108792191D01*
X162731764Y-108845211D01*
X162686673Y-108890302D01*
X162662271Y-108949214D01*
X162626843Y-109002235D01*
X162614403Y-109064778D01*
X162590000Y-109123691D01*
X162590000Y-109187459D01*
X162577560Y-109250000D01*
X162560000Y-109250000D01*
X162560000Y-106294846D01*
X164161701Y-106294846D01*
X164244408Y-106455400D01*
X164668032Y-106574302D01*
X165104911Y-106522039D01*
X165265792Y-106455400D01*
X165348499Y-106294846D01*
X164755100Y-105701447D01*
X164161701Y-106294846D01*
X162560000Y-106294846D01*
X162560000Y-105397235D01*
X162594303Y-105362932D01*
X163630798Y-105362932D01*
X163683061Y-105799811D01*
X163749700Y-105960692D01*
X163910254Y-106043399D01*
X164503653Y-105450000D01*
X165006547Y-105450000D01*
X165599946Y-106043399D01*
X165760500Y-105960692D01*
X165879402Y-105537068D01*
X165827139Y-105100189D01*
X165760500Y-104939308D01*
X165599946Y-104856601D01*
X165006547Y-105450000D01*
X164503653Y-105450000D01*
X163910254Y-104856601D01*
X163749700Y-104939308D01*
X163630798Y-105362932D01*
X162594303Y-105362932D01*
X163352081Y-104605154D01*
X164161701Y-104605154D01*
X164755100Y-105198553D01*
X165177121Y-104776532D01*
X166180039Y-104776532D01*
X166400161Y-105175019D01*
X166731274Y-105389599D01*
X167119299Y-105461133D01*
X167277300Y-105351213D01*
X167277300Y-104627800D01*
X166237379Y-104627800D01*
X166180039Y-104776532D01*
X165177121Y-104776532D01*
X165348499Y-104605154D01*
X165265792Y-104444600D01*
X164842168Y-104325698D01*
X164405289Y-104377961D01*
X164244408Y-104444600D01*
X164161701Y-104605154D01*
X163352081Y-104605154D01*
X163833767Y-104123468D01*
X166180039Y-104123468D01*
X166237379Y-104272200D01*
X167277300Y-104272200D01*
X167277300Y-103548787D01*
X167119299Y-103438867D01*
X166731274Y-103510401D01*
X166400161Y-103724981D01*
X166180039Y-104123468D01*
X163833767Y-104123468D01*
X164452236Y-103505000D01*
X164645167Y-103505000D01*
X164732722Y-103522416D01*
X164820277Y-103505000D01*
X164820278Y-103505000D01*
X165079592Y-103453419D01*
X165373655Y-103256933D01*
X165423253Y-103182704D01*
X166887494Y-101718464D01*
X167370000Y-101718464D01*
X167518659Y-101688894D01*
X167644686Y-101604686D01*
X167728894Y-101478659D01*
X167758464Y-101330000D01*
X167758464Y-99330000D01*
X167728894Y-99181341D01*
X167644686Y-99055314D01*
X167518659Y-98971106D01*
X167370000Y-98941536D01*
X165370000Y-98941536D01*
X165221341Y-98971106D01*
X165100000Y-99052183D01*
X164978659Y-98971106D01*
X164830000Y-98941536D01*
X162830000Y-98941536D01*
X162681341Y-98971106D01*
X162555314Y-99055314D01*
X162471106Y-99181341D01*
X162441536Y-99330000D01*
X162441536Y-101330000D01*
X162471106Y-101478659D01*
X162555314Y-101604686D01*
X162681341Y-101688894D01*
X162830000Y-101718464D01*
X164039361Y-101718464D01*
X163996448Y-101727000D01*
X163996444Y-101727000D01*
X163737130Y-101778581D01*
X163443067Y-101975067D01*
X163393471Y-102049293D01*
X161401592Y-104041172D01*
X158382588Y-101022168D01*
X158354247Y-100979753D01*
X158186212Y-100867475D01*
X158038032Y-100838000D01*
X158038028Y-100838000D01*
X157988000Y-100828049D01*
X157937972Y-100838000D01*
X123748026Y-100838000D01*
X123697999Y-100828049D01*
X123647972Y-100838000D01*
X123647968Y-100838000D01*
X123499788Y-100867475D01*
X123331753Y-100979753D01*
X123303412Y-101022168D01*
X122090580Y-102235000D01*
X122047691Y-102235000D01*
X121814302Y-102331673D01*
X121635673Y-102510302D01*
X121539000Y-102743691D01*
X118491000Y-102743691D01*
X118394327Y-102510302D01*
X118215698Y-102331673D01*
X117982309Y-102235000D01*
X117729691Y-102235000D01*
X117496302Y-102331673D01*
X117465975Y-102362000D01*
X115340539Y-102362000D01*
X115311484Y-102318516D01*
X115137605Y-102202334D01*
X114932500Y-102161536D01*
X114637500Y-102161536D01*
X114432395Y-102202334D01*
X114258516Y-102318516D01*
X114142334Y-102492395D01*
X114101536Y-102697500D01*
X110883700Y-102697500D01*
X110883700Y-101375464D01*
X112235983Y-101375464D01*
X112352834Y-101564530D01*
X112876815Y-101729697D01*
X113424116Y-101681773D01*
X113707166Y-101564530D01*
X113824017Y-101375464D01*
X113030000Y-100581447D01*
X112235983Y-101375464D01*
X110883700Y-101375464D01*
X110883700Y-100176815D01*
X111630303Y-100176815D01*
X111678227Y-100724116D01*
X111795470Y-101007166D01*
X111984536Y-101124017D01*
X112778553Y-100330000D01*
X113281447Y-100330000D01*
X114075464Y-101124017D01*
X114264530Y-101007166D01*
X114429697Y-100483185D01*
X114381773Y-99935884D01*
X114264530Y-99652834D01*
X114075464Y-99535983D01*
X113281447Y-100330000D01*
X112778553Y-100330000D01*
X111984536Y-99535983D01*
X111795470Y-99652834D01*
X111630303Y-100176815D01*
X110883700Y-100176815D01*
X110883700Y-99284536D01*
X112235983Y-99284536D01*
X113030000Y-100078553D01*
X113824017Y-99284536D01*
X113707166Y-99095470D01*
X113183185Y-98930303D01*
X112635884Y-98978227D01*
X112352834Y-99095470D01*
X112235983Y-99284536D01*
X110883700Y-99284536D01*
X110883700Y-98183700D01*
X168516301Y-98183700D01*
X168516301Y-103736317D01*
G04 #@! TD*
M02*
