G04 #@! TF.GenerationSoftware,KiCad,Pcbnew,5.1.6+dfsg1-1*
G04 #@! TF.CreationDate,2020-06-20T09:26:12-04:00*
G04 #@! TF.ProjectId,BreadBatt,42726561-6442-4617-9474-2e6b69636164,1*
G04 #@! TF.SameCoordinates,Original*
G04 #@! TF.FileFunction,Paste,Top*
G04 #@! TF.FilePolarity,Positive*
%FSLAX46Y46*%
G04 Gerber Fmt 4.6, Leading zero omitted, Abs format (unit mm)*
G04 Created by KiCad (PCBNEW 5.1.6+dfsg1-1) date 2020-06-20 09:26:12*
%MOMM*%
%LPD*%
G01*
G04 APERTURE LIST*
%ADD10R,1.900000X1.500000*%
%ADD11R,1.350000X0.400000*%
%ADD12R,2.500000X1.250000*%
G04 APERTURE END LIST*
G36*
G01*
X114490000Y-113202500D02*
X114490000Y-112857500D01*
G75*
G02*
X114637500Y-112710000I147500J0D01*
G01*
X114932500Y-112710000D01*
G75*
G02*
X115080000Y-112857500I0J-147500D01*
G01*
X115080000Y-113202500D01*
G75*
G02*
X114932500Y-113350000I-147500J0D01*
G01*
X114637500Y-113350000D01*
G75*
G02*
X114490000Y-113202500I0J147500D01*
G01*
G37*
G36*
G01*
X113520000Y-113202500D02*
X113520000Y-112857500D01*
G75*
G02*
X113667500Y-112710000I147500J0D01*
G01*
X113962500Y-112710000D01*
G75*
G02*
X114110000Y-112857500I0J-147500D01*
G01*
X114110000Y-113202500D01*
G75*
G02*
X113962500Y-113350000I-147500J0D01*
G01*
X113667500Y-113350000D01*
G75*
G02*
X113520000Y-113202500I0J147500D01*
G01*
G37*
G36*
G01*
X113520000Y-103042500D02*
X113520000Y-102697500D01*
G75*
G02*
X113667500Y-102550000I147500J0D01*
G01*
X113962500Y-102550000D01*
G75*
G02*
X114110000Y-102697500I0J-147500D01*
G01*
X114110000Y-103042500D01*
G75*
G02*
X113962500Y-103190000I-147500J0D01*
G01*
X113667500Y-103190000D01*
G75*
G02*
X113520000Y-103042500I0J147500D01*
G01*
G37*
G36*
G01*
X114490000Y-103042500D02*
X114490000Y-102697500D01*
G75*
G02*
X114637500Y-102550000I147500J0D01*
G01*
X114932500Y-102550000D01*
G75*
G02*
X115080000Y-102697500I0J-147500D01*
G01*
X115080000Y-103042500D01*
G75*
G02*
X114932500Y-103190000I-147500J0D01*
G01*
X114637500Y-103190000D01*
G75*
G02*
X114490000Y-103042500I0J147500D01*
G01*
G37*
D10*
X169995100Y-106950000D03*
D11*
X167295100Y-108600000D03*
X167295100Y-109250000D03*
X167295100Y-106650000D03*
X167295100Y-107300000D03*
X167295100Y-107950000D03*
D10*
X169995100Y-108950000D03*
D12*
X115780000Y-110450000D03*
X115780000Y-107950000D03*
X115780000Y-105450000D03*
M02*
