G04 #@! TF.GenerationSoftware,KiCad,Pcbnew,5.0.1+dfsg1-3*
G04 #@! TF.CreationDate,2018-11-05T21:22:01-05:00*
G04 #@! TF.ProjectId,BreadBatt,4272656164426174742E6B696361645F,rev?*
G04 #@! TF.SameCoordinates,Original*
G04 #@! TF.FileFunction,Soldermask,Bot*
G04 #@! TF.FilePolarity,Negative*
%FSLAX46Y46*%
G04 Gerber Fmt 4.6, Leading zero omitted, Abs format (unit mm)*
G04 Created by KiCad (PCBNEW 5.0.1+dfsg1-3) date Mon 05 Nov 2018 09:22:01 PM EST*
%MOMM*%
%LPD*%
G01*
G04 APERTURE LIST*
%ADD10C,0.010000*%
%ADD11C,0.100000*%
G04 APERTURE END LIST*
D10*
G04 #@! TO.C,REF\002A\002A*
G36*
X139204059Y-99325960D02*
X139086455Y-99392395D01*
X138992977Y-99495045D01*
X138949188Y-99581124D01*
X138918578Y-99719614D01*
X138927679Y-99857591D01*
X138975027Y-99979084D01*
X138987412Y-99997850D01*
X139077851Y-100085408D01*
X139196729Y-100145553D01*
X139329667Y-100175418D01*
X139462287Y-100172134D01*
X139580210Y-100132832D01*
X139600994Y-100120244D01*
X139683263Y-100041394D01*
X139751086Y-99932770D01*
X139793253Y-99815295D01*
X139801600Y-99745799D01*
X139782326Y-99636575D01*
X139731810Y-99522110D01*
X139661018Y-99423158D01*
X139605358Y-99374295D01*
X139473139Y-99313876D01*
X139336163Y-99298776D01*
X139204059Y-99325960D01*
X139204059Y-99325960D01*
G37*
X139204059Y-99325960D02*
X139086455Y-99392395D01*
X138992977Y-99495045D01*
X138949188Y-99581124D01*
X138918578Y-99719614D01*
X138927679Y-99857591D01*
X138975027Y-99979084D01*
X138987412Y-99997850D01*
X139077851Y-100085408D01*
X139196729Y-100145553D01*
X139329667Y-100175418D01*
X139462287Y-100172134D01*
X139580210Y-100132832D01*
X139600994Y-100120244D01*
X139683263Y-100041394D01*
X139751086Y-99932770D01*
X139793253Y-99815295D01*
X139801600Y-99745799D01*
X139782326Y-99636575D01*
X139731810Y-99522110D01*
X139661018Y-99423158D01*
X139605358Y-99374295D01*
X139473139Y-99313876D01*
X139336163Y-99298776D01*
X139204059Y-99325960D01*
G36*
X138963400Y-102192045D02*
X138963179Y-102463528D01*
X138962417Y-102688618D01*
X138960974Y-102871721D01*
X138958706Y-103017240D01*
X138955469Y-103129583D01*
X138951122Y-103213155D01*
X138945520Y-103272359D01*
X138938522Y-103311603D01*
X138929984Y-103335292D01*
X138926108Y-103341395D01*
X138899822Y-103378943D01*
X138889109Y-103407085D01*
X138899290Y-103427174D01*
X138935688Y-103440563D01*
X139003624Y-103448605D01*
X139108422Y-103452653D01*
X139255402Y-103454060D01*
X139369800Y-103454200D01*
X139520082Y-103453515D01*
X139651273Y-103451608D01*
X139755573Y-103448702D01*
X139825181Y-103445017D01*
X139852295Y-103440776D01*
X139852400Y-103440488D01*
X139841845Y-103411454D01*
X139815274Y-103354509D01*
X139801600Y-103327200D01*
X139788734Y-103299760D01*
X139778241Y-103269394D01*
X139769880Y-103230920D01*
X139763409Y-103179155D01*
X139758589Y-103108918D01*
X139755178Y-103015027D01*
X139752935Y-102892301D01*
X139751619Y-102735559D01*
X139750990Y-102539617D01*
X139750805Y-102299296D01*
X139750800Y-102234750D01*
X139751053Y-101977269D01*
X139751929Y-101765749D01*
X139753604Y-101595351D01*
X139756252Y-101461238D01*
X139760050Y-101358571D01*
X139765173Y-101282513D01*
X139771797Y-101228226D01*
X139780097Y-101190872D01*
X139789553Y-101166938D01*
X139828305Y-101092000D01*
X138963400Y-101092000D01*
X138963400Y-102192045D01*
X138963400Y-102192045D01*
G37*
X138963400Y-102192045D02*
X138963179Y-102463528D01*
X138962417Y-102688618D01*
X138960974Y-102871721D01*
X138958706Y-103017240D01*
X138955469Y-103129583D01*
X138951122Y-103213155D01*
X138945520Y-103272359D01*
X138938522Y-103311603D01*
X138929984Y-103335292D01*
X138926108Y-103341395D01*
X138899822Y-103378943D01*
X138889109Y-103407085D01*
X138899290Y-103427174D01*
X138935688Y-103440563D01*
X139003624Y-103448605D01*
X139108422Y-103452653D01*
X139255402Y-103454060D01*
X139369800Y-103454200D01*
X139520082Y-103453515D01*
X139651273Y-103451608D01*
X139755573Y-103448702D01*
X139825181Y-103445017D01*
X139852295Y-103440776D01*
X139852400Y-103440488D01*
X139841845Y-103411454D01*
X139815274Y-103354509D01*
X139801600Y-103327200D01*
X139788734Y-103299760D01*
X139778241Y-103269394D01*
X139769880Y-103230920D01*
X139763409Y-103179155D01*
X139758589Y-103108918D01*
X139755178Y-103015027D01*
X139752935Y-102892301D01*
X139751619Y-102735559D01*
X139750990Y-102539617D01*
X139750805Y-102299296D01*
X139750800Y-102234750D01*
X139751053Y-101977269D01*
X139751929Y-101765749D01*
X139753604Y-101595351D01*
X139756252Y-101461238D01*
X139760050Y-101358571D01*
X139765173Y-101282513D01*
X139771797Y-101228226D01*
X139780097Y-101190872D01*
X139789553Y-101166938D01*
X139828305Y-101092000D01*
X138963400Y-101092000D01*
X138963400Y-102192045D01*
G36*
X140546253Y-100228400D02*
X140000941Y-100228400D01*
X140199721Y-100429787D01*
X140529429Y-100792691D01*
X140743849Y-101066815D01*
X140822297Y-101170400D01*
X140916856Y-101290529D01*
X141016950Y-101414202D01*
X141112002Y-101528419D01*
X141191434Y-101620181D01*
X141216532Y-101647760D01*
X141297964Y-101735212D01*
X141228006Y-101826356D01*
X141092564Y-102015604D01*
X141005022Y-102155050D01*
X140950152Y-102237286D01*
X140888876Y-102316612D01*
X140883727Y-102322607D01*
X140814778Y-102405581D01*
X140734253Y-102508137D01*
X140651058Y-102618288D01*
X140574098Y-102724047D01*
X140512281Y-102813425D01*
X140476624Y-102870547D01*
X140441543Y-102923596D01*
X140383014Y-103002062D01*
X140311180Y-103093252D01*
X140236185Y-103184472D01*
X140168172Y-103263032D01*
X140131800Y-103302020D01*
X140107911Y-103328081D01*
X140065637Y-103375406D01*
X140057523Y-103384570D01*
X139995945Y-103454200D01*
X141122400Y-103454200D01*
X141122400Y-103375923D01*
X141139163Y-103299395D01*
X141186393Y-103194149D01*
X141259507Y-103068239D01*
X141353919Y-102929716D01*
X141441458Y-102815533D01*
X141512732Y-102723313D01*
X141578053Y-102632269D01*
X141625223Y-102559535D01*
X141631329Y-102548833D01*
X141671371Y-102482434D01*
X141706658Y-102434284D01*
X141715301Y-102425500D01*
X141749862Y-102386816D01*
X141790085Y-102330250D01*
X141827774Y-102282093D01*
X141858285Y-102260487D01*
X141859586Y-102260400D01*
X141868462Y-102285091D01*
X141875582Y-102356381D01*
X141880736Y-102470092D01*
X141883717Y-102622044D01*
X141884400Y-102756961D01*
X141883716Y-102936263D01*
X141881305Y-103072270D01*
X141876625Y-103172475D01*
X141869137Y-103244369D01*
X141858302Y-103295443D01*
X141843579Y-103333188D01*
X141842756Y-103334811D01*
X141807283Y-103394491D01*
X141775777Y-103432618D01*
X141772906Y-103434761D01*
X141788403Y-103440323D01*
X141847753Y-103445262D01*
X141944014Y-103449312D01*
X142070241Y-103452207D01*
X142219489Y-103453682D01*
X142271206Y-103453811D01*
X142797711Y-103454200D01*
X142768032Y-103384350D01*
X142739859Y-103325758D01*
X142717776Y-103290370D01*
X142713943Y-103261142D01*
X142710343Y-103185781D01*
X142707041Y-103068951D01*
X142704104Y-102915317D01*
X142701601Y-102729546D01*
X142699596Y-102516302D01*
X142698158Y-102280251D01*
X142697353Y-102026059D01*
X142697201Y-101854290D01*
X142697259Y-101550311D01*
X142697530Y-101292912D01*
X142698154Y-101077874D01*
X142699274Y-100900978D01*
X142701031Y-100758004D01*
X142703567Y-100644733D01*
X142707024Y-100556945D01*
X142711543Y-100490421D01*
X142717267Y-100440941D01*
X142724338Y-100404286D01*
X142732896Y-100376237D01*
X142743084Y-100352574D01*
X142748001Y-100342699D01*
X142778756Y-100280869D01*
X142796810Y-100241660D01*
X142798801Y-100235729D01*
X142774665Y-100233507D01*
X142707312Y-100231556D01*
X142604328Y-100229984D01*
X142473294Y-100228901D01*
X142321795Y-100228415D01*
X142288083Y-100228400D01*
X142114940Y-100228664D01*
X141986371Y-100229831D01*
X141896154Y-100232464D01*
X141838063Y-100237123D01*
X141805876Y-100244372D01*
X141793368Y-100254772D01*
X141794314Y-100268885D01*
X141795836Y-100272850D01*
X141829195Y-100361673D01*
X141853261Y-100450181D01*
X141869420Y-100549141D01*
X141879058Y-100669321D01*
X141883560Y-100821488D01*
X141884400Y-100961088D01*
X141884401Y-101380904D01*
X141808201Y-101307900D01*
X141760587Y-101257557D01*
X141734006Y-101220278D01*
X141732000Y-101213483D01*
X141716863Y-101187550D01*
X141677372Y-101134128D01*
X141622412Y-101064145D01*
X141560868Y-100988529D01*
X141501623Y-100918209D01*
X141453561Y-100864114D01*
X141426761Y-100838000D01*
X141404439Y-100810734D01*
X141366064Y-100754630D01*
X141338198Y-100711000D01*
X141279995Y-100623298D01*
X141217049Y-100536698D01*
X141194701Y-100508362D01*
X141149987Y-100441736D01*
X141124592Y-100380643D01*
X141122400Y-100364390D01*
X141121878Y-100320677D01*
X141116209Y-100287502D01*
X141099238Y-100263412D01*
X141064811Y-100246955D01*
X141006774Y-100236677D01*
X140918972Y-100231127D01*
X140795250Y-100228851D01*
X140629455Y-100228396D01*
X140546253Y-100228400D01*
X140546253Y-100228400D01*
G37*
X140546253Y-100228400D02*
X140000941Y-100228400D01*
X140199721Y-100429787D01*
X140529429Y-100792691D01*
X140743849Y-101066815D01*
X140822297Y-101170400D01*
X140916856Y-101290529D01*
X141016950Y-101414202D01*
X141112002Y-101528419D01*
X141191434Y-101620181D01*
X141216532Y-101647760D01*
X141297964Y-101735212D01*
X141228006Y-101826356D01*
X141092564Y-102015604D01*
X141005022Y-102155050D01*
X140950152Y-102237286D01*
X140888876Y-102316612D01*
X140883727Y-102322607D01*
X140814778Y-102405581D01*
X140734253Y-102508137D01*
X140651058Y-102618288D01*
X140574098Y-102724047D01*
X140512281Y-102813425D01*
X140476624Y-102870547D01*
X140441543Y-102923596D01*
X140383014Y-103002062D01*
X140311180Y-103093252D01*
X140236185Y-103184472D01*
X140168172Y-103263032D01*
X140131800Y-103302020D01*
X140107911Y-103328081D01*
X140065637Y-103375406D01*
X140057523Y-103384570D01*
X139995945Y-103454200D01*
X141122400Y-103454200D01*
X141122400Y-103375923D01*
X141139163Y-103299395D01*
X141186393Y-103194149D01*
X141259507Y-103068239D01*
X141353919Y-102929716D01*
X141441458Y-102815533D01*
X141512732Y-102723313D01*
X141578053Y-102632269D01*
X141625223Y-102559535D01*
X141631329Y-102548833D01*
X141671371Y-102482434D01*
X141706658Y-102434284D01*
X141715301Y-102425500D01*
X141749862Y-102386816D01*
X141790085Y-102330250D01*
X141827774Y-102282093D01*
X141858285Y-102260487D01*
X141859586Y-102260400D01*
X141868462Y-102285091D01*
X141875582Y-102356381D01*
X141880736Y-102470092D01*
X141883717Y-102622044D01*
X141884400Y-102756961D01*
X141883716Y-102936263D01*
X141881305Y-103072270D01*
X141876625Y-103172475D01*
X141869137Y-103244369D01*
X141858302Y-103295443D01*
X141843579Y-103333188D01*
X141842756Y-103334811D01*
X141807283Y-103394491D01*
X141775777Y-103432618D01*
X141772906Y-103434761D01*
X141788403Y-103440323D01*
X141847753Y-103445262D01*
X141944014Y-103449312D01*
X142070241Y-103452207D01*
X142219489Y-103453682D01*
X142271206Y-103453811D01*
X142797711Y-103454200D01*
X142768032Y-103384350D01*
X142739859Y-103325758D01*
X142717776Y-103290370D01*
X142713943Y-103261142D01*
X142710343Y-103185781D01*
X142707041Y-103068951D01*
X142704104Y-102915317D01*
X142701601Y-102729546D01*
X142699596Y-102516302D01*
X142698158Y-102280251D01*
X142697353Y-102026059D01*
X142697201Y-101854290D01*
X142697259Y-101550311D01*
X142697530Y-101292912D01*
X142698154Y-101077874D01*
X142699274Y-100900978D01*
X142701031Y-100758004D01*
X142703567Y-100644733D01*
X142707024Y-100556945D01*
X142711543Y-100490421D01*
X142717267Y-100440941D01*
X142724338Y-100404286D01*
X142732896Y-100376237D01*
X142743084Y-100352574D01*
X142748001Y-100342699D01*
X142778756Y-100280869D01*
X142796810Y-100241660D01*
X142798801Y-100235729D01*
X142774665Y-100233507D01*
X142707312Y-100231556D01*
X142604328Y-100229984D01*
X142473294Y-100228901D01*
X142321795Y-100228415D01*
X142288083Y-100228400D01*
X142114940Y-100228664D01*
X141986371Y-100229831D01*
X141896154Y-100232464D01*
X141838063Y-100237123D01*
X141805876Y-100244372D01*
X141793368Y-100254772D01*
X141794314Y-100268885D01*
X141795836Y-100272850D01*
X141829195Y-100361673D01*
X141853261Y-100450181D01*
X141869420Y-100549141D01*
X141879058Y-100669321D01*
X141883560Y-100821488D01*
X141884400Y-100961088D01*
X141884401Y-101380904D01*
X141808201Y-101307900D01*
X141760587Y-101257557D01*
X141734006Y-101220278D01*
X141732000Y-101213483D01*
X141716863Y-101187550D01*
X141677372Y-101134128D01*
X141622412Y-101064145D01*
X141560868Y-100988529D01*
X141501623Y-100918209D01*
X141453561Y-100864114D01*
X141426761Y-100838000D01*
X141404439Y-100810734D01*
X141366064Y-100754630D01*
X141338198Y-100711000D01*
X141279995Y-100623298D01*
X141217049Y-100536698D01*
X141194701Y-100508362D01*
X141149987Y-100441736D01*
X141124592Y-100380643D01*
X141122400Y-100364390D01*
X141121878Y-100320677D01*
X141116209Y-100287502D01*
X141099238Y-100263412D01*
X141064811Y-100246955D01*
X141006774Y-100236677D01*
X140918972Y-100231127D01*
X140795250Y-100228851D01*
X140629455Y-100228396D01*
X140546253Y-100228400D01*
D11*
G36*
X149817625Y-116471905D02*
X149838030Y-116478095D01*
X149856835Y-116488147D01*
X149873323Y-116501677D01*
X149886853Y-116518165D01*
X149896905Y-116536970D01*
X149903095Y-116557375D01*
X149905800Y-116584843D01*
X149905800Y-117095157D01*
X149903095Y-117122625D01*
X149896905Y-117143030D01*
X149886853Y-117161835D01*
X149873323Y-117178323D01*
X149856835Y-117191853D01*
X149838030Y-117201905D01*
X149817625Y-117208095D01*
X149790157Y-117210800D01*
X149329843Y-117210800D01*
X149302375Y-117208095D01*
X149281970Y-117201905D01*
X149263165Y-117191853D01*
X149246677Y-117178323D01*
X149233147Y-117161835D01*
X149223095Y-117143030D01*
X149216905Y-117122625D01*
X149214200Y-117095157D01*
X149214200Y-116584843D01*
X149216905Y-116557375D01*
X149223095Y-116536970D01*
X149233147Y-116518165D01*
X149246677Y-116501677D01*
X149263165Y-116488147D01*
X149281970Y-116478095D01*
X149302375Y-116471905D01*
X149329843Y-116469200D01*
X149790157Y-116469200D01*
X149817625Y-116471905D01*
X149817625Y-116471905D01*
G37*
G36*
X148847625Y-116471905D02*
X148868030Y-116478095D01*
X148886835Y-116488147D01*
X148903323Y-116501677D01*
X148916853Y-116518165D01*
X148926905Y-116536970D01*
X148933095Y-116557375D01*
X148935800Y-116584843D01*
X148935800Y-117095157D01*
X148933095Y-117122625D01*
X148926905Y-117143030D01*
X148916853Y-117161835D01*
X148903323Y-117178323D01*
X148886835Y-117191853D01*
X148868030Y-117201905D01*
X148847625Y-117208095D01*
X148820157Y-117210800D01*
X148359843Y-117210800D01*
X148332375Y-117208095D01*
X148311970Y-117201905D01*
X148293165Y-117191853D01*
X148276677Y-117178323D01*
X148263147Y-117161835D01*
X148253095Y-117143030D01*
X148246905Y-117122625D01*
X148244200Y-117095157D01*
X148244200Y-116584843D01*
X148246905Y-116557375D01*
X148253095Y-116536970D01*
X148263147Y-116518165D01*
X148276677Y-116501677D01*
X148293165Y-116488147D01*
X148311970Y-116478095D01*
X148332375Y-116471905D01*
X148359843Y-116469200D01*
X148820157Y-116469200D01*
X148847625Y-116471905D01*
X148847625Y-116471905D01*
G37*
G36*
X158977338Y-115235738D02*
X159150373Y-115307412D01*
X159306100Y-115411465D01*
X159438535Y-115543900D01*
X159542588Y-115699627D01*
X159614262Y-115872662D01*
X159650800Y-116056354D01*
X159650800Y-116243646D01*
X159614262Y-116427338D01*
X159542588Y-116600373D01*
X159438535Y-116756100D01*
X159306100Y-116888535D01*
X159150373Y-116992588D01*
X158977338Y-117064262D01*
X158793646Y-117100800D01*
X158606354Y-117100800D01*
X158422662Y-117064262D01*
X158249627Y-116992588D01*
X158093900Y-116888535D01*
X157961465Y-116756100D01*
X157857412Y-116600373D01*
X157785738Y-116427338D01*
X157749200Y-116243646D01*
X157749200Y-116056354D01*
X157785738Y-115872662D01*
X157857412Y-115699627D01*
X157961465Y-115543900D01*
X158093900Y-115411465D01*
X158249627Y-115307412D01*
X158422662Y-115235738D01*
X158606354Y-115199200D01*
X158793646Y-115199200D01*
X158977338Y-115235738D01*
X158977338Y-115235738D01*
G37*
G36*
X113167176Y-114525900D02*
X113336507Y-114559581D01*
X113471729Y-114615592D01*
X113527740Y-114638793D01*
X113699846Y-114753791D01*
X113846209Y-114900154D01*
X113961207Y-115072260D01*
X113980194Y-115118100D01*
X114040419Y-115263493D01*
X114069852Y-115411465D01*
X114080800Y-115466505D01*
X114080800Y-115673495D01*
X114078153Y-115686800D01*
X114040419Y-115876507D01*
X113984408Y-116011729D01*
X113961207Y-116067740D01*
X113846209Y-116239846D01*
X113699846Y-116386209D01*
X113527740Y-116501207D01*
X113482753Y-116519841D01*
X113336507Y-116580419D01*
X113167176Y-116614100D01*
X113133495Y-116620800D01*
X112926505Y-116620800D01*
X112892824Y-116614100D01*
X112723493Y-116580419D01*
X112577247Y-116519841D01*
X112532260Y-116501207D01*
X112360154Y-116386209D01*
X112213791Y-116239846D01*
X112098793Y-116067740D01*
X112075592Y-116011729D01*
X112019581Y-115876507D01*
X111981847Y-115686800D01*
X111979200Y-115673495D01*
X111979200Y-115466505D01*
X111990148Y-115411465D01*
X112019581Y-115263493D01*
X112079806Y-115118100D01*
X112098793Y-115072260D01*
X112213791Y-114900154D01*
X112360154Y-114753791D01*
X112532260Y-114638793D01*
X112588271Y-114615592D01*
X112723493Y-114559581D01*
X112892824Y-114525900D01*
X112926505Y-114519200D01*
X113133495Y-114519200D01*
X113167176Y-114525900D01*
X113167176Y-114525900D01*
G37*
G36*
X167420800Y-116620800D02*
X165319200Y-116620800D01*
X165319200Y-114519200D01*
X167420800Y-114519200D01*
X167420800Y-116620800D01*
X167420800Y-116620800D01*
G37*
G36*
X163967176Y-114525900D02*
X164136507Y-114559581D01*
X164271729Y-114615592D01*
X164327740Y-114638793D01*
X164499846Y-114753791D01*
X164646209Y-114900154D01*
X164761207Y-115072260D01*
X164780194Y-115118100D01*
X164840419Y-115263493D01*
X164869852Y-115411465D01*
X164880800Y-115466505D01*
X164880800Y-115673495D01*
X164878153Y-115686800D01*
X164840419Y-115876507D01*
X164784408Y-116011729D01*
X164761207Y-116067740D01*
X164646209Y-116239846D01*
X164499846Y-116386209D01*
X164327740Y-116501207D01*
X164282753Y-116519841D01*
X164136507Y-116580419D01*
X163967176Y-116614100D01*
X163933495Y-116620800D01*
X163726505Y-116620800D01*
X163692824Y-116614100D01*
X163523493Y-116580419D01*
X163377247Y-116519841D01*
X163332260Y-116501207D01*
X163160154Y-116386209D01*
X163013791Y-116239846D01*
X162898793Y-116067740D01*
X162875592Y-116011729D01*
X162819581Y-115876507D01*
X162781847Y-115686800D01*
X162779200Y-115673495D01*
X162779200Y-115466505D01*
X162790148Y-115411465D01*
X162819581Y-115263493D01*
X162879806Y-115118100D01*
X162898793Y-115072260D01*
X163013791Y-114900154D01*
X163160154Y-114753791D01*
X163332260Y-114638793D01*
X163388271Y-114615592D01*
X163523493Y-114559581D01*
X163692824Y-114525900D01*
X163726505Y-114519200D01*
X163933495Y-114519200D01*
X163967176Y-114525900D01*
X163967176Y-114525900D01*
G37*
G36*
X148847625Y-114947905D02*
X148868030Y-114954095D01*
X148886835Y-114964147D01*
X148903323Y-114977677D01*
X148916853Y-114994165D01*
X148926905Y-115012970D01*
X148933095Y-115033375D01*
X148935800Y-115060843D01*
X148935800Y-115571157D01*
X148933095Y-115598625D01*
X148926905Y-115619030D01*
X148916853Y-115637835D01*
X148903323Y-115654323D01*
X148886835Y-115667853D01*
X148868030Y-115677905D01*
X148847625Y-115684095D01*
X148820157Y-115686800D01*
X148359843Y-115686800D01*
X148332375Y-115684095D01*
X148311970Y-115677905D01*
X148293165Y-115667853D01*
X148276677Y-115654323D01*
X148263147Y-115637835D01*
X148253095Y-115619030D01*
X148246905Y-115598625D01*
X148244200Y-115571157D01*
X148244200Y-115060843D01*
X148246905Y-115033375D01*
X148253095Y-115012970D01*
X148263147Y-114994165D01*
X148276677Y-114977677D01*
X148293165Y-114964147D01*
X148311970Y-114954095D01*
X148332375Y-114947905D01*
X148359843Y-114945200D01*
X148820157Y-114945200D01*
X148847625Y-114947905D01*
X148847625Y-114947905D01*
G37*
G36*
X149817625Y-114947905D02*
X149838030Y-114954095D01*
X149856835Y-114964147D01*
X149873323Y-114977677D01*
X149886853Y-114994165D01*
X149896905Y-115012970D01*
X149903095Y-115033375D01*
X149905800Y-115060843D01*
X149905800Y-115571157D01*
X149903095Y-115598625D01*
X149896905Y-115619030D01*
X149886853Y-115637835D01*
X149873323Y-115654323D01*
X149856835Y-115667853D01*
X149838030Y-115677905D01*
X149817625Y-115684095D01*
X149790157Y-115686800D01*
X149329843Y-115686800D01*
X149302375Y-115684095D01*
X149281970Y-115677905D01*
X149263165Y-115667853D01*
X149246677Y-115654323D01*
X149233147Y-115637835D01*
X149223095Y-115619030D01*
X149216905Y-115598625D01*
X149214200Y-115571157D01*
X149214200Y-115060843D01*
X149216905Y-115033375D01*
X149223095Y-115012970D01*
X149233147Y-114994165D01*
X149246677Y-114977677D01*
X149263165Y-114964147D01*
X149281970Y-114954095D01*
X149302375Y-114947905D01*
X149329843Y-114945200D01*
X149790157Y-114945200D01*
X149817625Y-114947905D01*
X149817625Y-114947905D01*
G37*
G36*
X146080800Y-115134800D02*
X143479200Y-115134800D01*
X143479200Y-111433200D01*
X146080800Y-111433200D01*
X146080800Y-115134800D01*
X146080800Y-115134800D01*
G37*
G36*
X147205800Y-114709800D02*
X146354200Y-114709800D01*
X146354200Y-114258200D01*
X147205800Y-114258200D01*
X147205800Y-114709800D01*
X147205800Y-114709800D01*
G37*
G36*
X143205800Y-114709800D02*
X142354200Y-114709800D01*
X142354200Y-114258200D01*
X143205800Y-114258200D01*
X143205800Y-114709800D01*
X143205800Y-114709800D01*
G37*
G36*
X148847625Y-113315905D02*
X148868030Y-113322095D01*
X148886835Y-113332147D01*
X148903323Y-113345677D01*
X148916853Y-113362165D01*
X148926905Y-113380970D01*
X148933095Y-113401375D01*
X148935800Y-113428843D01*
X148935800Y-113939157D01*
X148933095Y-113966625D01*
X148926905Y-113987030D01*
X148916853Y-114005835D01*
X148903323Y-114022323D01*
X148886835Y-114035853D01*
X148868030Y-114045905D01*
X148847625Y-114052095D01*
X148820157Y-114054800D01*
X148359843Y-114054800D01*
X148332375Y-114052095D01*
X148311970Y-114045905D01*
X148293165Y-114035853D01*
X148276677Y-114022323D01*
X148263147Y-114005835D01*
X148253095Y-113987030D01*
X148246905Y-113966625D01*
X148244200Y-113939157D01*
X148244200Y-113428843D01*
X148246905Y-113401375D01*
X148253095Y-113380970D01*
X148263147Y-113362165D01*
X148276677Y-113345677D01*
X148293165Y-113332147D01*
X148311970Y-113322095D01*
X148332375Y-113315905D01*
X148359843Y-113313200D01*
X148820157Y-113313200D01*
X148847625Y-113315905D01*
X148847625Y-113315905D01*
G37*
G36*
X149817625Y-113315905D02*
X149838030Y-113322095D01*
X149856835Y-113332147D01*
X149873323Y-113345677D01*
X149886853Y-113362165D01*
X149896905Y-113380970D01*
X149903095Y-113401375D01*
X149905800Y-113428843D01*
X149905800Y-113939157D01*
X149903095Y-113966625D01*
X149896905Y-113987030D01*
X149886853Y-114005835D01*
X149873323Y-114022323D01*
X149856835Y-114035853D01*
X149838030Y-114045905D01*
X149817625Y-114052095D01*
X149790157Y-114054800D01*
X149329843Y-114054800D01*
X149302375Y-114052095D01*
X149281970Y-114045905D01*
X149263165Y-114035853D01*
X149246677Y-114022323D01*
X149233147Y-114005835D01*
X149223095Y-113987030D01*
X149216905Y-113966625D01*
X149214200Y-113939157D01*
X149214200Y-113428843D01*
X149216905Y-113401375D01*
X149223095Y-113380970D01*
X149233147Y-113362165D01*
X149246677Y-113345677D01*
X149263165Y-113332147D01*
X149281970Y-113322095D01*
X149302375Y-113315905D01*
X149329843Y-113313200D01*
X149790157Y-113313200D01*
X149817625Y-113315905D01*
X149817625Y-113315905D01*
G37*
G36*
X140257625Y-113315905D02*
X140278030Y-113322095D01*
X140296835Y-113332147D01*
X140313323Y-113345677D01*
X140326853Y-113362165D01*
X140336905Y-113380970D01*
X140343095Y-113401375D01*
X140345800Y-113428843D01*
X140345800Y-113939157D01*
X140343095Y-113966625D01*
X140336905Y-113987030D01*
X140326853Y-114005835D01*
X140313323Y-114022323D01*
X140296835Y-114035853D01*
X140278030Y-114045905D01*
X140257625Y-114052095D01*
X140230157Y-114054800D01*
X139769843Y-114054800D01*
X139742375Y-114052095D01*
X139721970Y-114045905D01*
X139703165Y-114035853D01*
X139686677Y-114022323D01*
X139673147Y-114005835D01*
X139663095Y-113987030D01*
X139656905Y-113966625D01*
X139654200Y-113939157D01*
X139654200Y-113428843D01*
X139656905Y-113401375D01*
X139663095Y-113380970D01*
X139673147Y-113362165D01*
X139686677Y-113345677D01*
X139703165Y-113332147D01*
X139721970Y-113322095D01*
X139742375Y-113315905D01*
X139769843Y-113313200D01*
X140230157Y-113313200D01*
X140257625Y-113315905D01*
X140257625Y-113315905D01*
G37*
G36*
X141227625Y-113315905D02*
X141248030Y-113322095D01*
X141266835Y-113332147D01*
X141283323Y-113345677D01*
X141296853Y-113362165D01*
X141306905Y-113380970D01*
X141313095Y-113401375D01*
X141315800Y-113428843D01*
X141315800Y-113939157D01*
X141313095Y-113966625D01*
X141306905Y-113987030D01*
X141296853Y-114005835D01*
X141283323Y-114022323D01*
X141266835Y-114035853D01*
X141248030Y-114045905D01*
X141227625Y-114052095D01*
X141200157Y-114054800D01*
X140739843Y-114054800D01*
X140712375Y-114052095D01*
X140691970Y-114045905D01*
X140673165Y-114035853D01*
X140656677Y-114022323D01*
X140643147Y-114005835D01*
X140633095Y-113987030D01*
X140626905Y-113966625D01*
X140624200Y-113939157D01*
X140624200Y-113428843D01*
X140626905Y-113401375D01*
X140633095Y-113380970D01*
X140643147Y-113362165D01*
X140656677Y-113345677D01*
X140673165Y-113332147D01*
X140691970Y-113322095D01*
X140712375Y-113315905D01*
X140739843Y-113313200D01*
X141200157Y-113313200D01*
X141227625Y-113315905D01*
X141227625Y-113315905D01*
G37*
G36*
X147205800Y-113909800D02*
X146354200Y-113909800D01*
X146354200Y-113458200D01*
X147205800Y-113458200D01*
X147205800Y-113909800D01*
X147205800Y-113909800D01*
G37*
G36*
X143205800Y-113909800D02*
X142354200Y-113909800D01*
X142354200Y-113458200D01*
X143205800Y-113458200D01*
X143205800Y-113909800D01*
X143205800Y-113909800D01*
G37*
G36*
X121392625Y-112661905D02*
X121413030Y-112668095D01*
X121431835Y-112678147D01*
X121448323Y-112691677D01*
X121461853Y-112708165D01*
X121471905Y-112726970D01*
X121478095Y-112747375D01*
X121480800Y-112774843D01*
X121480800Y-113285157D01*
X121478095Y-113312625D01*
X121471905Y-113333030D01*
X121461853Y-113351835D01*
X121448323Y-113368323D01*
X121431835Y-113381853D01*
X121413030Y-113391905D01*
X121392625Y-113398095D01*
X121365157Y-113400800D01*
X120904843Y-113400800D01*
X120877375Y-113398095D01*
X120856970Y-113391905D01*
X120838165Y-113381853D01*
X120821677Y-113368323D01*
X120808147Y-113351835D01*
X120798095Y-113333030D01*
X120791905Y-113312625D01*
X120789200Y-113285157D01*
X120789200Y-112774843D01*
X120791905Y-112747375D01*
X120798095Y-112726970D01*
X120808147Y-112708165D01*
X120821677Y-112691677D01*
X120838165Y-112678147D01*
X120856970Y-112668095D01*
X120877375Y-112661905D01*
X120904843Y-112659200D01*
X121365157Y-112659200D01*
X121392625Y-112661905D01*
X121392625Y-112661905D01*
G37*
G36*
X120422625Y-112661905D02*
X120443030Y-112668095D01*
X120461835Y-112678147D01*
X120478323Y-112691677D01*
X120491853Y-112708165D01*
X120501905Y-112726970D01*
X120508095Y-112747375D01*
X120510800Y-112774843D01*
X120510800Y-113285157D01*
X120508095Y-113312625D01*
X120501905Y-113333030D01*
X120491853Y-113351835D01*
X120478323Y-113368323D01*
X120461835Y-113381853D01*
X120443030Y-113391905D01*
X120422625Y-113398095D01*
X120395157Y-113400800D01*
X119934843Y-113400800D01*
X119907375Y-113398095D01*
X119886970Y-113391905D01*
X119868165Y-113381853D01*
X119851677Y-113368323D01*
X119838147Y-113351835D01*
X119828095Y-113333030D01*
X119821905Y-113312625D01*
X119819200Y-113285157D01*
X119819200Y-112774843D01*
X119821905Y-112747375D01*
X119828095Y-112726970D01*
X119838147Y-112708165D01*
X119851677Y-112691677D01*
X119868165Y-112678147D01*
X119886970Y-112668095D01*
X119907375Y-112661905D01*
X119934843Y-112659200D01*
X120395157Y-112659200D01*
X120422625Y-112661905D01*
X120422625Y-112661905D01*
G37*
G36*
X147205800Y-113109800D02*
X146354200Y-113109800D01*
X146354200Y-112658200D01*
X147205800Y-112658200D01*
X147205800Y-113109800D01*
X147205800Y-113109800D01*
G37*
G36*
X143205800Y-113109800D02*
X142354200Y-113109800D01*
X142354200Y-112658200D01*
X143205800Y-112658200D01*
X143205800Y-113109800D01*
X143205800Y-113109800D01*
G37*
G36*
X150507779Y-111562274D02*
X150541543Y-111572517D01*
X150572674Y-111589157D01*
X150599954Y-111611546D01*
X150622343Y-111638826D01*
X150638983Y-111669957D01*
X150649226Y-111703721D01*
X150653300Y-111745093D01*
X150653300Y-112422907D01*
X150649226Y-112464279D01*
X150638983Y-112498043D01*
X150622343Y-112529174D01*
X150599954Y-112556454D01*
X150572674Y-112578843D01*
X150541543Y-112595483D01*
X150507779Y-112605726D01*
X150466407Y-112609800D01*
X149863593Y-112609800D01*
X149822221Y-112605726D01*
X149788457Y-112595483D01*
X149757326Y-112578843D01*
X149730046Y-112556454D01*
X149707657Y-112529174D01*
X149691017Y-112498043D01*
X149680774Y-112464279D01*
X149676700Y-112422907D01*
X149676700Y-111745093D01*
X149680774Y-111703721D01*
X149691017Y-111669957D01*
X149707657Y-111638826D01*
X149730046Y-111611546D01*
X149757326Y-111589157D01*
X149788457Y-111572517D01*
X149822221Y-111562274D01*
X149863593Y-111558200D01*
X150466407Y-111558200D01*
X150507779Y-111562274D01*
X150507779Y-111562274D01*
G37*
G36*
X139737779Y-111562274D02*
X139771543Y-111572517D01*
X139802674Y-111589157D01*
X139829954Y-111611546D01*
X139852343Y-111638826D01*
X139868983Y-111669957D01*
X139879226Y-111703721D01*
X139883300Y-111745093D01*
X139883300Y-112422907D01*
X139879226Y-112464279D01*
X139868983Y-112498043D01*
X139852343Y-112529174D01*
X139829954Y-112556454D01*
X139802674Y-112578843D01*
X139771543Y-112595483D01*
X139737779Y-112605726D01*
X139696407Y-112609800D01*
X139093593Y-112609800D01*
X139052221Y-112605726D01*
X139018457Y-112595483D01*
X138987326Y-112578843D01*
X138960046Y-112556454D01*
X138937657Y-112529174D01*
X138921017Y-112498043D01*
X138910774Y-112464279D01*
X138906700Y-112422907D01*
X138906700Y-111745093D01*
X138910774Y-111703721D01*
X138921017Y-111669957D01*
X138937657Y-111638826D01*
X138960046Y-111611546D01*
X138987326Y-111589157D01*
X139018457Y-111572517D01*
X139052221Y-111562274D01*
X139093593Y-111558200D01*
X139696407Y-111558200D01*
X139737779Y-111562274D01*
X139737779Y-111562274D01*
G37*
G36*
X141312779Y-111562274D02*
X141346543Y-111572517D01*
X141377674Y-111589157D01*
X141404954Y-111611546D01*
X141427343Y-111638826D01*
X141443983Y-111669957D01*
X141454226Y-111703721D01*
X141458300Y-111745093D01*
X141458300Y-112422907D01*
X141454226Y-112464279D01*
X141443983Y-112498043D01*
X141427343Y-112529174D01*
X141404954Y-112556454D01*
X141377674Y-112578843D01*
X141346543Y-112595483D01*
X141312779Y-112605726D01*
X141271407Y-112609800D01*
X140668593Y-112609800D01*
X140627221Y-112605726D01*
X140593457Y-112595483D01*
X140562326Y-112578843D01*
X140535046Y-112556454D01*
X140512657Y-112529174D01*
X140496017Y-112498043D01*
X140485774Y-112464279D01*
X140481700Y-112422907D01*
X140481700Y-111745093D01*
X140485774Y-111703721D01*
X140496017Y-111669957D01*
X140512657Y-111638826D01*
X140535046Y-111611546D01*
X140562326Y-111589157D01*
X140593457Y-111572517D01*
X140627221Y-111562274D01*
X140668593Y-111558200D01*
X141271407Y-111558200D01*
X141312779Y-111562274D01*
X141312779Y-111562274D01*
G37*
G36*
X148932779Y-111562274D02*
X148966543Y-111572517D01*
X148997674Y-111589157D01*
X149024954Y-111611546D01*
X149047343Y-111638826D01*
X149063983Y-111669957D01*
X149074226Y-111703721D01*
X149078300Y-111745093D01*
X149078300Y-112422907D01*
X149074226Y-112464279D01*
X149063983Y-112498043D01*
X149047343Y-112529174D01*
X149024954Y-112556454D01*
X148997674Y-112578843D01*
X148966543Y-112595483D01*
X148932779Y-112605726D01*
X148891407Y-112609800D01*
X148288593Y-112609800D01*
X148247221Y-112605726D01*
X148213457Y-112595483D01*
X148182326Y-112578843D01*
X148155046Y-112556454D01*
X148132657Y-112529174D01*
X148116017Y-112498043D01*
X148105774Y-112464279D01*
X148101700Y-112422907D01*
X148101700Y-111745093D01*
X148105774Y-111703721D01*
X148116017Y-111669957D01*
X148132657Y-111638826D01*
X148155046Y-111611546D01*
X148182326Y-111589157D01*
X148213457Y-111572517D01*
X148247221Y-111562274D01*
X148288593Y-111558200D01*
X148891407Y-111558200D01*
X148932779Y-111562274D01*
X148932779Y-111562274D01*
G37*
G36*
X147205800Y-112309800D02*
X146354200Y-112309800D01*
X146354200Y-111858200D01*
X147205800Y-111858200D01*
X147205800Y-112309800D01*
X147205800Y-112309800D01*
G37*
G36*
X143205800Y-112309800D02*
X142354200Y-112309800D01*
X142354200Y-111858200D01*
X143205800Y-111858200D01*
X143205800Y-112309800D01*
X143205800Y-112309800D01*
G37*
G36*
X167892839Y-110804693D02*
X167932679Y-110808617D01*
X168055355Y-110845831D01*
X168055358Y-110845832D01*
X168168414Y-110906261D01*
X168267511Y-110987589D01*
X168348839Y-111086686D01*
X168409268Y-111199742D01*
X168409269Y-111199745D01*
X168446483Y-111322421D01*
X168446483Y-111322426D01*
X168459049Y-111450000D01*
X168454510Y-111496077D01*
X168446483Y-111577579D01*
X168418677Y-111669241D01*
X168409268Y-111700258D01*
X168348839Y-111813314D01*
X168267511Y-111912411D01*
X168168414Y-111993739D01*
X168055358Y-112054168D01*
X168055355Y-112054169D01*
X167932679Y-112091383D01*
X167892839Y-112095307D01*
X167837070Y-112100800D01*
X167073130Y-112100800D01*
X167017361Y-112095307D01*
X166977521Y-112091383D01*
X166854845Y-112054169D01*
X166854842Y-112054168D01*
X166741786Y-111993739D01*
X166642689Y-111912411D01*
X166561361Y-111813314D01*
X166500932Y-111700258D01*
X166491523Y-111669241D01*
X166463717Y-111577579D01*
X166455690Y-111496077D01*
X166451151Y-111450000D01*
X166463717Y-111322426D01*
X166463717Y-111322421D01*
X166500931Y-111199745D01*
X166500932Y-111199742D01*
X166561361Y-111086686D01*
X166642689Y-110987589D01*
X166741786Y-110906261D01*
X166854842Y-110845832D01*
X166854845Y-110845831D01*
X166977521Y-110808617D01*
X167017361Y-110804693D01*
X167073130Y-110799200D01*
X167837070Y-110799200D01*
X167892839Y-110804693D01*
X167892839Y-110804693D01*
G37*
G36*
X113176077Y-110868445D02*
X113213828Y-110884083D01*
X113267218Y-110906197D01*
X113349241Y-110961003D01*
X113418997Y-111030759D01*
X113473803Y-111112782D01*
X113484043Y-111137504D01*
X113511555Y-111203923D01*
X113530800Y-111300676D01*
X113530800Y-111399324D01*
X113511555Y-111496077D01*
X113495917Y-111533828D01*
X113473803Y-111587218D01*
X113418997Y-111669241D01*
X113349241Y-111738997D01*
X113267218Y-111793803D01*
X113220114Y-111813314D01*
X113176077Y-111831555D01*
X113079324Y-111850800D01*
X112980676Y-111850800D01*
X112883923Y-111831555D01*
X112839886Y-111813314D01*
X112792782Y-111793803D01*
X112710759Y-111738997D01*
X112641003Y-111669241D01*
X112586197Y-111587218D01*
X112564083Y-111533828D01*
X112548445Y-111496077D01*
X112529200Y-111399324D01*
X112529200Y-111300676D01*
X112548445Y-111203923D01*
X112575957Y-111137504D01*
X112586197Y-111112782D01*
X112641003Y-111030759D01*
X112710759Y-110961003D01*
X112792782Y-110906197D01*
X112846172Y-110884083D01*
X112883923Y-110868445D01*
X112980676Y-110849200D01*
X113079324Y-110849200D01*
X113176077Y-110868445D01*
X113176077Y-110868445D01*
G37*
G36*
X164981393Y-109704013D02*
X165122579Y-109762495D01*
X165122581Y-109762496D01*
X165164934Y-109790796D01*
X165249644Y-109847397D01*
X165357703Y-109955456D01*
X165442605Y-110082521D01*
X165501087Y-110223707D01*
X165530900Y-110373590D01*
X165530900Y-110526410D01*
X165501087Y-110676293D01*
X165442605Y-110817479D01*
X165357703Y-110944544D01*
X165249644Y-111052603D01*
X165198635Y-111086686D01*
X165122581Y-111137504D01*
X165122580Y-111137505D01*
X165122579Y-111137505D01*
X164981393Y-111195987D01*
X164831510Y-111225800D01*
X164678690Y-111225800D01*
X164528807Y-111195987D01*
X164387621Y-111137505D01*
X164387620Y-111137505D01*
X164387619Y-111137504D01*
X164311565Y-111086686D01*
X164260556Y-111052603D01*
X164152497Y-110944544D01*
X164067595Y-110817479D01*
X164009113Y-110676293D01*
X163979300Y-110526410D01*
X163979300Y-110373590D01*
X164009113Y-110223707D01*
X164067595Y-110082521D01*
X164152497Y-109955456D01*
X164260556Y-109847397D01*
X164345266Y-109790796D01*
X164387619Y-109762496D01*
X164387621Y-109762495D01*
X164528807Y-109704013D01*
X164678690Y-109674200D01*
X164831510Y-109674200D01*
X164981393Y-109704013D01*
X164981393Y-109704013D01*
G37*
G36*
X152325273Y-106218403D02*
X152489136Y-106286278D01*
X152652999Y-106354152D01*
X152665702Y-106362640D01*
X152947941Y-106551226D01*
X153198774Y-106802059D01*
X153330156Y-106998686D01*
X153395848Y-107097001D01*
X153463722Y-107260863D01*
X153531597Y-107424727D01*
X153600800Y-107772637D01*
X153600800Y-108127363D01*
X153531597Y-108475273D01*
X153463722Y-108639136D01*
X153395848Y-108802999D01*
X153395847Y-108803000D01*
X153198774Y-109097941D01*
X152947941Y-109348774D01*
X152751314Y-109480156D01*
X152652999Y-109545848D01*
X152520333Y-109600800D01*
X152325273Y-109681597D01*
X151977363Y-109750800D01*
X151622637Y-109750800D01*
X151274727Y-109681597D01*
X151079667Y-109600800D01*
X150947001Y-109545848D01*
X150848686Y-109480156D01*
X150652059Y-109348774D01*
X150401226Y-109097941D01*
X150204153Y-108803000D01*
X150204152Y-108802999D01*
X150136278Y-108639137D01*
X150068403Y-108475273D01*
X149999200Y-108127363D01*
X149999200Y-107772637D01*
X150068403Y-107424727D01*
X150136278Y-107260863D01*
X150204152Y-107097001D01*
X150269844Y-106998686D01*
X150401226Y-106802059D01*
X150652059Y-106551226D01*
X150934298Y-106362640D01*
X150947001Y-106354152D01*
X151110864Y-106286278D01*
X151274727Y-106218403D01*
X151622637Y-106149200D01*
X151977363Y-106149200D01*
X152325273Y-106218403D01*
X152325273Y-106218403D01*
G37*
G36*
X128125273Y-106218403D02*
X128289136Y-106286278D01*
X128452999Y-106354152D01*
X128465702Y-106362640D01*
X128747941Y-106551226D01*
X128998774Y-106802059D01*
X129130156Y-106998686D01*
X129195848Y-107097001D01*
X129263722Y-107260863D01*
X129331597Y-107424727D01*
X129400800Y-107772637D01*
X129400800Y-108127363D01*
X129331597Y-108475273D01*
X129263722Y-108639136D01*
X129195848Y-108802999D01*
X129195847Y-108803000D01*
X128998774Y-109097941D01*
X128747941Y-109348774D01*
X128551314Y-109480156D01*
X128452999Y-109545848D01*
X128320333Y-109600800D01*
X128125273Y-109681597D01*
X127777363Y-109750800D01*
X127422637Y-109750800D01*
X127074727Y-109681597D01*
X126879667Y-109600800D01*
X126747001Y-109545848D01*
X126648686Y-109480156D01*
X126452059Y-109348774D01*
X126201226Y-109097941D01*
X126004153Y-108803000D01*
X126004152Y-108802999D01*
X125936278Y-108639137D01*
X125868403Y-108475273D01*
X125799200Y-108127363D01*
X125799200Y-107772637D01*
X125868403Y-107424727D01*
X125936278Y-107260863D01*
X126004152Y-107097001D01*
X126069844Y-106998686D01*
X126201226Y-106802059D01*
X126452059Y-106551226D01*
X126734298Y-106362640D01*
X126747001Y-106354152D01*
X126910864Y-106286278D01*
X127074727Y-106218403D01*
X127422637Y-106149200D01*
X127777363Y-106149200D01*
X128125273Y-106218403D01*
X128125273Y-106218403D01*
G37*
G36*
X121181521Y-106362639D02*
X121481947Y-106487080D01*
X121752324Y-106667740D01*
X121982260Y-106897676D01*
X122162920Y-107168053D01*
X122287361Y-107468479D01*
X122350800Y-107787410D01*
X122350800Y-108112590D01*
X122287361Y-108431521D01*
X122162920Y-108731947D01*
X121982260Y-109002324D01*
X121752324Y-109232260D01*
X121481947Y-109412920D01*
X121181521Y-109537361D01*
X120862590Y-109600800D01*
X120537410Y-109600800D01*
X120218479Y-109537361D01*
X119918053Y-109412920D01*
X119647676Y-109232260D01*
X119417740Y-109002324D01*
X119237080Y-108731947D01*
X119112639Y-108431521D01*
X119049200Y-108112590D01*
X119049200Y-107787410D01*
X119112639Y-107468479D01*
X119237080Y-107168053D01*
X119417740Y-106897676D01*
X119647676Y-106667740D01*
X119918053Y-106487080D01*
X120218479Y-106362639D01*
X120537410Y-106299200D01*
X120862590Y-106299200D01*
X121181521Y-106362639D01*
X121181521Y-106362639D01*
G37*
G36*
X159181521Y-106362639D02*
X159481947Y-106487080D01*
X159752324Y-106667740D01*
X159982260Y-106897676D01*
X160162920Y-107168053D01*
X160287361Y-107468479D01*
X160350800Y-107787410D01*
X160350800Y-108112590D01*
X160287361Y-108431521D01*
X160162920Y-108731947D01*
X159982260Y-109002324D01*
X159752324Y-109232260D01*
X159481947Y-109412920D01*
X159181521Y-109537361D01*
X158862590Y-109600800D01*
X158537410Y-109600800D01*
X158218479Y-109537361D01*
X157918053Y-109412920D01*
X157647676Y-109232260D01*
X157417740Y-109002324D01*
X157237080Y-108731947D01*
X157112639Y-108431521D01*
X157049200Y-108112590D01*
X157049200Y-107787410D01*
X157112639Y-107468479D01*
X157237080Y-107168053D01*
X157417740Y-106897676D01*
X157647676Y-106667740D01*
X157918053Y-106487080D01*
X158218479Y-106362639D01*
X158537410Y-106299200D01*
X158862590Y-106299200D01*
X159181521Y-106362639D01*
X159181521Y-106362639D01*
G37*
G36*
X164981393Y-104704013D02*
X165122579Y-104762495D01*
X165122581Y-104762496D01*
X165159577Y-104787216D01*
X165249644Y-104847397D01*
X165357703Y-104955456D01*
X165442605Y-105082521D01*
X165501087Y-105223707D01*
X165530900Y-105373590D01*
X165530900Y-105526410D01*
X165501087Y-105676293D01*
X165442605Y-105817479D01*
X165357703Y-105944544D01*
X165249644Y-106052603D01*
X165164934Y-106109204D01*
X165122581Y-106137504D01*
X165122580Y-106137505D01*
X165122579Y-106137505D01*
X164981393Y-106195987D01*
X164831510Y-106225800D01*
X164678690Y-106225800D01*
X164528807Y-106195987D01*
X164387621Y-106137505D01*
X164387620Y-106137505D01*
X164387619Y-106137504D01*
X164345266Y-106109204D01*
X164260556Y-106052603D01*
X164152497Y-105944544D01*
X164067595Y-105817479D01*
X164009113Y-105676293D01*
X163979300Y-105526410D01*
X163979300Y-105373590D01*
X164009113Y-105223707D01*
X164067595Y-105082521D01*
X164152497Y-104955456D01*
X164260556Y-104847397D01*
X164350623Y-104787216D01*
X164387619Y-104762496D01*
X164387621Y-104762495D01*
X164528807Y-104704013D01*
X164678690Y-104674200D01*
X164831510Y-104674200D01*
X164981393Y-104704013D01*
X164981393Y-104704013D01*
G37*
G36*
X167892839Y-103804693D02*
X167932679Y-103808617D01*
X168055355Y-103845831D01*
X168055358Y-103845832D01*
X168168414Y-103906261D01*
X168267511Y-103987589D01*
X168348839Y-104086686D01*
X168409268Y-104199742D01*
X168409269Y-104199745D01*
X168446483Y-104322421D01*
X168446483Y-104322426D01*
X168459049Y-104450000D01*
X168454057Y-104500676D01*
X168446483Y-104577579D01*
X168410536Y-104696077D01*
X168409268Y-104700258D01*
X168348839Y-104813314D01*
X168267511Y-104912411D01*
X168168414Y-104993739D01*
X168055358Y-105054168D01*
X168055355Y-105054169D01*
X167932679Y-105091383D01*
X167892839Y-105095307D01*
X167837070Y-105100800D01*
X167073130Y-105100800D01*
X167017361Y-105095307D01*
X166977521Y-105091383D01*
X166854845Y-105054169D01*
X166854842Y-105054168D01*
X166741786Y-104993739D01*
X166642689Y-104912411D01*
X166561361Y-104813314D01*
X166500932Y-104700258D01*
X166499664Y-104696077D01*
X166463717Y-104577579D01*
X166456143Y-104500676D01*
X166451151Y-104450000D01*
X166463717Y-104322426D01*
X166463717Y-104322421D01*
X166500931Y-104199745D01*
X166500932Y-104199742D01*
X166561361Y-104086686D01*
X166642689Y-103987589D01*
X166741786Y-103906261D01*
X166854842Y-103845832D01*
X166854845Y-103845831D01*
X166977521Y-103808617D01*
X167017361Y-103804693D01*
X167073130Y-103799200D01*
X167837070Y-103799200D01*
X167892839Y-103804693D01*
X167892839Y-103804693D01*
G37*
G36*
X113176077Y-104068445D02*
X113213828Y-104084083D01*
X113267218Y-104106197D01*
X113349241Y-104161003D01*
X113418997Y-104230759D01*
X113473803Y-104312782D01*
X113495917Y-104366172D01*
X113511555Y-104403923D01*
X113530800Y-104500676D01*
X113530800Y-104599324D01*
X113511555Y-104696077D01*
X113495917Y-104733828D01*
X113473803Y-104787218D01*
X113418997Y-104869241D01*
X113349241Y-104938997D01*
X113267218Y-104993803D01*
X113213828Y-105015917D01*
X113176077Y-105031555D01*
X113079324Y-105050800D01*
X112980676Y-105050800D01*
X112883923Y-105031555D01*
X112846172Y-105015917D01*
X112792782Y-104993803D01*
X112710759Y-104938997D01*
X112641003Y-104869241D01*
X112586197Y-104787218D01*
X112564083Y-104733828D01*
X112548445Y-104696077D01*
X112529200Y-104599324D01*
X112529200Y-104500676D01*
X112548445Y-104403923D01*
X112564083Y-104366172D01*
X112586197Y-104312782D01*
X112641003Y-104230759D01*
X112710759Y-104161003D01*
X112792782Y-104106197D01*
X112846172Y-104084083D01*
X112883923Y-104068445D01*
X112980676Y-104049200D01*
X113079324Y-104049200D01*
X113176077Y-104068445D01*
X113176077Y-104068445D01*
G37*
G36*
X161680800Y-104700800D02*
X159579200Y-104700800D01*
X159579200Y-103099200D01*
X161680800Y-103099200D01*
X161680800Y-104700800D01*
X161680800Y-104700800D01*
G37*
G36*
X149915800Y-103570800D02*
X147264200Y-103570800D01*
X147264200Y-102249200D01*
X149915800Y-102249200D01*
X149915800Y-103570800D01*
X149915800Y-103570800D01*
G37*
G36*
X155380800Y-103550800D02*
X153279200Y-103550800D01*
X153279200Y-99649200D01*
X155380800Y-99649200D01*
X155380800Y-103550800D01*
X155380800Y-103550800D01*
G37*
G36*
X120422625Y-102501905D02*
X120443030Y-102508095D01*
X120461835Y-102518147D01*
X120478323Y-102531677D01*
X120491853Y-102548165D01*
X120501905Y-102566970D01*
X120508095Y-102587375D01*
X120510800Y-102614843D01*
X120510800Y-103125157D01*
X120508095Y-103152625D01*
X120501905Y-103173030D01*
X120491853Y-103191835D01*
X120478323Y-103208323D01*
X120461835Y-103221853D01*
X120443030Y-103231905D01*
X120422625Y-103238095D01*
X120395157Y-103240800D01*
X119934843Y-103240800D01*
X119907375Y-103238095D01*
X119886970Y-103231905D01*
X119868165Y-103221853D01*
X119851677Y-103208323D01*
X119838147Y-103191835D01*
X119828095Y-103173030D01*
X119821905Y-103152625D01*
X119819200Y-103125157D01*
X119819200Y-102614843D01*
X119821905Y-102587375D01*
X119828095Y-102566970D01*
X119838147Y-102548165D01*
X119851677Y-102531677D01*
X119868165Y-102518147D01*
X119886970Y-102508095D01*
X119907375Y-102501905D01*
X119934843Y-102499200D01*
X120395157Y-102499200D01*
X120422625Y-102501905D01*
X120422625Y-102501905D01*
G37*
G36*
X121392625Y-102501905D02*
X121413030Y-102508095D01*
X121431835Y-102518147D01*
X121448323Y-102531677D01*
X121461853Y-102548165D01*
X121471905Y-102566970D01*
X121478095Y-102587375D01*
X121480800Y-102614843D01*
X121480800Y-103125157D01*
X121478095Y-103152625D01*
X121471905Y-103173030D01*
X121461853Y-103191835D01*
X121448323Y-103208323D01*
X121431835Y-103221853D01*
X121413030Y-103231905D01*
X121392625Y-103238095D01*
X121365157Y-103240800D01*
X120904843Y-103240800D01*
X120877375Y-103238095D01*
X120856970Y-103231905D01*
X120838165Y-103221853D01*
X120821677Y-103208323D01*
X120808147Y-103191835D01*
X120798095Y-103173030D01*
X120791905Y-103152625D01*
X120789200Y-103125157D01*
X120789200Y-102614843D01*
X120791905Y-102587375D01*
X120798095Y-102566970D01*
X120808147Y-102548165D01*
X120821677Y-102531677D01*
X120838165Y-102518147D01*
X120856970Y-102508095D01*
X120877375Y-102501905D01*
X120904843Y-102499200D01*
X121365157Y-102499200D01*
X121392625Y-102501905D01*
X121392625Y-102501905D01*
G37*
G36*
X161680800Y-102400800D02*
X159579200Y-102400800D01*
X159579200Y-100799200D01*
X161680800Y-100799200D01*
X161680800Y-102400800D01*
X161680800Y-102400800D01*
G37*
G36*
X151412625Y-100916905D02*
X151433030Y-100923095D01*
X151451835Y-100933147D01*
X151468323Y-100946677D01*
X151481853Y-100963165D01*
X151491905Y-100981970D01*
X151498095Y-101002375D01*
X151500800Y-101029843D01*
X151500800Y-101490157D01*
X151498095Y-101517625D01*
X151491905Y-101538030D01*
X151481853Y-101556835D01*
X151468323Y-101573323D01*
X151451835Y-101586853D01*
X151433030Y-101596905D01*
X151412625Y-101603095D01*
X151385157Y-101605800D01*
X150874843Y-101605800D01*
X150847375Y-101603095D01*
X150826970Y-101596905D01*
X150808165Y-101586853D01*
X150791677Y-101573323D01*
X150778147Y-101556835D01*
X150768095Y-101538030D01*
X150761905Y-101517625D01*
X150759200Y-101490157D01*
X150759200Y-101029843D01*
X150761905Y-101002375D01*
X150768095Y-100981970D01*
X150778147Y-100963165D01*
X150791677Y-100946677D01*
X150808165Y-100933147D01*
X150826970Y-100923095D01*
X150847375Y-100916905D01*
X150874843Y-100914200D01*
X151385157Y-100914200D01*
X151412625Y-100916905D01*
X151412625Y-100916905D01*
G37*
G36*
X146205625Y-100916905D02*
X146226030Y-100923095D01*
X146244835Y-100933147D01*
X146261323Y-100946677D01*
X146274853Y-100963165D01*
X146284905Y-100981970D01*
X146291095Y-101002375D01*
X146293800Y-101029843D01*
X146293800Y-101490157D01*
X146291095Y-101517625D01*
X146284905Y-101538030D01*
X146274853Y-101556835D01*
X146261323Y-101573323D01*
X146244835Y-101586853D01*
X146226030Y-101596905D01*
X146205625Y-101603095D01*
X146178157Y-101605800D01*
X145667843Y-101605800D01*
X145640375Y-101603095D01*
X145619970Y-101596905D01*
X145601165Y-101586853D01*
X145584677Y-101573323D01*
X145571147Y-101556835D01*
X145561095Y-101538030D01*
X145554905Y-101517625D01*
X145552200Y-101490157D01*
X145552200Y-101029843D01*
X145554905Y-101002375D01*
X145561095Y-100981970D01*
X145571147Y-100963165D01*
X145584677Y-100946677D01*
X145601165Y-100933147D01*
X145619970Y-100923095D01*
X145640375Y-100916905D01*
X145667843Y-100914200D01*
X146178157Y-100914200D01*
X146205625Y-100916905D01*
X146205625Y-100916905D01*
G37*
G36*
X164880800Y-101380800D02*
X162779200Y-101380800D01*
X162779200Y-99279200D01*
X164880800Y-99279200D01*
X164880800Y-101380800D01*
X164880800Y-101380800D01*
G37*
G36*
X113167176Y-99285900D02*
X113336507Y-99319581D01*
X113471729Y-99375592D01*
X113527740Y-99398793D01*
X113699846Y-99513791D01*
X113846209Y-99660154D01*
X113961207Y-99832260D01*
X113961207Y-99832261D01*
X114040419Y-100023493D01*
X114080800Y-100226506D01*
X114080800Y-100433494D01*
X114040419Y-100636507D01*
X113984408Y-100771729D01*
X113961207Y-100827740D01*
X113846209Y-100999846D01*
X113699846Y-101146209D01*
X113527740Y-101261207D01*
X113471729Y-101284408D01*
X113336507Y-101340419D01*
X113167176Y-101374100D01*
X113133495Y-101380800D01*
X112926505Y-101380800D01*
X112892824Y-101374100D01*
X112723493Y-101340419D01*
X112588271Y-101284408D01*
X112532260Y-101261207D01*
X112360154Y-101146209D01*
X112213791Y-100999846D01*
X112098793Y-100827740D01*
X112075592Y-100771729D01*
X112019581Y-100636507D01*
X111979200Y-100433494D01*
X111979200Y-100226506D01*
X112019581Y-100023493D01*
X112098793Y-99832261D01*
X112098793Y-99832260D01*
X112213791Y-99660154D01*
X112360154Y-99513791D01*
X112532260Y-99398793D01*
X112588271Y-99375592D01*
X112723493Y-99319581D01*
X112892824Y-99285900D01*
X112926505Y-99279200D01*
X113133495Y-99279200D01*
X113167176Y-99285900D01*
X113167176Y-99285900D01*
G37*
G36*
X167420800Y-101380800D02*
X165319200Y-101380800D01*
X165319200Y-99279200D01*
X167420800Y-99279200D01*
X167420800Y-101380800D01*
X167420800Y-101380800D01*
G37*
G36*
X148015800Y-100950800D02*
X147264200Y-100950800D01*
X147264200Y-99629200D01*
X148015800Y-99629200D01*
X148015800Y-100950800D01*
X148015800Y-100950800D01*
G37*
G36*
X149915800Y-100950800D02*
X149164200Y-100950800D01*
X149164200Y-99629200D01*
X149915800Y-99629200D01*
X149915800Y-100950800D01*
X149915800Y-100950800D01*
G37*
G36*
X151412625Y-99946905D02*
X151433030Y-99953095D01*
X151451835Y-99963147D01*
X151468323Y-99976677D01*
X151481853Y-99993165D01*
X151491905Y-100011970D01*
X151498095Y-100032375D01*
X151500800Y-100059843D01*
X151500800Y-100520157D01*
X151498095Y-100547625D01*
X151491905Y-100568030D01*
X151481853Y-100586835D01*
X151468323Y-100603323D01*
X151451835Y-100616853D01*
X151433030Y-100626905D01*
X151412625Y-100633095D01*
X151385157Y-100635800D01*
X150874843Y-100635800D01*
X150847375Y-100633095D01*
X150826970Y-100626905D01*
X150808165Y-100616853D01*
X150791677Y-100603323D01*
X150778147Y-100586835D01*
X150768095Y-100568030D01*
X150761905Y-100547625D01*
X150759200Y-100520157D01*
X150759200Y-100059843D01*
X150761905Y-100032375D01*
X150768095Y-100011970D01*
X150778147Y-99993165D01*
X150791677Y-99976677D01*
X150808165Y-99963147D01*
X150826970Y-99953095D01*
X150847375Y-99946905D01*
X150874843Y-99944200D01*
X151385157Y-99944200D01*
X151412625Y-99946905D01*
X151412625Y-99946905D01*
G37*
G36*
X146205625Y-99946905D02*
X146226030Y-99953095D01*
X146244835Y-99963147D01*
X146261323Y-99976677D01*
X146274853Y-99993165D01*
X146284905Y-100011970D01*
X146291095Y-100032375D01*
X146293800Y-100059843D01*
X146293800Y-100520157D01*
X146291095Y-100547625D01*
X146284905Y-100568030D01*
X146274853Y-100586835D01*
X146261323Y-100603323D01*
X146244835Y-100616853D01*
X146226030Y-100626905D01*
X146205625Y-100633095D01*
X146178157Y-100635800D01*
X145667843Y-100635800D01*
X145640375Y-100633095D01*
X145619970Y-100626905D01*
X145601165Y-100616853D01*
X145584677Y-100603323D01*
X145571147Y-100586835D01*
X145561095Y-100568030D01*
X145554905Y-100547625D01*
X145552200Y-100520157D01*
X145552200Y-100059843D01*
X145554905Y-100032375D01*
X145561095Y-100011970D01*
X145571147Y-99993165D01*
X145584677Y-99976677D01*
X145601165Y-99963147D01*
X145619970Y-99953095D01*
X145640375Y-99946905D01*
X145667843Y-99944200D01*
X146178157Y-99944200D01*
X146205625Y-99946905D01*
X146205625Y-99946905D01*
G37*
G36*
X161680800Y-100100800D02*
X159579200Y-100100800D01*
X159579200Y-98499200D01*
X161680800Y-98499200D01*
X161680800Y-100100800D01*
X161680800Y-100100800D01*
G37*
M02*
