G04 #@! TF.GenerationSoftware,KiCad,Pcbnew,5.0.1+dfsg1-3*
G04 #@! TF.CreationDate,2018-11-05T21:22:00-05:00*
G04 #@! TF.ProjectId,BreadBatt,4272656164426174742E6B696361645F,rev?*
G04 #@! TF.SameCoordinates,Original*
G04 #@! TF.FileFunction,Copper,L2,Bot,Signal*
G04 #@! TF.FilePolarity,Positive*
%FSLAX46Y46*%
G04 Gerber Fmt 4.6, Leading zero omitted, Abs format (unit mm)*
G04 Created by KiCad (PCBNEW 5.0.1+dfsg1-3) date Mon 05 Nov 2018 09:22:00 PM EST*
%MOMM*%
%LPD*%
G01*
G04 APERTURE LIST*
G04 #@! TA.AperFunction,ComponentPad*
%ADD10C,3.200000*%
G04 #@! TD*
G04 #@! TA.AperFunction,Conductor*
%ADD11C,0.100000*%
G04 #@! TD*
G04 #@! TA.AperFunction,SMDPad,CuDef*
%ADD12C,0.875000*%
G04 #@! TD*
G04 #@! TA.AperFunction,SMDPad,CuDef*
%ADD13C,0.590000*%
G04 #@! TD*
G04 #@! TA.AperFunction,SMDPad,CuDef*
%ADD14R,2.000000X3.800000*%
G04 #@! TD*
G04 #@! TA.AperFunction,SMDPad,CuDef*
%ADD15R,2.000000X1.500000*%
G04 #@! TD*
G04 #@! TA.AperFunction,ComponentPad*
%ADD16C,1.450000*%
G04 #@! TD*
G04 #@! TA.AperFunction,ComponentPad*
%ADD17O,1.900000X1.200000*%
G04 #@! TD*
G04 #@! TA.AperFunction,SMDPad,CuDef*
%ADD18R,0.650000X1.220000*%
G04 #@! TD*
G04 #@! TA.AperFunction,SMDPad,CuDef*
%ADD19R,0.750000X0.350000*%
G04 #@! TD*
G04 #@! TA.AperFunction,SMDPad,CuDef*
%ADD20R,2.500000X3.600000*%
G04 #@! TD*
G04 #@! TA.AperFunction,ComponentPad*
%ADD21R,2.000000X2.000000*%
G04 #@! TD*
G04 #@! TA.AperFunction,ComponentPad*
%ADD22C,2.000000*%
G04 #@! TD*
G04 #@! TA.AperFunction,ViaPad*
%ADD23C,0.508000*%
G04 #@! TD*
G04 #@! TA.AperFunction,ViaPad*
%ADD24C,1.016000*%
G04 #@! TD*
G04 #@! TA.AperFunction,Conductor*
%ADD25C,0.254000*%
G04 #@! TD*
G04 #@! TA.AperFunction,Conductor*
%ADD26C,0.508000*%
G04 #@! TD*
G04 #@! TA.AperFunction,Conductor*
%ADD27C,1.016000*%
G04 #@! TD*
G04 #@! TA.AperFunction,Conductor*
%ADD28C,0.152400*%
G04 #@! TD*
G04 APERTURE END LIST*
D10*
G04 #@! TO.P,BT1,1*
G04 #@! TO.N,+BATT*
X158700000Y-107950000D03*
G04 #@! TO.P,BT1,2*
G04 #@! TO.N,-BATT*
X120700000Y-107950000D03*
G04 #@! TD*
D11*
G04 #@! TO.N,-BATT*
G04 #@! TO.C,C1*
G36*
X139635191Y-111610053D02*
X139656426Y-111613203D01*
X139677250Y-111618419D01*
X139697462Y-111625651D01*
X139716868Y-111634830D01*
X139735281Y-111645866D01*
X139752524Y-111658654D01*
X139768430Y-111673070D01*
X139782846Y-111688976D01*
X139795634Y-111706219D01*
X139806670Y-111724632D01*
X139815849Y-111744038D01*
X139823081Y-111764250D01*
X139828297Y-111785074D01*
X139831447Y-111806309D01*
X139832500Y-111827750D01*
X139832500Y-112340250D01*
X139831447Y-112361691D01*
X139828297Y-112382926D01*
X139823081Y-112403750D01*
X139815849Y-112423962D01*
X139806670Y-112443368D01*
X139795634Y-112461781D01*
X139782846Y-112479024D01*
X139768430Y-112494930D01*
X139752524Y-112509346D01*
X139735281Y-112522134D01*
X139716868Y-112533170D01*
X139697462Y-112542349D01*
X139677250Y-112549581D01*
X139656426Y-112554797D01*
X139635191Y-112557947D01*
X139613750Y-112559000D01*
X139176250Y-112559000D01*
X139154809Y-112557947D01*
X139133574Y-112554797D01*
X139112750Y-112549581D01*
X139092538Y-112542349D01*
X139073132Y-112533170D01*
X139054719Y-112522134D01*
X139037476Y-112509346D01*
X139021570Y-112494930D01*
X139007154Y-112479024D01*
X138994366Y-112461781D01*
X138983330Y-112443368D01*
X138974151Y-112423962D01*
X138966919Y-112403750D01*
X138961703Y-112382926D01*
X138958553Y-112361691D01*
X138957500Y-112340250D01*
X138957500Y-111827750D01*
X138958553Y-111806309D01*
X138961703Y-111785074D01*
X138966919Y-111764250D01*
X138974151Y-111744038D01*
X138983330Y-111724632D01*
X138994366Y-111706219D01*
X139007154Y-111688976D01*
X139021570Y-111673070D01*
X139037476Y-111658654D01*
X139054719Y-111645866D01*
X139073132Y-111634830D01*
X139092538Y-111625651D01*
X139112750Y-111618419D01*
X139133574Y-111613203D01*
X139154809Y-111610053D01*
X139176250Y-111609000D01*
X139613750Y-111609000D01*
X139635191Y-111610053D01*
X139635191Y-111610053D01*
G37*
D12*
G04 #@! TD*
G04 #@! TO.P,C1,1*
G04 #@! TO.N,-BATT*
X139395000Y-112084000D03*
D11*
G04 #@! TO.N,+BATT*
G04 #@! TO.C,C1*
G36*
X141210191Y-111610053D02*
X141231426Y-111613203D01*
X141252250Y-111618419D01*
X141272462Y-111625651D01*
X141291868Y-111634830D01*
X141310281Y-111645866D01*
X141327524Y-111658654D01*
X141343430Y-111673070D01*
X141357846Y-111688976D01*
X141370634Y-111706219D01*
X141381670Y-111724632D01*
X141390849Y-111744038D01*
X141398081Y-111764250D01*
X141403297Y-111785074D01*
X141406447Y-111806309D01*
X141407500Y-111827750D01*
X141407500Y-112340250D01*
X141406447Y-112361691D01*
X141403297Y-112382926D01*
X141398081Y-112403750D01*
X141390849Y-112423962D01*
X141381670Y-112443368D01*
X141370634Y-112461781D01*
X141357846Y-112479024D01*
X141343430Y-112494930D01*
X141327524Y-112509346D01*
X141310281Y-112522134D01*
X141291868Y-112533170D01*
X141272462Y-112542349D01*
X141252250Y-112549581D01*
X141231426Y-112554797D01*
X141210191Y-112557947D01*
X141188750Y-112559000D01*
X140751250Y-112559000D01*
X140729809Y-112557947D01*
X140708574Y-112554797D01*
X140687750Y-112549581D01*
X140667538Y-112542349D01*
X140648132Y-112533170D01*
X140629719Y-112522134D01*
X140612476Y-112509346D01*
X140596570Y-112494930D01*
X140582154Y-112479024D01*
X140569366Y-112461781D01*
X140558330Y-112443368D01*
X140549151Y-112423962D01*
X140541919Y-112403750D01*
X140536703Y-112382926D01*
X140533553Y-112361691D01*
X140532500Y-112340250D01*
X140532500Y-111827750D01*
X140533553Y-111806309D01*
X140536703Y-111785074D01*
X140541919Y-111764250D01*
X140549151Y-111744038D01*
X140558330Y-111724632D01*
X140569366Y-111706219D01*
X140582154Y-111688976D01*
X140596570Y-111673070D01*
X140612476Y-111658654D01*
X140629719Y-111645866D01*
X140648132Y-111634830D01*
X140667538Y-111625651D01*
X140687750Y-111618419D01*
X140708574Y-111613203D01*
X140729809Y-111610053D01*
X140751250Y-111609000D01*
X141188750Y-111609000D01*
X141210191Y-111610053D01*
X141210191Y-111610053D01*
G37*
D12*
G04 #@! TD*
G04 #@! TO.P,C1,2*
G04 #@! TO.N,+BATT*
X140970000Y-112084000D03*
D11*
G04 #@! TO.N,-BATT*
G04 #@! TO.C,C2*
G36*
X146109958Y-100965710D02*
X146124276Y-100967834D01*
X146138317Y-100971351D01*
X146151946Y-100976228D01*
X146165031Y-100982417D01*
X146177447Y-100989858D01*
X146189073Y-100998481D01*
X146199798Y-101008202D01*
X146209519Y-101018927D01*
X146218142Y-101030553D01*
X146225583Y-101042969D01*
X146231772Y-101056054D01*
X146236649Y-101069683D01*
X146240166Y-101083724D01*
X146242290Y-101098042D01*
X146243000Y-101112500D01*
X146243000Y-101407500D01*
X146242290Y-101421958D01*
X146240166Y-101436276D01*
X146236649Y-101450317D01*
X146231772Y-101463946D01*
X146225583Y-101477031D01*
X146218142Y-101489447D01*
X146209519Y-101501073D01*
X146199798Y-101511798D01*
X146189073Y-101521519D01*
X146177447Y-101530142D01*
X146165031Y-101537583D01*
X146151946Y-101543772D01*
X146138317Y-101548649D01*
X146124276Y-101552166D01*
X146109958Y-101554290D01*
X146095500Y-101555000D01*
X145750500Y-101555000D01*
X145736042Y-101554290D01*
X145721724Y-101552166D01*
X145707683Y-101548649D01*
X145694054Y-101543772D01*
X145680969Y-101537583D01*
X145668553Y-101530142D01*
X145656927Y-101521519D01*
X145646202Y-101511798D01*
X145636481Y-101501073D01*
X145627858Y-101489447D01*
X145620417Y-101477031D01*
X145614228Y-101463946D01*
X145609351Y-101450317D01*
X145605834Y-101436276D01*
X145603710Y-101421958D01*
X145603000Y-101407500D01*
X145603000Y-101112500D01*
X145603710Y-101098042D01*
X145605834Y-101083724D01*
X145609351Y-101069683D01*
X145614228Y-101056054D01*
X145620417Y-101042969D01*
X145627858Y-101030553D01*
X145636481Y-101018927D01*
X145646202Y-101008202D01*
X145656927Y-100998481D01*
X145668553Y-100989858D01*
X145680969Y-100982417D01*
X145694054Y-100976228D01*
X145707683Y-100971351D01*
X145721724Y-100967834D01*
X145736042Y-100965710D01*
X145750500Y-100965000D01*
X146095500Y-100965000D01*
X146109958Y-100965710D01*
X146109958Y-100965710D01*
G37*
D13*
G04 #@! TD*
G04 #@! TO.P,C2,1*
G04 #@! TO.N,-BATT*
X145923000Y-101260000D03*
D11*
G04 #@! TO.N,Net-(C2-Pad2)*
G04 #@! TO.C,C2*
G36*
X146109958Y-99995710D02*
X146124276Y-99997834D01*
X146138317Y-100001351D01*
X146151946Y-100006228D01*
X146165031Y-100012417D01*
X146177447Y-100019858D01*
X146189073Y-100028481D01*
X146199798Y-100038202D01*
X146209519Y-100048927D01*
X146218142Y-100060553D01*
X146225583Y-100072969D01*
X146231772Y-100086054D01*
X146236649Y-100099683D01*
X146240166Y-100113724D01*
X146242290Y-100128042D01*
X146243000Y-100142500D01*
X146243000Y-100437500D01*
X146242290Y-100451958D01*
X146240166Y-100466276D01*
X146236649Y-100480317D01*
X146231772Y-100493946D01*
X146225583Y-100507031D01*
X146218142Y-100519447D01*
X146209519Y-100531073D01*
X146199798Y-100541798D01*
X146189073Y-100551519D01*
X146177447Y-100560142D01*
X146165031Y-100567583D01*
X146151946Y-100573772D01*
X146138317Y-100578649D01*
X146124276Y-100582166D01*
X146109958Y-100584290D01*
X146095500Y-100585000D01*
X145750500Y-100585000D01*
X145736042Y-100584290D01*
X145721724Y-100582166D01*
X145707683Y-100578649D01*
X145694054Y-100573772D01*
X145680969Y-100567583D01*
X145668553Y-100560142D01*
X145656927Y-100551519D01*
X145646202Y-100541798D01*
X145636481Y-100531073D01*
X145627858Y-100519447D01*
X145620417Y-100507031D01*
X145614228Y-100493946D01*
X145609351Y-100480317D01*
X145605834Y-100466276D01*
X145603710Y-100451958D01*
X145603000Y-100437500D01*
X145603000Y-100142500D01*
X145603710Y-100128042D01*
X145605834Y-100113724D01*
X145609351Y-100099683D01*
X145614228Y-100086054D01*
X145620417Y-100072969D01*
X145627858Y-100060553D01*
X145636481Y-100048927D01*
X145646202Y-100038202D01*
X145656927Y-100028481D01*
X145668553Y-100019858D01*
X145680969Y-100012417D01*
X145694054Y-100006228D01*
X145707683Y-100001351D01*
X145721724Y-99997834D01*
X145736042Y-99995710D01*
X145750500Y-99995000D01*
X146095500Y-99995000D01*
X146109958Y-99995710D01*
X146109958Y-99995710D01*
G37*
D13*
G04 #@! TD*
G04 #@! TO.P,C2,2*
G04 #@! TO.N,Net-(C2-Pad2)*
X145923000Y-100290000D03*
D11*
G04 #@! TO.N,+3V3*
G04 #@! TO.C,C3*
G36*
X149721958Y-113364710D02*
X149736276Y-113366834D01*
X149750317Y-113370351D01*
X149763946Y-113375228D01*
X149777031Y-113381417D01*
X149789447Y-113388858D01*
X149801073Y-113397481D01*
X149811798Y-113407202D01*
X149821519Y-113417927D01*
X149830142Y-113429553D01*
X149837583Y-113441969D01*
X149843772Y-113455054D01*
X149848649Y-113468683D01*
X149852166Y-113482724D01*
X149854290Y-113497042D01*
X149855000Y-113511500D01*
X149855000Y-113856500D01*
X149854290Y-113870958D01*
X149852166Y-113885276D01*
X149848649Y-113899317D01*
X149843772Y-113912946D01*
X149837583Y-113926031D01*
X149830142Y-113938447D01*
X149821519Y-113950073D01*
X149811798Y-113960798D01*
X149801073Y-113970519D01*
X149789447Y-113979142D01*
X149777031Y-113986583D01*
X149763946Y-113992772D01*
X149750317Y-113997649D01*
X149736276Y-114001166D01*
X149721958Y-114003290D01*
X149707500Y-114004000D01*
X149412500Y-114004000D01*
X149398042Y-114003290D01*
X149383724Y-114001166D01*
X149369683Y-113997649D01*
X149356054Y-113992772D01*
X149342969Y-113986583D01*
X149330553Y-113979142D01*
X149318927Y-113970519D01*
X149308202Y-113960798D01*
X149298481Y-113950073D01*
X149289858Y-113938447D01*
X149282417Y-113926031D01*
X149276228Y-113912946D01*
X149271351Y-113899317D01*
X149267834Y-113885276D01*
X149265710Y-113870958D01*
X149265000Y-113856500D01*
X149265000Y-113511500D01*
X149265710Y-113497042D01*
X149267834Y-113482724D01*
X149271351Y-113468683D01*
X149276228Y-113455054D01*
X149282417Y-113441969D01*
X149289858Y-113429553D01*
X149298481Y-113417927D01*
X149308202Y-113407202D01*
X149318927Y-113397481D01*
X149330553Y-113388858D01*
X149342969Y-113381417D01*
X149356054Y-113375228D01*
X149369683Y-113370351D01*
X149383724Y-113366834D01*
X149398042Y-113364710D01*
X149412500Y-113364000D01*
X149707500Y-113364000D01*
X149721958Y-113364710D01*
X149721958Y-113364710D01*
G37*
D13*
G04 #@! TD*
G04 #@! TO.P,C3,1*
G04 #@! TO.N,+3V3*
X149560000Y-113684000D03*
D11*
G04 #@! TO.N,Net-(C3-Pad2)*
G04 #@! TO.C,C3*
G36*
X148751958Y-113364710D02*
X148766276Y-113366834D01*
X148780317Y-113370351D01*
X148793946Y-113375228D01*
X148807031Y-113381417D01*
X148819447Y-113388858D01*
X148831073Y-113397481D01*
X148841798Y-113407202D01*
X148851519Y-113417927D01*
X148860142Y-113429553D01*
X148867583Y-113441969D01*
X148873772Y-113455054D01*
X148878649Y-113468683D01*
X148882166Y-113482724D01*
X148884290Y-113497042D01*
X148885000Y-113511500D01*
X148885000Y-113856500D01*
X148884290Y-113870958D01*
X148882166Y-113885276D01*
X148878649Y-113899317D01*
X148873772Y-113912946D01*
X148867583Y-113926031D01*
X148860142Y-113938447D01*
X148851519Y-113950073D01*
X148841798Y-113960798D01*
X148831073Y-113970519D01*
X148819447Y-113979142D01*
X148807031Y-113986583D01*
X148793946Y-113992772D01*
X148780317Y-113997649D01*
X148766276Y-114001166D01*
X148751958Y-114003290D01*
X148737500Y-114004000D01*
X148442500Y-114004000D01*
X148428042Y-114003290D01*
X148413724Y-114001166D01*
X148399683Y-113997649D01*
X148386054Y-113992772D01*
X148372969Y-113986583D01*
X148360553Y-113979142D01*
X148348927Y-113970519D01*
X148338202Y-113960798D01*
X148328481Y-113950073D01*
X148319858Y-113938447D01*
X148312417Y-113926031D01*
X148306228Y-113912946D01*
X148301351Y-113899317D01*
X148297834Y-113885276D01*
X148295710Y-113870958D01*
X148295000Y-113856500D01*
X148295000Y-113511500D01*
X148295710Y-113497042D01*
X148297834Y-113482724D01*
X148301351Y-113468683D01*
X148306228Y-113455054D01*
X148312417Y-113441969D01*
X148319858Y-113429553D01*
X148328481Y-113417927D01*
X148338202Y-113407202D01*
X148348927Y-113397481D01*
X148360553Y-113388858D01*
X148372969Y-113381417D01*
X148386054Y-113375228D01*
X148399683Y-113370351D01*
X148413724Y-113366834D01*
X148428042Y-113364710D01*
X148442500Y-113364000D01*
X148737500Y-113364000D01*
X148751958Y-113364710D01*
X148751958Y-113364710D01*
G37*
D13*
G04 #@! TD*
G04 #@! TO.P,C3,2*
G04 #@! TO.N,Net-(C3-Pad2)*
X148590000Y-113684000D03*
D11*
G04 #@! TO.N,-BATT*
G04 #@! TO.C,C4*
G36*
X150405191Y-111610053D02*
X150426426Y-111613203D01*
X150447250Y-111618419D01*
X150467462Y-111625651D01*
X150486868Y-111634830D01*
X150505281Y-111645866D01*
X150522524Y-111658654D01*
X150538430Y-111673070D01*
X150552846Y-111688976D01*
X150565634Y-111706219D01*
X150576670Y-111724632D01*
X150585849Y-111744038D01*
X150593081Y-111764250D01*
X150598297Y-111785074D01*
X150601447Y-111806309D01*
X150602500Y-111827750D01*
X150602500Y-112340250D01*
X150601447Y-112361691D01*
X150598297Y-112382926D01*
X150593081Y-112403750D01*
X150585849Y-112423962D01*
X150576670Y-112443368D01*
X150565634Y-112461781D01*
X150552846Y-112479024D01*
X150538430Y-112494930D01*
X150522524Y-112509346D01*
X150505281Y-112522134D01*
X150486868Y-112533170D01*
X150467462Y-112542349D01*
X150447250Y-112549581D01*
X150426426Y-112554797D01*
X150405191Y-112557947D01*
X150383750Y-112559000D01*
X149946250Y-112559000D01*
X149924809Y-112557947D01*
X149903574Y-112554797D01*
X149882750Y-112549581D01*
X149862538Y-112542349D01*
X149843132Y-112533170D01*
X149824719Y-112522134D01*
X149807476Y-112509346D01*
X149791570Y-112494930D01*
X149777154Y-112479024D01*
X149764366Y-112461781D01*
X149753330Y-112443368D01*
X149744151Y-112423962D01*
X149736919Y-112403750D01*
X149731703Y-112382926D01*
X149728553Y-112361691D01*
X149727500Y-112340250D01*
X149727500Y-111827750D01*
X149728553Y-111806309D01*
X149731703Y-111785074D01*
X149736919Y-111764250D01*
X149744151Y-111744038D01*
X149753330Y-111724632D01*
X149764366Y-111706219D01*
X149777154Y-111688976D01*
X149791570Y-111673070D01*
X149807476Y-111658654D01*
X149824719Y-111645866D01*
X149843132Y-111634830D01*
X149862538Y-111625651D01*
X149882750Y-111618419D01*
X149903574Y-111613203D01*
X149924809Y-111610053D01*
X149946250Y-111609000D01*
X150383750Y-111609000D01*
X150405191Y-111610053D01*
X150405191Y-111610053D01*
G37*
D12*
G04 #@! TD*
G04 #@! TO.P,C4,2*
G04 #@! TO.N,-BATT*
X150165000Y-112084000D03*
D11*
G04 #@! TO.N,+3V3*
G04 #@! TO.C,C4*
G36*
X148830191Y-111610053D02*
X148851426Y-111613203D01*
X148872250Y-111618419D01*
X148892462Y-111625651D01*
X148911868Y-111634830D01*
X148930281Y-111645866D01*
X148947524Y-111658654D01*
X148963430Y-111673070D01*
X148977846Y-111688976D01*
X148990634Y-111706219D01*
X149001670Y-111724632D01*
X149010849Y-111744038D01*
X149018081Y-111764250D01*
X149023297Y-111785074D01*
X149026447Y-111806309D01*
X149027500Y-111827750D01*
X149027500Y-112340250D01*
X149026447Y-112361691D01*
X149023297Y-112382926D01*
X149018081Y-112403750D01*
X149010849Y-112423962D01*
X149001670Y-112443368D01*
X148990634Y-112461781D01*
X148977846Y-112479024D01*
X148963430Y-112494930D01*
X148947524Y-112509346D01*
X148930281Y-112522134D01*
X148911868Y-112533170D01*
X148892462Y-112542349D01*
X148872250Y-112549581D01*
X148851426Y-112554797D01*
X148830191Y-112557947D01*
X148808750Y-112559000D01*
X148371250Y-112559000D01*
X148349809Y-112557947D01*
X148328574Y-112554797D01*
X148307750Y-112549581D01*
X148287538Y-112542349D01*
X148268132Y-112533170D01*
X148249719Y-112522134D01*
X148232476Y-112509346D01*
X148216570Y-112494930D01*
X148202154Y-112479024D01*
X148189366Y-112461781D01*
X148178330Y-112443368D01*
X148169151Y-112423962D01*
X148161919Y-112403750D01*
X148156703Y-112382926D01*
X148153553Y-112361691D01*
X148152500Y-112340250D01*
X148152500Y-111827750D01*
X148153553Y-111806309D01*
X148156703Y-111785074D01*
X148161919Y-111764250D01*
X148169151Y-111744038D01*
X148178330Y-111724632D01*
X148189366Y-111706219D01*
X148202154Y-111688976D01*
X148216570Y-111673070D01*
X148232476Y-111658654D01*
X148249719Y-111645866D01*
X148268132Y-111634830D01*
X148287538Y-111625651D01*
X148307750Y-111618419D01*
X148328574Y-111613203D01*
X148349809Y-111610053D01*
X148371250Y-111609000D01*
X148808750Y-111609000D01*
X148830191Y-111610053D01*
X148830191Y-111610053D01*
G37*
D12*
G04 #@! TD*
G04 #@! TO.P,C4,1*
G04 #@! TO.N,+3V3*
X148590000Y-112084000D03*
D14*
G04 #@! TO.P,D2,2*
G04 #@! TO.N,Net-(C2-Pad2)*
X154330000Y-101600000D03*
D15*
G04 #@! TO.N,N/C*
X160630000Y-101600000D03*
G04 #@! TO.P,D2,3*
G04 #@! TO.N,VBUS*
X160630000Y-103900000D03*
G04 #@! TO.P,D2,1*
G04 #@! TO.N,+5V*
X160630000Y-99300000D03*
G04 #@! TD*
D16*
G04 #@! TO.P,J7,SH*
G04 #@! TO.N,-BATT*
X164755100Y-110450000D03*
X164755100Y-105450000D03*
D17*
X167455100Y-111450000D03*
X167455100Y-104450000D03*
G04 #@! TD*
D11*
G04 #@! TO.N,Net-(R1-Pad2)*
G04 #@! TO.C,R1*
G36*
X141131958Y-113364710D02*
X141146276Y-113366834D01*
X141160317Y-113370351D01*
X141173946Y-113375228D01*
X141187031Y-113381417D01*
X141199447Y-113388858D01*
X141211073Y-113397481D01*
X141221798Y-113407202D01*
X141231519Y-113417927D01*
X141240142Y-113429553D01*
X141247583Y-113441969D01*
X141253772Y-113455054D01*
X141258649Y-113468683D01*
X141262166Y-113482724D01*
X141264290Y-113497042D01*
X141265000Y-113511500D01*
X141265000Y-113856500D01*
X141264290Y-113870958D01*
X141262166Y-113885276D01*
X141258649Y-113899317D01*
X141253772Y-113912946D01*
X141247583Y-113926031D01*
X141240142Y-113938447D01*
X141231519Y-113950073D01*
X141221798Y-113960798D01*
X141211073Y-113970519D01*
X141199447Y-113979142D01*
X141187031Y-113986583D01*
X141173946Y-113992772D01*
X141160317Y-113997649D01*
X141146276Y-114001166D01*
X141131958Y-114003290D01*
X141117500Y-114004000D01*
X140822500Y-114004000D01*
X140808042Y-114003290D01*
X140793724Y-114001166D01*
X140779683Y-113997649D01*
X140766054Y-113992772D01*
X140752969Y-113986583D01*
X140740553Y-113979142D01*
X140728927Y-113970519D01*
X140718202Y-113960798D01*
X140708481Y-113950073D01*
X140699858Y-113938447D01*
X140692417Y-113926031D01*
X140686228Y-113912946D01*
X140681351Y-113899317D01*
X140677834Y-113885276D01*
X140675710Y-113870958D01*
X140675000Y-113856500D01*
X140675000Y-113511500D01*
X140675710Y-113497042D01*
X140677834Y-113482724D01*
X140681351Y-113468683D01*
X140686228Y-113455054D01*
X140692417Y-113441969D01*
X140699858Y-113429553D01*
X140708481Y-113417927D01*
X140718202Y-113407202D01*
X140728927Y-113397481D01*
X140740553Y-113388858D01*
X140752969Y-113381417D01*
X140766054Y-113375228D01*
X140779683Y-113370351D01*
X140793724Y-113366834D01*
X140808042Y-113364710D01*
X140822500Y-113364000D01*
X141117500Y-113364000D01*
X141131958Y-113364710D01*
X141131958Y-113364710D01*
G37*
D13*
G04 #@! TD*
G04 #@! TO.P,R1,2*
G04 #@! TO.N,Net-(R1-Pad2)*
X140970000Y-113684000D03*
D11*
G04 #@! TO.N,-BATT*
G04 #@! TO.C,R1*
G36*
X140161958Y-113364710D02*
X140176276Y-113366834D01*
X140190317Y-113370351D01*
X140203946Y-113375228D01*
X140217031Y-113381417D01*
X140229447Y-113388858D01*
X140241073Y-113397481D01*
X140251798Y-113407202D01*
X140261519Y-113417927D01*
X140270142Y-113429553D01*
X140277583Y-113441969D01*
X140283772Y-113455054D01*
X140288649Y-113468683D01*
X140292166Y-113482724D01*
X140294290Y-113497042D01*
X140295000Y-113511500D01*
X140295000Y-113856500D01*
X140294290Y-113870958D01*
X140292166Y-113885276D01*
X140288649Y-113899317D01*
X140283772Y-113912946D01*
X140277583Y-113926031D01*
X140270142Y-113938447D01*
X140261519Y-113950073D01*
X140251798Y-113960798D01*
X140241073Y-113970519D01*
X140229447Y-113979142D01*
X140217031Y-113986583D01*
X140203946Y-113992772D01*
X140190317Y-113997649D01*
X140176276Y-114001166D01*
X140161958Y-114003290D01*
X140147500Y-114004000D01*
X139852500Y-114004000D01*
X139838042Y-114003290D01*
X139823724Y-114001166D01*
X139809683Y-113997649D01*
X139796054Y-113992772D01*
X139782969Y-113986583D01*
X139770553Y-113979142D01*
X139758927Y-113970519D01*
X139748202Y-113960798D01*
X139738481Y-113950073D01*
X139729858Y-113938447D01*
X139722417Y-113926031D01*
X139716228Y-113912946D01*
X139711351Y-113899317D01*
X139707834Y-113885276D01*
X139705710Y-113870958D01*
X139705000Y-113856500D01*
X139705000Y-113511500D01*
X139705710Y-113497042D01*
X139707834Y-113482724D01*
X139711351Y-113468683D01*
X139716228Y-113455054D01*
X139722417Y-113441969D01*
X139729858Y-113429553D01*
X139738481Y-113417927D01*
X139748202Y-113407202D01*
X139758927Y-113397481D01*
X139770553Y-113388858D01*
X139782969Y-113381417D01*
X139796054Y-113375228D01*
X139809683Y-113370351D01*
X139823724Y-113366834D01*
X139838042Y-113364710D01*
X139852500Y-113364000D01*
X140147500Y-113364000D01*
X140161958Y-113364710D01*
X140161958Y-113364710D01*
G37*
D13*
G04 #@! TD*
G04 #@! TO.P,R1,1*
G04 #@! TO.N,-BATT*
X140000000Y-113684000D03*
D11*
G04 #@! TO.N,+BATT*
G04 #@! TO.C,R2*
G36*
X121296958Y-112710710D02*
X121311276Y-112712834D01*
X121325317Y-112716351D01*
X121338946Y-112721228D01*
X121352031Y-112727417D01*
X121364447Y-112734858D01*
X121376073Y-112743481D01*
X121386798Y-112753202D01*
X121396519Y-112763927D01*
X121405142Y-112775553D01*
X121412583Y-112787969D01*
X121418772Y-112801054D01*
X121423649Y-112814683D01*
X121427166Y-112828724D01*
X121429290Y-112843042D01*
X121430000Y-112857500D01*
X121430000Y-113202500D01*
X121429290Y-113216958D01*
X121427166Y-113231276D01*
X121423649Y-113245317D01*
X121418772Y-113258946D01*
X121412583Y-113272031D01*
X121405142Y-113284447D01*
X121396519Y-113296073D01*
X121386798Y-113306798D01*
X121376073Y-113316519D01*
X121364447Y-113325142D01*
X121352031Y-113332583D01*
X121338946Y-113338772D01*
X121325317Y-113343649D01*
X121311276Y-113347166D01*
X121296958Y-113349290D01*
X121282500Y-113350000D01*
X120987500Y-113350000D01*
X120973042Y-113349290D01*
X120958724Y-113347166D01*
X120944683Y-113343649D01*
X120931054Y-113338772D01*
X120917969Y-113332583D01*
X120905553Y-113325142D01*
X120893927Y-113316519D01*
X120883202Y-113306798D01*
X120873481Y-113296073D01*
X120864858Y-113284447D01*
X120857417Y-113272031D01*
X120851228Y-113258946D01*
X120846351Y-113245317D01*
X120842834Y-113231276D01*
X120840710Y-113216958D01*
X120840000Y-113202500D01*
X120840000Y-112857500D01*
X120840710Y-112843042D01*
X120842834Y-112828724D01*
X120846351Y-112814683D01*
X120851228Y-112801054D01*
X120857417Y-112787969D01*
X120864858Y-112775553D01*
X120873481Y-112763927D01*
X120883202Y-112753202D01*
X120893927Y-112743481D01*
X120905553Y-112734858D01*
X120917969Y-112727417D01*
X120931054Y-112721228D01*
X120944683Y-112716351D01*
X120958724Y-112712834D01*
X120973042Y-112710710D01*
X120987500Y-112710000D01*
X121282500Y-112710000D01*
X121296958Y-112710710D01*
X121296958Y-112710710D01*
G37*
D13*
G04 #@! TD*
G04 #@! TO.P,R2,2*
G04 #@! TO.N,+BATT*
X121135000Y-113030000D03*
D11*
G04 #@! TO.N,Net-(D1-Pad2)*
G04 #@! TO.C,R2*
G36*
X120326958Y-112710710D02*
X120341276Y-112712834D01*
X120355317Y-112716351D01*
X120368946Y-112721228D01*
X120382031Y-112727417D01*
X120394447Y-112734858D01*
X120406073Y-112743481D01*
X120416798Y-112753202D01*
X120426519Y-112763927D01*
X120435142Y-112775553D01*
X120442583Y-112787969D01*
X120448772Y-112801054D01*
X120453649Y-112814683D01*
X120457166Y-112828724D01*
X120459290Y-112843042D01*
X120460000Y-112857500D01*
X120460000Y-113202500D01*
X120459290Y-113216958D01*
X120457166Y-113231276D01*
X120453649Y-113245317D01*
X120448772Y-113258946D01*
X120442583Y-113272031D01*
X120435142Y-113284447D01*
X120426519Y-113296073D01*
X120416798Y-113306798D01*
X120406073Y-113316519D01*
X120394447Y-113325142D01*
X120382031Y-113332583D01*
X120368946Y-113338772D01*
X120355317Y-113343649D01*
X120341276Y-113347166D01*
X120326958Y-113349290D01*
X120312500Y-113350000D01*
X120017500Y-113350000D01*
X120003042Y-113349290D01*
X119988724Y-113347166D01*
X119974683Y-113343649D01*
X119961054Y-113338772D01*
X119947969Y-113332583D01*
X119935553Y-113325142D01*
X119923927Y-113316519D01*
X119913202Y-113306798D01*
X119903481Y-113296073D01*
X119894858Y-113284447D01*
X119887417Y-113272031D01*
X119881228Y-113258946D01*
X119876351Y-113245317D01*
X119872834Y-113231276D01*
X119870710Y-113216958D01*
X119870000Y-113202500D01*
X119870000Y-112857500D01*
X119870710Y-112843042D01*
X119872834Y-112828724D01*
X119876351Y-112814683D01*
X119881228Y-112801054D01*
X119887417Y-112787969D01*
X119894858Y-112775553D01*
X119903481Y-112763927D01*
X119913202Y-112753202D01*
X119923927Y-112743481D01*
X119935553Y-112734858D01*
X119947969Y-112727417D01*
X119961054Y-112721228D01*
X119974683Y-112716351D01*
X119988724Y-112712834D01*
X120003042Y-112710710D01*
X120017500Y-112710000D01*
X120312500Y-112710000D01*
X120326958Y-112710710D01*
X120326958Y-112710710D01*
G37*
D13*
G04 #@! TD*
G04 #@! TO.P,R2,1*
G04 #@! TO.N,Net-(D1-Pad2)*
X120165000Y-113030000D03*
D11*
G04 #@! TO.N,-BATT*
G04 #@! TO.C,R3*
G36*
X151316958Y-100965710D02*
X151331276Y-100967834D01*
X151345317Y-100971351D01*
X151358946Y-100976228D01*
X151372031Y-100982417D01*
X151384447Y-100989858D01*
X151396073Y-100998481D01*
X151406798Y-101008202D01*
X151416519Y-101018927D01*
X151425142Y-101030553D01*
X151432583Y-101042969D01*
X151438772Y-101056054D01*
X151443649Y-101069683D01*
X151447166Y-101083724D01*
X151449290Y-101098042D01*
X151450000Y-101112500D01*
X151450000Y-101407500D01*
X151449290Y-101421958D01*
X151447166Y-101436276D01*
X151443649Y-101450317D01*
X151438772Y-101463946D01*
X151432583Y-101477031D01*
X151425142Y-101489447D01*
X151416519Y-101501073D01*
X151406798Y-101511798D01*
X151396073Y-101521519D01*
X151384447Y-101530142D01*
X151372031Y-101537583D01*
X151358946Y-101543772D01*
X151345317Y-101548649D01*
X151331276Y-101552166D01*
X151316958Y-101554290D01*
X151302500Y-101555000D01*
X150957500Y-101555000D01*
X150943042Y-101554290D01*
X150928724Y-101552166D01*
X150914683Y-101548649D01*
X150901054Y-101543772D01*
X150887969Y-101537583D01*
X150875553Y-101530142D01*
X150863927Y-101521519D01*
X150853202Y-101511798D01*
X150843481Y-101501073D01*
X150834858Y-101489447D01*
X150827417Y-101477031D01*
X150821228Y-101463946D01*
X150816351Y-101450317D01*
X150812834Y-101436276D01*
X150810710Y-101421958D01*
X150810000Y-101407500D01*
X150810000Y-101112500D01*
X150810710Y-101098042D01*
X150812834Y-101083724D01*
X150816351Y-101069683D01*
X150821228Y-101056054D01*
X150827417Y-101042969D01*
X150834858Y-101030553D01*
X150843481Y-101018927D01*
X150853202Y-101008202D01*
X150863927Y-100998481D01*
X150875553Y-100989858D01*
X150887969Y-100982417D01*
X150901054Y-100976228D01*
X150914683Y-100971351D01*
X150928724Y-100967834D01*
X150943042Y-100965710D01*
X150957500Y-100965000D01*
X151302500Y-100965000D01*
X151316958Y-100965710D01*
X151316958Y-100965710D01*
G37*
D13*
G04 #@! TD*
G04 #@! TO.P,R3,1*
G04 #@! TO.N,-BATT*
X151130000Y-101260000D03*
D11*
G04 #@! TO.N,Net-(R3-Pad2)*
G04 #@! TO.C,R3*
G36*
X151316958Y-99995710D02*
X151331276Y-99997834D01*
X151345317Y-100001351D01*
X151358946Y-100006228D01*
X151372031Y-100012417D01*
X151384447Y-100019858D01*
X151396073Y-100028481D01*
X151406798Y-100038202D01*
X151416519Y-100048927D01*
X151425142Y-100060553D01*
X151432583Y-100072969D01*
X151438772Y-100086054D01*
X151443649Y-100099683D01*
X151447166Y-100113724D01*
X151449290Y-100128042D01*
X151450000Y-100142500D01*
X151450000Y-100437500D01*
X151449290Y-100451958D01*
X151447166Y-100466276D01*
X151443649Y-100480317D01*
X151438772Y-100493946D01*
X151432583Y-100507031D01*
X151425142Y-100519447D01*
X151416519Y-100531073D01*
X151406798Y-100541798D01*
X151396073Y-100551519D01*
X151384447Y-100560142D01*
X151372031Y-100567583D01*
X151358946Y-100573772D01*
X151345317Y-100578649D01*
X151331276Y-100582166D01*
X151316958Y-100584290D01*
X151302500Y-100585000D01*
X150957500Y-100585000D01*
X150943042Y-100584290D01*
X150928724Y-100582166D01*
X150914683Y-100578649D01*
X150901054Y-100573772D01*
X150887969Y-100567583D01*
X150875553Y-100560142D01*
X150863927Y-100551519D01*
X150853202Y-100541798D01*
X150843481Y-100531073D01*
X150834858Y-100519447D01*
X150827417Y-100507031D01*
X150821228Y-100493946D01*
X150816351Y-100480317D01*
X150812834Y-100466276D01*
X150810710Y-100451958D01*
X150810000Y-100437500D01*
X150810000Y-100142500D01*
X150810710Y-100128042D01*
X150812834Y-100113724D01*
X150816351Y-100099683D01*
X150821228Y-100086054D01*
X150827417Y-100072969D01*
X150834858Y-100060553D01*
X150843481Y-100048927D01*
X150853202Y-100038202D01*
X150863927Y-100028481D01*
X150875553Y-100019858D01*
X150887969Y-100012417D01*
X150901054Y-100006228D01*
X150914683Y-100001351D01*
X150928724Y-99997834D01*
X150943042Y-99995710D01*
X150957500Y-99995000D01*
X151302500Y-99995000D01*
X151316958Y-99995710D01*
X151316958Y-99995710D01*
G37*
D13*
G04 #@! TD*
G04 #@! TO.P,R3,2*
G04 #@! TO.N,Net-(R3-Pad2)*
X151130000Y-100290000D03*
D11*
G04 #@! TO.N,+3V3*
G04 #@! TO.C,R4*
G36*
X149721958Y-114996710D02*
X149736276Y-114998834D01*
X149750317Y-115002351D01*
X149763946Y-115007228D01*
X149777031Y-115013417D01*
X149789447Y-115020858D01*
X149801073Y-115029481D01*
X149811798Y-115039202D01*
X149821519Y-115049927D01*
X149830142Y-115061553D01*
X149837583Y-115073969D01*
X149843772Y-115087054D01*
X149848649Y-115100683D01*
X149852166Y-115114724D01*
X149854290Y-115129042D01*
X149855000Y-115143500D01*
X149855000Y-115488500D01*
X149854290Y-115502958D01*
X149852166Y-115517276D01*
X149848649Y-115531317D01*
X149843772Y-115544946D01*
X149837583Y-115558031D01*
X149830142Y-115570447D01*
X149821519Y-115582073D01*
X149811798Y-115592798D01*
X149801073Y-115602519D01*
X149789447Y-115611142D01*
X149777031Y-115618583D01*
X149763946Y-115624772D01*
X149750317Y-115629649D01*
X149736276Y-115633166D01*
X149721958Y-115635290D01*
X149707500Y-115636000D01*
X149412500Y-115636000D01*
X149398042Y-115635290D01*
X149383724Y-115633166D01*
X149369683Y-115629649D01*
X149356054Y-115624772D01*
X149342969Y-115618583D01*
X149330553Y-115611142D01*
X149318927Y-115602519D01*
X149308202Y-115592798D01*
X149298481Y-115582073D01*
X149289858Y-115570447D01*
X149282417Y-115558031D01*
X149276228Y-115544946D01*
X149271351Y-115531317D01*
X149267834Y-115517276D01*
X149265710Y-115502958D01*
X149265000Y-115488500D01*
X149265000Y-115143500D01*
X149265710Y-115129042D01*
X149267834Y-115114724D01*
X149271351Y-115100683D01*
X149276228Y-115087054D01*
X149282417Y-115073969D01*
X149289858Y-115061553D01*
X149298481Y-115049927D01*
X149308202Y-115039202D01*
X149318927Y-115029481D01*
X149330553Y-115020858D01*
X149342969Y-115013417D01*
X149356054Y-115007228D01*
X149369683Y-115002351D01*
X149383724Y-114998834D01*
X149398042Y-114996710D01*
X149412500Y-114996000D01*
X149707500Y-114996000D01*
X149721958Y-114996710D01*
X149721958Y-114996710D01*
G37*
D13*
G04 #@! TD*
G04 #@! TO.P,R4,2*
G04 #@! TO.N,+3V3*
X149560000Y-115316000D03*
D11*
G04 #@! TO.N,Net-(C3-Pad2)*
G04 #@! TO.C,R4*
G36*
X148751958Y-114996710D02*
X148766276Y-114998834D01*
X148780317Y-115002351D01*
X148793946Y-115007228D01*
X148807031Y-115013417D01*
X148819447Y-115020858D01*
X148831073Y-115029481D01*
X148841798Y-115039202D01*
X148851519Y-115049927D01*
X148860142Y-115061553D01*
X148867583Y-115073969D01*
X148873772Y-115087054D01*
X148878649Y-115100683D01*
X148882166Y-115114724D01*
X148884290Y-115129042D01*
X148885000Y-115143500D01*
X148885000Y-115488500D01*
X148884290Y-115502958D01*
X148882166Y-115517276D01*
X148878649Y-115531317D01*
X148873772Y-115544946D01*
X148867583Y-115558031D01*
X148860142Y-115570447D01*
X148851519Y-115582073D01*
X148841798Y-115592798D01*
X148831073Y-115602519D01*
X148819447Y-115611142D01*
X148807031Y-115618583D01*
X148793946Y-115624772D01*
X148780317Y-115629649D01*
X148766276Y-115633166D01*
X148751958Y-115635290D01*
X148737500Y-115636000D01*
X148442500Y-115636000D01*
X148428042Y-115635290D01*
X148413724Y-115633166D01*
X148399683Y-115629649D01*
X148386054Y-115624772D01*
X148372969Y-115618583D01*
X148360553Y-115611142D01*
X148348927Y-115602519D01*
X148338202Y-115592798D01*
X148328481Y-115582073D01*
X148319858Y-115570447D01*
X148312417Y-115558031D01*
X148306228Y-115544946D01*
X148301351Y-115531317D01*
X148297834Y-115517276D01*
X148295710Y-115502958D01*
X148295000Y-115488500D01*
X148295000Y-115143500D01*
X148295710Y-115129042D01*
X148297834Y-115114724D01*
X148301351Y-115100683D01*
X148306228Y-115087054D01*
X148312417Y-115073969D01*
X148319858Y-115061553D01*
X148328481Y-115049927D01*
X148338202Y-115039202D01*
X148348927Y-115029481D01*
X148360553Y-115020858D01*
X148372969Y-115013417D01*
X148386054Y-115007228D01*
X148399683Y-115002351D01*
X148413724Y-114998834D01*
X148428042Y-114996710D01*
X148442500Y-114996000D01*
X148737500Y-114996000D01*
X148751958Y-114996710D01*
X148751958Y-114996710D01*
G37*
D13*
G04 #@! TD*
G04 #@! TO.P,R4,1*
G04 #@! TO.N,Net-(C3-Pad2)*
X148590000Y-115316000D03*
D11*
G04 #@! TO.N,-BATT*
G04 #@! TO.C,R5*
G36*
X148751958Y-116520710D02*
X148766276Y-116522834D01*
X148780317Y-116526351D01*
X148793946Y-116531228D01*
X148807031Y-116537417D01*
X148819447Y-116544858D01*
X148831073Y-116553481D01*
X148841798Y-116563202D01*
X148851519Y-116573927D01*
X148860142Y-116585553D01*
X148867583Y-116597969D01*
X148873772Y-116611054D01*
X148878649Y-116624683D01*
X148882166Y-116638724D01*
X148884290Y-116653042D01*
X148885000Y-116667500D01*
X148885000Y-117012500D01*
X148884290Y-117026958D01*
X148882166Y-117041276D01*
X148878649Y-117055317D01*
X148873772Y-117068946D01*
X148867583Y-117082031D01*
X148860142Y-117094447D01*
X148851519Y-117106073D01*
X148841798Y-117116798D01*
X148831073Y-117126519D01*
X148819447Y-117135142D01*
X148807031Y-117142583D01*
X148793946Y-117148772D01*
X148780317Y-117153649D01*
X148766276Y-117157166D01*
X148751958Y-117159290D01*
X148737500Y-117160000D01*
X148442500Y-117160000D01*
X148428042Y-117159290D01*
X148413724Y-117157166D01*
X148399683Y-117153649D01*
X148386054Y-117148772D01*
X148372969Y-117142583D01*
X148360553Y-117135142D01*
X148348927Y-117126519D01*
X148338202Y-117116798D01*
X148328481Y-117106073D01*
X148319858Y-117094447D01*
X148312417Y-117082031D01*
X148306228Y-117068946D01*
X148301351Y-117055317D01*
X148297834Y-117041276D01*
X148295710Y-117026958D01*
X148295000Y-117012500D01*
X148295000Y-116667500D01*
X148295710Y-116653042D01*
X148297834Y-116638724D01*
X148301351Y-116624683D01*
X148306228Y-116611054D01*
X148312417Y-116597969D01*
X148319858Y-116585553D01*
X148328481Y-116573927D01*
X148338202Y-116563202D01*
X148348927Y-116553481D01*
X148360553Y-116544858D01*
X148372969Y-116537417D01*
X148386054Y-116531228D01*
X148399683Y-116526351D01*
X148413724Y-116522834D01*
X148428042Y-116520710D01*
X148442500Y-116520000D01*
X148737500Y-116520000D01*
X148751958Y-116520710D01*
X148751958Y-116520710D01*
G37*
D13*
G04 #@! TD*
G04 #@! TO.P,R5,1*
G04 #@! TO.N,-BATT*
X148590000Y-116840000D03*
D11*
G04 #@! TO.N,Net-(C3-Pad2)*
G04 #@! TO.C,R5*
G36*
X149721958Y-116520710D02*
X149736276Y-116522834D01*
X149750317Y-116526351D01*
X149763946Y-116531228D01*
X149777031Y-116537417D01*
X149789447Y-116544858D01*
X149801073Y-116553481D01*
X149811798Y-116563202D01*
X149821519Y-116573927D01*
X149830142Y-116585553D01*
X149837583Y-116597969D01*
X149843772Y-116611054D01*
X149848649Y-116624683D01*
X149852166Y-116638724D01*
X149854290Y-116653042D01*
X149855000Y-116667500D01*
X149855000Y-117012500D01*
X149854290Y-117026958D01*
X149852166Y-117041276D01*
X149848649Y-117055317D01*
X149843772Y-117068946D01*
X149837583Y-117082031D01*
X149830142Y-117094447D01*
X149821519Y-117106073D01*
X149811798Y-117116798D01*
X149801073Y-117126519D01*
X149789447Y-117135142D01*
X149777031Y-117142583D01*
X149763946Y-117148772D01*
X149750317Y-117153649D01*
X149736276Y-117157166D01*
X149721958Y-117159290D01*
X149707500Y-117160000D01*
X149412500Y-117160000D01*
X149398042Y-117159290D01*
X149383724Y-117157166D01*
X149369683Y-117153649D01*
X149356054Y-117148772D01*
X149342969Y-117142583D01*
X149330553Y-117135142D01*
X149318927Y-117126519D01*
X149308202Y-117116798D01*
X149298481Y-117106073D01*
X149289858Y-117094447D01*
X149282417Y-117082031D01*
X149276228Y-117068946D01*
X149271351Y-117055317D01*
X149267834Y-117041276D01*
X149265710Y-117026958D01*
X149265000Y-117012500D01*
X149265000Y-116667500D01*
X149265710Y-116653042D01*
X149267834Y-116638724D01*
X149271351Y-116624683D01*
X149276228Y-116611054D01*
X149282417Y-116597969D01*
X149289858Y-116585553D01*
X149298481Y-116573927D01*
X149308202Y-116563202D01*
X149318927Y-116553481D01*
X149330553Y-116544858D01*
X149342969Y-116537417D01*
X149356054Y-116531228D01*
X149369683Y-116526351D01*
X149383724Y-116522834D01*
X149398042Y-116520710D01*
X149412500Y-116520000D01*
X149707500Y-116520000D01*
X149721958Y-116520710D01*
X149721958Y-116520710D01*
G37*
D13*
G04 #@! TD*
G04 #@! TO.P,R5,2*
G04 #@! TO.N,Net-(C3-Pad2)*
X149560000Y-116840000D03*
D11*
G04 #@! TO.N,Net-(D3-Pad2)*
G04 #@! TO.C,R6*
G36*
X120326958Y-102550710D02*
X120341276Y-102552834D01*
X120355317Y-102556351D01*
X120368946Y-102561228D01*
X120382031Y-102567417D01*
X120394447Y-102574858D01*
X120406073Y-102583481D01*
X120416798Y-102593202D01*
X120426519Y-102603927D01*
X120435142Y-102615553D01*
X120442583Y-102627969D01*
X120448772Y-102641054D01*
X120453649Y-102654683D01*
X120457166Y-102668724D01*
X120459290Y-102683042D01*
X120460000Y-102697500D01*
X120460000Y-103042500D01*
X120459290Y-103056958D01*
X120457166Y-103071276D01*
X120453649Y-103085317D01*
X120448772Y-103098946D01*
X120442583Y-103112031D01*
X120435142Y-103124447D01*
X120426519Y-103136073D01*
X120416798Y-103146798D01*
X120406073Y-103156519D01*
X120394447Y-103165142D01*
X120382031Y-103172583D01*
X120368946Y-103178772D01*
X120355317Y-103183649D01*
X120341276Y-103187166D01*
X120326958Y-103189290D01*
X120312500Y-103190000D01*
X120017500Y-103190000D01*
X120003042Y-103189290D01*
X119988724Y-103187166D01*
X119974683Y-103183649D01*
X119961054Y-103178772D01*
X119947969Y-103172583D01*
X119935553Y-103165142D01*
X119923927Y-103156519D01*
X119913202Y-103146798D01*
X119903481Y-103136073D01*
X119894858Y-103124447D01*
X119887417Y-103112031D01*
X119881228Y-103098946D01*
X119876351Y-103085317D01*
X119872834Y-103071276D01*
X119870710Y-103056958D01*
X119870000Y-103042500D01*
X119870000Y-102697500D01*
X119870710Y-102683042D01*
X119872834Y-102668724D01*
X119876351Y-102654683D01*
X119881228Y-102641054D01*
X119887417Y-102627969D01*
X119894858Y-102615553D01*
X119903481Y-102603927D01*
X119913202Y-102593202D01*
X119923927Y-102583481D01*
X119935553Y-102574858D01*
X119947969Y-102567417D01*
X119961054Y-102561228D01*
X119974683Y-102556351D01*
X119988724Y-102552834D01*
X120003042Y-102550710D01*
X120017500Y-102550000D01*
X120312500Y-102550000D01*
X120326958Y-102550710D01*
X120326958Y-102550710D01*
G37*
D13*
G04 #@! TD*
G04 #@! TO.P,R6,1*
G04 #@! TO.N,Net-(D3-Pad2)*
X120165000Y-102870000D03*
D11*
G04 #@! TO.N,+3V3*
G04 #@! TO.C,R6*
G36*
X121296958Y-102550710D02*
X121311276Y-102552834D01*
X121325317Y-102556351D01*
X121338946Y-102561228D01*
X121352031Y-102567417D01*
X121364447Y-102574858D01*
X121376073Y-102583481D01*
X121386798Y-102593202D01*
X121396519Y-102603927D01*
X121405142Y-102615553D01*
X121412583Y-102627969D01*
X121418772Y-102641054D01*
X121423649Y-102654683D01*
X121427166Y-102668724D01*
X121429290Y-102683042D01*
X121430000Y-102697500D01*
X121430000Y-103042500D01*
X121429290Y-103056958D01*
X121427166Y-103071276D01*
X121423649Y-103085317D01*
X121418772Y-103098946D01*
X121412583Y-103112031D01*
X121405142Y-103124447D01*
X121396519Y-103136073D01*
X121386798Y-103146798D01*
X121376073Y-103156519D01*
X121364447Y-103165142D01*
X121352031Y-103172583D01*
X121338946Y-103178772D01*
X121325317Y-103183649D01*
X121311276Y-103187166D01*
X121296958Y-103189290D01*
X121282500Y-103190000D01*
X120987500Y-103190000D01*
X120973042Y-103189290D01*
X120958724Y-103187166D01*
X120944683Y-103183649D01*
X120931054Y-103178772D01*
X120917969Y-103172583D01*
X120905553Y-103165142D01*
X120893927Y-103156519D01*
X120883202Y-103146798D01*
X120873481Y-103136073D01*
X120864858Y-103124447D01*
X120857417Y-103112031D01*
X120851228Y-103098946D01*
X120846351Y-103085317D01*
X120842834Y-103071276D01*
X120840710Y-103056958D01*
X120840000Y-103042500D01*
X120840000Y-102697500D01*
X120840710Y-102683042D01*
X120842834Y-102668724D01*
X120846351Y-102654683D01*
X120851228Y-102641054D01*
X120857417Y-102627969D01*
X120864858Y-102615553D01*
X120873481Y-102603927D01*
X120883202Y-102593202D01*
X120893927Y-102583481D01*
X120905553Y-102574858D01*
X120917969Y-102567417D01*
X120931054Y-102561228D01*
X120944683Y-102556351D01*
X120958724Y-102552834D01*
X120973042Y-102550710D01*
X120987500Y-102550000D01*
X121282500Y-102550000D01*
X121296958Y-102550710D01*
X121296958Y-102550710D01*
G37*
D13*
G04 #@! TD*
G04 #@! TO.P,R6,2*
G04 #@! TO.N,+3V3*
X121135000Y-102870000D03*
D18*
G04 #@! TO.P,U1,1*
G04 #@! TO.N,Net-(D1-Pad1)*
X149540000Y-102910000D03*
G04 #@! TO.P,U1,2*
G04 #@! TO.N,-BATT*
X148590000Y-102910000D03*
G04 #@! TO.P,U1,3*
G04 #@! TO.N,+BATT*
X147640000Y-102910000D03*
G04 #@! TO.P,U1,4*
G04 #@! TO.N,Net-(C2-Pad2)*
X147640000Y-100290000D03*
G04 #@! TO.P,U1,5*
G04 #@! TO.N,Net-(R3-Pad2)*
X149540000Y-100290000D03*
G04 #@! TD*
D19*
G04 #@! TO.P,U2,1*
G04 #@! TO.N,+3V3*
X146780000Y-112084000D03*
G04 #@! TO.P,U2,2*
X146780000Y-112884000D03*
G04 #@! TO.P,U2,3*
G04 #@! TO.N,Net-(C3-Pad2)*
X146780000Y-113684000D03*
G04 #@! TO.P,U2,4*
G04 #@! TO.N,-BATT*
X146780000Y-114484000D03*
G04 #@! TO.P,U2,5*
G04 #@! TO.N,Net-(U2-Pad5)*
X142780000Y-114484000D03*
G04 #@! TO.P,U2,6*
G04 #@! TO.N,Net-(R1-Pad2)*
X142780000Y-113684000D03*
G04 #@! TO.P,U2,7*
G04 #@! TO.N,+BATT*
X142780000Y-112884000D03*
G04 #@! TO.P,U2,8*
X142780000Y-112084000D03*
D20*
G04 #@! TO.P,U2,9*
G04 #@! TO.N,-BATT*
X144780000Y-113284000D03*
G04 #@! TD*
D21*
G04 #@! TO.P,J3,1*
G04 #@! TO.N,+3V3*
X166370000Y-100330000D03*
G04 #@! TD*
D22*
G04 #@! TO.P,J4,1*
G04 #@! TO.N,-BATT*
X113030000Y-115570000D03*
G04 #@! TD*
D21*
G04 #@! TO.P,J5,1*
G04 #@! TO.N,+3V3*
X166370000Y-115570000D03*
G04 #@! TD*
D22*
G04 #@! TO.P,J6,1*
G04 #@! TO.N,-BATT*
X113030000Y-100330000D03*
G04 #@! TD*
D21*
G04 #@! TO.P,J1,1*
G04 #@! TO.N,+5V*
X163830000Y-100330000D03*
G04 #@! TD*
D22*
G04 #@! TO.P,J2,1*
G04 #@! TO.N,-BATT*
X163830000Y-115570000D03*
G04 #@! TD*
D23*
G04 #@! TO.N,+BATT*
X122682000Y-113030000D03*
D24*
G04 #@! TO.N,+3V3*
X161671008Y-110871008D03*
D23*
X122174000Y-102870000D03*
G04 #@! TO.N,Net-(D1-Pad2)*
X117856000Y-113030000D03*
G04 #@! TO.N,Net-(D1-Pad1)*
X150622000Y-102910000D03*
G04 #@! TO.N,VBUS*
X163225000Y-109250000D03*
G04 #@! TO.N,Net-(D3-Pad2)*
X117856000Y-102870000D03*
G04 #@! TO.N,Net-(R1-Pad2)*
X117602000Y-109156500D03*
G04 #@! TD*
D25*
G04 #@! TO.N,+BATT*
X142780000Y-112084000D02*
X140970000Y-112084000D01*
X141770000Y-112884000D02*
X140970000Y-112084000D01*
X142780000Y-112884000D02*
X141770000Y-112884000D01*
D26*
X147640000Y-103626522D02*
X147640000Y-102910000D01*
X158700000Y-107950000D02*
X155525000Y-104775000D01*
X148788478Y-104775000D02*
X147640000Y-103626522D01*
X155525000Y-104775000D02*
X148788478Y-104775000D01*
X140970000Y-112084000D02*
X142310000Y-110744000D01*
X158700000Y-107950000D02*
X155906000Y-110744000D01*
X142310000Y-110744000D02*
X154940000Y-110744000D01*
X155906000Y-110744000D02*
X154940000Y-110744000D01*
D25*
X140970000Y-112084000D02*
X140024000Y-113030000D01*
X121135000Y-113030000D02*
X122682000Y-113030000D01*
X123041210Y-113030000D02*
X122682000Y-113030000D01*
X140024000Y-113030000D02*
X123041210Y-113030000D01*
D26*
G04 #@! TO.N,Net-(C2-Pad2)*
X147640000Y-100290000D02*
X145923000Y-100290000D01*
X154330000Y-100700000D02*
X154330000Y-101600000D01*
X152690000Y-99060000D02*
X154330000Y-100700000D01*
X148082000Y-99060000D02*
X152690000Y-99060000D01*
X147640000Y-100290000D02*
X147640000Y-99502000D01*
X147640000Y-99502000D02*
X148082000Y-99060000D01*
D25*
G04 #@! TO.N,+3V3*
X146780000Y-112084000D02*
X148590000Y-112084000D01*
X147790000Y-112884000D02*
X148590000Y-112084000D01*
X146780000Y-112884000D02*
X147790000Y-112884000D01*
D26*
X148590000Y-112268000D02*
X148590000Y-112084000D01*
X149560000Y-113684000D02*
X150114000Y-113684000D01*
X149560000Y-113684000D02*
X149560000Y-115316000D01*
D25*
X122174000Y-102870000D02*
X121135000Y-102870000D01*
D26*
X149560000Y-113238000D02*
X148590000Y-112268000D01*
X149560000Y-113684000D02*
X149560000Y-113238000D01*
D27*
X158858016Y-113684000D02*
X159766000Y-112776016D01*
X150114000Y-113684000D02*
X158858016Y-113684000D01*
X161671008Y-110871008D02*
X158858016Y-113684000D01*
D25*
G04 #@! TO.N,Net-(C3-Pad2)*
X146780000Y-113684000D02*
X148590000Y-113684000D01*
D26*
X148613000Y-113707000D02*
X148590000Y-113684000D01*
X148590000Y-115316000D02*
X148590000Y-113684000D01*
X149560000Y-116540000D02*
X149560000Y-116840000D01*
X148590000Y-115316000D02*
X148590000Y-115570000D01*
X148590000Y-115570000D02*
X149560000Y-116540000D01*
D25*
G04 #@! TO.N,Net-(D1-Pad2)*
X120165000Y-113030000D02*
X117856000Y-113030000D01*
D26*
G04 #@! TO.N,Net-(D1-Pad1)*
X149540000Y-102910000D02*
X150622000Y-102910000D01*
G04 #@! TO.N,VBUS*
X160880000Y-103900000D02*
X160630000Y-103900000D01*
X163225000Y-109250000D02*
X161925000Y-107950000D01*
X161925000Y-107950000D02*
X161925000Y-104945000D01*
X161925000Y-104945000D02*
X160880000Y-103900000D01*
D27*
G04 #@! TO.N,+5V*
X162800000Y-99300000D02*
X160630000Y-99300000D01*
X163830000Y-100330000D02*
X162800000Y-99300000D01*
D25*
G04 #@! TO.N,Net-(D3-Pad2)*
X120165000Y-102870000D02*
X117856000Y-102870000D01*
G04 #@! TO.N,Net-(R1-Pad2)*
X142780000Y-113684000D02*
X140970000Y-113684000D01*
X140970000Y-113684000D02*
X140370590Y-114283410D01*
X117458410Y-114283410D02*
X116332000Y-113157000D01*
X140370590Y-114283410D02*
X117458410Y-114283410D01*
X117602000Y-109156500D02*
X116332000Y-110426500D01*
X116332000Y-110426500D02*
X116332000Y-113157000D01*
D26*
G04 #@! TO.N,Net-(R3-Pad2)*
X151130000Y-100290000D02*
X149540000Y-100290000D01*
G04 #@! TD*
D28*
G04 #@! TO.N,-BATT*
G36*
X159481341Y-98191106D02*
X159355314Y-98275314D01*
X159271106Y-98401341D01*
X159241536Y-98550000D01*
X159241536Y-100050000D01*
X159271106Y-100198659D01*
X159355314Y-100324686D01*
X159481341Y-100408894D01*
X159630000Y-100438464D01*
X161630000Y-100438464D01*
X161778659Y-100408894D01*
X161904686Y-100324686D01*
X161988894Y-100198659D01*
X161990815Y-100189000D01*
X162431765Y-100189000D01*
X162441536Y-100198771D01*
X162441536Y-101330000D01*
X162471106Y-101478659D01*
X162555314Y-101604686D01*
X162681341Y-101688894D01*
X162830000Y-101718464D01*
X164830000Y-101718464D01*
X164978659Y-101688894D01*
X165100000Y-101607817D01*
X165221341Y-101688894D01*
X165370000Y-101718464D01*
X167370000Y-101718464D01*
X167518659Y-101688894D01*
X167644686Y-101604686D01*
X167728894Y-101478659D01*
X167758464Y-101330000D01*
X167758464Y-99330000D01*
X167728894Y-99181341D01*
X167644686Y-99055314D01*
X167518659Y-98971106D01*
X167370000Y-98941536D01*
X165370000Y-98941536D01*
X165221341Y-98971106D01*
X165100000Y-99052183D01*
X164978659Y-98971106D01*
X164830000Y-98941536D01*
X163698771Y-98941536D01*
X163490531Y-98733296D01*
X163440933Y-98659067D01*
X163146870Y-98462581D01*
X162887556Y-98411000D01*
X162887555Y-98411000D01*
X162800000Y-98393584D01*
X162712445Y-98411000D01*
X161990815Y-98411000D01*
X161988894Y-98401341D01*
X161904686Y-98275314D01*
X161778659Y-98191106D01*
X161741426Y-98183700D01*
X168516301Y-98183700D01*
X168516301Y-103736317D01*
X168510039Y-103724981D01*
X168178926Y-103510401D01*
X167790901Y-103438867D01*
X167632900Y-103548787D01*
X167632900Y-104272200D01*
X167652900Y-104272200D01*
X167652900Y-104627800D01*
X167632900Y-104627800D01*
X167632900Y-105351213D01*
X167790901Y-105461133D01*
X168178926Y-105389599D01*
X168510039Y-105175019D01*
X168516301Y-105163684D01*
X168516300Y-110736316D01*
X168510039Y-110724981D01*
X168178926Y-110510401D01*
X167790901Y-110438867D01*
X167632900Y-110548787D01*
X167632900Y-111272200D01*
X167652900Y-111272200D01*
X167652900Y-111627800D01*
X167632900Y-111627800D01*
X167632900Y-112351213D01*
X167790901Y-112461133D01*
X168178926Y-112389599D01*
X168510039Y-112175019D01*
X168516300Y-112163684D01*
X168516300Y-117716300D01*
X110883700Y-117716300D01*
X110883700Y-116615464D01*
X112235983Y-116615464D01*
X112352834Y-116804530D01*
X112876815Y-116969697D01*
X113424116Y-116921773D01*
X113707166Y-116804530D01*
X113824017Y-116615464D01*
X113030000Y-115821447D01*
X112235983Y-116615464D01*
X110883700Y-116615464D01*
X110883700Y-115416815D01*
X111630303Y-115416815D01*
X111678227Y-115964116D01*
X111795470Y-116247166D01*
X111984536Y-116364017D01*
X112778553Y-115570000D01*
X113281447Y-115570000D01*
X114075464Y-116364017D01*
X114264530Y-116247166D01*
X114429697Y-115723185D01*
X114381773Y-115175884D01*
X114264530Y-114892834D01*
X114075464Y-114775983D01*
X113281447Y-115570000D01*
X112778553Y-115570000D01*
X111984536Y-114775983D01*
X111795470Y-114892834D01*
X111630303Y-115416815D01*
X110883700Y-115416815D01*
X110883700Y-114524536D01*
X112235983Y-114524536D01*
X113030000Y-115318553D01*
X113824017Y-114524536D01*
X113707166Y-114335470D01*
X113183185Y-114170303D01*
X112635884Y-114218227D01*
X112352834Y-114335470D01*
X112235983Y-114524536D01*
X110883700Y-114524536D01*
X110883700Y-111184704D01*
X112199000Y-111184704D01*
X112199000Y-111515296D01*
X112325512Y-111820724D01*
X112559276Y-112054488D01*
X112864704Y-112181000D01*
X113195296Y-112181000D01*
X113500724Y-112054488D01*
X113734488Y-111820724D01*
X113861000Y-111515296D01*
X113861000Y-111184704D01*
X113734488Y-110879276D01*
X113500724Y-110645512D01*
X113195296Y-110519000D01*
X112864704Y-110519000D01*
X112559276Y-110645512D01*
X112325512Y-110879276D01*
X112199000Y-111184704D01*
X110883700Y-111184704D01*
X110883700Y-110426500D01*
X115814049Y-110426500D01*
X115824000Y-110476528D01*
X115824001Y-113106967D01*
X115814049Y-113157000D01*
X115853475Y-113355211D01*
X115937412Y-113480832D01*
X115937415Y-113480835D01*
X115965754Y-113523247D01*
X116008166Y-113551586D01*
X117063824Y-114607245D01*
X117092163Y-114649657D01*
X117134575Y-114677996D01*
X117134577Y-114677998D01*
X117260198Y-114761935D01*
X117408378Y-114791410D01*
X117408381Y-114791410D01*
X117458409Y-114801361D01*
X117508437Y-114791410D01*
X140320562Y-114791410D01*
X140370590Y-114801361D01*
X140420618Y-114791410D01*
X140420622Y-114791410D01*
X140568802Y-114761935D01*
X140736837Y-114649657D01*
X140765178Y-114607242D01*
X140979956Y-114392464D01*
X141117500Y-114392464D01*
X141322605Y-114351666D01*
X141496484Y-114235484D01*
X141525539Y-114192000D01*
X142039809Y-114192000D01*
X142016536Y-114309000D01*
X142016536Y-114659000D01*
X142046106Y-114807659D01*
X142130314Y-114933686D01*
X142256341Y-115017894D01*
X142405000Y-115047464D01*
X143155000Y-115047464D01*
X143303659Y-115017894D01*
X143429686Y-114933686D01*
X143513894Y-114807659D01*
X143543464Y-114659000D01*
X143543464Y-114309000D01*
X143513894Y-114160341D01*
X143462885Y-114084000D01*
X143513894Y-114007659D01*
X143543464Y-113859000D01*
X143543464Y-113509000D01*
X143513894Y-113360341D01*
X143462885Y-113284000D01*
X143513894Y-113207659D01*
X143543464Y-113059000D01*
X143543464Y-112709000D01*
X143513894Y-112560341D01*
X143462885Y-112484000D01*
X143513894Y-112407659D01*
X143543464Y-112259000D01*
X143543464Y-111909000D01*
X143513894Y-111760341D01*
X143429686Y-111634314D01*
X143303659Y-111550106D01*
X143155000Y-111520536D01*
X142431489Y-111520536D01*
X142573025Y-111379000D01*
X147970897Y-111379000D01*
X147941885Y-111398385D01*
X147823206Y-111576000D01*
X147342412Y-111576000D01*
X147303659Y-111550106D01*
X147155000Y-111520536D01*
X146405000Y-111520536D01*
X146256341Y-111550106D01*
X146130314Y-111634314D01*
X146046106Y-111760341D01*
X146016536Y-111909000D01*
X146016536Y-112259000D01*
X146046106Y-112407659D01*
X146097115Y-112484000D01*
X146046106Y-112560341D01*
X146016536Y-112709000D01*
X146016536Y-113059000D01*
X146046106Y-113207659D01*
X146097115Y-113284000D01*
X146046106Y-113360341D01*
X146016536Y-113509000D01*
X146016536Y-113859000D01*
X146046106Y-114007659D01*
X146130314Y-114133686D01*
X146256341Y-114217894D01*
X146405000Y-114247464D01*
X147155000Y-114247464D01*
X147303659Y-114217894D01*
X147342412Y-114192000D01*
X147955001Y-114192000D01*
X147955000Y-114926922D01*
X147947334Y-114938395D01*
X147906536Y-115143500D01*
X147906536Y-115488500D01*
X147947334Y-115693605D01*
X147975544Y-115735825D01*
X147991843Y-115817765D01*
X148132192Y-116027809D01*
X148185212Y-116063236D01*
X148876536Y-116754561D01*
X148876536Y-117012500D01*
X148917334Y-117217605D01*
X149033516Y-117391484D01*
X149207395Y-117507666D01*
X149412500Y-117548464D01*
X149707500Y-117548464D01*
X149912605Y-117507666D01*
X150086484Y-117391484D01*
X150202666Y-117217605D01*
X150243464Y-117012500D01*
X150243464Y-116667500D01*
X150202666Y-116462395D01*
X150187484Y-116439674D01*
X150158157Y-116292235D01*
X150017809Y-116082191D01*
X149964789Y-116046764D01*
X149903502Y-115985477D01*
X149912605Y-115983666D01*
X150045014Y-115895193D01*
X157419000Y-115895193D01*
X157419000Y-116404807D01*
X157614021Y-116875628D01*
X157974372Y-117235979D01*
X158445193Y-117431000D01*
X158954807Y-117431000D01*
X159425628Y-117235979D01*
X159785979Y-116875628D01*
X159893742Y-116615464D01*
X163035983Y-116615464D01*
X163152834Y-116804530D01*
X163676815Y-116969697D01*
X164224116Y-116921773D01*
X164507166Y-116804530D01*
X164624017Y-116615464D01*
X163830000Y-115821447D01*
X163035983Y-116615464D01*
X159893742Y-116615464D01*
X159981000Y-116404807D01*
X159981000Y-115895193D01*
X159785979Y-115424372D01*
X159778422Y-115416815D01*
X162430303Y-115416815D01*
X162478227Y-115964116D01*
X162595470Y-116247166D01*
X162784536Y-116364017D01*
X163578553Y-115570000D01*
X164081447Y-115570000D01*
X164875464Y-116364017D01*
X164981536Y-116298460D01*
X164981536Y-116570000D01*
X165011106Y-116718659D01*
X165095314Y-116844686D01*
X165221341Y-116928894D01*
X165370000Y-116958464D01*
X167370000Y-116958464D01*
X167518659Y-116928894D01*
X167644686Y-116844686D01*
X167728894Y-116718659D01*
X167758464Y-116570000D01*
X167758464Y-114570000D01*
X167728894Y-114421341D01*
X167644686Y-114295314D01*
X167518659Y-114211106D01*
X167370000Y-114181536D01*
X165370000Y-114181536D01*
X165221341Y-114211106D01*
X165095314Y-114295314D01*
X165011106Y-114421341D01*
X164981536Y-114570000D01*
X164981536Y-114841540D01*
X164875464Y-114775983D01*
X164081447Y-115570000D01*
X163578553Y-115570000D01*
X162784536Y-114775983D01*
X162595470Y-114892834D01*
X162430303Y-115416815D01*
X159778422Y-115416815D01*
X159425628Y-115064021D01*
X158954807Y-114869000D01*
X158445193Y-114869000D01*
X157974372Y-115064021D01*
X157614021Y-115424372D01*
X157419000Y-115895193D01*
X150045014Y-115895193D01*
X150086484Y-115867484D01*
X150202666Y-115693605D01*
X150243464Y-115488500D01*
X150243464Y-115143500D01*
X150202666Y-114938395D01*
X150195000Y-114926922D01*
X150195000Y-114573000D01*
X158770461Y-114573000D01*
X158858016Y-114590416D01*
X158945571Y-114573000D01*
X158945572Y-114573000D01*
X159189215Y-114524536D01*
X163035983Y-114524536D01*
X163830000Y-115318553D01*
X164624017Y-114524536D01*
X164507166Y-114335470D01*
X163983185Y-114170303D01*
X163435884Y-114218227D01*
X163152834Y-114335470D01*
X163035983Y-114524536D01*
X159189215Y-114524536D01*
X159204886Y-114521419D01*
X159498949Y-114324933D01*
X159548547Y-114250704D01*
X159940251Y-113859000D01*
X160456529Y-113342723D01*
X160456530Y-113342721D01*
X162022719Y-111776532D01*
X166180039Y-111776532D01*
X166400161Y-112175019D01*
X166731274Y-112389599D01*
X167119299Y-112461133D01*
X167277300Y-112351213D01*
X167277300Y-111627800D01*
X166237379Y-111627800D01*
X166180039Y-111776532D01*
X162022719Y-111776532D01*
X162361537Y-111437715D01*
X162424666Y-111374586D01*
X162457695Y-111294846D01*
X164161701Y-111294846D01*
X164244408Y-111455400D01*
X164668032Y-111574302D01*
X165104911Y-111522039D01*
X165265792Y-111455400D01*
X165348499Y-111294846D01*
X165177121Y-111123468D01*
X166180039Y-111123468D01*
X166237379Y-111272200D01*
X167277300Y-111272200D01*
X167277300Y-110548787D01*
X167119299Y-110438867D01*
X166731274Y-110510401D01*
X166400161Y-110724981D01*
X166180039Y-111123468D01*
X165177121Y-111123468D01*
X164755100Y-110701447D01*
X164161701Y-111294846D01*
X162457695Y-111294846D01*
X162458832Y-111292102D01*
X162508426Y-111217879D01*
X162525841Y-111130327D01*
X162560008Y-111047841D01*
X162560008Y-110958560D01*
X162577423Y-110871009D01*
X162560008Y-110783458D01*
X162560008Y-110694175D01*
X162525841Y-110611688D01*
X162508426Y-110524138D01*
X162458833Y-110449917D01*
X162424666Y-110367430D01*
X162420168Y-110362932D01*
X163630798Y-110362932D01*
X163683061Y-110799811D01*
X163749700Y-110960692D01*
X163910254Y-111043399D01*
X164503653Y-110450000D01*
X165006547Y-110450000D01*
X165599946Y-111043399D01*
X165760500Y-110960692D01*
X165879402Y-110537068D01*
X165827139Y-110100189D01*
X165760500Y-109939308D01*
X165599946Y-109856601D01*
X165006547Y-110450000D01*
X164503653Y-110450000D01*
X163910254Y-109856601D01*
X163749700Y-109939308D01*
X163630798Y-110362932D01*
X162420168Y-110362932D01*
X162361533Y-110304297D01*
X162311940Y-110230076D01*
X162237719Y-110180483D01*
X162174586Y-110117350D01*
X162092099Y-110083183D01*
X162017878Y-110033590D01*
X161930328Y-110016175D01*
X161847841Y-109982008D01*
X161758558Y-109982008D01*
X161671007Y-109964593D01*
X161583456Y-109982008D01*
X161494175Y-109982008D01*
X161411689Y-110016175D01*
X161324137Y-110033590D01*
X161249914Y-110083184D01*
X161167430Y-110117350D01*
X161104301Y-110180479D01*
X159199295Y-112085486D01*
X159199293Y-112085487D01*
X158489781Y-112795000D01*
X150027704Y-112795000D01*
X150017809Y-112780191D01*
X149964788Y-112744764D01*
X149415964Y-112195940D01*
X149415964Y-111827750D01*
X149369743Y-111595379D01*
X149238115Y-111398385D01*
X149209103Y-111379000D01*
X155843463Y-111379000D01*
X155906000Y-111391439D01*
X155968537Y-111379000D01*
X155968541Y-111379000D01*
X156153765Y-111342157D01*
X156363809Y-111201809D01*
X156399238Y-111148786D01*
X157818808Y-109729217D01*
X158305955Y-109931000D01*
X159094045Y-109931000D01*
X159822146Y-109629411D01*
X160379411Y-109072146D01*
X160681000Y-108344045D01*
X160681000Y-107555955D01*
X160379411Y-106827854D01*
X159822146Y-106270589D01*
X159094045Y-105969000D01*
X158305955Y-105969000D01*
X157818807Y-106170783D01*
X156018238Y-104370214D01*
X155982809Y-104317191D01*
X155772765Y-104176843D01*
X155587541Y-104140000D01*
X155587537Y-104140000D01*
X155525000Y-104127561D01*
X155462463Y-104140000D01*
X149051503Y-104140000D01*
X148353464Y-103441962D01*
X148353464Y-102300000D01*
X148826536Y-102300000D01*
X148826536Y-103520000D01*
X148856106Y-103668659D01*
X148940314Y-103794686D01*
X149066341Y-103878894D01*
X149215000Y-103908464D01*
X149865000Y-103908464D01*
X150013659Y-103878894D01*
X150139686Y-103794686D01*
X150223894Y-103668659D01*
X150248491Y-103545000D01*
X150748309Y-103545000D01*
X150807222Y-103520598D01*
X150869765Y-103508157D01*
X150922786Y-103472729D01*
X150981698Y-103448327D01*
X151026789Y-103403236D01*
X151079809Y-103367809D01*
X151115236Y-103314789D01*
X151160327Y-103269698D01*
X151184729Y-103210786D01*
X151220157Y-103157765D01*
X151232597Y-103095222D01*
X151257000Y-103036309D01*
X151257000Y-102972541D01*
X151269440Y-102910000D01*
X151257000Y-102847459D01*
X151257000Y-102783691D01*
X151232597Y-102724778D01*
X151220157Y-102662235D01*
X151184729Y-102609214D01*
X151160327Y-102550302D01*
X151115236Y-102505211D01*
X151079809Y-102452191D01*
X151026789Y-102416764D01*
X150981698Y-102371673D01*
X150922786Y-102347271D01*
X150869765Y-102311843D01*
X150807222Y-102299402D01*
X150748309Y-102275000D01*
X150248491Y-102275000D01*
X150223894Y-102151341D01*
X150139686Y-102025314D01*
X150013659Y-101941106D01*
X149865000Y-101911536D01*
X149215000Y-101911536D01*
X149066341Y-101941106D01*
X148940314Y-102025314D01*
X148856106Y-102151341D01*
X148826536Y-102300000D01*
X148353464Y-102300000D01*
X148323894Y-102151341D01*
X148239686Y-102025314D01*
X148113659Y-101941106D01*
X147965000Y-101911536D01*
X147315000Y-101911536D01*
X147166341Y-101941106D01*
X147040314Y-102025314D01*
X146956106Y-102151341D01*
X146926536Y-102300000D01*
X146926536Y-103520000D01*
X146956106Y-103668659D01*
X147019946Y-103764204D01*
X147041843Y-103874286D01*
X147182191Y-104084331D01*
X147235214Y-104119760D01*
X148295242Y-105179788D01*
X148330669Y-105232809D01*
X148540713Y-105373157D01*
X148725937Y-105410000D01*
X148725940Y-105410000D01*
X148788477Y-105422439D01*
X148851014Y-105410000D01*
X155261976Y-105410000D01*
X156920783Y-107068807D01*
X156719000Y-107555955D01*
X156719000Y-108344045D01*
X156920783Y-108831192D01*
X155642976Y-110109000D01*
X142372536Y-110109000D01*
X142309999Y-110096561D01*
X142247462Y-110109000D01*
X142247459Y-110109000D01*
X142062235Y-110145843D01*
X141852191Y-110286191D01*
X141816764Y-110339211D01*
X140935440Y-111220536D01*
X140751250Y-111220536D01*
X140518879Y-111266757D01*
X140321885Y-111398385D01*
X140190257Y-111595379D01*
X140144036Y-111827750D01*
X140144036Y-112191543D01*
X139813580Y-112522000D01*
X123072025Y-112522000D01*
X123041698Y-112491673D01*
X122808309Y-112395000D01*
X122555691Y-112395000D01*
X122322302Y-112491673D01*
X122291975Y-112522000D01*
X121690539Y-112522000D01*
X121661484Y-112478516D01*
X121487605Y-112362334D01*
X121282500Y-112321536D01*
X120987500Y-112321536D01*
X120782395Y-112362334D01*
X120650000Y-112450797D01*
X120517605Y-112362334D01*
X120312500Y-112321536D01*
X120017500Y-112321536D01*
X119812395Y-112362334D01*
X119638516Y-112478516D01*
X119609461Y-112522000D01*
X118246025Y-112522000D01*
X118215698Y-112491673D01*
X117982309Y-112395000D01*
X117729691Y-112395000D01*
X117496302Y-112491673D01*
X117317673Y-112670302D01*
X117221000Y-112903691D01*
X117221000Y-113156309D01*
X117317673Y-113389698D01*
X117496302Y-113568327D01*
X117729691Y-113665000D01*
X117982309Y-113665000D01*
X118215698Y-113568327D01*
X118246025Y-113538000D01*
X119609461Y-113538000D01*
X119638516Y-113581484D01*
X119812395Y-113697666D01*
X120017500Y-113738464D01*
X120312500Y-113738464D01*
X120517605Y-113697666D01*
X120650000Y-113609203D01*
X120782395Y-113697666D01*
X120987500Y-113738464D01*
X121282500Y-113738464D01*
X121487605Y-113697666D01*
X121661484Y-113581484D01*
X121690539Y-113538000D01*
X122291975Y-113538000D01*
X122322302Y-113568327D01*
X122555691Y-113665000D01*
X122808309Y-113665000D01*
X123041698Y-113568327D01*
X123072025Y-113538000D01*
X139973972Y-113538000D01*
X140024000Y-113547951D01*
X140074028Y-113538000D01*
X140074032Y-113538000D01*
X140222212Y-113508525D01*
X140297078Y-113458501D01*
X140286536Y-113511500D01*
X140286536Y-113649044D01*
X140160170Y-113775410D01*
X117668831Y-113775410D01*
X116840000Y-112946580D01*
X116840000Y-110636920D01*
X117685421Y-109791500D01*
X117728309Y-109791500D01*
X117961698Y-109694827D01*
X118140327Y-109516198D01*
X118175711Y-109430773D01*
X119470674Y-109430773D01*
X119661238Y-109682225D01*
X120403203Y-109947884D01*
X121190352Y-109909384D01*
X121738762Y-109682225D01*
X121929326Y-109430773D01*
X120700000Y-108201447D01*
X119470674Y-109430773D01*
X118175711Y-109430773D01*
X118237000Y-109282809D01*
X118237000Y-109030191D01*
X118140327Y-108796802D01*
X117961698Y-108618173D01*
X117728309Y-108521500D01*
X117475691Y-108521500D01*
X117242302Y-108618173D01*
X117063673Y-108796802D01*
X116967000Y-109030191D01*
X116967000Y-109073079D01*
X116008168Y-110031912D01*
X115965753Y-110060253D01*
X115937413Y-110102667D01*
X115937412Y-110102668D01*
X115885421Y-110180479D01*
X115853475Y-110228289D01*
X115824000Y-110376469D01*
X115824000Y-110376472D01*
X115814049Y-110426500D01*
X110883700Y-110426500D01*
X110883700Y-107653203D01*
X118702116Y-107653203D01*
X118740616Y-108440352D01*
X118967775Y-108988762D01*
X119219227Y-109179326D01*
X120448553Y-107950000D01*
X120951447Y-107950000D01*
X122180773Y-109179326D01*
X122432225Y-108988762D01*
X122697884Y-108246797D01*
X122662636Y-107526118D01*
X125469000Y-107526118D01*
X125469000Y-108373882D01*
X125793425Y-109157115D01*
X126392885Y-109756575D01*
X127176118Y-110081000D01*
X128023882Y-110081000D01*
X128807115Y-109756575D01*
X129406575Y-109157115D01*
X129731000Y-108373882D01*
X129731000Y-107526118D01*
X149669000Y-107526118D01*
X149669000Y-108373882D01*
X149993425Y-109157115D01*
X150592885Y-109756575D01*
X151376118Y-110081000D01*
X152223882Y-110081000D01*
X153007115Y-109756575D01*
X153606575Y-109157115D01*
X153931000Y-108373882D01*
X153931000Y-107526118D01*
X153606575Y-106742885D01*
X153007115Y-106143425D01*
X152223882Y-105819000D01*
X151376118Y-105819000D01*
X150592885Y-106143425D01*
X149993425Y-106742885D01*
X149669000Y-107526118D01*
X129731000Y-107526118D01*
X129406575Y-106742885D01*
X128807115Y-106143425D01*
X128023882Y-105819000D01*
X127176118Y-105819000D01*
X126392885Y-106143425D01*
X125793425Y-106742885D01*
X125469000Y-107526118D01*
X122662636Y-107526118D01*
X122659384Y-107459648D01*
X122432225Y-106911238D01*
X122180773Y-106720674D01*
X120951447Y-107950000D01*
X120448553Y-107950000D01*
X119219227Y-106720674D01*
X118967775Y-106911238D01*
X118702116Y-107653203D01*
X110883700Y-107653203D01*
X110883700Y-106469227D01*
X119470674Y-106469227D01*
X120700000Y-107698553D01*
X121929326Y-106469227D01*
X121738762Y-106217775D01*
X120996797Y-105952116D01*
X120209648Y-105990616D01*
X119661238Y-106217775D01*
X119470674Y-106469227D01*
X110883700Y-106469227D01*
X110883700Y-104384704D01*
X112199000Y-104384704D01*
X112199000Y-104715296D01*
X112325512Y-105020724D01*
X112559276Y-105254488D01*
X112864704Y-105381000D01*
X113195296Y-105381000D01*
X113500724Y-105254488D01*
X113734488Y-105020724D01*
X113861000Y-104715296D01*
X113861000Y-104384704D01*
X113734488Y-104079276D01*
X113500724Y-103845512D01*
X113195296Y-103719000D01*
X112864704Y-103719000D01*
X112559276Y-103845512D01*
X112325512Y-104079276D01*
X112199000Y-104384704D01*
X110883700Y-104384704D01*
X110883700Y-102743691D01*
X117221000Y-102743691D01*
X117221000Y-102996309D01*
X117317673Y-103229698D01*
X117496302Y-103408327D01*
X117729691Y-103505000D01*
X117982309Y-103505000D01*
X118215698Y-103408327D01*
X118246025Y-103378000D01*
X119609461Y-103378000D01*
X119638516Y-103421484D01*
X119812395Y-103537666D01*
X120017500Y-103578464D01*
X120312500Y-103578464D01*
X120517605Y-103537666D01*
X120650000Y-103449203D01*
X120782395Y-103537666D01*
X120987500Y-103578464D01*
X121282500Y-103578464D01*
X121487605Y-103537666D01*
X121661484Y-103421484D01*
X121690539Y-103378000D01*
X121783975Y-103378000D01*
X121814302Y-103408327D01*
X122047691Y-103505000D01*
X122300309Y-103505000D01*
X122533698Y-103408327D01*
X122712327Y-103229698D01*
X122809000Y-102996309D01*
X122809000Y-102743691D01*
X122712327Y-102510302D01*
X122533698Y-102331673D01*
X122300309Y-102235000D01*
X122047691Y-102235000D01*
X121814302Y-102331673D01*
X121783975Y-102362000D01*
X121690539Y-102362000D01*
X121661484Y-102318516D01*
X121487605Y-102202334D01*
X121282500Y-102161536D01*
X120987500Y-102161536D01*
X120782395Y-102202334D01*
X120650000Y-102290797D01*
X120517605Y-102202334D01*
X120312500Y-102161536D01*
X120017500Y-102161536D01*
X119812395Y-102202334D01*
X119638516Y-102318516D01*
X119609461Y-102362000D01*
X118246025Y-102362000D01*
X118215698Y-102331673D01*
X117982309Y-102235000D01*
X117729691Y-102235000D01*
X117496302Y-102331673D01*
X117317673Y-102510302D01*
X117221000Y-102743691D01*
X110883700Y-102743691D01*
X110883700Y-101375464D01*
X112235983Y-101375464D01*
X112352834Y-101564530D01*
X112876815Y-101729697D01*
X113424116Y-101681773D01*
X113707166Y-101564530D01*
X113824017Y-101375464D01*
X113030000Y-100581447D01*
X112235983Y-101375464D01*
X110883700Y-101375464D01*
X110883700Y-100176815D01*
X111630303Y-100176815D01*
X111678227Y-100724116D01*
X111795470Y-101007166D01*
X111984536Y-101124017D01*
X112778553Y-100330000D01*
X113281447Y-100330000D01*
X114075464Y-101124017D01*
X114264530Y-101007166D01*
X114429697Y-100483185D01*
X114399866Y-100142500D01*
X145214536Y-100142500D01*
X145214536Y-100437500D01*
X145255334Y-100642605D01*
X145371516Y-100816484D01*
X145545395Y-100932666D01*
X145750500Y-100973464D01*
X146095500Y-100973464D01*
X146300605Y-100932666D01*
X146312078Y-100925000D01*
X146931509Y-100925000D01*
X146956106Y-101048659D01*
X147040314Y-101174686D01*
X147166341Y-101258894D01*
X147315000Y-101288464D01*
X147965000Y-101288464D01*
X148113659Y-101258894D01*
X148239686Y-101174686D01*
X148323894Y-101048659D01*
X148353464Y-100900000D01*
X148353464Y-99695000D01*
X148826536Y-99695000D01*
X148826536Y-100900000D01*
X148856106Y-101048659D01*
X148940314Y-101174686D01*
X149066341Y-101258894D01*
X149215000Y-101288464D01*
X149865000Y-101288464D01*
X150013659Y-101258894D01*
X150139686Y-101174686D01*
X150223894Y-101048659D01*
X150248491Y-100925000D01*
X150740922Y-100925000D01*
X150752395Y-100932666D01*
X150957500Y-100973464D01*
X151302500Y-100973464D01*
X151507605Y-100932666D01*
X151681484Y-100816484D01*
X151797666Y-100642605D01*
X151838464Y-100437500D01*
X151838464Y-100142500D01*
X151797666Y-99937395D01*
X151681484Y-99763516D01*
X151578942Y-99695000D01*
X152426976Y-99695000D01*
X152941536Y-100209560D01*
X152941536Y-103500000D01*
X152971106Y-103648659D01*
X153055314Y-103774686D01*
X153181341Y-103858894D01*
X153330000Y-103888464D01*
X155330000Y-103888464D01*
X155478659Y-103858894D01*
X155604686Y-103774686D01*
X155688894Y-103648659D01*
X155718464Y-103500000D01*
X155718464Y-103150000D01*
X159241536Y-103150000D01*
X159241536Y-104650000D01*
X159271106Y-104798659D01*
X159355314Y-104924686D01*
X159481341Y-105008894D01*
X159630000Y-105038464D01*
X161120439Y-105038464D01*
X161290001Y-105208026D01*
X161290000Y-107887463D01*
X161277561Y-107950000D01*
X161290000Y-108012537D01*
X161290000Y-108012540D01*
X161326843Y-108197764D01*
X161467191Y-108407809D01*
X161520214Y-108443238D01*
X162820210Y-109743236D01*
X162820213Y-109743238D01*
X162865302Y-109788327D01*
X162924213Y-109812729D01*
X162977235Y-109848157D01*
X163039777Y-109860597D01*
X163098691Y-109885000D01*
X163162463Y-109885000D01*
X163225000Y-109897439D01*
X163287537Y-109885000D01*
X163351309Y-109885000D01*
X163410224Y-109860597D01*
X163472764Y-109848157D01*
X163525784Y-109812730D01*
X163584698Y-109788327D01*
X163629789Y-109743236D01*
X163682809Y-109707809D01*
X163718236Y-109654789D01*
X163763327Y-109609698D01*
X163765209Y-109605154D01*
X164161701Y-109605154D01*
X164755100Y-110198553D01*
X165348499Y-109605154D01*
X165265792Y-109444600D01*
X164842168Y-109325698D01*
X164405289Y-109377961D01*
X164244408Y-109444600D01*
X164161701Y-109605154D01*
X163765209Y-109605154D01*
X163787730Y-109550784D01*
X163823157Y-109497764D01*
X163835597Y-109435224D01*
X163860000Y-109376309D01*
X163860000Y-109312537D01*
X163872439Y-109250000D01*
X163860000Y-109187463D01*
X163860000Y-109123691D01*
X163835597Y-109064777D01*
X163823157Y-109002235D01*
X163787729Y-108949213D01*
X163763327Y-108890302D01*
X163718238Y-108845213D01*
X163718236Y-108845210D01*
X162560000Y-107686976D01*
X162560000Y-106294846D01*
X164161701Y-106294846D01*
X164244408Y-106455400D01*
X164668032Y-106574302D01*
X165104911Y-106522039D01*
X165265792Y-106455400D01*
X165348499Y-106294846D01*
X164755100Y-105701447D01*
X164161701Y-106294846D01*
X162560000Y-106294846D01*
X162560000Y-105362932D01*
X163630798Y-105362932D01*
X163683061Y-105799811D01*
X163749700Y-105960692D01*
X163910254Y-106043399D01*
X164503653Y-105450000D01*
X165006547Y-105450000D01*
X165599946Y-106043399D01*
X165760500Y-105960692D01*
X165879402Y-105537068D01*
X165827139Y-105100189D01*
X165760500Y-104939308D01*
X165599946Y-104856601D01*
X165006547Y-105450000D01*
X164503653Y-105450000D01*
X163910254Y-104856601D01*
X163749700Y-104939308D01*
X163630798Y-105362932D01*
X162560000Y-105362932D01*
X162560000Y-105007536D01*
X162572439Y-104944999D01*
X162560000Y-104882462D01*
X162560000Y-104882459D01*
X162523157Y-104697235D01*
X162461630Y-104605154D01*
X164161701Y-104605154D01*
X164755100Y-105198553D01*
X165177121Y-104776532D01*
X166180039Y-104776532D01*
X166400161Y-105175019D01*
X166731274Y-105389599D01*
X167119299Y-105461133D01*
X167277300Y-105351213D01*
X167277300Y-104627800D01*
X166237379Y-104627800D01*
X166180039Y-104776532D01*
X165177121Y-104776532D01*
X165348499Y-104605154D01*
X165265792Y-104444600D01*
X164842168Y-104325698D01*
X164405289Y-104377961D01*
X164244408Y-104444600D01*
X164161701Y-104605154D01*
X162461630Y-104605154D01*
X162382809Y-104487191D01*
X162329788Y-104451764D01*
X162018464Y-104140439D01*
X162018464Y-104123468D01*
X166180039Y-104123468D01*
X166237379Y-104272200D01*
X167277300Y-104272200D01*
X167277300Y-103548787D01*
X167119299Y-103438867D01*
X166731274Y-103510401D01*
X166400161Y-103724981D01*
X166180039Y-104123468D01*
X162018464Y-104123468D01*
X162018464Y-103150000D01*
X161988894Y-103001341D01*
X161904686Y-102875314D01*
X161778659Y-102791106D01*
X161630000Y-102761536D01*
X159630000Y-102761536D01*
X159481341Y-102791106D01*
X159355314Y-102875314D01*
X159271106Y-103001341D01*
X159241536Y-103150000D01*
X155718464Y-103150000D01*
X155718464Y-100850000D01*
X159241536Y-100850000D01*
X159241536Y-102350000D01*
X159271106Y-102498659D01*
X159355314Y-102624686D01*
X159481341Y-102708894D01*
X159630000Y-102738464D01*
X161630000Y-102738464D01*
X161778659Y-102708894D01*
X161904686Y-102624686D01*
X161988894Y-102498659D01*
X162018464Y-102350000D01*
X162018464Y-100850000D01*
X161988894Y-100701341D01*
X161904686Y-100575314D01*
X161778659Y-100491106D01*
X161630000Y-100461536D01*
X159630000Y-100461536D01*
X159481341Y-100491106D01*
X159355314Y-100575314D01*
X159271106Y-100701341D01*
X159241536Y-100850000D01*
X155718464Y-100850000D01*
X155718464Y-99700000D01*
X155688894Y-99551341D01*
X155604686Y-99425314D01*
X155478659Y-99341106D01*
X155330000Y-99311536D01*
X153839560Y-99311536D01*
X153183238Y-98655214D01*
X153147809Y-98602191D01*
X152937765Y-98461843D01*
X152752541Y-98425000D01*
X152752537Y-98425000D01*
X152690000Y-98412561D01*
X152627463Y-98425000D01*
X148144535Y-98425000D01*
X148081999Y-98412561D01*
X148019464Y-98425000D01*
X148019459Y-98425000D01*
X147834235Y-98461843D01*
X147624191Y-98602191D01*
X147588763Y-98655212D01*
X147235212Y-99008764D01*
X147182192Y-99044191D01*
X147146765Y-99097211D01*
X147041843Y-99254236D01*
X147031196Y-99307764D01*
X147005000Y-99439459D01*
X147005000Y-99439463D01*
X146999703Y-99466093D01*
X146956106Y-99531341D01*
X146931509Y-99655000D01*
X146312078Y-99655000D01*
X146300605Y-99647334D01*
X146095500Y-99606536D01*
X145750500Y-99606536D01*
X145545395Y-99647334D01*
X145371516Y-99763516D01*
X145255334Y-99937395D01*
X145214536Y-100142500D01*
X114399866Y-100142500D01*
X114381773Y-99935884D01*
X114264530Y-99652834D01*
X114075464Y-99535983D01*
X113281447Y-100330000D01*
X112778553Y-100330000D01*
X111984536Y-99535983D01*
X111795470Y-99652834D01*
X111630303Y-100176815D01*
X110883700Y-100176815D01*
X110883700Y-99284536D01*
X112235983Y-99284536D01*
X113030000Y-100078553D01*
X113824017Y-99284536D01*
X113707166Y-99095470D01*
X113183185Y-98930303D01*
X112635884Y-98978227D01*
X112352834Y-99095470D01*
X112235983Y-99284536D01*
X110883700Y-99284536D01*
X110883700Y-98183700D01*
X159518574Y-98183700D01*
X159481341Y-98191106D01*
X159481341Y-98191106D01*
G37*
X159481341Y-98191106D02*
X159355314Y-98275314D01*
X159271106Y-98401341D01*
X159241536Y-98550000D01*
X159241536Y-100050000D01*
X159271106Y-100198659D01*
X159355314Y-100324686D01*
X159481341Y-100408894D01*
X159630000Y-100438464D01*
X161630000Y-100438464D01*
X161778659Y-100408894D01*
X161904686Y-100324686D01*
X161988894Y-100198659D01*
X161990815Y-100189000D01*
X162431765Y-100189000D01*
X162441536Y-100198771D01*
X162441536Y-101330000D01*
X162471106Y-101478659D01*
X162555314Y-101604686D01*
X162681341Y-101688894D01*
X162830000Y-101718464D01*
X164830000Y-101718464D01*
X164978659Y-101688894D01*
X165100000Y-101607817D01*
X165221341Y-101688894D01*
X165370000Y-101718464D01*
X167370000Y-101718464D01*
X167518659Y-101688894D01*
X167644686Y-101604686D01*
X167728894Y-101478659D01*
X167758464Y-101330000D01*
X167758464Y-99330000D01*
X167728894Y-99181341D01*
X167644686Y-99055314D01*
X167518659Y-98971106D01*
X167370000Y-98941536D01*
X165370000Y-98941536D01*
X165221341Y-98971106D01*
X165100000Y-99052183D01*
X164978659Y-98971106D01*
X164830000Y-98941536D01*
X163698771Y-98941536D01*
X163490531Y-98733296D01*
X163440933Y-98659067D01*
X163146870Y-98462581D01*
X162887556Y-98411000D01*
X162887555Y-98411000D01*
X162800000Y-98393584D01*
X162712445Y-98411000D01*
X161990815Y-98411000D01*
X161988894Y-98401341D01*
X161904686Y-98275314D01*
X161778659Y-98191106D01*
X161741426Y-98183700D01*
X168516301Y-98183700D01*
X168516301Y-103736317D01*
X168510039Y-103724981D01*
X168178926Y-103510401D01*
X167790901Y-103438867D01*
X167632900Y-103548787D01*
X167632900Y-104272200D01*
X167652900Y-104272200D01*
X167652900Y-104627800D01*
X167632900Y-104627800D01*
X167632900Y-105351213D01*
X167790901Y-105461133D01*
X168178926Y-105389599D01*
X168510039Y-105175019D01*
X168516301Y-105163684D01*
X168516300Y-110736316D01*
X168510039Y-110724981D01*
X168178926Y-110510401D01*
X167790901Y-110438867D01*
X167632900Y-110548787D01*
X167632900Y-111272200D01*
X167652900Y-111272200D01*
X167652900Y-111627800D01*
X167632900Y-111627800D01*
X167632900Y-112351213D01*
X167790901Y-112461133D01*
X168178926Y-112389599D01*
X168510039Y-112175019D01*
X168516300Y-112163684D01*
X168516300Y-117716300D01*
X110883700Y-117716300D01*
X110883700Y-116615464D01*
X112235983Y-116615464D01*
X112352834Y-116804530D01*
X112876815Y-116969697D01*
X113424116Y-116921773D01*
X113707166Y-116804530D01*
X113824017Y-116615464D01*
X113030000Y-115821447D01*
X112235983Y-116615464D01*
X110883700Y-116615464D01*
X110883700Y-115416815D01*
X111630303Y-115416815D01*
X111678227Y-115964116D01*
X111795470Y-116247166D01*
X111984536Y-116364017D01*
X112778553Y-115570000D01*
X113281447Y-115570000D01*
X114075464Y-116364017D01*
X114264530Y-116247166D01*
X114429697Y-115723185D01*
X114381773Y-115175884D01*
X114264530Y-114892834D01*
X114075464Y-114775983D01*
X113281447Y-115570000D01*
X112778553Y-115570000D01*
X111984536Y-114775983D01*
X111795470Y-114892834D01*
X111630303Y-115416815D01*
X110883700Y-115416815D01*
X110883700Y-114524536D01*
X112235983Y-114524536D01*
X113030000Y-115318553D01*
X113824017Y-114524536D01*
X113707166Y-114335470D01*
X113183185Y-114170303D01*
X112635884Y-114218227D01*
X112352834Y-114335470D01*
X112235983Y-114524536D01*
X110883700Y-114524536D01*
X110883700Y-111184704D01*
X112199000Y-111184704D01*
X112199000Y-111515296D01*
X112325512Y-111820724D01*
X112559276Y-112054488D01*
X112864704Y-112181000D01*
X113195296Y-112181000D01*
X113500724Y-112054488D01*
X113734488Y-111820724D01*
X113861000Y-111515296D01*
X113861000Y-111184704D01*
X113734488Y-110879276D01*
X113500724Y-110645512D01*
X113195296Y-110519000D01*
X112864704Y-110519000D01*
X112559276Y-110645512D01*
X112325512Y-110879276D01*
X112199000Y-111184704D01*
X110883700Y-111184704D01*
X110883700Y-110426500D01*
X115814049Y-110426500D01*
X115824000Y-110476528D01*
X115824001Y-113106967D01*
X115814049Y-113157000D01*
X115853475Y-113355211D01*
X115937412Y-113480832D01*
X115937415Y-113480835D01*
X115965754Y-113523247D01*
X116008166Y-113551586D01*
X117063824Y-114607245D01*
X117092163Y-114649657D01*
X117134575Y-114677996D01*
X117134577Y-114677998D01*
X117260198Y-114761935D01*
X117408378Y-114791410D01*
X117408381Y-114791410D01*
X117458409Y-114801361D01*
X117508437Y-114791410D01*
X140320562Y-114791410D01*
X140370590Y-114801361D01*
X140420618Y-114791410D01*
X140420622Y-114791410D01*
X140568802Y-114761935D01*
X140736837Y-114649657D01*
X140765178Y-114607242D01*
X140979956Y-114392464D01*
X141117500Y-114392464D01*
X141322605Y-114351666D01*
X141496484Y-114235484D01*
X141525539Y-114192000D01*
X142039809Y-114192000D01*
X142016536Y-114309000D01*
X142016536Y-114659000D01*
X142046106Y-114807659D01*
X142130314Y-114933686D01*
X142256341Y-115017894D01*
X142405000Y-115047464D01*
X143155000Y-115047464D01*
X143303659Y-115017894D01*
X143429686Y-114933686D01*
X143513894Y-114807659D01*
X143543464Y-114659000D01*
X143543464Y-114309000D01*
X143513894Y-114160341D01*
X143462885Y-114084000D01*
X143513894Y-114007659D01*
X143543464Y-113859000D01*
X143543464Y-113509000D01*
X143513894Y-113360341D01*
X143462885Y-113284000D01*
X143513894Y-113207659D01*
X143543464Y-113059000D01*
X143543464Y-112709000D01*
X143513894Y-112560341D01*
X143462885Y-112484000D01*
X143513894Y-112407659D01*
X143543464Y-112259000D01*
X143543464Y-111909000D01*
X143513894Y-111760341D01*
X143429686Y-111634314D01*
X143303659Y-111550106D01*
X143155000Y-111520536D01*
X142431489Y-111520536D01*
X142573025Y-111379000D01*
X147970897Y-111379000D01*
X147941885Y-111398385D01*
X147823206Y-111576000D01*
X147342412Y-111576000D01*
X147303659Y-111550106D01*
X147155000Y-111520536D01*
X146405000Y-111520536D01*
X146256341Y-111550106D01*
X146130314Y-111634314D01*
X146046106Y-111760341D01*
X146016536Y-111909000D01*
X146016536Y-112259000D01*
X146046106Y-112407659D01*
X146097115Y-112484000D01*
X146046106Y-112560341D01*
X146016536Y-112709000D01*
X146016536Y-113059000D01*
X146046106Y-113207659D01*
X146097115Y-113284000D01*
X146046106Y-113360341D01*
X146016536Y-113509000D01*
X146016536Y-113859000D01*
X146046106Y-114007659D01*
X146130314Y-114133686D01*
X146256341Y-114217894D01*
X146405000Y-114247464D01*
X147155000Y-114247464D01*
X147303659Y-114217894D01*
X147342412Y-114192000D01*
X147955001Y-114192000D01*
X147955000Y-114926922D01*
X147947334Y-114938395D01*
X147906536Y-115143500D01*
X147906536Y-115488500D01*
X147947334Y-115693605D01*
X147975544Y-115735825D01*
X147991843Y-115817765D01*
X148132192Y-116027809D01*
X148185212Y-116063236D01*
X148876536Y-116754561D01*
X148876536Y-117012500D01*
X148917334Y-117217605D01*
X149033516Y-117391484D01*
X149207395Y-117507666D01*
X149412500Y-117548464D01*
X149707500Y-117548464D01*
X149912605Y-117507666D01*
X150086484Y-117391484D01*
X150202666Y-117217605D01*
X150243464Y-117012500D01*
X150243464Y-116667500D01*
X150202666Y-116462395D01*
X150187484Y-116439674D01*
X150158157Y-116292235D01*
X150017809Y-116082191D01*
X149964789Y-116046764D01*
X149903502Y-115985477D01*
X149912605Y-115983666D01*
X150045014Y-115895193D01*
X157419000Y-115895193D01*
X157419000Y-116404807D01*
X157614021Y-116875628D01*
X157974372Y-117235979D01*
X158445193Y-117431000D01*
X158954807Y-117431000D01*
X159425628Y-117235979D01*
X159785979Y-116875628D01*
X159893742Y-116615464D01*
X163035983Y-116615464D01*
X163152834Y-116804530D01*
X163676815Y-116969697D01*
X164224116Y-116921773D01*
X164507166Y-116804530D01*
X164624017Y-116615464D01*
X163830000Y-115821447D01*
X163035983Y-116615464D01*
X159893742Y-116615464D01*
X159981000Y-116404807D01*
X159981000Y-115895193D01*
X159785979Y-115424372D01*
X159778422Y-115416815D01*
X162430303Y-115416815D01*
X162478227Y-115964116D01*
X162595470Y-116247166D01*
X162784536Y-116364017D01*
X163578553Y-115570000D01*
X164081447Y-115570000D01*
X164875464Y-116364017D01*
X164981536Y-116298460D01*
X164981536Y-116570000D01*
X165011106Y-116718659D01*
X165095314Y-116844686D01*
X165221341Y-116928894D01*
X165370000Y-116958464D01*
X167370000Y-116958464D01*
X167518659Y-116928894D01*
X167644686Y-116844686D01*
X167728894Y-116718659D01*
X167758464Y-116570000D01*
X167758464Y-114570000D01*
X167728894Y-114421341D01*
X167644686Y-114295314D01*
X167518659Y-114211106D01*
X167370000Y-114181536D01*
X165370000Y-114181536D01*
X165221341Y-114211106D01*
X165095314Y-114295314D01*
X165011106Y-114421341D01*
X164981536Y-114570000D01*
X164981536Y-114841540D01*
X164875464Y-114775983D01*
X164081447Y-115570000D01*
X163578553Y-115570000D01*
X162784536Y-114775983D01*
X162595470Y-114892834D01*
X162430303Y-115416815D01*
X159778422Y-115416815D01*
X159425628Y-115064021D01*
X158954807Y-114869000D01*
X158445193Y-114869000D01*
X157974372Y-115064021D01*
X157614021Y-115424372D01*
X157419000Y-115895193D01*
X150045014Y-115895193D01*
X150086484Y-115867484D01*
X150202666Y-115693605D01*
X150243464Y-115488500D01*
X150243464Y-115143500D01*
X150202666Y-114938395D01*
X150195000Y-114926922D01*
X150195000Y-114573000D01*
X158770461Y-114573000D01*
X158858016Y-114590416D01*
X158945571Y-114573000D01*
X158945572Y-114573000D01*
X159189215Y-114524536D01*
X163035983Y-114524536D01*
X163830000Y-115318553D01*
X164624017Y-114524536D01*
X164507166Y-114335470D01*
X163983185Y-114170303D01*
X163435884Y-114218227D01*
X163152834Y-114335470D01*
X163035983Y-114524536D01*
X159189215Y-114524536D01*
X159204886Y-114521419D01*
X159498949Y-114324933D01*
X159548547Y-114250704D01*
X159940251Y-113859000D01*
X160456529Y-113342723D01*
X160456530Y-113342721D01*
X162022719Y-111776532D01*
X166180039Y-111776532D01*
X166400161Y-112175019D01*
X166731274Y-112389599D01*
X167119299Y-112461133D01*
X167277300Y-112351213D01*
X167277300Y-111627800D01*
X166237379Y-111627800D01*
X166180039Y-111776532D01*
X162022719Y-111776532D01*
X162361537Y-111437715D01*
X162424666Y-111374586D01*
X162457695Y-111294846D01*
X164161701Y-111294846D01*
X164244408Y-111455400D01*
X164668032Y-111574302D01*
X165104911Y-111522039D01*
X165265792Y-111455400D01*
X165348499Y-111294846D01*
X165177121Y-111123468D01*
X166180039Y-111123468D01*
X166237379Y-111272200D01*
X167277300Y-111272200D01*
X167277300Y-110548787D01*
X167119299Y-110438867D01*
X166731274Y-110510401D01*
X166400161Y-110724981D01*
X166180039Y-111123468D01*
X165177121Y-111123468D01*
X164755100Y-110701447D01*
X164161701Y-111294846D01*
X162457695Y-111294846D01*
X162458832Y-111292102D01*
X162508426Y-111217879D01*
X162525841Y-111130327D01*
X162560008Y-111047841D01*
X162560008Y-110958560D01*
X162577423Y-110871009D01*
X162560008Y-110783458D01*
X162560008Y-110694175D01*
X162525841Y-110611688D01*
X162508426Y-110524138D01*
X162458833Y-110449917D01*
X162424666Y-110367430D01*
X162420168Y-110362932D01*
X163630798Y-110362932D01*
X163683061Y-110799811D01*
X163749700Y-110960692D01*
X163910254Y-111043399D01*
X164503653Y-110450000D01*
X165006547Y-110450000D01*
X165599946Y-111043399D01*
X165760500Y-110960692D01*
X165879402Y-110537068D01*
X165827139Y-110100189D01*
X165760500Y-109939308D01*
X165599946Y-109856601D01*
X165006547Y-110450000D01*
X164503653Y-110450000D01*
X163910254Y-109856601D01*
X163749700Y-109939308D01*
X163630798Y-110362932D01*
X162420168Y-110362932D01*
X162361533Y-110304297D01*
X162311940Y-110230076D01*
X162237719Y-110180483D01*
X162174586Y-110117350D01*
X162092099Y-110083183D01*
X162017878Y-110033590D01*
X161930328Y-110016175D01*
X161847841Y-109982008D01*
X161758558Y-109982008D01*
X161671007Y-109964593D01*
X161583456Y-109982008D01*
X161494175Y-109982008D01*
X161411689Y-110016175D01*
X161324137Y-110033590D01*
X161249914Y-110083184D01*
X161167430Y-110117350D01*
X161104301Y-110180479D01*
X159199295Y-112085486D01*
X159199293Y-112085487D01*
X158489781Y-112795000D01*
X150027704Y-112795000D01*
X150017809Y-112780191D01*
X149964788Y-112744764D01*
X149415964Y-112195940D01*
X149415964Y-111827750D01*
X149369743Y-111595379D01*
X149238115Y-111398385D01*
X149209103Y-111379000D01*
X155843463Y-111379000D01*
X155906000Y-111391439D01*
X155968537Y-111379000D01*
X155968541Y-111379000D01*
X156153765Y-111342157D01*
X156363809Y-111201809D01*
X156399238Y-111148786D01*
X157818808Y-109729217D01*
X158305955Y-109931000D01*
X159094045Y-109931000D01*
X159822146Y-109629411D01*
X160379411Y-109072146D01*
X160681000Y-108344045D01*
X160681000Y-107555955D01*
X160379411Y-106827854D01*
X159822146Y-106270589D01*
X159094045Y-105969000D01*
X158305955Y-105969000D01*
X157818807Y-106170783D01*
X156018238Y-104370214D01*
X155982809Y-104317191D01*
X155772765Y-104176843D01*
X155587541Y-104140000D01*
X155587537Y-104140000D01*
X155525000Y-104127561D01*
X155462463Y-104140000D01*
X149051503Y-104140000D01*
X148353464Y-103441962D01*
X148353464Y-102300000D01*
X148826536Y-102300000D01*
X148826536Y-103520000D01*
X148856106Y-103668659D01*
X148940314Y-103794686D01*
X149066341Y-103878894D01*
X149215000Y-103908464D01*
X149865000Y-103908464D01*
X150013659Y-103878894D01*
X150139686Y-103794686D01*
X150223894Y-103668659D01*
X150248491Y-103545000D01*
X150748309Y-103545000D01*
X150807222Y-103520598D01*
X150869765Y-103508157D01*
X150922786Y-103472729D01*
X150981698Y-103448327D01*
X151026789Y-103403236D01*
X151079809Y-103367809D01*
X151115236Y-103314789D01*
X151160327Y-103269698D01*
X151184729Y-103210786D01*
X151220157Y-103157765D01*
X151232597Y-103095222D01*
X151257000Y-103036309D01*
X151257000Y-102972541D01*
X151269440Y-102910000D01*
X151257000Y-102847459D01*
X151257000Y-102783691D01*
X151232597Y-102724778D01*
X151220157Y-102662235D01*
X151184729Y-102609214D01*
X151160327Y-102550302D01*
X151115236Y-102505211D01*
X151079809Y-102452191D01*
X151026789Y-102416764D01*
X150981698Y-102371673D01*
X150922786Y-102347271D01*
X150869765Y-102311843D01*
X150807222Y-102299402D01*
X150748309Y-102275000D01*
X150248491Y-102275000D01*
X150223894Y-102151341D01*
X150139686Y-102025314D01*
X150013659Y-101941106D01*
X149865000Y-101911536D01*
X149215000Y-101911536D01*
X149066341Y-101941106D01*
X148940314Y-102025314D01*
X148856106Y-102151341D01*
X148826536Y-102300000D01*
X148353464Y-102300000D01*
X148323894Y-102151341D01*
X148239686Y-102025314D01*
X148113659Y-101941106D01*
X147965000Y-101911536D01*
X147315000Y-101911536D01*
X147166341Y-101941106D01*
X147040314Y-102025314D01*
X146956106Y-102151341D01*
X146926536Y-102300000D01*
X146926536Y-103520000D01*
X146956106Y-103668659D01*
X147019946Y-103764204D01*
X147041843Y-103874286D01*
X147182191Y-104084331D01*
X147235214Y-104119760D01*
X148295242Y-105179788D01*
X148330669Y-105232809D01*
X148540713Y-105373157D01*
X148725937Y-105410000D01*
X148725940Y-105410000D01*
X148788477Y-105422439D01*
X148851014Y-105410000D01*
X155261976Y-105410000D01*
X156920783Y-107068807D01*
X156719000Y-107555955D01*
X156719000Y-108344045D01*
X156920783Y-108831192D01*
X155642976Y-110109000D01*
X142372536Y-110109000D01*
X142309999Y-110096561D01*
X142247462Y-110109000D01*
X142247459Y-110109000D01*
X142062235Y-110145843D01*
X141852191Y-110286191D01*
X141816764Y-110339211D01*
X140935440Y-111220536D01*
X140751250Y-111220536D01*
X140518879Y-111266757D01*
X140321885Y-111398385D01*
X140190257Y-111595379D01*
X140144036Y-111827750D01*
X140144036Y-112191543D01*
X139813580Y-112522000D01*
X123072025Y-112522000D01*
X123041698Y-112491673D01*
X122808309Y-112395000D01*
X122555691Y-112395000D01*
X122322302Y-112491673D01*
X122291975Y-112522000D01*
X121690539Y-112522000D01*
X121661484Y-112478516D01*
X121487605Y-112362334D01*
X121282500Y-112321536D01*
X120987500Y-112321536D01*
X120782395Y-112362334D01*
X120650000Y-112450797D01*
X120517605Y-112362334D01*
X120312500Y-112321536D01*
X120017500Y-112321536D01*
X119812395Y-112362334D01*
X119638516Y-112478516D01*
X119609461Y-112522000D01*
X118246025Y-112522000D01*
X118215698Y-112491673D01*
X117982309Y-112395000D01*
X117729691Y-112395000D01*
X117496302Y-112491673D01*
X117317673Y-112670302D01*
X117221000Y-112903691D01*
X117221000Y-113156309D01*
X117317673Y-113389698D01*
X117496302Y-113568327D01*
X117729691Y-113665000D01*
X117982309Y-113665000D01*
X118215698Y-113568327D01*
X118246025Y-113538000D01*
X119609461Y-113538000D01*
X119638516Y-113581484D01*
X119812395Y-113697666D01*
X120017500Y-113738464D01*
X120312500Y-113738464D01*
X120517605Y-113697666D01*
X120650000Y-113609203D01*
X120782395Y-113697666D01*
X120987500Y-113738464D01*
X121282500Y-113738464D01*
X121487605Y-113697666D01*
X121661484Y-113581484D01*
X121690539Y-113538000D01*
X122291975Y-113538000D01*
X122322302Y-113568327D01*
X122555691Y-113665000D01*
X122808309Y-113665000D01*
X123041698Y-113568327D01*
X123072025Y-113538000D01*
X139973972Y-113538000D01*
X140024000Y-113547951D01*
X140074028Y-113538000D01*
X140074032Y-113538000D01*
X140222212Y-113508525D01*
X140297078Y-113458501D01*
X140286536Y-113511500D01*
X140286536Y-113649044D01*
X140160170Y-113775410D01*
X117668831Y-113775410D01*
X116840000Y-112946580D01*
X116840000Y-110636920D01*
X117685421Y-109791500D01*
X117728309Y-109791500D01*
X117961698Y-109694827D01*
X118140327Y-109516198D01*
X118175711Y-109430773D01*
X119470674Y-109430773D01*
X119661238Y-109682225D01*
X120403203Y-109947884D01*
X121190352Y-109909384D01*
X121738762Y-109682225D01*
X121929326Y-109430773D01*
X120700000Y-108201447D01*
X119470674Y-109430773D01*
X118175711Y-109430773D01*
X118237000Y-109282809D01*
X118237000Y-109030191D01*
X118140327Y-108796802D01*
X117961698Y-108618173D01*
X117728309Y-108521500D01*
X117475691Y-108521500D01*
X117242302Y-108618173D01*
X117063673Y-108796802D01*
X116967000Y-109030191D01*
X116967000Y-109073079D01*
X116008168Y-110031912D01*
X115965753Y-110060253D01*
X115937413Y-110102667D01*
X115937412Y-110102668D01*
X115885421Y-110180479D01*
X115853475Y-110228289D01*
X115824000Y-110376469D01*
X115824000Y-110376472D01*
X115814049Y-110426500D01*
X110883700Y-110426500D01*
X110883700Y-107653203D01*
X118702116Y-107653203D01*
X118740616Y-108440352D01*
X118967775Y-108988762D01*
X119219227Y-109179326D01*
X120448553Y-107950000D01*
X120951447Y-107950000D01*
X122180773Y-109179326D01*
X122432225Y-108988762D01*
X122697884Y-108246797D01*
X122662636Y-107526118D01*
X125469000Y-107526118D01*
X125469000Y-108373882D01*
X125793425Y-109157115D01*
X126392885Y-109756575D01*
X127176118Y-110081000D01*
X128023882Y-110081000D01*
X128807115Y-109756575D01*
X129406575Y-109157115D01*
X129731000Y-108373882D01*
X129731000Y-107526118D01*
X149669000Y-107526118D01*
X149669000Y-108373882D01*
X149993425Y-109157115D01*
X150592885Y-109756575D01*
X151376118Y-110081000D01*
X152223882Y-110081000D01*
X153007115Y-109756575D01*
X153606575Y-109157115D01*
X153931000Y-108373882D01*
X153931000Y-107526118D01*
X153606575Y-106742885D01*
X153007115Y-106143425D01*
X152223882Y-105819000D01*
X151376118Y-105819000D01*
X150592885Y-106143425D01*
X149993425Y-106742885D01*
X149669000Y-107526118D01*
X129731000Y-107526118D01*
X129406575Y-106742885D01*
X128807115Y-106143425D01*
X128023882Y-105819000D01*
X127176118Y-105819000D01*
X126392885Y-106143425D01*
X125793425Y-106742885D01*
X125469000Y-107526118D01*
X122662636Y-107526118D01*
X122659384Y-107459648D01*
X122432225Y-106911238D01*
X122180773Y-106720674D01*
X120951447Y-107950000D01*
X120448553Y-107950000D01*
X119219227Y-106720674D01*
X118967775Y-106911238D01*
X118702116Y-107653203D01*
X110883700Y-107653203D01*
X110883700Y-106469227D01*
X119470674Y-106469227D01*
X120700000Y-107698553D01*
X121929326Y-106469227D01*
X121738762Y-106217775D01*
X120996797Y-105952116D01*
X120209648Y-105990616D01*
X119661238Y-106217775D01*
X119470674Y-106469227D01*
X110883700Y-106469227D01*
X110883700Y-104384704D01*
X112199000Y-104384704D01*
X112199000Y-104715296D01*
X112325512Y-105020724D01*
X112559276Y-105254488D01*
X112864704Y-105381000D01*
X113195296Y-105381000D01*
X113500724Y-105254488D01*
X113734488Y-105020724D01*
X113861000Y-104715296D01*
X113861000Y-104384704D01*
X113734488Y-104079276D01*
X113500724Y-103845512D01*
X113195296Y-103719000D01*
X112864704Y-103719000D01*
X112559276Y-103845512D01*
X112325512Y-104079276D01*
X112199000Y-104384704D01*
X110883700Y-104384704D01*
X110883700Y-102743691D01*
X117221000Y-102743691D01*
X117221000Y-102996309D01*
X117317673Y-103229698D01*
X117496302Y-103408327D01*
X117729691Y-103505000D01*
X117982309Y-103505000D01*
X118215698Y-103408327D01*
X118246025Y-103378000D01*
X119609461Y-103378000D01*
X119638516Y-103421484D01*
X119812395Y-103537666D01*
X120017500Y-103578464D01*
X120312500Y-103578464D01*
X120517605Y-103537666D01*
X120650000Y-103449203D01*
X120782395Y-103537666D01*
X120987500Y-103578464D01*
X121282500Y-103578464D01*
X121487605Y-103537666D01*
X121661484Y-103421484D01*
X121690539Y-103378000D01*
X121783975Y-103378000D01*
X121814302Y-103408327D01*
X122047691Y-103505000D01*
X122300309Y-103505000D01*
X122533698Y-103408327D01*
X122712327Y-103229698D01*
X122809000Y-102996309D01*
X122809000Y-102743691D01*
X122712327Y-102510302D01*
X122533698Y-102331673D01*
X122300309Y-102235000D01*
X122047691Y-102235000D01*
X121814302Y-102331673D01*
X121783975Y-102362000D01*
X121690539Y-102362000D01*
X121661484Y-102318516D01*
X121487605Y-102202334D01*
X121282500Y-102161536D01*
X120987500Y-102161536D01*
X120782395Y-102202334D01*
X120650000Y-102290797D01*
X120517605Y-102202334D01*
X120312500Y-102161536D01*
X120017500Y-102161536D01*
X119812395Y-102202334D01*
X119638516Y-102318516D01*
X119609461Y-102362000D01*
X118246025Y-102362000D01*
X118215698Y-102331673D01*
X117982309Y-102235000D01*
X117729691Y-102235000D01*
X117496302Y-102331673D01*
X117317673Y-102510302D01*
X117221000Y-102743691D01*
X110883700Y-102743691D01*
X110883700Y-101375464D01*
X112235983Y-101375464D01*
X112352834Y-101564530D01*
X112876815Y-101729697D01*
X113424116Y-101681773D01*
X113707166Y-101564530D01*
X113824017Y-101375464D01*
X113030000Y-100581447D01*
X112235983Y-101375464D01*
X110883700Y-101375464D01*
X110883700Y-100176815D01*
X111630303Y-100176815D01*
X111678227Y-100724116D01*
X111795470Y-101007166D01*
X111984536Y-101124017D01*
X112778553Y-100330000D01*
X113281447Y-100330000D01*
X114075464Y-101124017D01*
X114264530Y-101007166D01*
X114429697Y-100483185D01*
X114399866Y-100142500D01*
X145214536Y-100142500D01*
X145214536Y-100437500D01*
X145255334Y-100642605D01*
X145371516Y-100816484D01*
X145545395Y-100932666D01*
X145750500Y-100973464D01*
X146095500Y-100973464D01*
X146300605Y-100932666D01*
X146312078Y-100925000D01*
X146931509Y-100925000D01*
X146956106Y-101048659D01*
X147040314Y-101174686D01*
X147166341Y-101258894D01*
X147315000Y-101288464D01*
X147965000Y-101288464D01*
X148113659Y-101258894D01*
X148239686Y-101174686D01*
X148323894Y-101048659D01*
X148353464Y-100900000D01*
X148353464Y-99695000D01*
X148826536Y-99695000D01*
X148826536Y-100900000D01*
X148856106Y-101048659D01*
X148940314Y-101174686D01*
X149066341Y-101258894D01*
X149215000Y-101288464D01*
X149865000Y-101288464D01*
X150013659Y-101258894D01*
X150139686Y-101174686D01*
X150223894Y-101048659D01*
X150248491Y-100925000D01*
X150740922Y-100925000D01*
X150752395Y-100932666D01*
X150957500Y-100973464D01*
X151302500Y-100973464D01*
X151507605Y-100932666D01*
X151681484Y-100816484D01*
X151797666Y-100642605D01*
X151838464Y-100437500D01*
X151838464Y-100142500D01*
X151797666Y-99937395D01*
X151681484Y-99763516D01*
X151578942Y-99695000D01*
X152426976Y-99695000D01*
X152941536Y-100209560D01*
X152941536Y-103500000D01*
X152971106Y-103648659D01*
X153055314Y-103774686D01*
X153181341Y-103858894D01*
X153330000Y-103888464D01*
X155330000Y-103888464D01*
X155478659Y-103858894D01*
X155604686Y-103774686D01*
X155688894Y-103648659D01*
X155718464Y-103500000D01*
X155718464Y-103150000D01*
X159241536Y-103150000D01*
X159241536Y-104650000D01*
X159271106Y-104798659D01*
X159355314Y-104924686D01*
X159481341Y-105008894D01*
X159630000Y-105038464D01*
X161120439Y-105038464D01*
X161290001Y-105208026D01*
X161290000Y-107887463D01*
X161277561Y-107950000D01*
X161290000Y-108012537D01*
X161290000Y-108012540D01*
X161326843Y-108197764D01*
X161467191Y-108407809D01*
X161520214Y-108443238D01*
X162820210Y-109743236D01*
X162820213Y-109743238D01*
X162865302Y-109788327D01*
X162924213Y-109812729D01*
X162977235Y-109848157D01*
X163039777Y-109860597D01*
X163098691Y-109885000D01*
X163162463Y-109885000D01*
X163225000Y-109897439D01*
X163287537Y-109885000D01*
X163351309Y-109885000D01*
X163410224Y-109860597D01*
X163472764Y-109848157D01*
X163525784Y-109812730D01*
X163584698Y-109788327D01*
X163629789Y-109743236D01*
X163682809Y-109707809D01*
X163718236Y-109654789D01*
X163763327Y-109609698D01*
X163765209Y-109605154D01*
X164161701Y-109605154D01*
X164755100Y-110198553D01*
X165348499Y-109605154D01*
X165265792Y-109444600D01*
X164842168Y-109325698D01*
X164405289Y-109377961D01*
X164244408Y-109444600D01*
X164161701Y-109605154D01*
X163765209Y-109605154D01*
X163787730Y-109550784D01*
X163823157Y-109497764D01*
X163835597Y-109435224D01*
X163860000Y-109376309D01*
X163860000Y-109312537D01*
X163872439Y-109250000D01*
X163860000Y-109187463D01*
X163860000Y-109123691D01*
X163835597Y-109064777D01*
X163823157Y-109002235D01*
X163787729Y-108949213D01*
X163763327Y-108890302D01*
X163718238Y-108845213D01*
X163718236Y-108845210D01*
X162560000Y-107686976D01*
X162560000Y-106294846D01*
X164161701Y-106294846D01*
X164244408Y-106455400D01*
X164668032Y-106574302D01*
X165104911Y-106522039D01*
X165265792Y-106455400D01*
X165348499Y-106294846D01*
X164755100Y-105701447D01*
X164161701Y-106294846D01*
X162560000Y-106294846D01*
X162560000Y-105362932D01*
X163630798Y-105362932D01*
X163683061Y-105799811D01*
X163749700Y-105960692D01*
X163910254Y-106043399D01*
X164503653Y-105450000D01*
X165006547Y-105450000D01*
X165599946Y-106043399D01*
X165760500Y-105960692D01*
X165879402Y-105537068D01*
X165827139Y-105100189D01*
X165760500Y-104939308D01*
X165599946Y-104856601D01*
X165006547Y-105450000D01*
X164503653Y-105450000D01*
X163910254Y-104856601D01*
X163749700Y-104939308D01*
X163630798Y-105362932D01*
X162560000Y-105362932D01*
X162560000Y-105007536D01*
X162572439Y-104944999D01*
X162560000Y-104882462D01*
X162560000Y-104882459D01*
X162523157Y-104697235D01*
X162461630Y-104605154D01*
X164161701Y-104605154D01*
X164755100Y-105198553D01*
X165177121Y-104776532D01*
X166180039Y-104776532D01*
X166400161Y-105175019D01*
X166731274Y-105389599D01*
X167119299Y-105461133D01*
X167277300Y-105351213D01*
X167277300Y-104627800D01*
X166237379Y-104627800D01*
X166180039Y-104776532D01*
X165177121Y-104776532D01*
X165348499Y-104605154D01*
X165265792Y-104444600D01*
X164842168Y-104325698D01*
X164405289Y-104377961D01*
X164244408Y-104444600D01*
X164161701Y-104605154D01*
X162461630Y-104605154D01*
X162382809Y-104487191D01*
X162329788Y-104451764D01*
X162018464Y-104140439D01*
X162018464Y-104123468D01*
X166180039Y-104123468D01*
X166237379Y-104272200D01*
X167277300Y-104272200D01*
X167277300Y-103548787D01*
X167119299Y-103438867D01*
X166731274Y-103510401D01*
X166400161Y-103724981D01*
X166180039Y-104123468D01*
X162018464Y-104123468D01*
X162018464Y-103150000D01*
X161988894Y-103001341D01*
X161904686Y-102875314D01*
X161778659Y-102791106D01*
X161630000Y-102761536D01*
X159630000Y-102761536D01*
X159481341Y-102791106D01*
X159355314Y-102875314D01*
X159271106Y-103001341D01*
X159241536Y-103150000D01*
X155718464Y-103150000D01*
X155718464Y-100850000D01*
X159241536Y-100850000D01*
X159241536Y-102350000D01*
X159271106Y-102498659D01*
X159355314Y-102624686D01*
X159481341Y-102708894D01*
X159630000Y-102738464D01*
X161630000Y-102738464D01*
X161778659Y-102708894D01*
X161904686Y-102624686D01*
X161988894Y-102498659D01*
X162018464Y-102350000D01*
X162018464Y-100850000D01*
X161988894Y-100701341D01*
X161904686Y-100575314D01*
X161778659Y-100491106D01*
X161630000Y-100461536D01*
X159630000Y-100461536D01*
X159481341Y-100491106D01*
X159355314Y-100575314D01*
X159271106Y-100701341D01*
X159241536Y-100850000D01*
X155718464Y-100850000D01*
X155718464Y-99700000D01*
X155688894Y-99551341D01*
X155604686Y-99425314D01*
X155478659Y-99341106D01*
X155330000Y-99311536D01*
X153839560Y-99311536D01*
X153183238Y-98655214D01*
X153147809Y-98602191D01*
X152937765Y-98461843D01*
X152752541Y-98425000D01*
X152752537Y-98425000D01*
X152690000Y-98412561D01*
X152627463Y-98425000D01*
X148144535Y-98425000D01*
X148081999Y-98412561D01*
X148019464Y-98425000D01*
X148019459Y-98425000D01*
X147834235Y-98461843D01*
X147624191Y-98602191D01*
X147588763Y-98655212D01*
X147235212Y-99008764D01*
X147182192Y-99044191D01*
X147146765Y-99097211D01*
X147041843Y-99254236D01*
X147031196Y-99307764D01*
X147005000Y-99439459D01*
X147005000Y-99439463D01*
X146999703Y-99466093D01*
X146956106Y-99531341D01*
X146931509Y-99655000D01*
X146312078Y-99655000D01*
X146300605Y-99647334D01*
X146095500Y-99606536D01*
X145750500Y-99606536D01*
X145545395Y-99647334D01*
X145371516Y-99763516D01*
X145255334Y-99937395D01*
X145214536Y-100142500D01*
X114399866Y-100142500D01*
X114381773Y-99935884D01*
X114264530Y-99652834D01*
X114075464Y-99535983D01*
X113281447Y-100330000D01*
X112778553Y-100330000D01*
X111984536Y-99535983D01*
X111795470Y-99652834D01*
X111630303Y-100176815D01*
X110883700Y-100176815D01*
X110883700Y-99284536D01*
X112235983Y-99284536D01*
X113030000Y-100078553D01*
X113824017Y-99284536D01*
X113707166Y-99095470D01*
X113183185Y-98930303D01*
X112635884Y-98978227D01*
X112352834Y-99095470D01*
X112235983Y-99284536D01*
X110883700Y-99284536D01*
X110883700Y-98183700D01*
X159518574Y-98183700D01*
X159481341Y-98191106D01*
G04 #@! TD*
M02*
