G04 #@! TF.GenerationSoftware,KiCad,Pcbnew,5.1.6+dfsg1-1*
G04 #@! TF.CreationDate,2020-06-20T09:26:12-04:00*
G04 #@! TF.ProjectId,BreadBatt,42726561-6442-4617-9474-2e6b69636164,1*
G04 #@! TF.SameCoordinates,Original*
G04 #@! TF.FileFunction,Legend,Top*
G04 #@! TF.FilePolarity,Positive*
%FSLAX46Y46*%
G04 Gerber Fmt 4.6, Leading zero omitted, Abs format (unit mm)*
G04 Created by KiCad (PCBNEW 5.1.6+dfsg1-1) date 2020-06-20 09:26:12*
%MOMM*%
%LPD*%
G01*
G04 APERTURE LIST*
%ADD10C,0.152400*%
%ADD11C,0.406400*%
%ADD12C,0.150000*%
%ADD13C,0.100000*%
%ADD14C,0.120000*%
G04 APERTURE END LIST*
D10*
X115105542Y-98374200D02*
X115047485Y-98345171D01*
X114960400Y-98345171D01*
X114873314Y-98374200D01*
X114815257Y-98432257D01*
X114786228Y-98490314D01*
X114757200Y-98606428D01*
X114757200Y-98693514D01*
X114786228Y-98809628D01*
X114815257Y-98867685D01*
X114873314Y-98925742D01*
X114960400Y-98954771D01*
X115018457Y-98954771D01*
X115105542Y-98925742D01*
X115134571Y-98896714D01*
X115134571Y-98693514D01*
X115018457Y-98693514D01*
X115395828Y-98954771D02*
X115395828Y-98345171D01*
X115744171Y-98954771D01*
X115744171Y-98345171D01*
X116034457Y-98954771D02*
X116034457Y-98345171D01*
X116179600Y-98345171D01*
X116266685Y-98374200D01*
X116324742Y-98432257D01*
X116353771Y-98490314D01*
X116382800Y-98606428D01*
X116382800Y-98693514D01*
X116353771Y-98809628D01*
X116324742Y-98867685D01*
X116266685Y-98925742D01*
X116179600Y-98954771D01*
X116034457Y-98954771D01*
X116034457Y-117525800D02*
X116092514Y-117554828D01*
X116179600Y-117554828D01*
X116266685Y-117525800D01*
X116324742Y-117467742D01*
X116353771Y-117409685D01*
X116382800Y-117293571D01*
X116382800Y-117206485D01*
X116353771Y-117090371D01*
X116324742Y-117032314D01*
X116266685Y-116974257D01*
X116179600Y-116945228D01*
X116121542Y-116945228D01*
X116034457Y-116974257D01*
X116005428Y-117003285D01*
X116005428Y-117206485D01*
X116121542Y-117206485D01*
X115744171Y-116945228D02*
X115744171Y-117554828D01*
X115395828Y-116945228D01*
X115395828Y-117554828D01*
X115105542Y-116945228D02*
X115105542Y-117554828D01*
X114960400Y-117554828D01*
X114873314Y-117525800D01*
X114815257Y-117467742D01*
X114786228Y-117409685D01*
X114757200Y-117293571D01*
X114757200Y-117206485D01*
X114786228Y-117090371D01*
X114815257Y-117032314D01*
X114873314Y-116974257D01*
X114960400Y-116945228D01*
X115105542Y-116945228D01*
X163786457Y-110659454D02*
X163786457Y-111123911D01*
X163554228Y-110891682D02*
X164018685Y-110891682D01*
X164163828Y-111704482D02*
X164163828Y-111414197D01*
X163873542Y-111385168D01*
X163902571Y-111414197D01*
X163931600Y-111472254D01*
X163931600Y-111617397D01*
X163902571Y-111675454D01*
X163873542Y-111704482D01*
X163815485Y-111733511D01*
X163670342Y-111733511D01*
X163612285Y-111704482D01*
X163583257Y-111675454D01*
X163554228Y-111617397D01*
X163554228Y-111472254D01*
X163583257Y-111414197D01*
X163612285Y-111385168D01*
X164163828Y-111907682D02*
X163554228Y-112110882D01*
X164163828Y-112314082D01*
X164163828Y-112517282D02*
X163670342Y-112517282D01*
X163612285Y-112546311D01*
X163583257Y-112575340D01*
X163554228Y-112633397D01*
X163554228Y-112749511D01*
X163583257Y-112807568D01*
X163612285Y-112836597D01*
X163670342Y-112865625D01*
X164163828Y-112865625D01*
X163583257Y-113126882D02*
X163554228Y-113213968D01*
X163554228Y-113359111D01*
X163583257Y-113417168D01*
X163612285Y-113446197D01*
X163670342Y-113475225D01*
X163728400Y-113475225D01*
X163786457Y-113446197D01*
X163815485Y-113417168D01*
X163844514Y-113359111D01*
X163873542Y-113242997D01*
X163902571Y-113184940D01*
X163931600Y-113155911D01*
X163989657Y-113126882D01*
X164047714Y-113126882D01*
X164105771Y-113155911D01*
X164134800Y-113184940D01*
X164163828Y-113242997D01*
X164163828Y-113388140D01*
X164134800Y-113475225D01*
X163873542Y-113939682D02*
X163844514Y-114026768D01*
X163815485Y-114055797D01*
X163757428Y-114084825D01*
X163670342Y-114084825D01*
X163612285Y-114055797D01*
X163583257Y-114026768D01*
X163554228Y-113968711D01*
X163554228Y-113736482D01*
X164163828Y-113736482D01*
X164163828Y-113939682D01*
X164134800Y-113997740D01*
X164105771Y-114026768D01*
X164047714Y-114055797D01*
X163989657Y-114055797D01*
X163931600Y-114026768D01*
X163902571Y-113997740D01*
X163873542Y-113939682D01*
X163873542Y-113736482D01*
X163786457Y-101844202D02*
X163786457Y-102308660D01*
X163554228Y-102076431D02*
X164018685Y-102076431D01*
X164163828Y-102889231D02*
X164163828Y-102598945D01*
X163873542Y-102569917D01*
X163902571Y-102598945D01*
X163931600Y-102657002D01*
X163931600Y-102802145D01*
X163902571Y-102860202D01*
X163873542Y-102889231D01*
X163815485Y-102918260D01*
X163670342Y-102918260D01*
X163612285Y-102889231D01*
X163583257Y-102860202D01*
X163554228Y-102802145D01*
X163554228Y-102657002D01*
X163583257Y-102598945D01*
X163612285Y-102569917D01*
X164163828Y-103092431D02*
X163554228Y-103295631D01*
X164163828Y-103498831D01*
X163554228Y-103702031D02*
X163960628Y-103702031D01*
X164163828Y-103702031D02*
X164134800Y-103673002D01*
X164105771Y-103702031D01*
X164134800Y-103731060D01*
X164163828Y-103702031D01*
X164105771Y-103702031D01*
X163960628Y-103992317D02*
X163554228Y-103992317D01*
X163902571Y-103992317D02*
X163931600Y-104021345D01*
X163960628Y-104079402D01*
X163960628Y-104166488D01*
X163931600Y-104224545D01*
X163873542Y-104253574D01*
X163554228Y-104253574D01*
X166326457Y-111907682D02*
X166326457Y-112372140D01*
X166094228Y-112139911D02*
X166558685Y-112139911D01*
X166703828Y-112604368D02*
X166703828Y-112981740D01*
X166471600Y-112778540D01*
X166471600Y-112865625D01*
X166442571Y-112923682D01*
X166413542Y-112952711D01*
X166355485Y-112981740D01*
X166210342Y-112981740D01*
X166152285Y-112952711D01*
X166123257Y-112923682D01*
X166094228Y-112865625D01*
X166094228Y-112691454D01*
X166123257Y-112633397D01*
X166152285Y-112604368D01*
X166703828Y-113155911D02*
X166094228Y-113359111D01*
X166703828Y-113562311D01*
X166703828Y-113707454D02*
X166703828Y-114084825D01*
X166471600Y-113881625D01*
X166471600Y-113968711D01*
X166442571Y-114026768D01*
X166413542Y-114055797D01*
X166355485Y-114084825D01*
X166210342Y-114084825D01*
X166152285Y-114055797D01*
X166123257Y-114026768D01*
X166094228Y-113968711D01*
X166094228Y-113794540D01*
X166123257Y-113736482D01*
X166152285Y-113707454D01*
X166326457Y-101844202D02*
X166326457Y-102308660D01*
X166094228Y-102076431D02*
X166558685Y-102076431D01*
X166703828Y-102540888D02*
X166703828Y-102918260D01*
X166471600Y-102715060D01*
X166471600Y-102802145D01*
X166442571Y-102860202D01*
X166413542Y-102889231D01*
X166355485Y-102918260D01*
X166210342Y-102918260D01*
X166152285Y-102889231D01*
X166123257Y-102860202D01*
X166094228Y-102802145D01*
X166094228Y-102627974D01*
X166123257Y-102569917D01*
X166152285Y-102540888D01*
X166703828Y-103092431D02*
X166094228Y-103295631D01*
X166703828Y-103498831D01*
X166703828Y-103643974D02*
X166703828Y-104021345D01*
X166471600Y-103818145D01*
X166471600Y-103905231D01*
X166442571Y-103963288D01*
X166413542Y-103992317D01*
X166355485Y-104021345D01*
X166210342Y-104021345D01*
X166152285Y-103992317D01*
X166123257Y-103963288D01*
X166094228Y-103905231D01*
X166094228Y-103731060D01*
X166123257Y-103673002D01*
X166152285Y-103643974D01*
X113494457Y-117525800D02*
X113552514Y-117554828D01*
X113639600Y-117554828D01*
X113726685Y-117525800D01*
X113784742Y-117467742D01*
X113813771Y-117409685D01*
X113842800Y-117293571D01*
X113842800Y-117206485D01*
X113813771Y-117090371D01*
X113784742Y-117032314D01*
X113726685Y-116974257D01*
X113639600Y-116945228D01*
X113581542Y-116945228D01*
X113494457Y-116974257D01*
X113465428Y-117003285D01*
X113465428Y-117206485D01*
X113581542Y-117206485D01*
X113204171Y-116945228D02*
X113204171Y-117554828D01*
X112855828Y-116945228D01*
X112855828Y-117554828D01*
X112565542Y-116945228D02*
X112565542Y-117554828D01*
X112420400Y-117554828D01*
X112333314Y-117525800D01*
X112275257Y-117467742D01*
X112246228Y-117409685D01*
X112217200Y-117293571D01*
X112217200Y-117206485D01*
X112246228Y-117090371D01*
X112275257Y-117032314D01*
X112333314Y-116974257D01*
X112420400Y-116945228D01*
X112565542Y-116945228D01*
X112565542Y-98374200D02*
X112507485Y-98345171D01*
X112420400Y-98345171D01*
X112333314Y-98374200D01*
X112275257Y-98432257D01*
X112246228Y-98490314D01*
X112217200Y-98606428D01*
X112217200Y-98693514D01*
X112246228Y-98809628D01*
X112275257Y-98867685D01*
X112333314Y-98925742D01*
X112420400Y-98954771D01*
X112478457Y-98954771D01*
X112565542Y-98925742D01*
X112594571Y-98896714D01*
X112594571Y-98693514D01*
X112478457Y-98693514D01*
X112855828Y-98954771D02*
X112855828Y-98345171D01*
X113204171Y-98954771D01*
X113204171Y-98345171D01*
X113494457Y-98954771D02*
X113494457Y-98345171D01*
X113639600Y-98345171D01*
X113726685Y-98374200D01*
X113784742Y-98432257D01*
X113813771Y-98490314D01*
X113842800Y-98606428D01*
X113842800Y-98693514D01*
X113813771Y-98809628D01*
X113784742Y-98867685D01*
X113726685Y-98925742D01*
X113639600Y-98954771D01*
X113494457Y-98954771D01*
D11*
X147494095Y-108095142D02*
X145945904Y-108095142D01*
X146720000Y-108869238D02*
X146720000Y-107321047D01*
X133454095Y-108095142D02*
X131905904Y-108095142D01*
D10*
X116821857Y-113755714D02*
X116870238Y-113804095D01*
X116918619Y-113949238D01*
X116918619Y-114046000D01*
X116870238Y-114191142D01*
X116773476Y-114287904D01*
X116676714Y-114336285D01*
X116483190Y-114384666D01*
X116338047Y-114384666D01*
X116144523Y-114336285D01*
X116047761Y-114287904D01*
X115951000Y-114191142D01*
X115902619Y-114046000D01*
X115902619Y-113949238D01*
X115951000Y-113804095D01*
X115999380Y-113755714D01*
X116918619Y-113320285D02*
X115902619Y-113320285D01*
X116386428Y-113320285D02*
X116386428Y-112739714D01*
X116918619Y-112739714D02*
X115902619Y-112739714D01*
X115951000Y-111723714D02*
X115902619Y-111820476D01*
X115902619Y-111965619D01*
X115951000Y-112110761D01*
X116047761Y-112207523D01*
X116144523Y-112255904D01*
X116338047Y-112304285D01*
X116483190Y-112304285D01*
X116676714Y-112255904D01*
X116773476Y-112207523D01*
X116870238Y-112110761D01*
X116918619Y-111965619D01*
X116918619Y-111868857D01*
X116870238Y-111723714D01*
X116821857Y-111675333D01*
X116483190Y-111675333D01*
X116483190Y-111868857D01*
X116918619Y-104224666D02*
X115902619Y-104224666D01*
X115902619Y-103837619D01*
X115951000Y-103740857D01*
X115999380Y-103692476D01*
X116096142Y-103644095D01*
X116241285Y-103644095D01*
X116338047Y-103692476D01*
X116386428Y-103740857D01*
X116434809Y-103837619D01*
X116434809Y-104224666D01*
X115902619Y-103305428D02*
X116918619Y-103063523D01*
X116192904Y-102870000D01*
X116918619Y-102676476D01*
X115902619Y-102434571D01*
X116918619Y-101466952D02*
X116434809Y-101805619D01*
X116918619Y-102047523D02*
X115902619Y-102047523D01*
X115902619Y-101660476D01*
X115951000Y-101563714D01*
X115999380Y-101515333D01*
X116096142Y-101466952D01*
X116241285Y-101466952D01*
X116338047Y-101515333D01*
X116386428Y-101563714D01*
X116434809Y-101660476D01*
X116434809Y-102047523D01*
D12*
X129700000Y-110450000D02*
X130700000Y-110450000D01*
X129700000Y-105450000D02*
X130700000Y-105450000D01*
X147700000Y-110450000D02*
X147700000Y-111950000D01*
X148700000Y-110450000D02*
X147700000Y-110450000D01*
X147700000Y-105450000D02*
X148700000Y-105450000D01*
X147700000Y-103950000D02*
X147700000Y-105450000D01*
X148700000Y-103950000D02*
X148700000Y-111950000D01*
X130700000Y-111950000D02*
X130700000Y-103950000D01*
X148700000Y-103950000D02*
X130700000Y-103950000D01*
X148700000Y-111950000D02*
X130700000Y-111950000D01*
X149700000Y-105450000D02*
X148700000Y-105450000D01*
X149700000Y-110450000D02*
X148700000Y-110450000D01*
X121700000Y-111450000D02*
X119700000Y-111450000D01*
X121700000Y-104450000D02*
X119700000Y-104450000D01*
X159700000Y-104450000D02*
X157700000Y-104450000D01*
X158700000Y-105450000D02*
X158700000Y-103450000D01*
X158700000Y-110450000D02*
X158700000Y-112450000D01*
X159700000Y-111450000D02*
X157700000Y-111450000D01*
X117700000Y-117450000D02*
X161700000Y-117450000D01*
X117700000Y-98450000D02*
X117700000Y-117450000D01*
X161700000Y-98450000D02*
X117700000Y-98450000D01*
X161700000Y-117450000D02*
X161700000Y-98450000D01*
X149700000Y-105450000D02*
G75*
G02*
X149700000Y-110450000I2100000J-2500000D01*
G01*
X129700000Y-110450000D02*
G75*
G02*
X129700000Y-105450000I-2100000J2500000D01*
G01*
D13*
X113260000Y-113030000D02*
G75*
G03*
X113260000Y-113030000I-50000J0D01*
G01*
X113260000Y-102870000D02*
G75*
G03*
X113260000Y-102870000I-50000J0D01*
G01*
D14*
X166445100Y-109650000D02*
X166895100Y-109650000D01*
X166445100Y-109650000D02*
X166445100Y-109200000D01*
X166995100Y-104050000D02*
X166995100Y-104500000D01*
X168845100Y-104050000D02*
X166995100Y-104050000D01*
X171395100Y-111850000D02*
X171145100Y-111850000D01*
X171395100Y-104050000D02*
X171145100Y-104050000D01*
X168845100Y-111850000D02*
X166995100Y-111850000D01*
X166995100Y-111850000D02*
X166995100Y-111400000D01*
X114930000Y-111150000D02*
X114930000Y-112550000D01*
X114930000Y-112550000D02*
X111130000Y-112550000D01*
X111130000Y-103350000D02*
X114930000Y-103350000D01*
X114930000Y-103350000D02*
X114930000Y-104750000D01*
X114930000Y-109750000D02*
X114930000Y-108650000D01*
X114930000Y-108650000D02*
X114930000Y-108650000D01*
X114930000Y-107250000D02*
X114930000Y-106150000D01*
X114930000Y-106150000D02*
X114930000Y-106150000D01*
X111130000Y-112550000D02*
X111130000Y-110850000D01*
X111130000Y-110850000D02*
X110830000Y-110850000D01*
X110830000Y-110850000D02*
X110830000Y-110050000D01*
X110830000Y-110050000D02*
X111130000Y-110050000D01*
X111130000Y-110050000D02*
X111130000Y-108350000D01*
X111130000Y-108350000D02*
X110830000Y-108350000D01*
X110830000Y-108350000D02*
X110830000Y-107550000D01*
X110830000Y-107550000D02*
X111130000Y-107550000D01*
X111130000Y-107550000D02*
X111130000Y-105850000D01*
X111130000Y-105850000D02*
X110830000Y-105850000D01*
X110830000Y-105850000D02*
X110830000Y-105050000D01*
X110830000Y-105050000D02*
X111130000Y-105050000D01*
X111130000Y-105050000D02*
X111130000Y-103350000D01*
X111130000Y-103350000D02*
X111130000Y-103350000D01*
X109230000Y-105950000D02*
X109730000Y-105950000D01*
X109730000Y-105950000D02*
X109730000Y-105950000D01*
X109230000Y-105950000D02*
X109230000Y-106450000D01*
X109230000Y-106450000D02*
X109230000Y-106450000D01*
X109230000Y-109950000D02*
X109230000Y-109450000D01*
X109230000Y-109450000D02*
X109230000Y-109450000D01*
X109230000Y-109950000D02*
X109730000Y-109950000D01*
X109730000Y-109950000D02*
X109730000Y-109950000D01*
X110030000Y-109950000D02*
X110530000Y-109950000D01*
X110530000Y-109950000D02*
X110530000Y-109950000D01*
X110030000Y-105950000D02*
X110530000Y-105950000D01*
X110530000Y-105950000D02*
X110530000Y-105950000D01*
X109230000Y-106750000D02*
X109230000Y-107250000D01*
X109230000Y-107250000D02*
X109230000Y-107250000D01*
X109230000Y-109150000D02*
X109230000Y-108650000D01*
X109230000Y-108650000D02*
X109230000Y-108650000D01*
X109230000Y-108350000D02*
X109230000Y-107550000D01*
X109230000Y-107550000D02*
X109230000Y-107550000D01*
D12*
X138914285Y-107878571D02*
X139057142Y-107926190D01*
X139104761Y-107973809D01*
X139152380Y-108069047D01*
X139152380Y-108211904D01*
X139104761Y-108307142D01*
X139057142Y-108354761D01*
X138961904Y-108402380D01*
X138580952Y-108402380D01*
X138580952Y-107402380D01*
X138914285Y-107402380D01*
X139009523Y-107450000D01*
X139057142Y-107497619D01*
X139104761Y-107592857D01*
X139104761Y-107688095D01*
X139057142Y-107783333D01*
X139009523Y-107830952D01*
X138914285Y-107878571D01*
X138580952Y-107878571D01*
X139438095Y-107402380D02*
X140009523Y-107402380D01*
X139723809Y-108402380D02*
X139723809Y-107402380D01*
X140866666Y-108402380D02*
X140295238Y-108402380D01*
X140580952Y-108402380D02*
X140580952Y-107402380D01*
X140485714Y-107545238D01*
X140390476Y-107640476D01*
X140295238Y-107688095D01*
X166192719Y-107616666D02*
X165478433Y-107616666D01*
X165335576Y-107569047D01*
X165240338Y-107473809D01*
X165192719Y-107330952D01*
X165192719Y-107235714D01*
X166192719Y-107997619D02*
X166192719Y-108664285D01*
X165192719Y-108235714D01*
X113434761Y-109283333D02*
X113482380Y-109140476D01*
X113482380Y-108902380D01*
X113434761Y-108807142D01*
X113387142Y-108759523D01*
X113291904Y-108711904D01*
X113196666Y-108711904D01*
X113101428Y-108759523D01*
X113053809Y-108807142D01*
X113006190Y-108902380D01*
X112958571Y-109092857D01*
X112910952Y-109188095D01*
X112863333Y-109235714D01*
X112768095Y-109283333D01*
X112672857Y-109283333D01*
X112577619Y-109235714D01*
X112530000Y-109188095D01*
X112482380Y-109092857D01*
X112482380Y-108854761D01*
X112530000Y-108711904D01*
X112482380Y-108378571D02*
X113482380Y-108140476D01*
X112768095Y-107950000D01*
X113482380Y-107759523D01*
X112482380Y-107521428D01*
X113482380Y-106616666D02*
X113482380Y-107188095D01*
X113482380Y-106902380D02*
X112482380Y-106902380D01*
X112625238Y-106997619D01*
X112720476Y-107092857D01*
X112768095Y-107188095D01*
M02*
